<?xml version="1.0" encoding="utf-8"?>
<!-- Generator: Adobe Illustrator 24.0.2, SVG Export Plug-In . SVG Version: 6.00 Build 0)  -->
<svg version="1.1" id="Layer_1" xmlns="http://www.w3.org/2000/svg" xmlns:xlink="http://www.w3.org/1999/xlink" x="0px" y="0px"
	 viewBox="0 0 708 708" style="enable-background:new 0 0 708 708;" xml:space="preserve">
<style type="text/css">
	.st0{fill-rule:evenodd;clip-rule:evenodd;fill:#15181E;}
	.st1{opacity:0.5;fill-rule:evenodd;clip-rule:evenodd;fill:#15181E;enable-background:new    ;}
	.st2{fill:#22252B;}
	.st3{fill:#101319;}
	.st4{opacity:0.5;fill:#41454D;enable-background:new    ;}
	.st5{fill:#7986A3;}
	
		.st6{opacity:0.5;fill:#4D5F83;fill-opacity:0.15;stroke:#4D5F83;stroke-width:1.6433;stroke-miterlimit:16;enable-background:new    ;}
	.st7{opacity:0.15;}
	.st8{fill:#C4C4C4;filter:url(#Adobe_OpacityMaskFilter);}
	.st9{mask:url(#mask0_2_);}
	.st10{fill:#4D5F83;}
	.st11{fill:#E5EBEF;}
	.st12{fill:#C4C4C4;filter:url(#Adobe_OpacityMaskFilter_1_);}
	.st13{mask:url(#mask1_2_);}
	.st14{fill:#24E8CC;}
	.st15{fill:#F44348;}
</style>
<path class="st0" d="M346,13h94v76h4V79h33v9h50h27v28v36h109v27v3v24v97h-39v24h13h14h35v33h-35v-11h-14v11H534v4h17v141h-38h-17
	h-9v29h11v55h-43v14H337v19v55h-27.5v4L293,701h-30v-79h-14h-3h-30V448h-76V344h9v-2h-5v-45v-37h62h16v-4h-19H87v-43h-3v10H41v-77
	h43v10h3v-20h134v-4h-9v-16V89h57h77V13z M460,534v-29v-11h-83v-37v-40.5L366.5,406H310v-25h-2v21h-40v-21h-15h-4v138h71v-5h58v20
	H460z M425,457h71v-93h17v-4h-7v-15v-18v-15h29v15h62v-24h-39h-10v-16h-5v11h-61v9h10v43h-43v-16h-24V457z M394,307h55h9h7v-9h-11
	v-43h47v-3h-16v-42h-8h-33v-93h-4v15h-30v2h10v30h-42l-10,10v8l10,10h21v39h-26v29h21V307z M336,231v29h-26v103h-2v-19h-55v14h-4h-1
	h-24v-14h-53v-2h6v-45h29v16h58v-53h-20v-4h5h10v-22h16v-28h3v18v17h39l17-17v-11h2V231z M334,189h2v-8h10v-17v-30h41v-2h-41h-57
	v-16h-20v16h-25v4h5v29h26v23h3v-11h56V189z M548,250v16h-5v-11h-24v-3h15v-37l-11-15.7V183h-7v-2h11v-2h27h40v3h-36v68H548z
	 M503,181h-12v-29h36v-36h-50v67h26V181z"/>
<path class="st1" d="M174,256h-16v4h16V256z M198,256h-16v4h16V256z"/>
<rect x="83" y="167" class="st2" width="4" height="34"/>
<rect x="140" y="136" class="st2" width="10" height="11"/>
<rect x="311" y="292" class="st2" width="10" height="11"/>
<rect x="326" y="304" class="st2" width="10" height="11"/>
<rect x="346" y="395" class="st2" width="11" height="11"/>
<rect x="377" y="457" class="st2" width="11" height="11"/>
<rect x="425" y="457" class="st2" width="11" height="11"/>
<rect x="435" y="588" class="st2" width="20" height="15"/>
<rect x="405" y="307" class="st2" width="11" height="11"/>
<rect x="466" y="172" class="st2" width="11" height="11"/>
<rect x="499" y="183" class="st2" width="24" height="11"/>
<rect x="515" y="194" class="st2" width="8" height="6"/>
<rect x="574" y="204" class="st2" width="11" height="31"/>
<rect x="616" y="209" class="st2" width="11" height="10"/>
<rect x="625" y="212" class="st2" width="11" height="10"/>
<rect x="651" y="180" class="st2" width="12" height="11"/>
<rect x="651" y="234" class="st2" width="12" height="11"/>
<rect x="653" y="282" class="st2" width="10" height="21"/>
<rect x="642" y="282" class="st2" width="10" height="21"/>
<rect x="651" y="168" class="st2" width="12" height="11"/>
<rect x="140" y="384" class="st2" width="21" height="22"/>
<rect x="166" y="221" class="st2" width="10" height="11"/>
<path class="st2" d="M192,185c0,0,0.7-2.2,1.5-3.5c1-1.6,3.5-3.5,3.5-3.5s2.5,1.9,3.5,3.5c0.8,1.3,1.5,3.5,1.5,3.5v29h-10V185z"/>
<rect x="124" y="184" class="st2" width="10" height="11"/>
<path class="st2" d="M124,195l8-7l5,5v11h-10v-5.5L124,195z"/>
<path class="st2" d="M252,604h-8l-5,5v8l5,5h8l5-5v-8L252,604z"/>
<circle class="st2" cx="298.5" cy="560.5" r="7.5"/>
<circle class="st2" cx="351" cy="368" r="5"/>
<rect x="156" y="232" class="st3" width="45" height="3"/>
<rect x="176" y="158" class="st3" width="3" height="77"/>
<rect x="179" y="158" class="st3" width="22" height="3"/>
<path class="st3" d="M248,181h15v1h-15V181z"/>
<path class="st3" d="M248,181h1v37v1h-1V181z"/>
<path class="st3" d="M249,218h26v1h-26V218z"/>
<rect x="87" y="234" class="st3" width="69" height="1"/>
<rect x="289" y="116" class="st3" width="58" height="1"/>
<rect x="310" y="302" class="st3" width="31" height="2"/>
<rect x="363" y="302" class="st3" width="31" height="2"/>
<rect x="404" y="307" class="st3" width="1" height="52"/>
<rect x="404" y="385" class="st3" width="1" height="72"/>
<rect x="378" y="359" class="st3" width="27" height="1"/>
<rect x="378" y="384" class="st3" width="27" height="1"/>
<rect x="377" y="456" class="st3" width="27" height="1"/>
<rect x="487" y="480" class="st3" width="2" height="25"/>
<rect x="495" y="221" class="st3" width="1" height="31"/>
<rect x="522" y="221" class="st3" width="1" height="31"/>
<rect x="594" y="179" class="st3" width="69" height="1"/>
<rect x="193" y="195" class="st4" width="4" height="4"/>
<rect x="275" y="188" class="st4" width="2" height="18"/>
<rect x="545" y="266" class="st4" width="2" height="21"/>
<rect x="548" y="291" class="st4" width="4" height="4"/>
<g>
	<path class="st5" d="M390.6,476.7v-6.9h1.4l2,4.5h0l2-4.5h1.4v6.9H396v-4.2h0l-2,4.2h-0.2l-2-4.2h0v4.2H390.6z M398.8,476.7v-5.2
		h1.3v5.2H398.8z M398.8,470.8v-1.2h1.3v1.2H398.8z M404.7,474.6v-1c0-0.3-0.1-0.6-0.3-0.8c-0.2-0.2-0.5-0.3-0.8-0.3
		c-0.4,0-0.7,0.1-0.9,0.4c-0.2,0.3-0.3,0.7-0.3,1.2c0,0.5,0.1,0.9,0.3,1.2c0.2,0.3,0.5,0.4,0.9,0.4c0.3,0,0.6-0.1,0.8-0.3
		C404.6,475.2,404.7,474.9,404.7,474.6z M404.8,476.7v-0.5h0c0,0-0.1,0.1-0.1,0.2c-0.1,0.1-0.2,0.2-0.5,0.3
		c-0.2,0.1-0.5,0.2-0.8,0.2c-0.7,0-1.2-0.2-1.7-0.7c-0.4-0.5-0.6-1.2-0.6-2c0-0.8,0.2-1.5,0.7-2c0.4-0.5,1-0.8,1.6-0.8
		c0.3,0,0.5,0.1,0.7,0.2c0.2,0.1,0.4,0.2,0.5,0.3l0.1,0.2h0v-2.5h1.3v7.2H404.8z M411.3,476.7v-5.7h-2v-1.2h5.4v1.2h-2v5.7H411.3z
		 M415.9,475.3c0.2,0.3,0.5,0.4,0.9,0.4s0.7-0.1,0.9-0.4c0.2-0.3,0.3-0.7,0.3-1.2s-0.1-0.9-0.3-1.2c-0.2-0.3-0.5-0.4-0.9-0.4
		c-0.4,0-0.7,0.1-0.9,0.4c-0.2,0.3-0.3,0.7-0.3,1.2C415.5,474.7,415.6,475,415.9,475.3z M418.5,476.2c-0.5,0.5-1,0.7-1.8,0.7
		s-1.3-0.2-1.8-0.7c-0.5-0.5-0.7-1.2-0.7-2c0-0.9,0.2-1.5,0.7-2c0.5-0.5,1.1-0.7,1.7-0.7c0.7,0,1.3,0.2,1.7,0.7
		c0.5,0.5,0.7,1.2,0.7,2C419.2,475,418.9,475.7,418.5,476.2z M421.5,473.6v1.1c0,0.3,0.1,0.6,0.3,0.8c0.2,0.2,0.5,0.3,0.8,0.3
		c0.4,0,0.7-0.1,0.9-0.4c0.2-0.3,0.4-0.7,0.4-1.2c0-0.5-0.1-0.9-0.4-1.2c-0.2-0.3-0.5-0.4-0.9-0.4c-0.3,0-0.6,0.1-0.8,0.3
		C421.6,473,421.5,473.3,421.5,473.6z M420.2,479v-7.4h1.2v0.5h0c0,0,0,0,0-0.1c0,0,0.1-0.1,0.1-0.2c0.1-0.1,0.2-0.1,0.3-0.2
		c0.1-0.1,0.2-0.1,0.4-0.2c0.2,0,0.4-0.1,0.5-0.1c0.6,0,1.2,0.2,1.6,0.8c0.5,0.5,0.7,1.2,0.7,2c0,0.9-0.2,1.5-0.7,2
		c-0.4,0.5-1,0.7-1.6,0.7c-0.2,0-0.4,0-0.5-0.1c-0.2,0-0.3-0.1-0.4-0.2c-0.1-0.1-0.2-0.1-0.3-0.2c-0.1-0.1-0.1-0.1-0.2-0.2l0-0.1h0
		v2.7H420.2z"/>
	<path class="st5" d="M513.2,429.7l-0.4-1.1h-2.6l-0.4,1.1h-1.3l2.5-6.9h1.1l2.5,6.9H513.2z M511.5,424.8l-0.9,2.7h1.9L511.5,424.8
		L511.5,424.8z M517.9,429.7v-6.9h1.3v5.7h2.9v1.2H517.9z M524.2,428.3c0.2,0.3,0.5,0.4,0.9,0.4c0.4,0,0.7-0.1,0.9-0.4
		c0.2-0.3,0.3-0.7,0.3-1.2s-0.1-0.9-0.3-1.2c-0.2-0.3-0.5-0.4-0.9-0.4c-0.4,0-0.7,0.1-0.9,0.4c-0.2,0.3-0.3,0.7-0.3,1.2
		C523.8,427.7,523.9,428,524.2,428.3z M526.8,429.2c-0.5,0.5-1,0.7-1.8,0.7c-0.7,0-1.3-0.2-1.8-0.7c-0.5-0.5-0.7-1.2-0.7-2
		c0-0.9,0.2-1.5,0.7-2c0.5-0.5,1.1-0.7,1.7-0.7c0.7,0,1.3,0.2,1.7,0.7c0.5,0.5,0.7,1.2,0.7,2C527.5,428,527.2,428.7,526.8,429.2z
		 M529.8,426.6v1c0,0.3,0.1,0.6,0.3,0.8c0.2,0.2,0.5,0.3,0.8,0.3c0.4,0,0.7-0.1,0.9-0.4c0.2-0.3,0.3-0.7,0.3-1.2
		c0-0.5-0.1-0.9-0.3-1.2c-0.2-0.3-0.5-0.4-0.9-0.4c-0.3,0-0.6,0.1-0.8,0.3C529.9,426.1,529.8,426.3,529.8,426.6z M528.5,429.7v-7.2
		h1.3v2.5h0c0,0,0,0,0-0.1c0,0,0.1-0.1,0.1-0.2c0.1-0.1,0.2-0.1,0.3-0.2c0.1-0.1,0.2-0.1,0.4-0.2c0.2,0,0.3-0.1,0.5-0.1
		c0.6,0,1.2,0.3,1.6,0.8c0.4,0.5,0.6,1.2,0.6,2c0,0.8-0.2,1.5-0.6,2c-0.4,0.5-1,0.7-1.6,0.7c-0.3,0-0.5-0.1-0.8-0.2
		c-0.2-0.1-0.4-0.2-0.5-0.3l-0.1-0.2h0v0.5H528.5z M535.7,426.6v1c0,0.3,0.1,0.6,0.3,0.8c0.2,0.2,0.5,0.3,0.8,0.3
		c0.4,0,0.7-0.1,0.9-0.4c0.2-0.3,0.3-0.7,0.3-1.2c0-0.5-0.1-0.9-0.3-1.2c-0.2-0.3-0.5-0.4-0.9-0.4c-0.3,0-0.6,0.1-0.8,0.3
		C535.8,426.1,535.7,426.3,535.7,426.6z M534.4,429.7v-7.2h1.3v2.5h0c0,0,0,0,0-0.1c0,0,0.1-0.1,0.1-0.2c0.1-0.1,0.2-0.1,0.3-0.2
		c0.1-0.1,0.2-0.1,0.4-0.2c0.2,0,0.3-0.1,0.5-0.1c0.6,0,1.2,0.3,1.6,0.8c0.4,0.5,0.6,1.2,0.6,2c0,0.8-0.2,1.5-0.6,2
		c-0.4,0.5-1,0.7-1.6,0.7c-0.3,0-0.5-0.1-0.8-0.2c-0.2-0.1-0.4-0.2-0.5-0.3l-0.1-0.2h0v0.5H534.4z M540.5,432l1-2.5l-2.1-5h1.3
		l1.4,3.5h0l1.3-3.5h1.3l-3,7.4H540.5z"/>
	<path class="st5" d="M555,343.7l-0.4-1.1H552l-0.4,1.1h-1.3l2.5-6.9h1.1l2.5,6.9H555z M553.3,338.8l-0.9,2.7h1.9L553.3,338.8
		L553.3,338.8z M559.7,343.7v-6.9h1.4l2,4.5h0l2-4.5h1.4v6.9h-1.3v-4.2h0l-2,4.2H563l-2-4.2h0v4.2H559.7z M570.9,343.7v-0.5h0
		c0,0,0,0,0,0.1c0,0-0.1,0.1-0.1,0.1c-0.1,0.1-0.2,0.1-0.3,0.2c-0.1,0.1-0.2,0.1-0.4,0.2c-0.2,0-0.4,0.1-0.6,0.1
		c-0.6,0-1.1-0.1-1.4-0.4c-0.3-0.3-0.5-0.7-0.5-1.1c0-0.5,0.1-0.8,0.4-1c0.3-0.2,0.7-0.4,1.4-0.6c0.6-0.1,1-0.3,1.1-0.3
		c0.2-0.1,0.2-0.2,0.2-0.4s-0.1-0.3-0.2-0.4c-0.1-0.1-0.4-0.2-0.7-0.2c-0.3,0-0.6,0.1-0.7,0.2c-0.2,0.2-0.3,0.4-0.4,0.6l-1.1-0.4
		c0.1-0.4,0.4-0.8,0.7-1.1c0.4-0.3,0.8-0.4,1.4-0.4c0.6,0,1.2,0.2,1.6,0.5c0.4,0.3,0.6,0.9,0.6,1.6v3.3H570.9z M569.6,341.6
		c-0.3,0.1-0.5,0.2-0.7,0.3c-0.1,0.1-0.1,0.2-0.1,0.4c0,0.4,0.3,0.5,0.8,0.5c0.4,0,0.7-0.1,0.9-0.2c0.2-0.2,0.3-0.3,0.3-0.6v-0.9h0
		c0,0.1-0.1,0.1-0.1,0.1c0,0-0.1,0.1-0.3,0.1C570.2,341.5,569.9,341.5,569.6,341.6z M573.3,343.7v-5.2h1.3v5.2H573.3z M573.3,337.8
		v-1.2h1.3v1.2H573.3z M575.9,343.7v-5.2h1.2v0.5h0c0.1-0.2,0.3-0.3,0.6-0.5s0.5-0.2,0.8-0.2c0.6,0,1,0.2,1.4,0.5
		c0.3,0.3,0.5,0.8,0.5,1.4v3.4h-1.3v-3.1c0-0.4-0.1-0.6-0.2-0.8c-0.1-0.2-0.4-0.3-0.7-0.3c-0.3,0-0.6,0.1-0.7,0.3
		c-0.2,0.2-0.3,0.4-0.3,0.7v3.2H575.9z"/>
	<path class="st5" d="M605.5,166.7l-0.4-1.1h-2.6l-0.4,1.1h-1.3l2.5-6.9h1.1l2.5,6.9H605.5z M603.8,161.8l-0.9,2.7h1.9L603.8,161.8
		L603.8,161.8z M610.2,166.7v-6.9h2.8c0.7,0,1.3,0.2,1.7,0.6c0.4,0.4,0.7,0.9,0.7,1.6c0,0.5-0.1,0.9-0.4,1.3
		c-0.3,0.3-0.6,0.6-1.1,0.7l1.5,2.7h-1.4l-1.4-2.6h-1v2.6H610.2z M611.5,163h1.4c0.8,0,1.1-0.3,1.1-1c0-0.7-0.4-1-1.1-1h-1.4V163z
		 M619.3,166.7v-0.5h0c0,0,0,0,0,0.1c0,0-0.1,0.1-0.1,0.1c-0.1,0.1-0.2,0.1-0.3,0.2c-0.1,0.1-0.2,0.1-0.4,0.2
		c-0.2,0-0.4,0.1-0.6,0.1c-0.6,0-1.1-0.1-1.4-0.4c-0.3-0.3-0.5-0.7-0.5-1.1c0-0.5,0.1-0.8,0.4-1c0.3-0.2,0.7-0.4,1.4-0.6
		c0.6-0.1,1-0.3,1.1-0.3c0.2-0.1,0.2-0.2,0.2-0.4s-0.1-0.3-0.2-0.4c-0.1-0.1-0.4-0.2-0.7-0.2c-0.3,0-0.6,0.1-0.7,0.2
		c-0.2,0.2-0.3,0.4-0.4,0.6l-1.1-0.4c0.1-0.4,0.4-0.8,0.7-1.1c0.4-0.3,0.8-0.4,1.4-0.4c0.6,0,1.2,0.2,1.6,0.5
		c0.4,0.3,0.6,0.9,0.6,1.6v3.3H619.3z M618.1,164.6c-0.3,0.1-0.5,0.2-0.7,0.3c-0.1,0.1-0.1,0.2-0.1,0.4c0,0.4,0.3,0.5,0.8,0.5
		c0.4,0,0.7-0.1,0.9-0.2c0.2-0.2,0.3-0.3,0.3-0.6v-0.9h0c0,0.1-0.1,0.1-0.1,0.1c0,0-0.1,0.1-0.3,0.1
		C618.6,164.5,618.4,164.5,618.1,164.6z M622,166.7v-4.1h-0.8v-1.1h0.8v-0.7c0-0.4,0.1-0.8,0.3-0.9c0.2-0.2,0.6-0.3,1-0.3h1v1.1
		h-0.8c-0.2,0-0.3,0-0.3,0.1c-0.1,0.1-0.1,0.2-0.1,0.3v0.4h1.3v1.1h-1.3v4.1H622z M625.5,164.9v-2.3h-0.8v-1.1h0.8v-1.3h1.2v1.3h1.3
		v1.1h-1.3v2.2c0,0.3,0,0.5,0.1,0.6s0.3,0.2,0.6,0.2h0.4v1.2h-0.5c-0.7,0-1.2-0.1-1.5-0.4C625.6,166,625.5,165.5,625.5,164.9z
		 M632.4,164.9l0.9,0.8c-0.5,0.8-1.3,1.2-2.2,1.2c-0.7,0-1.3-0.2-1.8-0.7c-0.5-0.5-0.7-1.2-0.7-2c0-0.8,0.2-1.5,0.7-2
		c0.5-0.5,1-0.8,1.7-0.8c0.7,0,1.3,0.3,1.7,0.8c0.5,0.5,0.7,1.2,0.7,2v0.4H630c0,0.4,0.1,0.7,0.3,0.9c0.2,0.2,0.5,0.3,0.8,0.3
		c0.3,0,0.5-0.1,0.7-0.2C632.1,165.4,632.3,165.2,632.4,164.9z M630,163.6h2.3c0-0.3-0.1-0.6-0.3-0.8c-0.2-0.2-0.5-0.3-0.8-0.3
		c-0.3,0-0.6,0.1-0.8,0.3C630.1,163,630,163.3,630,163.6z M634.5,166.7v-5.2h1.2v0.6h0c0.1-0.2,0.2-0.4,0.4-0.5
		c0.2-0.1,0.4-0.2,0.6-0.2c0.2,0,0.3,0,0.5,0.1l-0.2,1.2c-0.1-0.1-0.3-0.1-0.4-0.1c-0.6,0-0.9,0.4-0.9,1.2v2.9H634.5z M637.8,165
		l1.2-0.3c0.1,0.7,0.5,1.1,1.2,1.1c0.3,0,0.6,0,0.7-0.1c0.2-0.1,0.3-0.2,0.3-0.4c0-0.2-0.1-0.3-0.2-0.3c-0.1-0.1-0.4-0.2-0.9-0.3
		c-0.1,0-0.2-0.1-0.3-0.1c-0.6-0.2-1-0.4-1.3-0.6c-0.3-0.2-0.4-0.5-0.4-0.9c0-0.4,0.2-0.8,0.5-1.1c0.4-0.3,0.8-0.5,1.4-0.5
		c1.2,0,1.9,0.5,2.2,1.5l-1.1,0.3c-0.1-0.2-0.2-0.4-0.4-0.6c-0.2-0.1-0.4-0.2-0.7-0.2c-0.2,0-0.5,0.1-0.6,0.1
		c-0.1,0.1-0.2,0.2-0.2,0.3c0,0.1,0.1,0.3,0.3,0.3c0.2,0.1,0.6,0.2,1.3,0.4c0.6,0.2,1,0.4,1.2,0.6c0.2,0.2,0.3,0.6,0.3,1
		c0,0.4-0.2,0.8-0.6,1.1c-0.4,0.3-0.9,0.5-1.6,0.5c-0.7,0-1.3-0.2-1.7-0.5C638.1,166,637.8,165.5,637.8,165z"/>
	<path class="st5" d="M494.6,166.7l-0.4-1.1h-2.6l-0.4,1.1h-1.3l2.5-6.9h1.1l2.5,6.9H494.6z M492.9,161.8l-0.9,2.7h1.9L492.9,161.8
		L492.9,161.8z M500.2,166.7l-1.3-6.9h1.4l0.9,4.7h0l1.6-4.7h0.7l1.6,4.7h0l0.9-4.7h1.3l-1.3,6.9h-1.4l-1.4-4.3H503l-1.4,4.3H500.2z
		 M508.2,166.7v-5.2h1.3v5.2H508.2z M508.2,160.8v-1.2h1.3v1.2H508.2z M510.8,166.7v-5.2h1.2v0.5h0c0.1-0.2,0.3-0.3,0.6-0.5
		s0.5-0.2,0.8-0.2c0.6,0,1,0.2,1.4,0.5c0.3,0.3,0.5,0.8,0.5,1.4v3.4H514v-3.1c0-0.4-0.1-0.6-0.2-0.8c-0.1-0.2-0.4-0.3-0.7-0.3
		c-0.3,0-0.6,0.1-0.7,0.3c-0.2,0.2-0.3,0.4-0.3,0.7v3.2H510.8z M519.9,164.6v-1c0-0.3-0.1-0.6-0.3-0.8c-0.2-0.2-0.5-0.3-0.8-0.3
		c-0.4,0-0.7,0.1-0.9,0.4c-0.2,0.3-0.3,0.7-0.3,1.2c0,0.5,0.1,0.9,0.3,1.2c0.2,0.3,0.5,0.4,0.9,0.4c0.3,0,0.6-0.1,0.8-0.3
		C519.8,165.2,519.9,164.9,519.9,164.6z M520,166.7v-0.5h0c0,0-0.1,0.1-0.1,0.2c-0.1,0.1-0.2,0.2-0.5,0.3c-0.2,0.1-0.5,0.2-0.8,0.2
		c-0.7,0-1.2-0.2-1.7-0.7c-0.4-0.5-0.6-1.2-0.6-2c0-0.8,0.2-1.5,0.7-2c0.4-0.5,1-0.8,1.6-0.8c0.3,0,0.5,0.1,0.7,0.2
		c0.2,0.1,0.4,0.2,0.5,0.3l0.1,0.2h0v-2.5h1.3v7.2H520z M523.8,165.3c0.2,0.3,0.5,0.4,0.9,0.4c0.4,0,0.7-0.1,0.9-0.4
		c0.2-0.3,0.3-0.7,0.3-1.2s-0.1-0.9-0.3-1.2c-0.2-0.3-0.5-0.4-0.9-0.4c-0.4,0-0.7,0.1-0.9,0.4c-0.2,0.3-0.3,0.7-0.3,1.2
		C523.5,164.7,523.6,165,523.8,165.3z M526.4,166.2c-0.5,0.5-1,0.7-1.8,0.7c-0.7,0-1.3-0.2-1.8-0.7c-0.5-0.5-0.7-1.2-0.7-2
		c0-0.9,0.2-1.5,0.7-2c0.5-0.5,1.1-0.7,1.7-0.7c0.7,0,1.3,0.2,1.7,0.7c0.5,0.5,0.7,1.2,0.7,2C527.1,165,526.9,165.7,526.4,166.2z
		 M528.9,166.7l-1.2-5.2h1.3l0.7,3.5h0l1.2-3.5h1.2l1.1,3.5h0l0.8-3.5h1.2l-1.3,5.2h-1.3l-1.2-3.8h0l-1.3,3.8H528.9z"/>
	<path class="st5" d="M455.8,197.7l-0.4-1.1h-2.6l-0.4,1.1h-1.3l2.5-6.9h1.1l2.5,6.9H455.8z M454.1,192.8l-0.9,2.7h1.9L454.1,192.8
		L454.1,192.8z M463.1,197.9c-0.9,0-1.6-0.3-2.2-0.9c-0.6-0.6-0.8-1.5-0.8-2.8c0-1.1,0.3-1.9,0.9-2.6c0.6-0.6,1.3-0.9,2.1-0.9
		c0.7,0,1.3,0.2,1.8,0.6c0.5,0.4,0.8,1,0.9,1.7l-1.3,0.2c-0.2-0.9-0.6-1.3-1.3-1.3c-0.5,0-0.8,0.2-1.2,0.6c-0.3,0.4-0.5,0.9-0.5,1.7
		c0,0.8,0.2,1.5,0.5,1.9c0.3,0.4,0.7,0.6,1.2,0.6c0.4,0,0.8-0.1,1-0.4c0.2-0.2,0.4-0.6,0.4-1h-1.3v-1.1h2.6v0.9
		c0,0.9-0.2,1.6-0.7,2.1C464.5,197.6,463.9,197.9,463.1,197.9z M469.8,197.7v-0.5h0c0,0,0,0,0,0.1c0,0-0.1,0.1-0.1,0.1
		c-0.1,0.1-0.2,0.1-0.3,0.2c-0.1,0.1-0.2,0.1-0.4,0.2c-0.2,0-0.4,0.1-0.6,0.1c-0.6,0-1.1-0.1-1.4-0.4c-0.3-0.3-0.5-0.7-0.5-1.1
		c0-0.5,0.1-0.8,0.4-1c0.3-0.2,0.7-0.4,1.4-0.6c0.6-0.1,1-0.3,1.1-0.3c0.2-0.1,0.2-0.2,0.2-0.4s-0.1-0.3-0.2-0.4
		c-0.1-0.1-0.4-0.2-0.7-0.2c-0.3,0-0.6,0.1-0.7,0.2c-0.2,0.2-0.3,0.4-0.4,0.6l-1.1-0.4c0.1-0.4,0.4-0.8,0.7-1.1
		c0.4-0.3,0.8-0.4,1.4-0.4c0.6,0,1.2,0.2,1.6,0.5c0.4,0.3,0.6,0.9,0.6,1.6v3.3H469.8z M468.5,195.6c-0.3,0.1-0.5,0.2-0.6,0.3
		c-0.1,0.1-0.1,0.2-0.1,0.4c0,0.4,0.3,0.5,0.8,0.5c0.4,0,0.7-0.1,0.9-0.2c0.2-0.2,0.3-0.3,0.3-0.6v-0.9h0c0,0.1-0.1,0.1-0.1,0.1
		c0,0-0.1,0.1-0.3,0.1C469.1,195.5,468.8,195.5,468.5,195.6z M472.1,197.7v-5.2h1.2v0.6h0c0.1-0.2,0.2-0.4,0.4-0.5
		c0.2-0.1,0.4-0.2,0.6-0.2c0.2,0,0.3,0,0.5,0.1l-0.2,1.2c-0.1-0.1-0.3-0.1-0.4-0.1c-0.6,0-0.9,0.4-0.9,1.2v2.9H472.1z M479,195.6v-1
		c0-0.3-0.1-0.6-0.3-0.8c-0.2-0.2-0.5-0.3-0.8-0.3c-0.4,0-0.7,0.1-0.9,0.4c-0.2,0.3-0.3,0.7-0.3,1.2c0,0.5,0.1,0.9,0.3,1.2
		c0.2,0.3,0.5,0.4,0.9,0.4c0.3,0,0.6-0.1,0.8-0.3C478.9,196.2,479,195.9,479,195.6z M479.1,197.7v-0.5h0c0,0-0.1,0.1-0.1,0.2
		c-0.1,0.1-0.2,0.2-0.5,0.3c-0.2,0.1-0.5,0.2-0.8,0.2c-0.7,0-1.2-0.2-1.7-0.7c-0.4-0.5-0.6-1.2-0.6-2c0-0.8,0.2-1.5,0.7-2
		c0.4-0.5,1-0.8,1.6-0.8c0.3,0,0.5,0.1,0.7,0.2c0.2,0.1,0.4,0.2,0.5,0.3l0.1,0.2h0v-2.5h1.3v7.2H479.1z M485.1,195.9l0.9,0.8
		c-0.5,0.8-1.3,1.2-2.2,1.2c-0.7,0-1.3-0.2-1.8-0.7c-0.5-0.5-0.7-1.2-0.7-2c0-0.8,0.2-1.5,0.7-2c0.5-0.5,1-0.8,1.7-0.8
		s1.3,0.3,1.7,0.8c0.5,0.5,0.7,1.2,0.7,2v0.4h-3.5c0,0.4,0.1,0.7,0.3,0.9c0.2,0.2,0.5,0.3,0.8,0.3c0.3,0,0.5-0.1,0.7-0.2
		C484.7,196.4,484.9,196.2,485.1,195.9z M482.6,194.6h2.3c0-0.3-0.1-0.6-0.3-0.8c-0.2-0.2-0.5-0.3-0.8-0.3c-0.3,0-0.6,0.1-0.8,0.3
		C482.8,194,482.6,194.3,482.6,194.6z M487.2,197.7v-5.2h1.2v0.5h0c0.1-0.2,0.3-0.3,0.6-0.5c0.2-0.1,0.5-0.2,0.8-0.2
		c0.6,0,1,0.2,1.4,0.5c0.3,0.3,0.5,0.8,0.5,1.4v3.4h-1.3v-3.1c0-0.4-0.1-0.6-0.2-0.8c-0.1-0.2-0.4-0.3-0.7-0.3
		c-0.3,0-0.6,0.1-0.7,0.3c-0.2,0.2-0.3,0.4-0.3,0.7v3.2H487.2z"/>
	<path class="st5" d="M441.1,322.7v-6.9h1.4l2,4.5h0l2-4.5h1.4v6.9h-1.3v-4.2h0l-2,4.2h-0.2l-2-4.2h0v4.2H441.1z M449.4,322.7v-5.2
		h1.3v5.2H449.4z M449.4,316.8v-1.2h1.3v1.2H449.4z M455.3,320.6v-1c0-0.3-0.1-0.6-0.3-0.8c-0.2-0.2-0.5-0.3-0.8-0.3
		c-0.4,0-0.7,0.1-0.9,0.4c-0.2,0.3-0.3,0.7-0.3,1.2c0,0.5,0.1,0.9,0.3,1.2c0.2,0.3,0.5,0.4,0.9,0.4c0.3,0,0.6-0.1,0.8-0.3
		C455.2,321.2,455.3,320.9,455.3,320.6z M455.4,322.7v-0.5h0c0,0-0.1,0.1-0.1,0.2c-0.1,0.1-0.2,0.2-0.5,0.3
		c-0.2,0.1-0.5,0.2-0.8,0.2c-0.7,0-1.2-0.2-1.7-0.7c-0.4-0.5-0.6-1.2-0.6-2c0-0.8,0.2-1.5,0.7-2c0.4-0.5,1-0.8,1.6-0.8
		c0.3,0,0.5,0.1,0.7,0.2c0.2,0.1,0.4,0.2,0.5,0.3l0.1,0.2h0v-2.5h1.3v7.2H455.4z M464.5,320l1.4,0.3c-0.1,0.8-0.4,1.4-0.9,1.9
		c-0.5,0.5-1.1,0.7-1.9,0.7c-0.9,0-1.6-0.3-2.2-0.9c-0.6-0.6-0.8-1.5-0.8-2.8c0-1.1,0.3-1.9,0.9-2.6c0.6-0.6,1.3-0.9,2.1-0.9
		c0.7,0,1.3,0.2,1.8,0.7c0.5,0.4,0.8,1,0.9,1.8l-1.3,0.2c-0.1-0.4-0.2-0.8-0.4-1c-0.2-0.3-0.5-0.4-0.9-0.4c-0.5,0-0.8,0.2-1.2,0.6
		c-0.3,0.4-0.5,1-0.5,1.7c0,0.8,0.2,1.5,0.5,1.9c0.3,0.4,0.7,0.6,1.2,0.6C463.9,321.7,464.3,321.1,464.5,320z M466.8,320.9v-3.4h1.3
		v3.2c0,0.3,0.1,0.6,0.2,0.7c0.1,0.1,0.3,0.2,0.6,0.2c0.3,0,0.6-0.1,0.7-0.2c0.2-0.2,0.3-0.4,0.3-0.8v-3.1h1.3v5.2H470v-0.5h0
		c-0.3,0.4-0.8,0.7-1.4,0.7c-0.6,0-1.1-0.2-1.4-0.5C467,322,466.8,321.5,466.8,320.9z M473.9,319.6v1c0,0.3,0.1,0.6,0.3,0.8
		c0.2,0.2,0.5,0.3,0.8,0.3c0.4,0,0.7-0.1,0.9-0.4c0.2-0.3,0.3-0.7,0.3-1.2c0-0.5-0.1-0.9-0.3-1.2c-0.2-0.3-0.5-0.4-0.9-0.4
		c-0.3,0-0.6,0.1-0.8,0.3C474,319.1,473.9,319.3,473.9,319.6z M472.6,322.7v-7.2h1.3v2.5h0c0,0,0,0,0-0.1c0,0,0.1-0.1,0.1-0.2
		c0.1-0.1,0.2-0.1,0.3-0.2c0.1-0.1,0.2-0.1,0.4-0.2c0.2,0,0.3-0.1,0.5-0.1c0.6,0,1.2,0.3,1.6,0.8c0.4,0.5,0.6,1.2,0.6,2
		c0,0.8-0.2,1.5-0.6,2c-0.4,0.5-1,0.7-1.6,0.7c-0.3,0-0.5-0.1-0.8-0.2c-0.2-0.1-0.4-0.2-0.5-0.3l-0.1-0.2h0v0.5H472.6z M479.8,319.6
		v1c0,0.3,0.1,0.6,0.3,0.8c0.2,0.2,0.5,0.3,0.8,0.3c0.4,0,0.7-0.1,0.9-0.4c0.2-0.3,0.3-0.7,0.3-1.2c0-0.5-0.1-0.9-0.3-1.2
		c-0.2-0.3-0.5-0.4-0.9-0.4c-0.3,0-0.6,0.1-0.8,0.3C479.9,319.1,479.8,319.3,479.8,319.6z M478.5,322.7v-7.2h1.3v2.5h0
		c0,0,0,0,0-0.1c0,0,0.1-0.1,0.1-0.2c0.1-0.1,0.2-0.1,0.3-0.2c0.1-0.1,0.2-0.1,0.4-0.2c0.2,0,0.3-0.1,0.5-0.1c0.6,0,1.2,0.3,1.6,0.8
		c0.4,0.5,0.6,1.2,0.6,2c0,0.8-0.2,1.5-0.6,2c-0.4,0.5-1,0.7-1.6,0.7c-0.3,0-0.5-0.1-0.8-0.2c-0.2-0.1-0.4-0.2-0.5-0.3l-0.1-0.2h0
		v0.5H478.5z M484.6,325l1-2.5l-2.1-5h1.3l1.4,3.5h0l1.4-3.5h1.3l-3,7.4H484.6z"/>
	<path class="st5" d="M382.1,377.7v-6.9h1.4l2,4.5h0l2-4.5h1.4v6.9h-1.3v-4.2h0l-2,4.2h-0.2l-2-4.2h0v4.2H382.1z M390.4,377.7v-5.2
		h1.3v5.2H390.4z M390.4,371.8v-1.2h1.3v1.2H390.4z M396.3,375.6v-1c0-0.3-0.1-0.6-0.3-0.8c-0.2-0.2-0.5-0.3-0.8-0.3
		c-0.4,0-0.7,0.1-0.9,0.4c-0.2,0.3-0.3,0.7-0.3,1.2c0,0.5,0.1,0.9,0.3,1.2c0.2,0.3,0.5,0.4,0.9,0.4c0.3,0,0.6-0.1,0.8-0.3
		C396.2,376.2,396.3,375.9,396.3,375.6z M396.4,377.7v-0.5h0c0,0-0.1,0.1-0.1,0.2c-0.1,0.1-0.2,0.2-0.5,0.3
		c-0.2,0.1-0.5,0.2-0.8,0.2c-0.7,0-1.2-0.2-1.7-0.7c-0.4-0.5-0.6-1.2-0.6-2c0-0.8,0.2-1.5,0.7-2c0.4-0.5,1-0.8,1.6-0.8
		c0.3,0,0.5,0.1,0.7,0.2c0.2,0.1,0.4,0.2,0.5,0.3l0.1,0.2h0v-2.5h1.3v7.2H396.4z M405.5,375l1.4,0.3c-0.1,0.8-0.4,1.4-0.9,1.9
		c-0.5,0.5-1.1,0.7-1.9,0.7c-0.9,0-1.6-0.3-2.2-0.9c-0.6-0.6-0.8-1.5-0.8-2.8c0-1.1,0.3-1.9,0.9-2.6c0.6-0.6,1.3-0.9,2.1-0.9
		c0.7,0,1.3,0.2,1.8,0.7c0.5,0.4,0.8,1,0.9,1.8l-1.3,0.2c-0.1-0.4-0.2-0.8-0.4-1c-0.2-0.3-0.5-0.4-0.9-0.4c-0.5,0-0.8,0.2-1.2,0.6
		c-0.3,0.4-0.5,1-0.5,1.7c0,0.8,0.2,1.5,0.5,1.9c0.3,0.4,0.7,0.6,1.2,0.6C404.9,376.7,405.3,376.1,405.5,375z M410.8,377.7v-0.5h0
		c0,0,0,0,0,0.1c0,0-0.1,0.1-0.1,0.1c-0.1,0.1-0.2,0.1-0.3,0.2c-0.1,0.1-0.2,0.1-0.4,0.2c-0.2,0-0.4,0.1-0.6,0.1
		c-0.6,0-1.1-0.1-1.4-0.4c-0.3-0.3-0.5-0.7-0.5-1.1c0-0.5,0.1-0.8,0.4-1c0.3-0.2,0.7-0.4,1.4-0.6c0.6-0.1,1-0.3,1.1-0.3
		c0.2-0.1,0.2-0.2,0.2-0.4s-0.1-0.3-0.2-0.4c-0.1-0.1-0.4-0.2-0.7-0.2c-0.3,0-0.6,0.1-0.7,0.2c-0.2,0.2-0.3,0.4-0.4,0.6l-1.1-0.4
		c0.1-0.4,0.4-0.8,0.7-1.1c0.4-0.3,0.8-0.4,1.4-0.4c0.6,0,1.2,0.2,1.6,0.5c0.4,0.3,0.6,0.9,0.6,1.6v3.3H410.8z M409.6,375.6
		c-0.3,0.1-0.5,0.2-0.7,0.3c-0.1,0.1-0.1,0.2-0.1,0.4c0,0.4,0.3,0.5,0.8,0.5c0.4,0,0.7-0.1,0.9-0.2c0.2-0.2,0.3-0.3,0.3-0.6v-0.9h0
		c0,0.1-0.1,0.1-0.1,0.1c0,0-0.1,0.1-0.3,0.1C410.1,375.5,409.9,375.5,409.6,375.6z M413.5,375.9v-2.3h-0.8v-1.1h0.8v-1.3h1.2v1.3
		h1.3v1.1h-1.3v2.2c0,0.3,0,0.5,0.1,0.6c0.1,0.1,0.3,0.2,0.6,0.2h0.4v1.2h-0.5c-0.7,0-1.2-0.1-1.5-0.4
		C413.6,377,413.5,376.5,413.5,375.9z M417.8,377.7l-1.2-5.2h1.3l0.7,3.5h0l1.2-3.5h1.2l1.1,3.5h0l0.8-3.5h1.2l-1.3,5.2h-1.3
		l-1.2-3.8h0l-1.3,3.8H417.8z M427.9,377.7v-0.5h0c0,0,0,0,0,0.1c0,0-0.1,0.1-0.1,0.1s-0.2,0.1-0.3,0.2c-0.1,0.1-0.2,0.1-0.4,0.2
		c-0.2,0-0.4,0.1-0.6,0.1c-0.6,0-1.1-0.1-1.4-0.4c-0.3-0.3-0.5-0.7-0.5-1.1c0-0.5,0.1-0.8,0.4-1c0.3-0.2,0.7-0.4,1.4-0.6
		c0.6-0.1,1-0.3,1.1-0.3c0.2-0.1,0.2-0.2,0.2-0.4s-0.1-0.3-0.2-0.4c-0.1-0.1-0.4-0.2-0.7-0.2c-0.3,0-0.6,0.1-0.7,0.2
		c-0.2,0.2-0.3,0.4-0.4,0.6l-1.1-0.4c0.1-0.4,0.4-0.8,0.7-1.1c0.4-0.3,0.8-0.4,1.4-0.4c0.6,0,1.2,0.2,1.6,0.5
		c0.4,0.3,0.6,0.9,0.6,1.6v3.3H427.9z M426.6,375.6c-0.3,0.1-0.5,0.2-0.7,0.3c-0.1,0.1-0.1,0.2-0.1,0.4c0,0.4,0.3,0.5,0.8,0.5
		c0.4,0,0.7-0.1,0.9-0.2c0.2-0.2,0.3-0.3,0.3-0.6v-0.9h0c0,0.1-0.1,0.1-0.1,0.1c0,0-0.1,0.1-0.3,0.1
		C427.2,375.5,426.9,375.5,426.6,375.6z M430.3,377.7v-7.2h1.3v7.2H430.3z M433,377.7v-7.2h1.3v4.1h0l1.9-2.2h1.6l-1.9,2.1l2.1,3.1
		h-1.4l-1.6-2.4h0l-0.7,0.7v1.6H433z"/>
	<path class="st5" d="M326,348.7v-6.9h1.4l2,4.5h0l2-4.5h1.4v6.9h-1.3v-4.2h0l-2,4.2h-0.2l-2-4.2h0v4.2H326z M334.3,348.7v-5.2h1.3
		v5.2H334.3z M334.3,342.8v-1.2h1.3v1.2H334.3z M340.2,346.6v-1c0-0.3-0.1-0.6-0.3-0.8c-0.2-0.2-0.5-0.3-0.8-0.3
		c-0.4,0-0.7,0.1-0.9,0.4c-0.2,0.3-0.3,0.7-0.3,1.2c0,0.5,0.1,0.9,0.3,1.2c0.2,0.3,0.5,0.4,0.9,0.4c0.3,0,0.6-0.1,0.8-0.3
		C340.1,347.2,340.2,346.9,340.2,346.6z M340.2,348.7v-0.5h0c0,0-0.1,0.1-0.1,0.2c-0.1,0.1-0.2,0.2-0.5,0.3
		c-0.2,0.1-0.5,0.2-0.8,0.2c-0.7,0-1.2-0.2-1.7-0.7c-0.4-0.5-0.6-1.2-0.6-2c0-0.8,0.2-1.5,0.7-2c0.4-0.5,1-0.8,1.6-0.8
		c0.3,0,0.5,0.1,0.7,0.2c0.2,0.1,0.4,0.2,0.5,0.3l0.1,0.2h0v-2.5h1.3v7.2H340.2z M349.3,346l1.4,0.3c-0.1,0.8-0.4,1.4-0.9,1.9
		c-0.5,0.5-1.1,0.7-1.9,0.7c-0.9,0-1.6-0.3-2.2-0.9c-0.6-0.6-0.8-1.5-0.8-2.8c0-1.1,0.3-1.9,0.9-2.6c0.6-0.6,1.3-0.9,2.1-0.9
		c0.7,0,1.3,0.2,1.8,0.7c0.5,0.4,0.8,1,0.9,1.8l-1.3,0.2c-0.1-0.4-0.2-0.8-0.4-1c-0.2-0.3-0.5-0.4-0.9-0.4c-0.5,0-0.8,0.2-1.2,0.6
		c-0.3,0.4-0.5,1-0.5,1.7c0,0.8,0.2,1.5,0.5,1.9c0.3,0.4,0.7,0.6,1.2,0.6C348.8,347.7,349.2,347.1,349.3,346z M353,347.3
		c0.2,0.3,0.5,0.4,0.9,0.4c0.4,0,0.7-0.1,0.9-0.4c0.2-0.3,0.3-0.7,0.3-1.2s-0.1-0.9-0.3-1.2c-0.2-0.3-0.5-0.4-0.9-0.4
		c-0.4,0-0.7,0.1-0.9,0.4c-0.2,0.3-0.3,0.7-0.3,1.2C352.7,346.7,352.8,347,353,347.3z M355.6,348.2c-0.5,0.5-1,0.7-1.8,0.7
		c-0.7,0-1.3-0.2-1.8-0.7c-0.5-0.5-0.7-1.2-0.7-2c0-0.9,0.2-1.5,0.7-2s1.1-0.7,1.7-0.7c0.7,0,1.3,0.2,1.7,0.7c0.5,0.5,0.7,1.2,0.7,2
		C356.3,347,356.1,347.7,355.6,348.2z M357.3,346.9v-3.4h1.3v3.2c0,0.3,0.1,0.6,0.2,0.7s0.3,0.2,0.6,0.2c0.3,0,0.6-0.1,0.7-0.2
		c0.2-0.2,0.3-0.4,0.3-0.8v-3.1h1.3v5.2h-1.2v-0.5h0c-0.3,0.4-0.8,0.7-1.4,0.7c-0.6,0-1.1-0.2-1.4-0.5
		C357.4,348,357.3,347.5,357.3,346.9z M363.1,348.7v-5.2h1.2v0.6h0c0.1-0.2,0.2-0.4,0.4-0.5c0.2-0.1,0.4-0.2,0.6-0.2
		c0.2,0,0.3,0,0.5,0.1l-0.2,1.2c-0.1-0.1-0.3-0.1-0.4-0.1c-0.6,0-0.9,0.4-0.9,1.2v2.9H363.1z M367,346.9v-2.3h-0.8v-1.1h0.8v-1.3
		h1.2v1.3h1.3v1.1h-1.3v2.2c0,0.3,0,0.5,0.1,0.6c0.1,0.1,0.3,0.2,0.6,0.2h0.4v1.2h-0.5c-0.7,0-1.2-0.1-1.4-0.4
		C367.2,348,367,347.5,367,346.9z M371,351l1-2.5l-2.1-5h1.3l1.4,3.5h0l1.4-3.5h1.3l-3,7.4H371z M378.9,348.7v-0.5h0
		c0,0,0,0-0.1,0.1c0,0-0.1,0.1-0.1,0.1c-0.1,0.1-0.2,0.1-0.3,0.2c-0.1,0.1-0.2,0.1-0.4,0.2c-0.2,0-0.4,0.1-0.6,0.1
		c-0.6,0-1.1-0.1-1.4-0.4c-0.3-0.3-0.5-0.7-0.5-1.1c0-0.5,0.1-0.8,0.4-1c0.3-0.2,0.7-0.4,1.4-0.6c0.6-0.1,1-0.3,1.1-0.3
		c0.2-0.1,0.2-0.2,0.2-0.4s-0.1-0.3-0.2-0.4c-0.1-0.1-0.4-0.2-0.7-0.2c-0.3,0-0.6,0.1-0.7,0.2c-0.2,0.2-0.3,0.4-0.4,0.6l-1.1-0.4
		c0.1-0.4,0.4-0.8,0.7-1.1c0.4-0.3,0.8-0.4,1.4-0.4c0.6,0,1.2,0.2,1.6,0.5c0.4,0.3,0.6,0.9,0.6,1.6v3.3H378.9z M377.6,346.6
		c-0.3,0.1-0.5,0.2-0.7,0.3c-0.1,0.1-0.1,0.2-0.1,0.4c0,0.4,0.3,0.5,0.8,0.5c0.4,0,0.7-0.1,0.9-0.2c0.2-0.2,0.3-0.3,0.3-0.6v-0.9h0
		c0,0.1-0.1,0.1-0.1,0.1c0,0-0.1,0.1-0.3,0.1C378.2,346.5,377.9,346.5,377.6,346.6z M381.2,348.7v-5.2h1.2v0.6h0
		c0.1-0.2,0.2-0.4,0.4-0.5c0.2-0.1,0.4-0.2,0.6-0.2c0.2,0,0.3,0,0.5,0.1l-0.2,1.2c-0.1-0.1-0.3-0.1-0.4-0.1c-0.6,0-0.9,0.4-0.9,1.2
		v2.9H381.2z M388.1,346.6v-1c0-0.3-0.1-0.6-0.3-0.8c-0.2-0.2-0.5-0.3-0.8-0.3c-0.4,0-0.7,0.1-0.9,0.4c-0.2,0.3-0.3,0.7-0.3,1.2
		c0,0.5,0.1,0.9,0.3,1.2c0.2,0.3,0.5,0.4,0.9,0.4c0.3,0,0.6-0.1,0.8-0.3C388,347.2,388.1,346.9,388.1,346.6z M388.2,348.7v-0.5h0
		c0,0-0.1,0.1-0.1,0.2c-0.1,0.1-0.2,0.2-0.5,0.3c-0.2,0.1-0.5,0.2-0.8,0.2c-0.7,0-1.2-0.2-1.7-0.7c-0.4-0.5-0.6-1.2-0.6-2
		c0-0.8,0.2-1.5,0.7-2c0.4-0.5,1-0.8,1.6-0.8c0.3,0,0.5,0.1,0.7,0.2c0.2,0.1,0.4,0.2,0.5,0.3l0.1,0.2h0v-2.5h1.3v7.2H388.2z"/>
	<path class="st5" d="M262.1,370.7v-6.9h1.4l2,4.5h0l2-4.5h1.4v6.9h-1.3v-4.2h0l-2,4.2h-0.2l-2-4.2h0v4.2H262.1z M270.4,370.7v-5.2
		h1.3v5.2H270.4z M270.4,364.8v-1.2h1.3v1.2H270.4z M276.3,368.6v-1c0-0.3-0.1-0.6-0.3-0.8c-0.2-0.2-0.5-0.3-0.8-0.3
		c-0.4,0-0.7,0.1-0.9,0.4c-0.2,0.3-0.3,0.7-0.3,1.2c0,0.5,0.1,0.9,0.3,1.2c0.2,0.3,0.5,0.4,0.9,0.4c0.3,0,0.6-0.1,0.8-0.3
		C276.2,369.2,276.3,368.9,276.3,368.6z M276.3,370.7v-0.5h0c0,0-0.1,0.1-0.1,0.2c-0.1,0.1-0.2,0.2-0.5,0.3
		c-0.2,0.1-0.5,0.2-0.8,0.2c-0.7,0-1.2-0.2-1.7-0.7c-0.4-0.5-0.6-1.2-0.6-2c0-0.8,0.2-1.5,0.7-2c0.4-0.5,1-0.8,1.6-0.8
		c0.3,0,0.5,0.1,0.7,0.2c0.2,0.1,0.4,0.2,0.5,0.3l0.1,0.2h0v-2.5h1.3v7.2H276.3z M281.5,370.7v-6.9h1.3v5.7h2.8v1.2H281.5z
		 M286.5,370.7v-5.2h1.3v5.2H286.5z M286.5,364.8v-1.2h1.3v1.2H286.5z M289.2,370.7v-5.2h1.2v0.5h0c0.1-0.2,0.3-0.3,0.6-0.5
		s0.5-0.2,0.8-0.2c0.6,0,1,0.2,1.4,0.5c0.3,0.3,0.5,0.8,0.5,1.4v3.4h-1.3v-3.1c0-0.4-0.1-0.6-0.2-0.8c-0.1-0.2-0.4-0.3-0.7-0.3
		c-0.3,0-0.6,0.1-0.7,0.3c-0.2,0.2-0.3,0.4-0.3,0.7v3.2H289.2z M295,370.7v-7.2h1.3v4.1h0l1.9-2.2h1.6l-1.9,2.1l2,3.1h-1.4l-1.6-2.4
		h0l-0.7,0.7v1.6H295z"/>
	<path class="st5" d="M179.1,402.7v-6.9h2.9c0.6,0,1.1,0.2,1.5,0.5c0.4,0.4,0.6,0.8,0.6,1.3c0,0.6-0.2,1-0.8,1.3v0
		c0.3,0.1,0.5,0.3,0.7,0.6c0.2,0.3,0.3,0.6,0.3,1c0,0.7-0.2,1.2-0.6,1.6c-0.4,0.4-1.1,0.6-2,0.6H179.1z M180.5,401.5h1.6
		c0.6,0,0.9-0.3,0.9-0.9c0-0.3-0.1-0.5-0.3-0.7c-0.2-0.2-0.4-0.2-0.7-0.2h-1.6V401.5z M180.5,398.6h1.4c0.3,0,0.5-0.1,0.6-0.2
		c0.2-0.1,0.2-0.3,0.2-0.6c0-0.3-0.1-0.5-0.2-0.6c-0.2-0.1-0.4-0.2-0.6-0.2h-1.4V398.6z M188,402.7v-6.9h1.3v5.7h2.8v1.2H188z
		 M194.2,401.3c0.2,0.3,0.5,0.4,0.9,0.4s0.7-0.1,0.9-0.4c0.2-0.3,0.3-0.7,0.3-1.2s-0.1-0.9-0.3-1.2c-0.2-0.3-0.5-0.4-0.9-0.4
		c-0.4,0-0.7,0.1-0.9,0.4c-0.2,0.3-0.3,0.7-0.3,1.2C193.9,400.7,194,401,194.2,401.3z M196.9,402.2c-0.5,0.5-1,0.7-1.8,0.7
		s-1.3-0.2-1.8-0.7c-0.5-0.5-0.7-1.2-0.7-2c0-0.9,0.2-1.5,0.7-2c0.5-0.5,1.1-0.7,1.7-0.7c0.7,0,1.3,0.2,1.7,0.7
		c0.5,0.5,0.7,1.2,0.7,2C197.6,401,197.3,401.7,196.9,402.2z M199.9,399.6v1c0,0.3,0.1,0.6,0.3,0.8c0.2,0.2,0.5,0.3,0.8,0.3
		c0.4,0,0.7-0.1,0.9-0.4c0.2-0.3,0.3-0.7,0.3-1.2c0-0.5-0.1-0.9-0.3-1.2c-0.2-0.3-0.5-0.4-0.9-0.4c-0.3,0-0.6,0.1-0.8,0.3
		C200,399.1,199.9,399.3,199.9,399.6z M198.6,402.7v-7.2h1.3v2.5h0c0,0,0,0,0-0.1c0,0,0.1-0.1,0.1-0.2c0.1-0.1,0.2-0.1,0.3-0.2
		c0.1-0.1,0.2-0.1,0.4-0.2c0.2,0,0.3-0.1,0.5-0.1c0.6,0,1.2,0.3,1.6,0.8c0.4,0.5,0.6,1.2,0.6,2c0,0.8-0.2,1.5-0.6,2
		c-0.4,0.5-1,0.7-1.6,0.7c-0.3,0-0.5-0.1-0.8-0.2c-0.2-0.1-0.4-0.2-0.5-0.3l-0.1-0.2h0v0.5H198.6z M205.8,399.6v1
		c0,0.3,0.1,0.6,0.3,0.8c0.2,0.2,0.5,0.3,0.8,0.3c0.4,0,0.7-0.1,0.9-0.4c0.2-0.3,0.3-0.7,0.3-1.2c0-0.5-0.1-0.9-0.3-1.2
		c-0.2-0.3-0.5-0.4-0.9-0.4c-0.3,0-0.6,0.1-0.8,0.3C205.9,399.1,205.8,399.3,205.8,399.6z M204.5,402.7v-7.2h1.3v2.5h0
		c0,0,0,0,0.1-0.1c0,0,0.1-0.1,0.1-0.2c0.1-0.1,0.2-0.1,0.3-0.2c0.1-0.1,0.2-0.1,0.4-0.2c0.2,0,0.3-0.1,0.5-0.1
		c0.6,0,1.2,0.3,1.6,0.8c0.4,0.5,0.6,1.2,0.6,2c0,0.8-0.2,1.5-0.6,2c-0.4,0.5-1,0.7-1.6,0.7c-0.3,0-0.5-0.1-0.8-0.2
		c-0.2-0.1-0.4-0.2-0.5-0.3l-0.1-0.2h0v0.5H204.5z M210.6,405l1-2.5l-2.1-5h1.3l1.4,3.5h0l1.4-3.5h1.3l-3,7.4H210.6z"/>
	<path class="st5" d="M186.9,278.7v-6.9h2.9c0.6,0,1.1,0.2,1.5,0.5c0.4,0.4,0.6,0.8,0.6,1.3c0,0.6-0.2,1-0.7,1.3v0
		c0.3,0.1,0.5,0.3,0.7,0.6c0.2,0.3,0.3,0.6,0.3,1c0,0.7-0.2,1.2-0.6,1.6c-0.4,0.4-1.1,0.6-2,0.6H186.9z M188.3,277.5h1.6
		c0.6,0,0.9-0.3,0.9-0.9c0-0.3-0.1-0.5-0.3-0.7c-0.2-0.2-0.4-0.2-0.7-0.2h-1.6V277.5z M188.3,274.6h1.4c0.3,0,0.5-0.1,0.6-0.2
		c0.2-0.1,0.2-0.3,0.2-0.6c0-0.3-0.1-0.5-0.2-0.6c-0.2-0.1-0.4-0.2-0.6-0.2h-1.4V274.6z M195.8,278.7v-6.9h1.4l2,4.5h0l2-4.5h1.4
		v6.9h-1.3v-4.2h0l-2,4.2h-0.2l-2-4.2h0v4.2H195.8z M207,278.7v-0.5h0c0,0,0,0,0,0.1c0,0-0.1,0.1-0.1,0.1s-0.2,0.1-0.3,0.2
		c-0.1,0.1-0.2,0.1-0.4,0.2c-0.2,0-0.4,0.1-0.6,0.1c-0.6,0-1.1-0.1-1.4-0.4c-0.3-0.3-0.5-0.7-0.5-1.1c0-0.5,0.1-0.8,0.4-1
		c0.3-0.2,0.7-0.4,1.4-0.6c0.6-0.1,1-0.3,1.1-0.3c0.2-0.1,0.2-0.2,0.2-0.4s-0.1-0.3-0.2-0.4c-0.1-0.1-0.4-0.2-0.7-0.2
		c-0.3,0-0.6,0.1-0.8,0.2c-0.2,0.2-0.3,0.4-0.4,0.6l-1.1-0.4c0.1-0.4,0.4-0.8,0.7-1.1c0.4-0.3,0.8-0.4,1.4-0.4
		c0.6,0,1.2,0.2,1.6,0.5c0.4,0.3,0.6,0.9,0.6,1.6v3.3H207z M205.7,276.6c-0.3,0.1-0.5,0.2-0.7,0.3c-0.1,0.1-0.1,0.2-0.1,0.4
		c0,0.4,0.3,0.5,0.8,0.5c0.4,0,0.7-0.1,0.9-0.2c0.2-0.2,0.3-0.3,0.3-0.6v-0.9h0c0,0.1-0.1,0.1-0.1,0.1c0,0-0.1,0.1-0.3,0.1
		C206.3,276.5,206,276.5,205.7,276.6z M209.4,278.7v-5.2h1.3v5.2H209.4z M209.4,272.8v-1.2h1.3v1.2H209.4z M212,278.7v-5.2h1.2v0.5
		h0c0.1-0.2,0.3-0.3,0.6-0.5s0.5-0.2,0.8-0.2c0.6,0,1,0.2,1.4,0.5c0.3,0.3,0.5,0.8,0.5,1.4v3.4h-1.3v-3.1c0-0.4-0.1-0.6-0.2-0.8
		c-0.1-0.2-0.4-0.3-0.7-0.3c-0.3,0-0.6,0.1-0.7,0.3c-0.2,0.2-0.3,0.4-0.3,0.7v3.2H212z"/>
	<path class="st5" d="M47.6,185.7v-6.9h2.9c0.6,0,1.1,0.2,1.5,0.5c0.4,0.4,0.6,0.8,0.6,1.3c0,0.6-0.2,1-0.7,1.3v0
		c0.3,0.1,0.5,0.3,0.7,0.6c0.2,0.3,0.3,0.6,0.3,1c0,0.7-0.2,1.2-0.6,1.6c-0.4,0.4-1.1,0.6-2,0.6H47.6z M49,184.5h1.6
		c0.6,0,0.9-0.3,0.9-0.9c0-0.3-0.1-0.5-0.3-0.7c-0.2-0.2-0.4-0.2-0.7-0.2H49V184.5z M49,181.6h1.4c0.3,0,0.5-0.1,0.6-0.2
		c0.2-0.1,0.2-0.3,0.2-0.6c0-0.3-0.1-0.5-0.2-0.6c-0.2-0.1-0.4-0.2-0.6-0.2H49V181.6z M56.5,185.7v-6.9h2.9c0.6,0,1.1,0.2,1.5,0.5
		c0.4,0.4,0.6,0.8,0.6,1.3c0,0.6-0.2,1-0.7,1.3v0c0.3,0.1,0.5,0.3,0.7,0.6c0.2,0.3,0.3,0.6,0.3,1c0,0.7-0.2,1.2-0.6,1.6
		c-0.4,0.4-1.1,0.6-2,0.6H56.5z M57.8,184.5h1.6c0.6,0,0.9-0.3,0.9-0.9c0-0.3-0.1-0.5-0.3-0.7c-0.2-0.2-0.4-0.2-0.7-0.2h-1.6V184.5z
		 M57.8,181.6h1.4c0.3,0,0.5-0.1,0.6-0.2c0.2-0.1,0.2-0.3,0.2-0.6c0-0.3-0.1-0.5-0.2-0.6c-0.2-0.1-0.4-0.2-0.6-0.2h-1.4V181.6z
		 M65.8,185.7v-0.5h0c0,0,0,0,0,0.1c0,0-0.1,0.1-0.1,0.1c-0.1,0.1-0.2,0.1-0.3,0.2c-0.1,0.1-0.2,0.1-0.4,0.2c-0.2,0-0.4,0.1-0.6,0.1
		c-0.6,0-1.1-0.1-1.4-0.4c-0.3-0.3-0.5-0.7-0.5-1.1c0-0.5,0.1-0.8,0.4-1c0.3-0.2,0.7-0.4,1.4-0.6c0.6-0.1,1-0.3,1.1-0.3
		c0.2-0.1,0.2-0.2,0.2-0.4s-0.1-0.3-0.2-0.4c-0.1-0.1-0.4-0.2-0.7-0.2c-0.3,0-0.6,0.1-0.7,0.2c-0.2,0.2-0.3,0.4-0.4,0.6l-1.1-0.4
		c0.1-0.4,0.4-0.8,0.7-1.1c0.4-0.3,0.8-0.4,1.4-0.4c0.6,0,1.2,0.2,1.6,0.5c0.4,0.3,0.6,0.9,0.6,1.6v3.3H65.8z M64.5,183.6
		c-0.3,0.1-0.5,0.2-0.7,0.3c-0.1,0.1-0.1,0.2-0.1,0.4c0,0.4,0.3,0.5,0.8,0.5c0.4,0,0.7-0.1,0.9-0.2c0.2-0.2,0.3-0.3,0.3-0.6v-0.9h0
		c0,0.1-0.1,0.1-0.1,0.1c0,0-0.1,0.1-0.3,0.1C65,183.5,64.8,183.5,64.5,183.6z M71.3,183.6l1.2,0.3c-0.1,0.6-0.4,1.1-0.8,1.4
		c-0.4,0.3-0.9,0.5-1.5,0.5c-0.7,0-1.3-0.2-1.8-0.7c-0.5-0.5-0.7-1.2-0.7-2c0-0.9,0.2-1.5,0.7-2c0.5-0.5,1.1-0.7,1.7-0.7
		c0.6,0,1.1,0.2,1.5,0.5c0.4,0.3,0.6,0.8,0.7,1.4l-1.2,0.2c-0.1-0.6-0.5-1-1-1c-0.4,0-0.7,0.1-0.9,0.4c-0.2,0.3-0.3,0.7-0.3,1.2
		s0.1,0.9,0.3,1.2c0.2,0.3,0.5,0.4,0.9,0.4C70.8,184.7,71.2,184.4,71.3,183.6z M73.5,185.7v-7.2h1.3v4.1h0l1.9-2.2h1.6l-1.9,2.1
		l2.1,3.1H77l-1.6-2.4h0l-0.7,0.7v1.6H73.5z"/>
	<path class="st5" d="M326.9,282.7v-6.9h1.4l2,4.5h0l2-4.5h1.4v6.9h-1.3v-4.2h0l-2,4.2h-0.2l-2-4.2h0v4.2H326.9z M335.2,282.7v-5.2
		h1.3v5.2H335.2z M335.2,276.8v-1.2h1.3v1.2H335.2z M341.1,280.6v-1c0-0.3-0.1-0.6-0.3-0.8c-0.2-0.2-0.5-0.3-0.8-0.3
		c-0.4,0-0.7,0.1-0.9,0.4c-0.2,0.3-0.3,0.7-0.3,1.2c0,0.5,0.1,0.9,0.3,1.2c0.2,0.3,0.5,0.4,0.9,0.4c0.3,0,0.6-0.1,0.8-0.3
		C341,281.2,341.1,280.9,341.1,280.6z M341.2,282.7v-0.5h0c0,0-0.1,0.1-0.1,0.2c-0.1,0.1-0.2,0.2-0.5,0.3c-0.2,0.1-0.5,0.2-0.8,0.2
		c-0.7,0-1.2-0.2-1.7-0.7c-0.4-0.5-0.6-1.2-0.6-2c0-0.8,0.2-1.5,0.7-2c0.4-0.5,1-0.8,1.6-0.8c0.3,0,0.5,0.1,0.7,0.2
		c0.2,0.1,0.4,0.2,0.5,0.3l0.1,0.2h0v-2.5h1.3v7.2H341.2z M346.3,282.7v-6.9h2.9c0.6,0,1.1,0.2,1.5,0.5c0.4,0.4,0.6,0.8,0.6,1.3
		c0,0.6-0.2,1-0.7,1.3v0c0.3,0.1,0.5,0.3,0.7,0.6c0.2,0.3,0.3,0.6,0.3,1c0,0.7-0.2,1.2-0.6,1.6c-0.4,0.4-1.1,0.6-2,0.6H346.3z
		 M347.6,281.5h1.6c0.6,0,0.9-0.3,0.9-0.9c0-0.3-0.1-0.5-0.3-0.7c-0.2-0.2-0.4-0.2-0.7-0.2h-1.6V281.5z M347.6,278.6h1.4
		c0.3,0,0.5-0.1,0.6-0.2c0.2-0.1,0.2-0.3,0.2-0.6c0-0.3-0.1-0.5-0.2-0.6c-0.2-0.1-0.4-0.2-0.6-0.2h-1.4V278.6z M353.8,281.3
		c0.2,0.3,0.5,0.4,0.9,0.4c0.4,0,0.7-0.1,0.9-0.4c0.2-0.3,0.3-0.7,0.3-1.2s-0.1-0.9-0.3-1.2c-0.2-0.3-0.5-0.4-0.9-0.4
		c-0.4,0-0.6,0.1-0.9,0.4c-0.2,0.3-0.3,0.7-0.3,1.2C353.5,280.7,353.6,281,353.8,281.3z M356.5,282.2c-0.5,0.5-1,0.7-1.8,0.7
		c-0.7,0-1.3-0.2-1.8-0.7c-0.5-0.5-0.7-1.2-0.7-2c0-0.9,0.2-1.5,0.7-2s1.1-0.7,1.7-0.7c0.7,0,1.3,0.2,1.7,0.7c0.5,0.5,0.7,1.2,0.7,2
		C357.2,281,356.9,281.7,356.5,282.2z M358.5,280.9v-2.3h-0.8v-1.1h0.8v-1.3h1.2v1.3h1.3v1.1h-1.3v2.2c0,0.3,0,0.5,0.1,0.6
		c0.1,0.1,0.3,0.2,0.6,0.2h0.4v1.2h-0.5c-0.7,0-1.2-0.1-1.4-0.4C358.6,282,358.5,281.5,358.5,280.9z M362.2,280.9v-2.3h-0.8v-1.1
		h0.8v-1.3h1.2v1.3h1.3v1.1h-1.3v2.2c0,0.3,0,0.5,0.1,0.6s0.3,0.2,0.6,0.2h0.4v1.2H364c-0.7,0-1.2-0.1-1.5-0.4
		C362.3,282,362.2,281.5,362.2,280.9z M367,281.3c0.2,0.3,0.5,0.4,0.9,0.4c0.4,0,0.7-0.1,0.9-0.4c0.2-0.3,0.3-0.7,0.3-1.2
		s-0.1-0.9-0.3-1.2c-0.2-0.3-0.5-0.4-0.9-0.4c-0.4,0-0.7,0.1-0.9,0.4c-0.2,0.3-0.3,0.7-0.3,1.2C366.6,280.7,366.7,281,367,281.3z
		 M369.6,282.2c-0.5,0.5-1,0.7-1.8,0.7c-0.7,0-1.3-0.2-1.8-0.7c-0.5-0.5-0.7-1.2-0.7-2c0-0.9,0.2-1.5,0.7-2c0.5-0.5,1.1-0.7,1.7-0.7
		c0.7,0,1.3,0.2,1.7,0.7s0.7,1.2,0.7,2C370.3,281,370,281.7,369.6,282.2z M371.3,282.7v-5.2h1.2v0.5h0c0.1-0.2,0.3-0.3,0.5-0.5
		c0.2-0.1,0.5-0.2,0.8-0.2c0.3,0,0.5,0.1,0.8,0.2c0.2,0.1,0.4,0.3,0.6,0.5h0c0.1-0.2,0.3-0.4,0.6-0.5c0.2-0.1,0.5-0.2,0.8-0.2
		c0.6,0,1.1,0.2,1.5,0.5c0.4,0.3,0.6,0.8,0.6,1.3v3.6h-1.2v-3.3c0-0.3-0.1-0.5-0.2-0.6c-0.1-0.2-0.4-0.2-0.7-0.2
		c-0.3,0-0.5,0.1-0.7,0.2c-0.2,0.2-0.2,0.3-0.2,0.6v3.4h-1.2v-3.3c0-0.2-0.1-0.5-0.2-0.6c-0.2-0.2-0.4-0.3-0.7-0.3
		c-0.3,0-0.5,0.1-0.7,0.2c-0.2,0.2-0.2,0.3-0.2,0.6v3.4H371.3z"/>
	<path class="st5" d="M352.4,212.7v-6.9h1.4l2,4.5h0l2-4.5h1.4v6.9h-1.3v-4.2h0l-2,4.2h-0.2l-2-4.2h0v4.2H352.4z M360.7,212.7v-5.2
		h1.3v5.2H360.7z M360.7,206.8v-1.2h1.3v1.2H360.7z M366.6,210.6v-1c0-0.3-0.1-0.6-0.3-0.8c-0.2-0.2-0.5-0.3-0.8-0.3
		c-0.4,0-0.7,0.1-0.9,0.4c-0.2,0.3-0.3,0.7-0.3,1.2c0,0.5,0.1,0.9,0.3,1.2c0.2,0.3,0.5,0.4,0.9,0.4c0.3,0,0.6-0.1,0.8-0.3
		C366.5,211.2,366.6,210.9,366.6,210.6z M366.7,212.7v-0.5h0c0,0-0.1,0.1-0.1,0.2c-0.1,0.1-0.2,0.2-0.5,0.3
		c-0.2,0.1-0.5,0.2-0.8,0.2c-0.7,0-1.2-0.2-1.7-0.7c-0.4-0.5-0.6-1.2-0.6-2c0-0.8,0.2-1.5,0.7-2c0.4-0.5,1-0.8,1.6-0.8
		c0.3,0,0.5,0.1,0.7,0.2c0.2,0.1,0.4,0.2,0.5,0.3l0.1,0.2h0v-2.5h1.3v7.2H366.7z M371.8,212.7v-6.9h2.8c0.7,0,1.3,0.2,1.7,0.6
		c0.4,0.4,0.7,0.9,0.7,1.6c0,0.7-0.2,1.2-0.6,1.6c-0.4,0.4-1,0.6-1.7,0.6h-1.5v2.5H371.8z M373.1,209h1.4c0.3,0,0.5-0.1,0.7-0.3
		c0.2-0.2,0.3-0.4,0.3-0.7c0-0.3-0.1-0.6-0.3-0.7c-0.2-0.2-0.4-0.2-0.7-0.2h-1.4V209z M377.7,212.7v-5.2h1.3v5.2H377.7z
		 M377.7,206.8v-1.2h1.3v1.2H377.7z M380.1,212.7v-1.1l2.8-2.9v0h-2.7v-1.2h4.3v1.1l-2.7,2.9v0h2.8v1.2H380.1z M385.4,212.7v-1.1
		l2.8-2.9v0h-2.7v-1.2h4.3v1.1l-2.7,2.9v0h2.8v1.2H385.4z M394,212.7v-0.5h0c0,0,0,0,0,0.1c0,0-0.1,0.1-0.1,0.1
		c-0.1,0.1-0.2,0.1-0.3,0.2c-0.1,0.1-0.2,0.1-0.4,0.2c-0.2,0-0.4,0.1-0.6,0.1c-0.6,0-1.1-0.1-1.4-0.4c-0.3-0.3-0.5-0.7-0.5-1.1
		c0-0.5,0.1-0.8,0.4-1c0.3-0.2,0.7-0.4,1.4-0.6c0.6-0.1,1-0.3,1.1-0.3c0.2-0.1,0.2-0.2,0.2-0.4s-0.1-0.3-0.2-0.4
		c-0.1-0.1-0.4-0.2-0.7-0.2c-0.3,0-0.6,0.1-0.7,0.2c-0.2,0.2-0.3,0.4-0.4,0.6l-1.1-0.4c0.1-0.4,0.4-0.8,0.7-1.1
		c0.4-0.3,0.8-0.4,1.4-0.4c0.6,0,1.2,0.2,1.6,0.5c0.4,0.3,0.6,0.9,0.6,1.6v3.3H394z M392.7,210.6c-0.3,0.1-0.5,0.2-0.7,0.3
		c-0.1,0.1-0.1,0.2-0.1,0.4c0,0.4,0.3,0.5,0.8,0.5c0.4,0,0.7-0.1,0.9-0.2c0.2-0.2,0.3-0.3,0.3-0.6v-0.9h0c0,0.1-0.1,0.1-0.1,0.1
		c0,0-0.1,0.1-0.3,0.1C393.2,210.5,393,210.5,392.7,210.6z"/>
	<path class="st5" d="M283.7,201.7v-6.9h1.4l2,4.5h0l2-4.5h1.4v6.9h-1.3v-4.2h0l-2,4.2H287l-2-4.2h0v4.2H283.7z M292,201.7v-5.2h1.3
		v5.2H292z M292,195.8v-1.2h1.3v1.2H292z M297.9,199.6v-1c0-0.3-0.1-0.6-0.3-0.8c-0.2-0.2-0.5-0.3-0.8-0.3c-0.4,0-0.7,0.1-0.9,0.4
		c-0.2,0.3-0.3,0.7-0.3,1.2c0,0.5,0.1,0.9,0.3,1.2c0.2,0.3,0.5,0.4,0.9,0.4c0.3,0,0.6-0.1,0.8-0.3
		C297.8,200.2,297.9,199.9,297.9,199.6z M297.9,201.7v-0.5h0c0,0-0.1,0.1-0.1,0.2c-0.1,0.1-0.2,0.2-0.5,0.3
		c-0.2,0.1-0.5,0.2-0.8,0.2c-0.7,0-1.2-0.2-1.7-0.7c-0.4-0.5-0.6-1.2-0.6-2c0-0.8,0.2-1.5,0.7-2c0.4-0.5,1-0.8,1.6-0.8
		c0.3,0,0.5,0.1,0.7,0.2c0.2,0.1,0.4,0.2,0.5,0.3l0.1,0.2h0v-2.5h1.3v7.2H297.9z M303.1,201.7v-6.9h1.4l2,4.5h0l2-4.5h1.4v6.9h-1.3
		v-4.2h0l-2,4.2h-0.2l-2-4.2h0v4.2H303.1z M314.3,201.7v-0.5h0c0,0,0,0,0,0.1c0,0-0.1,0.1-0.1,0.1s-0.2,0.1-0.3,0.2
		c-0.1,0.1-0.2,0.1-0.4,0.2c-0.2,0-0.4,0.1-0.6,0.1c-0.6,0-1.1-0.1-1.4-0.4c-0.3-0.3-0.5-0.7-0.5-1.1c0-0.5,0.1-0.8,0.4-1
		c0.3-0.2,0.7-0.4,1.4-0.6c0.6-0.1,1-0.3,1.1-0.3c0.2-0.1,0.2-0.2,0.2-0.4s-0.1-0.3-0.2-0.4c-0.1-0.1-0.4-0.2-0.7-0.2
		c-0.3,0-0.6,0.1-0.8,0.2c-0.2,0.2-0.3,0.4-0.4,0.6l-1.1-0.4c0.1-0.4,0.4-0.8,0.7-1.1c0.4-0.3,0.8-0.4,1.4-0.4
		c0.6,0,1.2,0.2,1.6,0.5c0.4,0.3,0.6,0.9,0.6,1.6v3.3H314.3z M313,199.6c-0.3,0.1-0.5,0.2-0.7,0.3c-0.1,0.1-0.1,0.2-0.1,0.4
		c0,0.4,0.3,0.5,0.8,0.5c0.4,0,0.7-0.1,0.9-0.2c0.2-0.2,0.3-0.3,0.3-0.6v-0.9h0c0,0.1-0.1,0.1-0.1,0.1c0,0-0.1,0.1-0.3,0.1
		C313.6,199.5,313.3,199.5,313,199.6z M316.7,201.7v-5.2h1.2v0.6h0c0.1-0.2,0.2-0.4,0.4-0.5c0.2-0.1,0.4-0.2,0.6-0.2
		c0.2,0,0.3,0,0.5,0.1l-0.2,1.2c-0.1-0.1-0.3-0.1-0.4-0.1c-0.6,0-0.9,0.4-0.9,1.2v2.9H316.7z M320.3,201.7v-7.2h1.3v4.1h0l1.9-2.2
		h1.6l-1.9,2.1l2.1,3.1h-1.4l-1.6-2.4h0l-0.7,0.7v1.6H320.3z M329.1,199.9l0.9,0.8c-0.5,0.8-1.3,1.2-2.2,1.2c-0.7,0-1.3-0.2-1.8-0.7
		c-0.5-0.5-0.7-1.2-0.7-2c0-0.8,0.2-1.5,0.7-2c0.5-0.5,1-0.8,1.7-0.8c0.7,0,1.3,0.3,1.7,0.8c0.5,0.5,0.7,1.2,0.7,2v0.4h-3.5
		c0,0.4,0.1,0.7,0.3,0.9c0.2,0.2,0.5,0.3,0.8,0.3c0.3,0,0.5-0.1,0.7-0.2C328.8,200.4,329,200.2,329.1,199.9z M326.7,198.6h2.3
		c0-0.3-0.1-0.6-0.3-0.8c-0.2-0.2-0.5-0.3-0.8-0.3c-0.3,0-0.6,0.1-0.8,0.3C326.9,198,326.7,198.3,326.7,198.6z M331.5,199.9v-2.3
		h-0.8v-1.1h0.8v-1.3h1.2v1.3h1.3v1.1h-1.3v2.2c0,0.3,0,0.5,0.1,0.6c0.1,0.1,0.3,0.2,0.6,0.2h0.4v1.2h-0.5c-0.7,0-1.2-0.1-1.4-0.4
		C331.7,201,331.5,200.5,331.5,199.9z"/>
	<path class="st5" d="M490.5,277.7l-0.4-1.1h-2.6l-0.4,1.1h-1.3l2.5-6.9h1.1l2.5,6.9H490.5z M488.8,272.8l-0.9,2.7h1.9L488.8,272.8
		L488.8,272.8z M495.1,277.7v-6.9h1.3v5.7h2.8v1.2H495.1z M500.2,277.7v-5.2h1.3v5.2H500.2z M500.2,271.8v-1.2h1.3v1.2H500.2z
		 M502.8,277.7v-5.2h1.2v0.5h0c0.1-0.2,0.3-0.3,0.6-0.5c0.2-0.1,0.5-0.2,0.8-0.2c0.6,0,1,0.2,1.4,0.5c0.3,0.3,0.5,0.8,0.5,1.4v3.4
		H506v-3.1c0-0.4-0.1-0.6-0.2-0.8c-0.1-0.2-0.4-0.3-0.7-0.3c-0.3,0-0.6,0.1-0.7,0.3c-0.2,0.2-0.3,0.4-0.3,0.7v3.2H502.8z
		 M508.6,277.7v-7.2h1.3v4.1h0l1.9-2.2h1.6l-1.9,2.1l2.1,3.1h-1.4l-1.6-2.4h0l-0.7,0.7v1.6H508.6z"/>
	<path class="st5" d="M658.6,343.7l-0.4-1.1h-2.6l-0.4,1.1h-1.3l2.5-6.9h1.1l2.5,6.9H658.6z M656.9,338.8l-0.9,2.7h1.9L656.9,338.8
		L656.9,338.8z M664.2,343.7l-1.3-6.9h1.4l0.9,4.7h0l1.6-4.7h0.7l1.6,4.7h0l0.9-4.7h1.3l-1.3,6.9h-1.4l-1.4-4.3H667l-1.4,4.3H664.2z
		 M672.2,343.7v-5.2h1.3v5.2H672.2z M672.2,337.8v-1.2h1.3v1.2H672.2z M674.8,343.7v-5.2h1.2v0.5h0c0.1-0.2,0.3-0.3,0.6-0.5
		s0.5-0.2,0.8-0.2c0.6,0,1,0.2,1.4,0.5c0.3,0.3,0.5,0.8,0.5,1.4v3.4H678v-3.1c0-0.4-0.1-0.6-0.2-0.8c-0.1-0.2-0.4-0.3-0.7-0.3
		c-0.3,0-0.6,0.1-0.7,0.3c-0.2,0.2-0.3,0.4-0.3,0.7v3.2H674.8z M684,341.9l0.9,0.8c-0.5,0.8-1.3,1.2-2.2,1.2c-0.7,0-1.3-0.2-1.8-0.7
		c-0.5-0.5-0.7-1.2-0.7-2s0.2-1.5,0.7-2c0.5-0.5,1-0.8,1.7-0.8c0.7,0,1.3,0.3,1.7,0.8c0.5,0.5,0.7,1.2,0.7,2v0.4h-3.5
		c0,0.4,0.1,0.7,0.3,0.9c0.2,0.2,0.5,0.3,0.8,0.3c0.3,0,0.5-0.1,0.7-0.2C683.7,342.4,683.9,342.2,684,341.9z M681.6,340.6h2.3
		c0-0.3-0.1-0.6-0.3-0.8c-0.2-0.2-0.5-0.3-0.8-0.3c-0.3,0-0.6,0.1-0.8,0.3C681.7,340,681.6,340.3,681.6,340.6z"/>
	<path class="st6" d="M564.8,180.7h94.8c2.3,0,4.1,1.8,4.1,4.1v53.8c0,2.3-1.8,4.1-4.1,4.1h-94.8c-2.3,0-4.1-1.8-4.1-4.1v-53.8
		C560.6,182.6,562.5,180.7,564.8,180.7z"/>
	<g class="st7">
		<defs>
			<filter id="Adobe_OpacityMaskFilter" filterUnits="userSpaceOnUse" x="493.5" y="99.3" width="235" height="234.8">
				<feColorMatrix  type="matrix" values="1 0 0 0 0  0 1 0 0 0  0 0 1 0 0  0 0 0 1 0"/>
			</filter>
		</defs>
		<mask maskUnits="userSpaceOnUse" x="493.5" y="99.3" width="235" height="234.8" id="mask0_2_">
			<path class="st8" d="M564.8,180.7h94.8c2.3,0,4.1,1.8,4.1,4.1v53.8c0,2.3-1.8,4.1-4.1,4.1h-94.8c-2.3,0-4.1-1.8-4.1-4.1v-53.8
				C560.6,182.6,562.5,180.7,564.8,180.7z"/>
		</mask>
		<g class="st9">
			
				<rect x="468.3" y="162.9" transform="matrix(0.7074 -0.7068 0.7068 0.7074 47.1372 443.26)" class="st10" width="181.3" height="3.7"/>
			
				<rect x="473.5" y="168.1" transform="matrix(0.7074 -0.7068 0.7068 0.7074 44.9834 448.4635)" class="st10" width="181.3" height="3.7"/>
			
				<rect x="478.7" y="173.3" transform="matrix(0.7074 -0.7068 0.7068 0.7074 42.8283 453.6678)" class="st10" width="181.3" height="3.7"/>
			
				<rect x="483.9" y="178.5" transform="matrix(0.7074 -0.7068 0.7068 0.7074 40.6746 458.8715)" class="st10" width="181.3" height="3.7"/>
			
				<rect x="489.1" y="183.7" transform="matrix(0.7074 -0.7068 0.7068 0.7074 38.5199 464.0747)" class="st10" width="181.3" height="3.7"/>
			
				<rect x="494.3" y="188.9" transform="matrix(0.7074 -0.7068 0.7068 0.7074 36.3662 469.2784)" class="st10" width="181.3" height="3.7"/>
			
				<rect x="499.5" y="194.1" transform="matrix(0.7074 -0.7068 0.7068 0.7074 34.2118 474.4824)" class="st10" width="181.3" height="3.7"/>
			
				<rect x="504.7" y="199.3" transform="matrix(0.7074 -0.7068 0.7068 0.7074 32.0579 479.6854)" class="st10" width="181.3" height="3.7"/>
			
				<rect x="509.9" y="204.5" transform="matrix(0.7074 -0.7068 0.7068 0.7074 29.9042 484.8891)" class="st10" width="181.3" height="3.7"/>
			
				<rect x="515.1" y="209.7" transform="matrix(0.7074 -0.7068 0.7068 0.7074 27.7495 490.0924)" class="st10" width="181.3" height="3.7"/>
			
				<rect x="520.4" y="214.9" transform="matrix(0.7074 -0.7068 0.7068 0.7074 25.5951 495.2964)" class="st10" width="181.3" height="3.7"/>
			
				<rect x="525.6" y="220.1" transform="matrix(0.7074 -0.7068 0.7068 0.7074 23.4414 500.5001)" class="st10" width="181.3" height="3.7"/>
			
				<rect x="530.8" y="225.3" transform="matrix(0.7074 -0.7068 0.7068 0.7074 21.287 505.7041)" class="st10" width="181.3" height="3.7"/>
			
				<rect x="536" y="230.5" transform="matrix(0.7074 -0.7068 0.7068 0.7074 19.1321 510.9069)" class="st10" width="181.3" height="3.7"/>
			
				<rect x="541.2" y="235.7" transform="matrix(0.7074 -0.7068 0.7068 0.7074 16.9774 516.1101)" class="st10" width="181.3" height="3.7"/>
			
				<rect x="546.4" y="240.9" transform="matrix(0.7074 -0.7068 0.7068 0.7074 14.8235 521.3154)" class="st10" width="181.3" height="3.7"/>
			
				<rect x="551.6" y="246.1" transform="matrix(0.7074 -0.7068 0.7068 0.7074 12.6695 526.5184)" class="st10" width="181.3" height="3.7"/>
			
				<rect x="556.8" y="251.3" transform="matrix(0.7074 -0.7068 0.7068 0.7074 10.5158 531.722)" class="st10" width="181.3" height="3.7"/>
			
				<rect x="562" y="256.5" transform="matrix(0.7074 -0.7068 0.7068 0.7074 8.3611 536.9253)" class="st10" width="181.3" height="3.7"/>
			
				<rect x="567.2" y="261.7" transform="matrix(0.7074 -0.7068 0.7068 0.7074 6.2068 542.1293)" class="st10" width="181.3" height="3.7"/>
			
				<rect x="572.4" y="266.9" transform="matrix(0.7074 -0.7068 0.7068 0.7074 4.0534 547.3337)" class="st10" width="181.3" height="3.7"/>
		</g>
	</g>
	<path class="st11" d="M615,215.7l-0.7-1.9h-4.4l-0.7,1.9h-2.2l4.2-11.5h1.9l4.1,11.5H615z M612.1,207.5l-1.6,4.5h3.1L612.1,207.5
		L612.1,207.5z"/>
	<path class="st6" d="M93.8,134.7h78.8c2.3,0,4.1,1.8,4.1,4.1v86.8c0,2.3-1.8,4.1-4.1,4.1H93.8c-2.3,0-4.1-1.8-4.1-4.1v-86.8
		C89.6,136.6,91.5,134.7,93.8,134.7z"/>
	<g class="st7">
		<defs>
			<filter id="Adobe_OpacityMaskFilter_1_" filterUnits="userSpaceOnUse" x="15.5" y="68.3" width="235" height="234.8">
				<feColorMatrix  type="matrix" values="1 0 0 0 0  0 1 0 0 0  0 0 1 0 0  0 0 0 1 0"/>
			</filter>
		</defs>
		<mask maskUnits="userSpaceOnUse" x="15.5" y="68.3" width="235" height="234.8" id="mask1_2_">
			<path class="st12" d="M93.8,134.7h78.8c2.3,0,4.1,1.8,4.1,4.1v86.8c0,2.3-1.8,4.1-4.1,4.1H93.8c-2.3,0-4.1-1.8-4.1-4.1v-86.8
				C89.6,136.6,91.5,134.7,93.8,134.7z"/>
		</mask>
		<g class="st13">
			
				<rect x="-9.7" y="131.9" transform="matrix(0.7074 -0.7068 0.7068 0.7074 -70.8233 96.3222)" class="st10" width="181.3" height="3.7"/>
			
				<rect x="-4.5" y="137.1" transform="matrix(0.7074 -0.7068 0.7068 0.7074 -72.9776 101.5255)" class="st10" width="181.3" height="3.7"/>
			
				<rect x="0.7" y="142.3" transform="matrix(0.7074 -0.7068 0.7068 0.7074 -75.1322 106.7296)" class="st10" width="181.3" height="3.7"/>
			
				<rect x="5.9" y="147.5" transform="matrix(0.7074 -0.7068 0.7068 0.7074 -77.2859 111.9333)" class="st10" width="181.3" height="3.7"/>
			
				<rect x="11.1" y="152.7" transform="matrix(0.7074 -0.7068 0.7068 0.7074 -79.4407 117.1366)" class="st10" width="181.3" height="3.7"/>
			
				<rect x="16.3" y="157.9" transform="matrix(0.7074 -0.7068 0.7068 0.7074 -81.5952 122.3398)" class="st10" width="181.3" height="3.7"/>
			
				<rect x="21.5" y="163.1" transform="matrix(0.7074 -0.7068 0.7068 0.7074 -83.7491 127.5444)" class="st10" width="181.3" height="3.7"/>
			
				<rect x="26.7" y="168.3" transform="matrix(0.7074 -0.7068 0.7068 0.7074 -85.9031 132.7474)" class="st10" width="181.3" height="3.7"/>
			
				<rect x="31.9" y="173.5" transform="matrix(0.7074 -0.7068 0.7068 0.7074 -88.0567 137.9511)" class="st10" width="181.3" height="3.7"/>
			
				<rect x="37.1" y="178.7" transform="matrix(0.7074 -0.7068 0.7068 0.7074 -90.2114 143.1544)" class="st10" width="181.3" height="3.7"/>
			
				<rect x="42.4" y="183.9" transform="matrix(0.7074 -0.7068 0.7068 0.7074 -92.3658 148.3584)" class="st10" width="181.3" height="3.7"/>
			
				<rect x="47.6" y="189.1" transform="matrix(0.7074 -0.7068 0.7068 0.7074 -94.5195 153.5621)" class="st10" width="181.3" height="3.7"/>
			
				<rect x="52.8" y="194.3" transform="matrix(0.7074 -0.7068 0.7068 0.7074 -96.6739 158.766)" class="st10" width="181.3" height="3.7"/>
			
				<rect x="58" y="199.5" transform="matrix(0.7074 -0.7068 0.7068 0.7074 -98.8286 163.9691)" class="st10" width="181.3" height="3.7"/>
			
				<rect x="63.2" y="204.7" transform="matrix(0.7074 -0.7068 0.7068 0.7074 -100.9833 169.1724)" class="st10" width="181.3" height="3.7"/>
			
				<rect x="68.4" y="209.9" transform="matrix(0.7074 -0.7068 0.7068 0.7074 -103.1374 174.3773)" class="st10" width="181.3" height="3.7"/>
			
				<rect x="73.6" y="215.1" transform="matrix(0.7074 -0.7068 0.7068 0.7074 -105.2914 179.5803)" class="st10" width="181.3" height="3.7"/>
			
				<rect x="78.8" y="220.3" transform="matrix(0.7074 -0.7068 0.7068 0.7074 -107.4451 184.784)" class="st10" width="181.3" height="3.7"/>
			
				<rect x="84" y="225.5" transform="matrix(0.7074 -0.7068 0.7068 0.7074 -109.5997 189.9873)" class="st10" width="181.3" height="3.7"/>
			
				<rect x="89.2" y="230.7" transform="matrix(0.7074 -0.7068 0.7068 0.7074 -111.7541 195.1913)" class="st10" width="181.3" height="3.7"/>
			
				<rect x="94.4" y="235.9" transform="matrix(0.7074 -0.7068 0.7068 0.7074 -113.9075 200.3957)" class="st10" width="181.3" height="3.7"/>
		</g>
	</g>
	<path class="st11" d="M129.1,186.7v-11.5h4.9c1,0,1.8,0.3,2.4,0.9c0.6,0.6,0.9,1.3,0.9,2.2c0,1-0.4,1.7-1.2,2.2v0
		c0.5,0.2,0.9,0.5,1.2,1c0.3,0.4,0.5,1,0.5,1.6c0,1.1-0.3,2-1,2.6c-0.7,0.6-1.8,1-3.3,1H129.1z M131.3,184.7h2.7
		c1.1,0,1.6-0.5,1.6-1.5c0-0.5-0.1-0.8-0.4-1.1c-0.3-0.3-0.7-0.4-1.1-0.4h-2.7V184.7z M131.3,179.9h2.4c0.4,0,0.8-0.1,1.1-0.3
		c0.3-0.2,0.4-0.5,0.4-1c0-0.4-0.1-0.8-0.4-1c-0.3-0.2-0.6-0.3-1.1-0.3h-2.4V179.9z"/>
	<path class="st14" d="M278.1,589.7l-0.5-1.5h-3.5l-0.5,1.5h-1.7l3.3-9.1h1.5l3.3,9.1H278.1z M275.8,583.2l-1.2,3.5h2.5L275.8,583.2
		L275.8,583.2z M281,587.3v-3h-1.1v-1.4h1.1v-1.7h1.6v1.7h1.7v1.4h-1.7v2.8c0,0.4,0.1,0.6,0.2,0.8c0.1,0.1,0.4,0.2,0.7,0.2h0.6v1.6
		h-0.7c-0.9,0-1.6-0.2-1.9-0.6C281.1,588.8,281,588.1,281,587.3z M285.9,587.3v-3h-1.1v-1.4h1.1v-1.7h1.6v1.7h1.7v1.4h-1.7v2.8
		c0,0.4,0.1,0.6,0.2,0.8c0.1,0.1,0.4,0.2,0.7,0.2h0.6v1.6h-0.7c-0.9,0-1.6-0.2-1.9-0.6C286,588.8,285.9,588.1,285.9,587.3z
		 M294.3,589.7v-0.7h0c0,0,0,0.1-0.1,0.1c0,0-0.1,0.1-0.2,0.2c-0.1,0.1-0.2,0.2-0.4,0.3s-0.3,0.1-0.5,0.2c-0.2,0.1-0.5,0.1-0.7,0.1
		c-0.8,0-1.5-0.2-1.9-0.6c-0.4-0.4-0.6-0.9-0.6-1.5c0-0.6,0.2-1.1,0.5-1.4c0.4-0.3,1-0.6,1.8-0.8c0.8-0.2,1.3-0.3,1.5-0.5
		c0.2-0.1,0.3-0.3,0.3-0.5s-0.1-0.4-0.3-0.5c-0.2-0.1-0.5-0.2-0.9-0.2c-0.5,0-0.8,0.1-1,0.3c-0.2,0.2-0.4,0.5-0.5,0.8l-1.4-0.6
		c0.2-0.6,0.5-1.1,1-1.4c0.5-0.4,1.1-0.6,1.9-0.6c0.8,0,1.5,0.2,2.1,0.7c0.5,0.4,0.8,1.1,0.8,2.1v4.4H294.3z M292.6,586.9
		c-0.4,0.1-0.7,0.2-0.9,0.4c-0.1,0.1-0.2,0.3-0.2,0.5c0,0.5,0.3,0.7,1,0.7c0.5,0,0.9-0.1,1.1-0.3c0.3-0.2,0.4-0.4,0.4-0.7v-1.2h0
		c0,0.1-0.1,0.1-0.1,0.2c0,0-0.2,0.1-0.4,0.2C293.4,586.7,293,586.8,292.6,586.9z M301.6,587l1.6,0.4c-0.2,0.8-0.5,1.5-1,1.9
		c-0.5,0.4-1.2,0.7-2,0.7c-0.9,0-1.7-0.3-2.3-1c-0.6-0.6-0.9-1.5-0.9-2.7c0-1.1,0.3-2,0.9-2.7c0.6-0.7,1.4-1,2.3-1
		c0.8,0,1.4,0.2,1.9,0.7c0.5,0.5,0.8,1.1,1,1.8l-1.6,0.3c-0.2-0.8-0.6-1.3-1.3-1.3c-0.5,0-0.9,0.2-1.1,0.5c-0.3,0.4-0.4,0.9-0.4,1.6
		s0.1,1.2,0.4,1.6c0.3,0.4,0.7,0.5,1.1,0.5C301,588.4,301.4,587.9,301.6,587z M304.5,589.7v-9.5h1.7v5.4h0l2.5-2.8h2.1l-2.5,2.8
		l2.7,4.1h-1.9l-2.1-3.1h0l-0.9,1v2.2H304.5z M316.2,587.4l1.2,1c-0.7,1-1.7,1.5-2.8,1.5c-1,0-1.7-0.3-2.4-1
		c-0.6-0.7-0.9-1.6-0.9-2.7s0.3-2,0.9-2.6c0.6-0.7,1.4-1,2.3-1c0.9,0,1.7,0.3,2.3,1c0.6,0.7,0.9,1.5,0.9,2.6v0.5H313
		c0,0.5,0.2,0.9,0.4,1.2c0.3,0.3,0.6,0.4,1.1,0.4c0.4,0,0.7-0.1,1-0.3C315.7,588,315.9,587.7,316.2,587.4z M313,585.5h3
		c0-0.4-0.2-0.8-0.5-1c-0.3-0.3-0.6-0.4-1.1-0.4c-0.4,0-0.8,0.1-1,0.4C313.1,584.8,313,585.1,313,585.5z M318.9,589.7v-6.9h1.6v0.7
		h0c0.1-0.3,0.3-0.5,0.6-0.6c0.3-0.2,0.5-0.2,0.8-0.2c0.2,0,0.4,0,0.6,0.1l-0.3,1.6c-0.2-0.1-0.4-0.1-0.5-0.1
		c-0.8,0-1.2,0.5-1.2,1.6v3.8H318.9z M323.2,587.5l1.5-0.4c0.1,1,0.6,1.4,1.5,1.4c0.4,0,0.7-0.1,1-0.2c0.3-0.1,0.4-0.3,0.4-0.6
		c0-0.2-0.1-0.3-0.3-0.4c-0.2-0.1-0.6-0.2-1.2-0.4c-0.2,0-0.3-0.1-0.4-0.1c-0.8-0.2-1.4-0.5-1.8-0.8c-0.4-0.3-0.6-0.7-0.6-1.2
		c0-0.6,0.2-1.1,0.7-1.5c0.5-0.4,1.1-0.6,1.9-0.6c1.5,0,2.5,0.7,2.9,2l-1.4,0.4c-0.1-0.3-0.3-0.6-0.5-0.8c-0.2-0.2-0.5-0.3-1-0.3
		c-0.3,0-0.6,0.1-0.8,0.2c-0.2,0.1-0.3,0.3-0.3,0.4c0,0.2,0.1,0.3,0.3,0.5c0.2,0.1,0.8,0.3,1.7,0.5c0.8,0.2,1.4,0.5,1.6,0.8
		c0.3,0.3,0.4,0.8,0.4,1.3c0,0.6-0.2,1.1-0.7,1.5c-0.5,0.4-1.2,0.7-2.1,0.7c-1,0-1.7-0.2-2.2-0.7
		C323.6,588.7,323.3,588.2,323.2,587.5z"/>
	<path class="st15" d="M366.5,57.1h1.2c0.3,0,0.6,0,0.8-0.1c0.2-0.1,0.5-0.2,0.7-0.4c0.2-0.2,0.4-0.5,0.5-0.9
		c0.1-0.4,0.2-0.9,0.2-1.5c0-1-0.2-1.8-0.6-2.2c-0.4-0.5-0.9-0.7-1.5-0.7h-1.3V57.1z M364.8,58.7v-9.1h3c0.5,0,1,0.1,1.5,0.3
		c0.5,0.2,0.9,0.5,1.2,0.8c0.4,0.4,0.7,0.8,0.9,1.4c0.2,0.6,0.3,1.3,0.3,2c0,0.8-0.1,1.6-0.3,2.2c-0.2,0.6-0.5,1.1-0.9,1.4
		c-0.4,0.3-0.8,0.6-1.3,0.7c-0.5,0.2-0.9,0.2-1.5,0.2H364.8z M377.6,56.4l1.2,1c-0.7,1-1.7,1.5-2.8,1.5c-1,0-1.7-0.3-2.4-1
		c-0.6-0.7-0.9-1.6-0.9-2.7s0.3-2,0.9-2.6c0.6-0.7,1.4-1,2.3-1c0.9,0,1.7,0.3,2.3,1c0.6,0.7,0.9,1.5,0.9,2.6v0.5h-4.6
		c0,0.5,0.2,0.9,0.4,1.2c0.3,0.3,0.6,0.4,1.1,0.4c0.4,0,0.7-0.1,1-0.3C377.1,57,377.4,56.7,377.6,56.4z M374.4,54.5h3
		c0-0.4-0.2-0.8-0.5-1c-0.3-0.3-0.6-0.4-1.1-0.4c-0.4,0-0.8,0.1-1,0.4C374.6,53.8,374.4,54.1,374.4,54.5z M380.7,58.7v-5.5h-1.1
		v-1.4h1.1v-1c0-0.6,0.2-1,0.5-1.2c0.3-0.3,0.8-0.4,1.4-0.4h1.4v1.5h-1c-0.2,0-0.4,0-0.4,0.1c-0.1,0.1-0.1,0.2-0.1,0.4v0.6h1.7v1.4
		h-1.7v5.5H380.7z M389.5,56.4l1.2,1c-0.7,1-1.7,1.5-2.8,1.5c-1,0-1.7-0.3-2.4-1c-0.6-0.7-0.9-1.6-0.9-2.7s0.3-2,0.9-2.6
		c0.6-0.7,1.4-1,2.3-1c0.9,0,1.7,0.3,2.3,1c0.6,0.7,0.9,1.5,0.9,2.6v0.5h-4.6c0,0.5,0.2,0.9,0.4,1.2c0.3,0.3,0.6,0.4,1.1,0.4
		c0.4,0,0.7-0.1,1-0.3C389,57,389.3,56.7,389.5,56.4z M386.3,54.5h3c0-0.4-0.2-0.8-0.5-1c-0.3-0.3-0.6-0.4-1.1-0.4
		c-0.4,0-0.8,0.1-1,0.4C386.5,53.8,386.3,54.1,386.3,54.5z M392.3,58.7v-6.9h1.6v0.7h0c0.2-0.2,0.5-0.4,0.8-0.6
		c0.3-0.2,0.7-0.2,1-0.2c0.8,0,1.4,0.2,1.8,0.7c0.4,0.5,0.6,1.1,0.6,1.9v4.5h-1.7v-4.1c0-0.5-0.1-0.8-0.3-1.1
		c-0.2-0.2-0.5-0.4-0.9-0.4c-0.4,0-0.7,0.1-1,0.4c-0.2,0.2-0.4,0.6-0.4,0.9v4.2H392.3z M404.2,55.9v-1.3c0-0.4-0.1-0.8-0.4-1.1
		c-0.3-0.3-0.6-0.4-1.1-0.4c-0.5,0-0.9,0.2-1.2,0.5c-0.3,0.4-0.4,0.9-0.4,1.6c0,0.7,0.1,1.2,0.4,1.6c0.3,0.4,0.7,0.5,1.2,0.5
		c0.5,0,0.8-0.1,1.1-0.4C404.1,56.7,404.2,56.3,404.2,55.9z M404.3,58.7v-0.7h0c0,0.1-0.1,0.1-0.2,0.2c-0.1,0.1-0.3,0.2-0.6,0.4
		c-0.3,0.2-0.7,0.2-1,0.2c-0.9,0-1.6-0.3-2.2-1c-0.5-0.7-0.8-1.5-0.8-2.7c0-1.1,0.3-2,0.9-2.7c0.6-0.7,1.3-1,2.1-1
		c0.4,0,0.7,0.1,1,0.2c0.3,0.1,0.5,0.3,0.6,0.4l0.2,0.2h0v-3.3h1.7v9.5H404.3z M412.2,56.4l1.2,1c-0.7,1-1.7,1.5-2.8,1.5
		c-1,0-1.7-0.3-2.4-1c-0.6-0.7-0.9-1.6-0.9-2.7s0.3-2,0.9-2.6c0.6-0.7,1.4-1,2.3-1c0.9,0,1.7,0.3,2.3,1c0.6,0.7,0.9,1.5,0.9,2.6v0.5
		H409c0,0.5,0.2,0.9,0.4,1.2c0.3,0.3,0.6,0.4,1.1,0.4c0.4,0,0.7-0.1,1-0.3C411.7,57,412,56.7,412.2,56.4z M409,54.5h3
		c0-0.4-0.2-0.8-0.5-1c-0.3-0.3-0.6-0.4-1.1-0.4c-0.4,0-0.8,0.1-1,0.4C409.2,53.8,409,54.1,409,54.5z M415,58.7v-6.9h1.6v0.7h0
		c0.1-0.3,0.3-0.5,0.6-0.6c0.3-0.2,0.5-0.2,0.8-0.2c0.2,0,0.4,0,0.6,0.1l-0.3,1.6c-0.2-0.1-0.4-0.1-0.5-0.1c-0.8,0-1.2,0.5-1.2,1.6
		v3.8H415z M419.2,56.5l1.5-0.4c0.1,1,0.6,1.4,1.5,1.4c0.4,0,0.7-0.1,1-0.2c0.3-0.1,0.4-0.3,0.4-0.6c0-0.2-0.1-0.3-0.3-0.4
		c-0.2-0.1-0.6-0.2-1.2-0.4c-0.2,0-0.3-0.1-0.4-0.1c-0.8-0.2-1.4-0.5-1.8-0.8c-0.4-0.3-0.6-0.7-0.6-1.2c0-0.6,0.2-1.1,0.7-1.5
		c0.5-0.4,1.1-0.6,1.9-0.6c1.5,0,2.5,0.7,2.9,2l-1.4,0.4c-0.1-0.3-0.3-0.6-0.5-0.8c-0.2-0.2-0.5-0.3-1-0.3c-0.3,0-0.6,0.1-0.8,0.2
		c-0.2,0.1-0.3,0.3-0.3,0.4c0,0.2,0.1,0.3,0.3,0.5c0.2,0.1,0.8,0.3,1.7,0.5c0.8,0.2,1.4,0.5,1.6,0.8c0.3,0.3,0.4,0.8,0.4,1.3
		c0,0.6-0.2,1.1-0.7,1.5c-0.5,0.4-1.2,0.7-2.1,0.7c-1,0-1.7-0.2-2.2-0.7C419.6,57.7,419.3,57.2,419.2,56.5z"/>
</g>
</svg>
