<?xml version="1.0" encoding="utf-8"?>
<!-- Generator: Adobe Illustrator 24.0.2, SVG Export Plug-In . SVG Version: 6.00 Build 0)  -->
<svg version="1.1" id="Layer_1" xmlns="http://www.w3.org/2000/svg" xmlns:xlink="http://www.w3.org/1999/xlink" x="0px" y="0px"
	 viewBox="0 0 708 708" style="enable-background:new 0 0 708 708;" xml:space="preserve">
<style type="text/css">
	.st0{fill:#15181E;}
	.st1{fill:#101319;}
	.st2{fill-rule:evenodd;clip-rule:evenodd;fill:#22252B;}
	.st3{fill:#22252B;}
	.st4{fill-rule:evenodd;clip-rule:evenodd;fill:#15181E;}
	.st5{fill:#0B0D12;}
	.st6{fill:#7986A3;}
	
		.st7{opacity:0.5;fill:#4D5F83;fill-opacity:0.15;stroke:#4D5F83;stroke-width:1.6433;stroke-miterlimit:16;enable-background:new    ;}
	.st8{opacity:0.15;}
	.st9{fill:#C4C4C4;filter:url(#Adobe_OpacityMaskFilter);}
	.st10{mask:url(#mask0_2_);}
	.st11{fill:#4D5F83;}
	.st12{fill:#C4C4C4;filter:url(#Adobe_OpacityMaskFilter_1_);}
	.st13{mask:url(#mask1_2_);}
	.st14{fill:#E5EBEF;}
	.st15{fill:#24E8CC;}
	.st16{fill:#F44348;}
</style>
<path class="st0" d="M84.4,89.3h127.9h2v4h2V122H84.4V89.3z"/>
<path class="st0" d="M287.7,82.3v12.9V122l36.7-39.7H287.7z"/>
<rect x="216.3" y="89.3" class="st0" width="71.4" height="32.7"/>
<path class="st0" d="M296.6,14.4l-7.4,39.2l-1.5,28.8h102.1V48.6l-4-11.9l-7.4-20.8l-28.8-5L340.2,2h-32.7L296.6,14.4z"/>
<path class="st0" d="M387.8,123.5l-29.7-41.1h31.7v10.9H488h10.4h12.4h56.5v33.7h-50.6h-14.9v-9.4h-6.9v5.9H387.8z"/>
<rect x="191.5" y="289.5" class="st0" width="26.8" height="16.9"/>
<path class="st0" d="M263.9,289.5h-45.6v16.4l-7.9,13.4V357h-25.8v43.6h79.3V289.5z"/>
<rect x="263.9" y="287.6" class="st0" width="4" height="23.8"/>
<path class="st0" d="M228.2,276.7v12.9h35.7v-12.9H228.2z"/>
<rect x="153.8" y="298.5" class="st0" width="37.7" height="40.7"/>
<rect x="163.8" y="279.6" class="st0" width="27.8" height="18.8"/>
<rect x="213.3" y="398.6" class="st0" width="37.7" height="35.7"/>
<rect x="251" y="412.5" class="st0" width="99.2" height="21.8"/>
<path class="st0" d="M324.4,412.5V348H375v34.7h-13.9l-10.9,12.9v16.9H324.4z"/>
<rect x="403.7" y="131.9" class="st0" width="21.8" height="44.6"/>
<rect x="425.5" y="158.7" class="st0" width="8.9" height="17.8"/>
<rect x="403.7" y="122" class="st0" width="21.8" height="9.9"/>
<path class="st0" d="M534.2,137.6v-10.7h19.6v10.7l18.5,16.1h-56.5L534.2,137.6z"/>
<rect x="453.3" y="359.9" class="st0" width="45.6" height="48.6"/>
<rect x="384.9" y="292.5" class="st0" width="51.6" height="38.7"/>
<rect x="406.7" y="322.3" class="st0" width="29.7" height="49.6"/>
<rect x="469.1" y="350" class="st0" width="29.7" height="9.9"/>
<rect x="436.4" y="359.9" class="st0" width="29.7" height="22.8"/>
<rect x="480.1" y="418.4" class="st0" width="52.6" height="107.1"/>
<rect x="274.8" y="434.3" class="st0" width="19.8" height="28.8"/>
<rect x="55.7" y="306.4" class="st0" width="34.7" height="92.2"/>
<path class="st0" d="M55.7,442.2v-35.7h100.1v31.7h10.9v53.5h-61.5L55.7,442.2z"/>
<path class="st0" d="M66.6,406.5v-29.7h118.5v23.8h-29.2v5.9H66.6z"/>
<rect x="532.6" y="418.4" class="st0" width="74.4" height="40.7"/>
<path class="st1" d="M609.9,462.1v-44.6h35.8l12.8,11.4v19.9l-12.8,13.3H609.9z"/>
<path class="st2" d="M637.1,439.9l6.5-6.5l-3.2-3.2l-6.5,6.5l-6.7-6.7l-3.2,3.2l6.7,6.7l-6.7,6.7l3.2,3.2l6.7-6.7l6.7,6.7l3.2-3.2
	L637.1,439.9z"/>
<rect x="581.2" y="345.1" class="st0" width="47.6" height="69.4"/>
<rect x="553.4" y="386.7" class="st0" width="53.5" height="31.7"/>
<rect x="522.7" y="273.7" class="st0" width="90.2" height="21.8"/>
<rect x="612.9" y="273.7" class="st0" width="23.8" height="37.7"/>
<rect x="581.2" y="293.5" class="st0" width="31.7" height="45.6"/>
<rect x="589.1" y="339.1" class="st0" width="12.9" height="5.9"/>
<path class="st0" d="M84.4,144.8V122h16.9l0.5,51.6H58.7v5h5.9v15.9h41.6v-67.4h96.2v26.8h12.9v37.7h-20.8V235h-46.6l-16.1,20.8
	H80.5v-41.6H33.9v-35.7h7.9v-5h-7.9v-28.8H84.4z"/>
<rect x="103.3" y="255.8" class="st0" width="23.8" height="6.9"/>
<path class="st0" d="M141,262.8v37.7l-9.9,10.9h-29.7l-8.9-19.8v21.8H28.9v-43.6h60.5v5h3v-11.9H141z"/>
<rect x="181.6" y="122" class="st0" width="17.8" height="5"/>
<rect x="161.8" y="235" class="st0" width="18.8" height="3"/>
<rect x="153.8" y="238" class="st0" width="37.7" height="41.6"/>
<rect x="530.6" y="265.7" class="st0" width="15.9" height="7.9"/>
<rect x="274.8" y="279.6" class="st0" width="5" height="19.8"/>
<path class="st1" d="M267.9,321.3v-44.6h37.7l13.9,9.9v25.8l-12.9,8.9H267.9z"/>
<rect x="607" y="432.3" class="st0" width="3" height="17.8"/>
<rect x="375" y="355.5" class="st0" width="5.9" height="12.9"/>
<rect x="380.9" y="347.1" class="st0" width="55.5" height="35.7"/>
<rect x="469.1" y="359" class="st1" width="29.7" height="1"/>
<rect x="453.3" y="408.5" class="st0" width="28.8" height="9.9"/>
<rect x="453.3" y="418.4" class="st0" width="43.6" height="40.7"/>
<rect x="553.4" y="386.7" class="st3" width="8.9" height="8.9"/>
<rect x="553.4" y="395.6" class="st3" width="4" height="4"/>
<path class="st4" d="M434.4,157.7l21.8-21.8h40.7v17.8h81.3v47.6h-18.8v21.8h18.8v42.6h-52.6v-13.9h-32.7v33.7h-38.7l-18.3,6.4
	l-34.7-0.5l0.5-17.8v-20.8h-22.8v-65.4h37.7v13.9h9.9v-13.9h21.8v-6.9h-13.9V157.7z M442.4,199.3h8.9v23.8h-54.5v-5.5h45.6V199.3z"
	/>
<rect x="474" y="206" class="st3" width="12" height="11"/>
<rect x="509.8" y="197.3" class="st3" width="11.9" height="19.8"/>
<rect x="521.7" y="197.3" class="st3" width="9.9" height="10.9"/>
<rect x="570.3" y="229.1" class="st3" width="7.9" height="7.9"/>
<rect x="570.3" y="237" class="st3" width="7.9" height="7.9"/>
<rect x="515.8" y="153.7" class="st5" width="56.5" height="1"/>
<rect x="569.3" y="256.8" class="st3" width="8.9" height="8.9"/>
<rect x="560.4" y="256.8" class="st3" width="8.9" height="8.9"/>
<rect x="484" y="251.9" class="st3" width="8.9" height="8.9"/>
<rect x="106.2" y="180.5" class="st3" width="12.9" height="11.9"/>
<rect x="80.5" y="221.1" class="st3" width="9.9" height="25.8"/>
<rect x="184.6" y="223.1" class="st3" width="9.9" height="11.9"/>
<path class="st2" d="M123.1,445.2c3.3,0,5.9-2.7,5.9-5.9c0-3.3-2.7-5.9-5.9-5.9c-3.3,0-5.9,2.7-5.9,5.9
	C117.2,442.6,119.8,445.2,123.1,445.2z M123.1,455.1c8.8,0,15.9-7.1,15.9-15.9s-7.1-15.9-15.9-15.9c-8.8,0-15.9,7.1-15.9,15.9
	S114.3,455.1,123.1,455.1z"/>
<rect x="128.1" y="163.6" class="st3" width="45.6" height="16.9"/>
<rect x="140" y="180.5" class="st3" width="24.8" height="10.9"/>
<rect x="164.7" y="153.7" class="st3" width="8.9" height="8.9"/>
<path class="st2" d="M297.1,298.9l6.5-6.5l-3.2-3.2l-6.5,6.5l-6.7-6.7l-3.2,3.2l6.7,6.7l-6.7,6.7l3.2,3.2l6.7-6.7l6.7,6.7l3.2-3.2
	L297.1,298.9z"/>
<path class="st3" d="M394.8,271.2c0.8,0,1.5-0.7,1.5-1.5c0-0.8-0.7-1.5-1.5-1.5V271.2z M359.1,269.7v-1.5c-0.8,0-1.5,0.7-1.5,1.5
	H359.1z M359.1,300.9v1.5c0.8,0,1.5-0.7,1.5-1.5H359.1z M322.8,299.9c-0.6,0.6-0.6,1.5,0,2.1l9.5,9.5c0.6,0.6,1.5,0.6,2.1,0
	s0.6-1.5,0-2.1l-8.5-8.5l8.5-8.5c0.6-0.6,0.6-1.5,0-2.1s-1.5-0.6-2.1,0L322.8,299.9z M394.8,268.2h-35.7v3h35.7V268.2z M357.6,269.7
	v31.2h3v-31.2H357.6z M359.1,299.4h-35.2v3h35.2V299.4z"/>
<path class="st3" d="M18,291.5V290c-0.8,0-1.5,0.7-1.5,1.5H18z M18,549.3h-1.5c0,0.8,0.7,1.5,1.5,1.5V549.3z M689.3,549.3v1.5
	c0.8,0,1.5-0.7,1.5-1.5H689.3z M668.9,442.7c-0.6,0.6-0.6,1.5,0,2.1l9.5,9.5c0.6,0.6,1.5,0.6,2.1,0c0.6-0.6,0.6-1.5,0-2.1l-8.5-8.5
	l8.5-8.5c0.6-0.6,0.6-1.5,0-2.1c-0.6-0.6-1.5-0.6-2.1,0L668.9,442.7z M268.4,550.8c0.8,0,1.5-0.7,1.5-1.5c0-0.8-0.7-1.5-1.5-1.5
	V550.8z M556.5,547.8c-0.8,0-1.5,0.7-1.5,1.5c0,0.8,0.7,1.5,1.5,1.5V547.8z M689.3,443.7h1.5c0-0.8-0.7-1.5-1.5-1.5V443.7z
	 M16.5,291.5v257.8h3V291.5H16.5z M18,293h5.9v-3H18V293z M18,550.8h250.4v-3H18V550.8z M556.5,550.8h132.7v-3H556.5V550.8z
	 M690.8,549.3V443.7h-3v105.6H690.8z M689.3,442.2h-19.3v3h19.3V442.2z"/>
<path class="st4" d="M166.7,463.1h142.8v-11.9h25.8v53l13.9,6.4l10.9,2l6.9,5.5l12.4,0.5l8.9,7.4l9.4,1l17.8-7.4l3.5,3l17.4-10.4
	l1.5-4.5l14.4-3.5H483h49.6v48.1l-43.1,41.1l-21.3,26.3l-14.4,10.9l-19.3,37.7l-1.5,25.8l-6.4,1.5l-4.5,9.4h-33.2l-25.8-22.3
	l-13.9-29.7l5-14.4l-28.3-28.3l-22.8-43.6l-21.8-42.1l-2.5-32.7h-112V463.1z M315,519.6l14.9,1l48.1,24.3l6.4-5l26.8,3l9.4-4l8.9-1
	l17.4-12.4l16.9-3l10.9,4.5l8.4,14.9l-2,4.5l-7.4,13.9l-15.9,20.3l-19.8,20.3l-0.5,7.4l-19.3,19.8l-5.9,9.4l-8.9,4L372,623.7
	l-11.4-22.8l-39.7-44.1L315,519.6z"/>
<rect x="232.2" y="459.1" class="st0" width="33.7" height="4"/>
<rect x="451.3" y="205" class="st3" width="22.7" height="14"/>
<rect x="426.5" y="223.1" class="st3" width="9.9" height="17.8"/>
<g>
	<path class="st6" d="M558.3,289.2l1.4-0.3c0.1,0.5,0.2,0.9,0.4,1.2c0.2,0.2,0.5,0.4,1,0.4c0.4,0,0.7-0.1,0.9-0.2
		c0.2-0.1,0.3-0.3,0.3-0.6c0-0.3-0.1-0.5-0.3-0.6c-0.2-0.2-0.7-0.3-1.5-0.6c-0.7-0.2-1.2-0.5-1.5-0.8c-0.3-0.3-0.4-0.7-0.4-1.2
		c0-0.5,0.2-1,0.6-1.4c0.4-0.4,1-0.6,1.7-0.6c0.7,0,1.2,0.2,1.7,0.5c0.5,0.3,0.8,0.8,0.9,1.4l-1.3,0.3c-0.2-0.7-0.6-1-1.3-1
		c-0.3,0-0.6,0.1-0.8,0.2c-0.2,0.1-0.2,0.3-0.2,0.5c0,0.2,0.1,0.4,0.3,0.5c0.2,0.1,0.7,0.3,1.5,0.6c0.8,0.3,1.3,0.5,1.6,0.9
		c0.3,0.3,0.4,0.7,0.4,1.2c0,0.6-0.2,1.1-0.7,1.5c-0.5,0.4-1.1,0.6-1.8,0.6c-0.8,0-1.4-0.2-1.9-0.6
		C558.6,290.7,558.4,290,558.3,289.2z M564.5,291.5v-7.2h1.3v2.5h0c0.1-0.2,0.3-0.3,0.5-0.5c0.2-0.1,0.5-0.2,0.7-0.2
		c0.6,0,1,0.2,1.3,0.5c0.3,0.3,0.5,0.8,0.5,1.4v3.5h-1.3v-3.2c0-0.3-0.1-0.5-0.2-0.7c-0.2-0.2-0.4-0.3-0.7-0.3
		c-0.3,0-0.5,0.1-0.7,0.3c-0.2,0.2-0.2,0.4-0.2,0.7v3.3H564.5z M571.5,290.1c0.2,0.3,0.5,0.4,0.9,0.4c0.4,0,0.7-0.1,0.9-0.4
		c0.2-0.3,0.3-0.7,0.3-1.2s-0.1-0.9-0.3-1.2c-0.2-0.3-0.5-0.4-0.9-0.4c-0.4,0-0.7,0.1-0.9,0.4c-0.2,0.3-0.3,0.7-0.3,1.2
		C571.1,289.4,571.2,289.8,571.5,290.1z M574.1,291c-0.5,0.5-1,0.7-1.8,0.7c-0.7,0-1.3-0.2-1.8-0.7c-0.5-0.5-0.7-1.2-0.7-2
		c0-0.9,0.2-1.5,0.7-2s1.1-0.7,1.7-0.7c0.7,0,1.3,0.2,1.7,0.7c0.5,0.5,0.7,1.2,0.7,2C574.8,289.8,574.5,290.5,574.1,291z
		 M576.6,291.5l-1.2-5.2h1.3l0.7,3.5h0l1.2-3.5h1.2l1.1,3.5h0l0.8-3.5h1.2l-1.3,5.2h-1.3l-1.2-3.8h0l-1.3,3.8H576.6z M587.1,289.7
		l0.9,0.8c-0.5,0.8-1.3,1.2-2.2,1.2c-0.7,0-1.3-0.2-1.8-0.7c-0.5-0.5-0.7-1.2-0.7-2s0.2-1.5,0.7-2c0.5-0.5,1-0.8,1.7-0.8
		c0.7,0,1.3,0.3,1.7,0.8c0.5,0.5,0.7,1.2,0.7,2v0.4h-3.5c0,0.4,0.1,0.7,0.3,0.9c0.2,0.2,0.5,0.3,0.8,0.3c0.3,0,0.5-0.1,0.7-0.2
		C586.8,290.2,586.9,290,587.1,289.7z M584.7,288.4h2.3c0-0.3-0.1-0.6-0.3-0.8c-0.2-0.2-0.5-0.3-0.8-0.3c-0.3,0-0.6,0.1-0.8,0.3
		C584.8,287.8,584.7,288.1,584.7,288.4z M589.2,291.5v-5.2h1.2v0.6h0c0.1-0.2,0.2-0.4,0.4-0.5c0.2-0.1,0.4-0.2,0.6-0.2
		c0.2,0,0.3,0,0.5,0.1l-0.2,1.2c-0.1-0.1-0.3-0.1-0.4-0.1c-0.6,0-0.9,0.4-0.9,1.2v2.9H589.2z M592.4,289.8l1.2-0.3
		c0.1,0.7,0.5,1.1,1.2,1.1c0.3,0,0.6,0,0.7-0.1c0.2-0.1,0.3-0.2,0.3-0.4c0-0.2-0.1-0.3-0.2-0.3c-0.1-0.1-0.4-0.2-0.9-0.3
		c-0.1,0-0.2-0.1-0.3-0.1c-0.6-0.2-1-0.4-1.3-0.6c-0.3-0.2-0.4-0.5-0.4-0.9c0-0.4,0.2-0.8,0.5-1.1c0.4-0.3,0.8-0.5,1.4-0.5
		c1.2,0,1.9,0.5,2.2,1.5l-1.1,0.3c-0.1-0.2-0.2-0.4-0.4-0.6c-0.2-0.1-0.4-0.2-0.7-0.2c-0.2,0-0.5,0-0.6,0.1
		c-0.1,0.1-0.2,0.2-0.2,0.3c0,0.1,0.1,0.3,0.3,0.3c0.2,0.1,0.6,0.2,1.3,0.4c0.6,0.2,1,0.4,1.2,0.6c0.2,0.2,0.3,0.6,0.3,1
		c0,0.4-0.2,0.8-0.6,1.1c-0.4,0.3-0.9,0.5-1.6,0.5c-0.7,0-1.3-0.2-1.7-0.5C592.8,290.8,592.5,290.3,592.4,289.8z M597.3,291.7
		l3.5-7.5l0.8,0.4l-3.5,7.5L597.3,291.7z M602.5,291.5v-6.9h2.9c0.6,0,1.1,0.2,1.5,0.5c0.4,0.4,0.6,0.8,0.6,1.3c0,0.6-0.2,1-0.8,1.3
		v0c0.3,0.1,0.5,0.3,0.7,0.6c0.2,0.3,0.3,0.6,0.3,1c0,0.7-0.2,1.2-0.6,1.6c-0.4,0.4-1.1,0.6-2,0.6H602.5z M603.8,290.3h1.6
		c0.6,0,0.9-0.3,0.9-0.9c0-0.3-0.1-0.5-0.3-0.7c-0.2-0.2-0.4-0.2-0.7-0.2h-1.6V290.3z M603.8,287.4h1.4c0.3,0,0.5-0.1,0.6-0.2
		c0.2-0.1,0.2-0.3,0.2-0.6c0-0.3-0.1-0.5-0.2-0.6c-0.2-0.1-0.4-0.2-0.6-0.2h-1.4V287.4z M611.8,291.5V291h0c0,0,0,0,0,0.1
		c0,0-0.1,0.1-0.1,0.1c-0.1,0.1-0.2,0.1-0.3,0.2c-0.1,0.1-0.2,0.1-0.4,0.2c-0.2,0-0.4,0.1-0.6,0.1c-0.6,0-1.1-0.1-1.4-0.4
		c-0.3-0.3-0.5-0.7-0.5-1.1c0-0.5,0.1-0.8,0.4-1c0.3-0.2,0.7-0.4,1.4-0.6c0.6-0.1,1-0.3,1.1-0.3c0.2-0.1,0.2-0.2,0.2-0.4
		s-0.1-0.3-0.2-0.4c-0.1-0.1-0.4-0.2-0.7-0.2c-0.3,0-0.6,0.1-0.7,0.2c-0.2,0.2-0.3,0.4-0.4,0.6l-1.1-0.4c0.1-0.4,0.4-0.8,0.7-1.1
		c0.4-0.3,0.8-0.4,1.4-0.4c0.6,0,1.2,0.2,1.6,0.5c0.4,0.3,0.6,0.9,0.6,1.6v3.3H611.8z M610.5,289.4c-0.3,0.1-0.5,0.2-0.7,0.3
		c-0.1,0.1-0.1,0.2-0.1,0.4c0,0.4,0.3,0.5,0.8,0.5c0.4,0,0.7-0.1,0.9-0.2c0.2-0.2,0.3-0.3,0.3-0.6v-0.9h0c0,0.1-0.1,0.1-0.1,0.1
		c0,0-0.1,0.1-0.3,0.1C611,289.3,610.8,289.3,610.5,289.4z M614.4,289.7v-2.3h-0.8v-1.1h0.8V285h1.2v1.3h1.3v1.1h-1.3v2.2
		c0,0.3,0,0.5,0.1,0.6s0.3,0.2,0.6,0.2h0.4v1.2h-0.5c-0.7,0-1.2-0.1-1.4-0.4C614.5,290.8,614.4,290.3,614.4,289.7z M617.9,291.5
		v-7.2h1.3v2.5h0c0.1-0.2,0.3-0.3,0.5-0.5c0.2-0.1,0.5-0.2,0.8-0.2c0.6,0,1,0.2,1.3,0.5c0.3,0.3,0.5,0.8,0.5,1.4v3.5H621v-3.2
		c0-0.3-0.1-0.5-0.2-0.7c-0.2-0.2-0.4-0.3-0.7-0.3c-0.3,0-0.5,0.1-0.7,0.3c-0.2,0.2-0.2,0.4-0.2,0.7v3.3H617.9z"/>
	<path class="st6" d="M563.3,424.5l-0.4-1.1h-2.6l-0.4,1.1h-1.3l2.5-6.9h1.1l2.5,6.9H563.3z M561.6,419.6l-0.9,2.7h1.9L561.6,419.6
		L561.6,419.6z M567.9,424.5v-6.9h1.3v5.7h2.9v1.2H567.9z M574.2,423.1c0.2,0.3,0.5,0.4,0.9,0.4c0.4,0,0.7-0.1,0.9-0.4
		c0.2-0.3,0.3-0.7,0.3-1.2s-0.1-0.9-0.3-1.2c-0.2-0.3-0.5-0.4-0.9-0.4c-0.4,0-0.7,0.1-0.9,0.4c-0.2,0.3-0.3,0.7-0.3,1.2
		C573.9,422.4,574,422.8,574.2,423.1z M576.8,424c-0.5,0.5-1,0.7-1.8,0.7c-0.7,0-1.3-0.2-1.8-0.7c-0.5-0.5-0.7-1.2-0.7-2
		c0-0.9,0.2-1.5,0.7-2c0.5-0.5,1.1-0.7,1.7-0.7c0.7,0,1.3,0.2,1.7,0.7c0.5,0.5,0.7,1.2,0.7,2C577.5,422.8,577.3,423.5,576.8,424z
		 M579.8,421.4v1c0,0.3,0.1,0.6,0.3,0.8c0.2,0.2,0.5,0.3,0.8,0.3c0.4,0,0.7-0.1,0.9-0.4c0.2-0.3,0.3-0.7,0.3-1.2
		c0-0.5-0.1-0.9-0.3-1.2c-0.2-0.3-0.5-0.4-0.9-0.4c-0.3,0-0.6,0.1-0.8,0.3C579.9,420.9,579.8,421.1,579.8,421.4z M578.5,424.5v-7.2
		h1.3v2.5h0c0,0,0,0,0-0.1c0,0,0.1-0.1,0.1-0.2c0.1-0.1,0.2-0.1,0.3-0.2c0.1-0.1,0.2-0.1,0.4-0.2c0.2,0,0.3-0.1,0.5-0.1
		c0.6,0,1.2,0.3,1.6,0.8c0.4,0.5,0.6,1.2,0.6,2c0,0.8-0.2,1.5-0.6,2c-0.4,0.5-1,0.7-1.6,0.7c-0.3,0-0.5-0.1-0.8-0.2
		c-0.2-0.1-0.4-0.2-0.5-0.3l-0.1-0.2h0v0.5H578.5z M585.7,421.4v1c0,0.3,0.1,0.6,0.3,0.8c0.2,0.2,0.5,0.3,0.8,0.3
		c0.4,0,0.7-0.1,0.9-0.4c0.2-0.3,0.3-0.7,0.3-1.2c0-0.5-0.1-0.9-0.3-1.2c-0.2-0.3-0.5-0.4-0.9-0.4c-0.3,0-0.6,0.1-0.8,0.3
		C585.8,420.9,585.7,421.1,585.7,421.4z M584.4,424.5v-7.2h1.3v2.5h0c0,0,0,0,0-0.1c0,0,0.1-0.1,0.1-0.2c0.1-0.1,0.2-0.1,0.3-0.2
		c0.1-0.1,0.2-0.1,0.4-0.2c0.2,0,0.3-0.1,0.5-0.1c0.6,0,1.2,0.3,1.6,0.8c0.4,0.5,0.6,1.2,0.6,2c0,0.8-0.2,1.5-0.6,2
		c-0.4,0.5-1,0.7-1.6,0.7c-0.3,0-0.5-0.1-0.8-0.2c-0.2-0.1-0.4-0.2-0.5-0.3l-0.1-0.2h0v0.5H584.4z M590.6,426.8l1-2.5l-2.1-5h1.3
		l1.4,3.5h0l1.4-3.5h1.3l-3,7.4H590.6z"/>
	<path class="st6" d="M391.3,537.3l1.4,0.3c-0.1,0.8-0.4,1.4-0.9,1.9c-0.5,0.5-1.1,0.7-1.9,0.7c-0.9,0-1.6-0.3-2.2-0.9
		c-0.6-0.6-0.8-1.5-0.8-2.8c0-1.1,0.3-1.9,0.9-2.6c0.6-0.6,1.3-0.9,2.1-0.9c0.7,0,1.3,0.2,1.8,0.7c0.5,0.4,0.8,1,0.9,1.8l-1.3,0.2
		c-0.1-0.4-0.2-0.8-0.4-1c-0.2-0.3-0.5-0.4-0.9-0.4c-0.5,0-0.8,0.2-1.2,0.6c-0.3,0.4-0.5,1-0.5,1.7c0,0.8,0.2,1.5,0.5,1.9
		c0.3,0.4,0.7,0.6,1.2,0.6C390.7,539,391.2,538.4,391.3,537.3z M396.7,540.1v-0.5h0c0,0,0,0-0.1,0.1c0,0-0.1,0.1-0.1,0.1
		c-0.1,0.1-0.2,0.1-0.3,0.2c-0.1,0.1-0.2,0.1-0.4,0.2c-0.2,0-0.4,0.1-0.6,0.1c-0.6,0-1.1-0.1-1.4-0.4c-0.3-0.3-0.5-0.7-0.5-1.1
		c0-0.5,0.1-0.8,0.4-1c0.3-0.2,0.7-0.4,1.4-0.6c0.6-0.1,1-0.3,1.1-0.3c0.2-0.1,0.2-0.2,0.2-0.4c0-0.2-0.1-0.3-0.2-0.4
		c-0.1-0.1-0.4-0.2-0.7-0.2c-0.3,0-0.6,0.1-0.8,0.2c-0.2,0.2-0.3,0.4-0.4,0.6l-1.1-0.4c0.1-0.4,0.4-0.8,0.7-1.1
		c0.4-0.3,0.8-0.4,1.4-0.4c0.6,0,1.2,0.2,1.6,0.5c0.4,0.3,0.6,0.9,0.6,1.6v3.3H396.7z M395.4,537.9c-0.3,0.1-0.5,0.2-0.7,0.3
		c-0.1,0.1-0.1,0.2-0.1,0.4c0,0.4,0.3,0.5,0.8,0.5c0.4,0,0.7-0.1,0.9-0.2c0.2-0.2,0.3-0.3,0.3-0.6v-0.9h0c0,0.1-0.1,0.1-0.1,0.1
		c0,0-0.1,0.1-0.3,0.1C395.9,537.8,395.7,537.8,395.4,537.9z M400.2,540.1l-2.1-5.2h1.3l1.3,3.4h0l1.3-3.4h1.3l-2.1,5.2H400.2z
		 M407.4,538.3l0.9,0.8c-0.5,0.8-1.3,1.2-2.2,1.2c-0.7,0-1.3-0.2-1.8-0.7c-0.5-0.5-0.7-1.2-0.7-2c0-0.8,0.2-1.5,0.7-2
		c0.5-0.5,1-0.8,1.7-0.8c0.7,0,1.3,0.3,1.7,0.8c0.5,0.5,0.7,1.2,0.7,2v0.4H405c0,0.4,0.1,0.7,0.3,0.9c0.2,0.2,0.5,0.3,0.8,0.3
		c0.3,0,0.5-0.1,0.7-0.2C407,538.7,407.2,538.5,407.4,538.3z M405,536.9h2.3c0-0.3-0.1-0.6-0.3-0.8c-0.2-0.2-0.5-0.3-0.8-0.3
		c-0.3,0-0.6,0.1-0.8,0.3C405.1,536.3,405,536.6,405,536.9z"/>
	<path class="st6" d="M406.8,345.5l-0.4-1.1h-2.6l-0.4,1.1H402l2.5-6.9h1.1l2.5,6.9H406.8z M405.1,340.6l-0.9,2.7h1.9L405.1,340.6
		L405.1,340.6z M411,343.2l1.4-0.3c0.1,0.5,0.2,0.9,0.4,1.2c0.2,0.2,0.5,0.4,1,0.4c0.4,0,0.7-0.1,0.9-0.2c0.2-0.1,0.3-0.3,0.3-0.6
		c0-0.3-0.1-0.5-0.3-0.6c-0.2-0.2-0.7-0.3-1.5-0.6c-0.7-0.2-1.2-0.5-1.5-0.8c-0.3-0.3-0.4-0.7-0.4-1.2c0-0.5,0.2-1,0.6-1.4
		c0.4-0.4,1-0.6,1.7-0.6c0.7,0,1.2,0.2,1.7,0.5c0.5,0.3,0.8,0.8,0.9,1.4l-1.3,0.3c-0.2-0.7-0.6-1-1.3-1c-0.3,0-0.6,0.1-0.8,0.2
		c-0.2,0.1-0.2,0.3-0.2,0.5c0,0.2,0.1,0.4,0.3,0.5c0.2,0.1,0.7,0.3,1.5,0.6c0.8,0.3,1.3,0.5,1.6,0.9c0.3,0.3,0.4,0.7,0.4,1.2
		c0,0.6-0.2,1.1-0.7,1.5c-0.5,0.4-1.1,0.6-1.8,0.6c-0.8,0-1.4-0.2-1.9-0.6C411.4,344.7,411.1,344,411,343.2z M417.2,345.5v-7.2h1.3
		v2.5h0c0.1-0.2,0.3-0.3,0.5-0.5c0.2-0.1,0.5-0.2,0.7-0.2c0.6,0,1,0.2,1.3,0.5c0.3,0.3,0.5,0.8,0.5,1.4v3.5h-1.3v-3.2
		c0-0.3-0.1-0.5-0.2-0.7c-0.2-0.2-0.4-0.3-0.7-0.3c-0.3,0-0.5,0.1-0.7,0.3c-0.2,0.2-0.2,0.4-0.2,0.7v3.3H417.2z M424.2,344.1
		c0.2,0.3,0.5,0.4,0.9,0.4c0.4,0,0.7-0.1,0.9-0.4c0.2-0.3,0.3-0.7,0.3-1.2s-0.1-0.9-0.3-1.2c-0.2-0.3-0.5-0.4-0.9-0.4
		c-0.4,0-0.7,0.1-0.9,0.4c-0.2,0.3-0.3,0.7-0.3,1.2C423.9,343.4,424,343.8,424.2,344.1z M426.8,345c-0.5,0.5-1,0.7-1.8,0.7
		c-0.7,0-1.3-0.2-1.8-0.7c-0.5-0.5-0.7-1.2-0.7-2c0-0.9,0.2-1.5,0.7-2c0.5-0.5,1.1-0.7,1.7-0.7c0.7,0,1.3,0.2,1.7,0.7
		c0.5,0.5,0.7,1.2,0.7,2C427.5,343.8,427.3,344.5,426.8,345z M428.5,345.5v-5.2h1.2v0.6h0c0.1-0.2,0.2-0.4,0.4-0.5
		c0.2-0.1,0.4-0.2,0.6-0.2c0.2,0,0.3,0,0.5,0.1l-0.2,1.2c-0.1-0.1-0.3-0.1-0.4-0.1c-0.6,0-0.9,0.4-0.9,1.2v2.9H428.5z M432.5,343.7
		v-2.3h-0.8v-1.1h0.8V339h1.2v1.3h1.3v1.1h-1.3v2.2c0,0.3,0,0.5,0.1,0.6s0.3,0.2,0.6,0.2h0.4v1.2h-0.5c-0.7,0-1.2-0.1-1.4-0.4
		C432.7,344.8,432.5,344.3,432.5,343.7z"/>
	<path class="st6" d="M382.9,318.2l1.4,0.3c-0.1,0.8-0.4,1.4-0.9,1.9c-0.5,0.5-1.1,0.7-1.9,0.7c-0.9,0-1.6-0.3-2.2-0.9
		c-0.6-0.6-0.8-1.5-0.8-2.8c0-1.1,0.3-1.9,0.9-2.6c0.6-0.6,1.3-0.9,2.1-0.9c0.7,0,1.3,0.2,1.8,0.7c0.5,0.4,0.8,1,0.9,1.8l-1.3,0.2
		c-0.1-0.4-0.2-0.8-0.4-1c-0.2-0.3-0.5-0.4-0.9-0.4c-0.5,0-0.8,0.2-1.2,0.6c-0.3,0.4-0.5,1-0.5,1.7c0,0.8,0.2,1.5,0.5,1.9
		c0.3,0.4,0.7,0.6,1.2,0.6C382.3,319.9,382.7,319.3,382.9,318.2z M385.2,319.1v-3.4h1.3v3.2c0,0.3,0.1,0.6,0.2,0.7s0.3,0.2,0.6,0.2
		c0.3,0,0.6-0.1,0.8-0.2c0.2-0.2,0.3-0.4,0.3-0.8v-3.1h1.3v5.2h-1.2v-0.5h0c-0.3,0.4-0.8,0.6-1.4,0.6c-0.6,0-1.1-0.2-1.4-0.5
		C385.4,320.2,385.2,319.7,385.2,319.1z M392.3,317.8v1c0,0.3,0.1,0.6,0.3,0.8c0.2,0.2,0.5,0.3,0.8,0.3c0.4,0,0.7-0.1,0.9-0.4
		c0.2-0.3,0.3-0.7,0.3-1.2c0-0.5-0.1-0.9-0.3-1.2c-0.2-0.3-0.5-0.4-0.9-0.4c-0.3,0-0.6,0.1-0.8,0.3
		C392.4,317.3,392.3,317.5,392.3,317.8z M391,320.9v-7.2h1.3v2.5h0c0,0,0,0,0-0.1c0,0,0.1-0.1,0.1-0.2c0.1-0.1,0.2-0.1,0.3-0.2
		c0.1-0.1,0.2-0.1,0.4-0.2c0.2,0,0.3-0.1,0.5-0.1c0.6,0,1.2,0.3,1.6,0.8c0.4,0.5,0.6,1.2,0.6,2c0,0.8-0.2,1.5-0.6,2
		c-0.4,0.5-1,0.7-1.6,0.7c-0.3,0-0.5-0.1-0.8-0.2c-0.2-0.1-0.4-0.2-0.5-0.3l-0.1-0.2h0v0.5H391z M398.2,317.8v1
		c0,0.3,0.1,0.6,0.3,0.8c0.2,0.2,0.5,0.3,0.8,0.3c0.4,0,0.7-0.1,0.9-0.4c0.2-0.3,0.3-0.7,0.3-1.2c0-0.5-0.1-0.9-0.3-1.2
		c-0.2-0.3-0.5-0.4-0.9-0.4c-0.3,0-0.6,0.1-0.8,0.3C398.3,317.3,398.2,317.5,398.2,317.8z M396.9,320.9v-7.2h1.3v2.5h0
		c0,0,0,0,0-0.1c0,0,0.1-0.1,0.1-0.2c0.1-0.1,0.2-0.1,0.3-0.2c0.1-0.1,0.2-0.1,0.4-0.2c0.2,0,0.3-0.1,0.5-0.1c0.6,0,1.2,0.3,1.6,0.8
		c0.4,0.5,0.6,1.2,0.6,2c0,0.8-0.2,1.5-0.6,2c-0.4,0.5-1,0.7-1.6,0.7c-0.3,0-0.5-0.1-0.8-0.2c-0.2-0.1-0.4-0.2-0.5-0.3l-0.1-0.2h0
		v0.5H396.9z M403,323.2l1-2.5l-2.1-5h1.3l1.4,3.5h0l1.4-3.5h1.3l-3,7.4H403z"/>
	<path class="st6" d="M271.8,430v-6.9h1.3v5.7h2.9v1.2H271.8z M276.9,430v-5.2h1.3v5.2H276.9z M276.9,424v-1.2h1.3v1.2H276.9z
		 M279.5,430v-5.2h1.2v0.5h0c0.1-0.2,0.3-0.3,0.6-0.5s0.5-0.2,0.8-0.2c0.6,0,1,0.2,1.4,0.5c0.3,0.3,0.5,0.8,0.5,1.4v3.4h-1.3v-3.1
		c0-0.4-0.1-0.6-0.2-0.8c-0.1-0.2-0.4-0.3-0.7-0.3c-0.3,0-0.6,0.1-0.7,0.3c-0.2,0.2-0.3,0.4-0.3,0.7v3.2H279.5z M285.3,430v-7.2h1.3
		v4.1h0l1.9-2.2h1.6l-1.9,2.1l2.1,3.1h-1.4l-1.6-2.4h0l-0.7,0.8v1.6H285.3z"/>
	<path class="st6" d="M100.2,292.3c-0.9,0-1.6-0.3-2.2-0.9c-0.6-0.6-0.8-1.5-0.8-2.8c0-1.1,0.3-1.9,0.9-2.6c0.6-0.6,1.3-0.9,2.1-0.9
		c0.7,0,1.3,0.2,1.8,0.6c0.5,0.4,0.8,1,0.9,1.7l-1.3,0.2c-0.2-0.9-0.6-1.3-1.3-1.3c-0.5,0-0.8,0.2-1.2,0.6c-0.3,0.4-0.5,1-0.5,1.7
		c0,0.8,0.2,1.5,0.5,1.9c0.3,0.4,0.7,0.6,1.2,0.6c0.4,0,0.8-0.1,1-0.4c0.2-0.2,0.4-0.6,0.4-1h-1.3v-1.1h2.6v0.9
		c0,0.9-0.2,1.6-0.7,2.1C101.6,292.1,101,292.3,100.2,292.3z M106.9,292.2v-0.5h0c0,0,0,0,0,0.1c0,0-0.1,0.1-0.1,0.1
		c-0.1,0.1-0.2,0.1-0.3,0.2c-0.1,0.1-0.2,0.1-0.4,0.2c-0.2,0-0.4,0.1-0.6,0.1c-0.6,0-1.1-0.1-1.4-0.4c-0.3-0.3-0.5-0.7-0.5-1.1
		c0-0.5,0.1-0.8,0.4-1c0.3-0.2,0.7-0.4,1.4-0.6c0.6-0.1,1-0.3,1.1-0.3c0.2-0.1,0.2-0.2,0.2-0.4c0-0.2-0.1-0.3-0.2-0.4
		c-0.1-0.1-0.4-0.2-0.7-0.2c-0.3,0-0.6,0.1-0.7,0.2c-0.2,0.2-0.3,0.4-0.4,0.6l-1.1-0.4c0.1-0.4,0.4-0.8,0.7-1.1
		c0.4-0.3,0.8-0.4,1.4-0.4c0.6,0,1.2,0.2,1.6,0.5c0.4,0.3,0.6,0.9,0.6,1.6v3.3H106.9z M105.6,290c-0.3,0.1-0.5,0.2-0.7,0.3
		c-0.1,0.1-0.1,0.2-0.1,0.4c0,0.4,0.3,0.5,0.8,0.5c0.4,0,0.7-0.1,0.9-0.2c0.2-0.2,0.3-0.3,0.3-0.6v-0.9h0c0,0.1-0.1,0.1-0.1,0.1
		c0,0-0.1,0.1-0.3,0.1C106.2,289.9,105.9,290,105.6,290z M109.3,292.2V287h1.2v0.6h0c0.1-0.2,0.2-0.4,0.4-0.5
		c0.2-0.1,0.4-0.2,0.6-0.2c0.2,0,0.3,0,0.5,0.1l-0.2,1.2c-0.1-0.1-0.3-0.1-0.4-0.1c-0.6,0-0.9,0.4-0.9,1.2v2.9H109.3z M116.1,290v-1
		c0-0.3-0.1-0.6-0.3-0.8c-0.2-0.2-0.5-0.3-0.8-0.3c-0.4,0-0.7,0.1-0.9,0.4c-0.2,0.3-0.3,0.7-0.3,1.2c0,0.5,0.1,0.9,0.3,1.2
		c0.2,0.3,0.5,0.4,0.9,0.4c0.3,0,0.6-0.1,0.8-0.3C116,290.6,116.1,290.4,116.1,290z M116.2,292.2v-0.5h0c0,0-0.1,0.1-0.1,0.2
		c-0.1,0.1-0.2,0.2-0.5,0.3c-0.2,0.1-0.5,0.2-0.8,0.2c-0.7,0-1.2-0.2-1.7-0.8c-0.4-0.5-0.6-1.2-0.6-2c0-0.8,0.2-1.5,0.7-2
		c0.4-0.5,1-0.8,1.6-0.8c0.3,0,0.5,0.1,0.7,0.2c0.2,0.1,0.4,0.2,0.5,0.3l0.1,0.2h0V285h1.3v7.2H116.2z M122.2,290.4l0.9,0.8
		c-0.5,0.8-1.3,1.2-2.2,1.2c-0.7,0-1.3-0.2-1.8-0.8c-0.5-0.5-0.7-1.2-0.7-2s0.2-1.5,0.7-2c0.5-0.5,1-0.8,1.7-0.8s1.3,0.3,1.7,0.8
		c0.5,0.5,0.7,1.2,0.7,2v0.4h-3.5c0,0.4,0.1,0.7,0.3,0.9c0.2,0.2,0.5,0.3,0.8,0.3c0.3,0,0.5-0.1,0.7-0.2
		C121.8,290.8,122,290.6,122.2,290.4z M119.7,289h2.3c0-0.3-0.1-0.6-0.3-0.8c-0.2-0.2-0.5-0.3-0.8-0.3c-0.3,0-0.6,0.1-0.8,0.3
		C119.9,288.4,119.8,288.7,119.7,289z M124.3,292.2V287h1.2v0.5h0c0.1-0.2,0.3-0.3,0.6-0.5c0.2-0.1,0.5-0.2,0.8-0.2
		c0.6,0,1,0.2,1.4,0.5c0.3,0.3,0.5,0.8,0.5,1.4v3.4h-1.3v-3.1c0-0.4-0.1-0.6-0.2-0.8c-0.1-0.2-0.4-0.3-0.7-0.3
		c-0.3,0-0.6,0.1-0.7,0.3c-0.2,0.2-0.3,0.4-0.3,0.7v3.2H124.3z"/>
	<path class="st6" d="M219.1,350.7v-6.9h2.9c0.6,0,1.1,0.2,1.5,0.5c0.4,0.4,0.6,0.8,0.6,1.3c0,0.6-0.2,1-0.8,1.3v0
		c0.3,0.1,0.5,0.3,0.7,0.6c0.2,0.3,0.3,0.6,0.3,1c0,0.7-0.2,1.2-0.6,1.6c-0.4,0.4-1.1,0.6-2,0.6H219.1z M220.4,349.4h1.6
		c0.6,0,0.9-0.3,0.9-0.9c0-0.3-0.1-0.5-0.3-0.7c-0.2-0.2-0.4-0.2-0.7-0.2h-1.6V349.4z M220.4,346.6h1.4c0.3,0,0.5-0.1,0.6-0.2
		c0.2-0.1,0.2-0.3,0.2-0.6c0-0.3-0.1-0.5-0.2-0.6c-0.2-0.1-0.4-0.2-0.6-0.2h-1.4V346.6z M227.5,348.4l1.4-0.3
		c0.1,0.5,0.2,0.9,0.4,1.2c0.2,0.2,0.5,0.4,1,0.4c0.4,0,0.7-0.1,0.9-0.2c0.2-0.1,0.3-0.3,0.3-0.6c0-0.3-0.1-0.5-0.3-0.6
		c-0.2-0.2-0.7-0.3-1.5-0.6c-0.7-0.2-1.2-0.5-1.5-0.8c-0.3-0.3-0.4-0.7-0.4-1.2c0-0.5,0.2-1,0.6-1.4c0.4-0.4,1-0.6,1.7-0.6
		c0.7,0,1.2,0.2,1.7,0.5c0.5,0.3,0.8,0.8,0.9,1.4l-1.3,0.3c-0.2-0.6-0.6-1-1.3-1c-0.3,0-0.6,0.1-0.8,0.2c-0.2,0.1-0.2,0.3-0.2,0.5
		c0,0.2,0.1,0.4,0.3,0.5c0.2,0.1,0.7,0.3,1.5,0.6c0.8,0.3,1.3,0.5,1.6,0.9c0.3,0.3,0.4,0.7,0.4,1.2c0,0.6-0.2,1.1-0.7,1.5
		c-0.5,0.4-1.1,0.6-1.8,0.6c-0.8,0-1.4-0.2-1.9-0.6C227.9,349.8,227.6,349.2,227.5,348.4z M233.7,350.7v-7.2h1.3v2.5h0
		c0.1-0.2,0.3-0.3,0.5-0.5c0.2-0.1,0.5-0.2,0.7-0.2c0.6,0,1,0.2,1.3,0.5c0.3,0.3,0.5,0.8,0.5,1.4v3.5h-1.3v-3.2
		c0-0.3-0.1-0.5-0.2-0.7c-0.2-0.2-0.4-0.3-0.7-0.3c-0.3,0-0.5,0.1-0.7,0.3c-0.2,0.2-0.2,0.4-0.2,0.7v3.3H233.7z M240.7,349.3
		c0.2,0.3,0.5,0.4,0.9,0.4c0.4,0,0.7-0.1,0.9-0.4c0.2-0.3,0.3-0.7,0.3-1.2c0-0.5-0.1-0.9-0.3-1.2c-0.2-0.3-0.5-0.4-0.9-0.4
		c-0.4,0-0.7,0.1-0.9,0.4c-0.2,0.3-0.3,0.7-0.3,1.2C240.4,348.6,240.5,349,240.7,349.3z M243.3,350.1c-0.5,0.5-1,0.7-1.8,0.7
		c-0.7,0-1.3-0.2-1.8-0.7c-0.5-0.5-0.7-1.2-0.7-2c0-0.9,0.2-1.5,0.7-2c0.5-0.5,1.1-0.7,1.7-0.7c0.7,0,1.3,0.2,1.7,0.7
		c0.5,0.5,0.7,1.2,0.7,2C244,348.9,243.8,349.6,243.3,350.1z M245,350.7v-5.2h1.2v0.6h0c0.1-0.2,0.2-0.4,0.4-0.5
		c0.2-0.1,0.4-0.2,0.6-0.2c0.2,0,0.3,0,0.5,0.1l-0.2,1.2c-0.1-0.1-0.3-0.1-0.4-0.1c-0.6,0-0.9,0.4-0.9,1.2v2.9H245z M249,348.8v-2.3
		h-0.8v-1.1h0.8v-1.3h1.2v1.3h1.3v1.1h-1.3v2.2c0,0.3,0,0.5,0.1,0.6c0.1,0.1,0.3,0.2,0.6,0.2h0.4v1.2h-0.5c-0.7,0-1.2-0.1-1.4-0.4
		C249.1,349.9,249,349.5,249,348.8z"/>
	<path class="st6" d="M479.3,115.5v-5.7h-2v-1.2h5.4v1.2h-2v5.7H479.3z M483.9,114.1c0.2,0.3,0.5,0.4,0.9,0.4c0.4,0,0.7-0.1,0.9-0.4
		c0.2-0.3,0.3-0.7,0.3-1.2s-0.1-0.9-0.3-1.2c-0.2-0.3-0.5-0.4-0.9-0.4c-0.4,0-0.7,0.1-0.9,0.4c-0.2,0.3-0.3,0.7-0.3,1.2
		C483.6,113.4,483.7,113.8,483.9,114.1z M486.5,115c-0.5,0.5-1,0.7-1.8,0.7c-0.7,0-1.3-0.2-1.8-0.7c-0.5-0.5-0.7-1.2-0.7-2
		c0-0.9,0.2-1.5,0.7-2c0.5-0.5,1.1-0.7,1.7-0.7c0.7,0,1.3,0.2,1.7,0.7c0.5,0.5,0.7,1.2,0.7,2C487.2,113.8,487,114.5,486.5,115z
		 M489,115.5l-1.2-5.2h1.3l0.7,3.5h0l1.2-3.5h1.2l1.1,3.5h0l0.8-3.5h1.2l-1.3,5.2h-1.3l-1.2-3.8h0l-1.3,3.8H489z M499.6,113.7
		l0.9,0.8c-0.5,0.8-1.3,1.2-2.2,1.2c-0.7,0-1.3-0.2-1.8-0.7c-0.5-0.5-0.7-1.2-0.7-2s0.2-1.5,0.7-2c0.5-0.5,1-0.8,1.7-0.8
		c0.7,0,1.3,0.3,1.7,0.8c0.5,0.5,0.7,1.2,0.7,2v0.4h-3.5c0,0.4,0.1,0.7,0.3,0.9c0.2,0.2,0.5,0.3,0.8,0.3c0.3,0,0.5-0.1,0.7-0.2
		C499.2,114.2,499.4,114,499.6,113.7z M497.1,112.4h2.3c0-0.3-0.1-0.6-0.3-0.8c-0.2-0.2-0.5-0.3-0.8-0.3c-0.3,0-0.6,0.1-0.8,0.3
		C497.3,111.8,497.1,112.1,497.1,112.4z M501.7,115.5v-5.2h1.2v0.6h0c0.1-0.2,0.2-0.4,0.4-0.5c0.2-0.1,0.4-0.2,0.6-0.2
		c0.2,0,0.3,0,0.5,0.1l-0.2,1.2c-0.1-0.1-0.3-0.1-0.4-0.1c-0.6,0-0.9,0.4-0.9,1.2v2.9H501.7z M507.1,115.7l3.5-7.5l0.8,0.4l-3.5,7.5
		L507.1,115.7z M514.8,115.5v-6.9h1.3v2.8h2.4v-2.8h1.3v6.9h-1.3v-3h-2.4v3H514.8z M524.7,113.7l0.9,0.8c-0.5,0.8-1.3,1.2-2.2,1.2
		c-0.7,0-1.3-0.2-1.8-0.7c-0.5-0.5-0.7-1.2-0.7-2s0.2-1.5,0.7-2c0.5-0.5,1-0.8,1.7-0.8c0.7,0,1.3,0.3,1.7,0.8c0.5,0.5,0.7,1.2,0.7,2
		v0.4h-3.5c0,0.4,0.1,0.7,0.3,0.9c0.2,0.2,0.5,0.3,0.8,0.3c0.3,0,0.5-0.1,0.7-0.2C524.3,114.2,524.5,114,524.7,113.7z M522.2,112.4
		h2.3c0-0.3-0.1-0.6-0.3-0.8c-0.2-0.2-0.5-0.3-0.8-0.3c-0.3,0-0.6,0.1-0.8,0.3C522.4,111.8,522.2,112.1,522.2,112.4z M529.7,115.5
		V115h0c0,0,0,0,0,0.1c0,0-0.1,0.1-0.1,0.1c-0.1,0.1-0.2,0.1-0.3,0.2c-0.1,0.1-0.2,0.1-0.4,0.2c-0.2,0-0.4,0.1-0.6,0.1
		c-0.6,0-1.1-0.1-1.4-0.4c-0.3-0.3-0.5-0.7-0.5-1.1c0-0.5,0.1-0.8,0.4-1c0.3-0.2,0.7-0.4,1.4-0.6c0.6-0.1,1-0.3,1.1-0.3
		c0.2-0.1,0.2-0.2,0.2-0.4s-0.1-0.3-0.2-0.4c-0.1-0.1-0.4-0.2-0.7-0.2c-0.3,0-0.6,0.1-0.7,0.2c-0.2,0.2-0.3,0.4-0.4,0.6l-1.1-0.4
		c0.1-0.4,0.4-0.8,0.7-1.1c0.4-0.3,0.8-0.4,1.4-0.4c0.6,0,1.2,0.2,1.6,0.5c0.4,0.3,0.6,0.9,0.6,1.6v3.3H529.7z M528.4,113.4
		c-0.3,0.1-0.5,0.2-0.7,0.3c-0.1,0.1-0.1,0.2-0.1,0.4c0,0.4,0.3,0.5,0.8,0.5c0.4,0,0.7-0.1,0.9-0.2c0.2-0.2,0.3-0.3,0.3-0.6v-0.9h0
		c0,0.1-0.1,0.1-0.1,0.1c0,0-0.1,0.1-0.3,0.1C529,113.3,528.8,113.3,528.4,113.4z M533.3,115.5l-2.1-5.2h1.3l1.3,3.4h0l1.3-3.4h1.3
		l-2.1,5.2H533.3z M540.5,113.7l0.9,0.8c-0.5,0.8-1.3,1.2-2.2,1.2c-0.7,0-1.3-0.2-1.8-0.7c-0.5-0.5-0.7-1.2-0.7-2s0.2-1.5,0.7-2
		c0.5-0.5,1-0.8,1.7-0.8s1.3,0.3,1.7,0.8c0.5,0.5,0.7,1.2,0.7,2v0.4H538c0,0.4,0.1,0.7,0.3,0.9c0.2,0.2,0.5,0.3,0.8,0.3
		c0.3,0,0.5-0.1,0.7-0.2C540.1,114.2,540.3,114,540.5,113.7z M538,112.4h2.3c0-0.3-0.1-0.6-0.3-0.8c-0.2-0.2-0.5-0.3-0.8-0.3
		c-0.3,0-0.6,0.1-0.8,0.3C538.2,111.8,538,112.1,538,112.4z M542.6,115.5v-5.2h1.2v0.5h0c0.1-0.2,0.3-0.3,0.6-0.5
		c0.2-0.1,0.5-0.2,0.8-0.2c0.6,0,1,0.2,1.4,0.5c0.3,0.3,0.5,0.8,0.5,1.4v3.4h-1.3v-3.1c0-0.4-0.1-0.6-0.2-0.8
		c-0.1-0.2-0.4-0.3-0.7-0.3c-0.3,0-0.6,0.1-0.7,0.3c-0.2,0.2-0.3,0.4-0.3,0.7v3.2H542.6z"/>
	<path class="st6" d="M31,298.1v-6.9h2.9c0.6,0,1.1,0.2,1.5,0.5c0.4,0.4,0.6,0.8,0.6,1.3c0,0.6-0.2,1-0.7,1.3v0
		c0.3,0.1,0.5,0.3,0.7,0.6c0.2,0.3,0.3,0.6,0.3,1c0,0.7-0.2,1.2-0.6,1.6c-0.4,0.4-1.1,0.6-2,0.6H31z M32.3,296.9h1.6
		c0.6,0,0.9-0.3,0.9-0.9c0-0.3-0.1-0.5-0.3-0.7c-0.2-0.2-0.4-0.2-0.7-0.2h-1.6V296.9z M32.3,294h1.4c0.3,0,0.5-0.1,0.6-0.2
		c0.2-0.1,0.2-0.3,0.2-0.6c0-0.3-0.1-0.5-0.2-0.6c-0.2-0.1-0.4-0.2-0.6-0.2h-1.4V294z M39.9,298.1v-6.9h2.8c0.7,0,1.3,0.2,1.7,0.6
		c0.4,0.4,0.7,0.9,0.7,1.6c0,0.7-0.2,1.2-0.6,1.6c-0.4,0.4-1,0.6-1.7,0.6h-1.5v2.5H39.9z M41.2,294.4h1.4c0.3,0,0.5-0.1,0.7-0.3
		c0.2-0.2,0.3-0.4,0.3-0.7c0-0.3-0.1-0.6-0.3-0.7c-0.2-0.2-0.4-0.2-0.7-0.2h-1.4V294.4z M47,296.7c0.2,0.3,0.5,0.4,0.9,0.4
		c0.4,0,0.7-0.1,0.9-0.4c0.2-0.3,0.3-0.7,0.3-1.2c0-0.5-0.1-0.9-0.3-1.2c-0.2-0.3-0.5-0.4-0.9-0.4c-0.4,0-0.7,0.1-0.9,0.4
		c-0.2,0.3-0.3,0.7-0.3,1.2C46.7,296,46.8,296.4,47,296.7z M49.6,297.5c-0.5,0.5-1,0.7-1.8,0.7s-1.3-0.2-1.8-0.7
		c-0.5-0.5-0.7-1.2-0.7-2c0-0.9,0.2-1.5,0.7-2c0.5-0.5,1.1-0.7,1.7-0.7c0.7,0,1.3,0.2,1.7,0.7c0.5,0.5,0.7,1.2,0.7,2
		C50.3,296.4,50.1,297.1,49.6,297.5z M51.4,298.1v-5.2h1.2v0.6h0c0.1-0.2,0.2-0.4,0.4-0.5c0.2-0.1,0.4-0.2,0.6-0.2
		c0.2,0,0.3,0,0.5,0.1l-0.2,1.2c-0.1-0.1-0.3-0.1-0.4-0.1c-0.6,0-0.9,0.4-0.9,1.2v2.9H51.4z M55.3,296.3V294h-0.8v-1.1h0.8v-1.3h1.2
		v1.3h1.3v1.1h-1.3v2.2c0,0.3,0,0.5,0.1,0.6c0.1,0.1,0.3,0.2,0.6,0.2h0.4v1.2h-0.5c-0.7,0-1.2-0.1-1.4-0.4
		C55.5,297.4,55.3,296.9,55.3,296.3z"/>
	<path class="st6" d="M647.1,413.5v-6.9h2.9c0.6,0,1.1,0.2,1.5,0.5c0.4,0.4,0.6,0.8,0.6,1.3c0,0.6-0.2,1-0.7,1.3v0
		c0.3,0.1,0.5,0.3,0.7,0.6c0.2,0.3,0.3,0.6,0.3,1c0,0.7-0.2,1.2-0.6,1.6c-0.4,0.4-1.1,0.6-2,0.6H647.1z M648.4,412.3h1.6
		c0.6,0,0.9-0.3,0.9-0.9c0-0.3-0.1-0.5-0.3-0.7c-0.2-0.2-0.4-0.2-0.7-0.2h-1.6V412.3z M648.4,409.4h1.4c0.3,0,0.5-0.1,0.6-0.2
		c0.2-0.1,0.2-0.3,0.2-0.6c0-0.3-0.1-0.5-0.2-0.6c-0.2-0.1-0.4-0.2-0.6-0.2h-1.4V409.4z M655.9,413.5v-6.9h2.8
		c0.7,0,1.3,0.2,1.7,0.6c0.4,0.4,0.7,0.9,0.7,1.6c0,0.7-0.2,1.2-0.6,1.6c-0.4,0.4-1,0.6-1.7,0.6h-1.5v2.5H655.9z M657.3,409.8h1.4
		c0.3,0,0.5-0.1,0.7-0.3c0.2-0.2,0.3-0.4,0.3-0.7c0-0.3-0.1-0.6-0.3-0.7c-0.2-0.2-0.4-0.2-0.7-0.2h-1.4V409.8z M663.1,412.1
		c0.2,0.3,0.5,0.4,0.9,0.4c0.4,0,0.7-0.1,0.9-0.4c0.2-0.3,0.3-0.7,0.3-1.2s-0.1-0.9-0.3-1.2c-0.2-0.3-0.5-0.4-0.9-0.4
		c-0.4,0-0.7,0.1-0.9,0.4c-0.2,0.3-0.3,0.7-0.3,1.2C662.8,411.4,662.9,411.8,663.1,412.1z M665.7,413c-0.5,0.5-1,0.7-1.8,0.7
		c-0.7,0-1.3-0.2-1.8-0.7c-0.5-0.5-0.7-1.2-0.7-2c0-0.9,0.2-1.5,0.7-2c0.5-0.5,1.1-0.7,1.7-0.7c0.7,0,1.3,0.2,1.7,0.7
		c0.5,0.5,0.7,1.2,0.7,2C666.4,411.8,666.2,412.5,665.7,413z M667.4,413.5v-5.2h1.2v0.6h0c0.1-0.2,0.2-0.4,0.4-0.5
		c0.2-0.1,0.4-0.2,0.6-0.2c0.2,0,0.3,0,0.5,0.1l-0.2,1.2c-0.1-0.1-0.3-0.1-0.4-0.1c-0.6,0-0.9,0.4-0.9,1.2v2.9H667.4z M671.4,411.7
		v-2.3h-0.8v-1.1h0.8V407h1.2v1.3h1.3v1.1h-1.3v2.2c0,0.3,0,0.5,0.1,0.6s0.3,0.2,0.6,0.2h0.4v1.2h-0.5c-0.7,0-1.2-0.1-1.5-0.4
		C671.6,412.8,671.4,412.3,671.4,411.7z M652.3,428.5v-6.9h4.4v1.2h-3v1.5h2.8v1.2h-2.8v1.7h3v1.2H652.3z M657.3,428.5l1.8-2.7
		l-1.7-2.5h1.3l1.2,1.8h0l1.2-1.8h1.3l-1.7,2.5l1.8,2.7h-1.4l-1.2-1.9h0l-1.2,1.9H657.3z M663.3,428.5v-5.2h1.3v5.2H663.3z
		 M663.3,422.6v-1.2h1.3v1.2H663.3z M666.2,426.7v-2.3h-0.8v-1.1h0.8V422h1.2v1.3h1.3v1.1h-1.3v2.2c0,0.3,0,0.5,0.1,0.6
		c0.1,0.1,0.3,0.2,0.6,0.2h0.4v1.2h-0.5c-0.7,0-1.2-0.1-1.4-0.4C666.4,427.8,666.2,427.3,666.2,426.7z"/>
	<path class="st6" d="M411.2,276.5l-0.4-1.1h-2.6l-0.4,1.1h-1.3l2.5-6.9h1.1l2.5,6.9H411.2z M409.5,271.6l-0.9,2.7h1.9L409.5,271.6
		L409.5,271.6z M415.8,276.5v-6.9h2.8c0.7,0,1.3,0.2,1.7,0.6c0.4,0.4,0.7,0.9,0.7,1.6c0,0.7-0.2,1.2-0.6,1.6c-0.4,0.4-1,0.6-1.7,0.6
		h-1.5v2.5H415.8z M417.2,272.8h1.4c0.3,0,0.5-0.1,0.7-0.3c0.2-0.2,0.3-0.4,0.3-0.7c0-0.3-0.1-0.6-0.3-0.7c-0.2-0.2-0.4-0.2-0.7-0.2
		h-1.4V272.8z M423,275.1c0.2,0.3,0.5,0.4,0.9,0.4c0.4,0,0.7-0.1,0.9-0.4c0.2-0.3,0.3-0.7,0.3-1.2s-0.1-0.9-0.3-1.2
		c-0.2-0.3-0.5-0.4-0.9-0.4c-0.4,0-0.7,0.1-0.9,0.4c-0.2,0.3-0.3,0.7-0.3,1.2C422.7,274.4,422.8,274.8,423,275.1z M425.6,276
		c-0.5,0.5-1,0.7-1.8,0.7s-1.3-0.2-1.8-0.7c-0.5-0.5-0.7-1.2-0.7-2c0-0.9,0.2-1.5,0.7-2c0.5-0.5,1.1-0.7,1.7-0.7
		c0.7,0,1.3,0.2,1.7,0.7c0.5,0.5,0.7,1.2,0.7,2C426.3,274.8,426.1,275.5,425.6,276z M427.3,276.5v-5.2h1.2v0.6h0
		c0.1-0.2,0.2-0.4,0.4-0.5c0.2-0.1,0.4-0.2,0.6-0.2c0.2,0,0.3,0,0.5,0.1l-0.2,1.2c-0.1-0.1-0.3-0.1-0.4-0.1c-0.6,0-0.9,0.4-0.9,1.2
		v2.9H427.3z M431.3,274.7v-2.3h-0.8v-1.1h0.8V270h1.2v1.3h1.3v1.1h-1.3v2.2c0,0.3,0,0.5,0.1,0.6c0.1,0.1,0.3,0.2,0.6,0.2h0.4v1.2
		h-0.5c-0.7,0-1.2-0.1-1.4-0.4C431.5,275.8,431.3,275.3,431.3,274.7z"/>
	<path class="st6" d="M306.2,264.5l-0.4-1.1h-2.6l-0.4,1.1h-1.3l2.5-6.9h1.1l2.5,6.9H306.2z M304.5,259.6l-0.9,2.7h1.9L304.5,259.6
		L304.5,259.6z M310.8,264.5v-6.9h2.8c0.7,0,1.3,0.2,1.7,0.6c0.4,0.4,0.7,0.9,0.7,1.6c0,0.7-0.2,1.2-0.6,1.6c-0.4,0.4-1,0.6-1.7,0.6
		h-1.5v2.5H310.8z M312.2,260.8h1.4c0.3,0,0.5-0.1,0.7-0.3c0.2-0.2,0.3-0.4,0.3-0.7c0-0.3-0.1-0.6-0.3-0.7c-0.2-0.2-0.4-0.2-0.7-0.2
		h-1.4V260.8z M318,263.1c0.2,0.3,0.5,0.4,0.9,0.4c0.4,0,0.7-0.1,0.9-0.4c0.2-0.3,0.3-0.7,0.3-1.2s-0.1-0.9-0.3-1.2
		c-0.2-0.3-0.5-0.4-0.9-0.4c-0.4,0-0.7,0.1-0.9,0.4c-0.2,0.3-0.3,0.7-0.3,1.2C317.7,262.4,317.8,262.8,318,263.1z M320.6,264
		c-0.5,0.5-1,0.7-1.8,0.7s-1.3-0.2-1.8-0.7c-0.5-0.5-0.7-1.2-0.7-2c0-0.9,0.2-1.5,0.7-2c0.5-0.5,1.1-0.7,1.7-0.7
		c0.7,0,1.3,0.2,1.7,0.7c0.5,0.5,0.7,1.2,0.7,2C321.3,262.8,321.1,263.5,320.6,264z M322.3,264.5v-5.2h1.2v0.6h0
		c0.1-0.2,0.2-0.4,0.4-0.5c0.2-0.1,0.4-0.2,0.6-0.2c0.2,0,0.3,0,0.5,0.1l-0.2,1.2c-0.1-0.1-0.3-0.1-0.4-0.1c-0.6,0-0.9,0.4-0.9,1.2
		v2.9H322.3z M326.3,262.7v-2.3h-0.8v-1.1h0.8V258h1.2v1.3h1.3v1.1h-1.3v2.2c0,0.3,0,0.5,0.1,0.6c0.1,0.1,0.3,0.2,0.6,0.2h0.4v1.2
		h-0.5c-0.7,0-1.2-0.1-1.4-0.4C326.5,263.8,326.3,263.3,326.3,262.7z M307.3,279.5v-6.9h4.4v1.2h-3v1.5h2.8v1.2h-2.8v1.7h3v1.2
		H307.3z M312.3,279.5l1.8-2.7l-1.7-2.5h1.3l1.2,1.8h0l1.2-1.8h1.3l-1.7,2.5l1.8,2.7h-1.4l-1.2-1.9h0l-1.2,1.9H312.3z M318.3,279.5
		v-5.2h1.3v5.2H318.3z M318.3,273.6v-1.2h1.3v1.2H318.3z M321.2,277.7v-2.3h-0.8v-1.1h0.8V273h1.2v1.3h1.3v1.1h-1.3v2.2
		c0,0.3,0,0.5,0.1,0.6c0.1,0.1,0.3,0.2,0.6,0.2h0.4v1.2h-0.5c-0.7,0-1.2-0.1-1.4-0.4C321.4,278.8,321.2,278.3,321.2,277.7z"/>
	<path class="st6" d="M108,475.6v-6.9h2.9c0.6,0,1.1,0.2,1.5,0.5c0.4,0.4,0.6,0.8,0.6,1.3c0,0.6-0.2,1-0.8,1.3v0
		c0.3,0.1,0.5,0.3,0.7,0.6c0.2,0.3,0.3,0.6,0.3,1c0,0.7-0.2,1.2-0.6,1.6c-0.4,0.4-1.1,0.6-2,0.6H108z M109.3,474.4h1.6
		c0.6,0,0.9-0.3,0.9-0.9c0-0.3-0.1-0.5-0.3-0.7c-0.2-0.2-0.4-0.2-0.7-0.2h-1.6V474.4z M109.3,471.5h1.4c0.3,0,0.5-0.1,0.6-0.2
		c0.2-0.1,0.2-0.3,0.2-0.6c0-0.3-0.1-0.5-0.2-0.6c-0.2-0.1-0.4-0.2-0.6-0.2h-1.4V471.5z M116.9,475.6v-6.9h1.3v5.7h2.8v1.2H116.9z
		 M123.1,474.2c0.2,0.3,0.5,0.4,0.9,0.4c0.4,0,0.7-0.1,0.9-0.4c0.2-0.3,0.3-0.7,0.3-1.2c0-0.5-0.1-0.9-0.3-1.2
		c-0.2-0.3-0.5-0.4-0.9-0.4c-0.4,0-0.7,0.1-0.9,0.4c-0.2,0.3-0.3,0.7-0.3,1.2C122.8,473.5,122.9,473.9,123.1,474.2z M125.7,475
		c-0.5,0.5-1,0.7-1.8,0.7s-1.3-0.2-1.8-0.7c-0.5-0.5-0.7-1.2-0.7-2c0-0.9,0.2-1.5,0.7-2c0.5-0.5,1.1-0.7,1.7-0.7
		c0.7,0,1.3,0.2,1.7,0.7c0.5,0.5,0.7,1.2,0.7,2C126.4,473.9,126.2,474.5,125.7,475z M128.7,472.5v1c0,0.3,0.1,0.6,0.3,0.8
		c0.2,0.2,0.5,0.3,0.8,0.3c0.4,0,0.7-0.1,0.9-0.4c0.2-0.3,0.3-0.7,0.3-1.2c0-0.5-0.1-0.9-0.3-1.2c-0.2-0.3-0.5-0.4-0.9-0.4
		c-0.3,0-0.6,0.1-0.8,0.3C128.8,471.9,128.7,472.2,128.7,472.5z M127.5,475.6v-7.2h1.3v2.5h0c0,0,0,0,0-0.1c0,0,0.1-0.1,0.1-0.2
		c0.1-0.1,0.2-0.1,0.3-0.2c0.1-0.1,0.2-0.1,0.4-0.2c0.2,0,0.3-0.1,0.5-0.1c0.6,0,1.2,0.3,1.6,0.8c0.4,0.5,0.6,1.2,0.6,2
		c0,0.8-0.2,1.5-0.6,2c-0.4,0.5-1,0.7-1.6,0.7c-0.3,0-0.5-0.1-0.8-0.2c-0.2-0.1-0.4-0.2-0.5-0.3l-0.1-0.2h0v0.5H127.5z M134.6,472.5
		v1c0,0.3,0.1,0.6,0.3,0.8c0.2,0.2,0.5,0.3,0.8,0.3c0.4,0,0.7-0.1,0.9-0.4c0.2-0.3,0.3-0.7,0.3-1.2c0-0.5-0.1-0.9-0.3-1.2
		c-0.2-0.3-0.5-0.4-0.9-0.4c-0.3,0-0.6,0.1-0.8,0.3C134.7,471.9,134.6,472.2,134.6,472.5z M133.4,475.6v-7.2h1.3v2.5h0
		c0,0,0,0,0-0.1c0,0,0.1-0.1,0.1-0.2c0.1-0.1,0.2-0.1,0.3-0.2c0.1-0.1,0.2-0.1,0.4-0.2c0.2,0,0.3-0.1,0.5-0.1c0.6,0,1.2,0.3,1.6,0.8
		c0.4,0.5,0.6,1.2,0.6,2c0,0.8-0.2,1.5-0.6,2c-0.4,0.5-1,0.7-1.6,0.7c-0.3,0-0.5-0.1-0.8-0.2c-0.2-0.1-0.4-0.2-0.5-0.3l-0.1-0.2h0
		v0.5H133.4z M139.5,477.8l1-2.5l-2.1-5h1.3l1.4,3.5h0l1.4-3.5h1.3l-3,7.4H139.5z"/>
	<path class="st6" d="M56.1,350.7v-6.9H59c0.6,0,1.1,0.2,1.5,0.5c0.4,0.4,0.6,0.8,0.6,1.3c0,0.6-0.2,1-0.7,1.3v0
		c0.3,0.1,0.5,0.3,0.7,0.6c0.2,0.3,0.3,0.6,0.3,1c0,0.7-0.2,1.2-0.6,1.6c-0.4,0.4-1.1,0.6-2,0.6H56.1z M57.4,349.4H59
		c0.6,0,0.9-0.3,0.9-0.9c0-0.3-0.1-0.5-0.3-0.7c-0.2-0.2-0.4-0.2-0.7-0.2h-1.6V349.4z M57.4,346.6h1.4c0.3,0,0.5-0.1,0.6-0.2
		c0.2-0.1,0.2-0.3,0.2-0.6c0-0.3-0.1-0.5-0.2-0.6c-0.2-0.1-0.4-0.2-0.6-0.2h-1.4V346.6z M65,350.7v-6.9h1.3v5.7h2.8v1.2H65z
		 M71.2,349.3c0.2,0.3,0.5,0.4,0.9,0.4s0.7-0.1,0.9-0.4c0.2-0.3,0.3-0.7,0.3-1.2c0-0.5-0.1-0.9-0.3-1.2c-0.2-0.3-0.5-0.4-0.9-0.4
		c-0.4,0-0.7,0.1-0.9,0.4c-0.2,0.3-0.3,0.7-0.3,1.2C70.9,348.6,71,349,71.2,349.3z M73.8,350.1c-0.5,0.5-1,0.7-1.8,0.7
		c-0.7,0-1.3-0.2-1.8-0.7c-0.5-0.5-0.7-1.2-0.7-2c0-0.9,0.2-1.5,0.7-2c0.5-0.5,1.1-0.7,1.7-0.7c0.7,0,1.3,0.2,1.7,0.7
		c0.5,0.5,0.7,1.2,0.7,2C74.5,348.9,74.3,349.6,73.8,350.1z M75.6,350.7v-5.2h1.2v0.5h0c0.1-0.2,0.3-0.3,0.6-0.5s0.5-0.2,0.8-0.2
		c0.6,0,1,0.2,1.4,0.5c0.3,0.3,0.5,0.8,0.5,1.4v3.4h-1.3v-3.1c0-0.4-0.1-0.6-0.2-0.8c-0.1-0.2-0.4-0.3-0.7-0.3
		c-0.3,0-0.6,0.1-0.7,0.3c-0.2,0.2-0.3,0.4-0.3,0.7v3.2H75.6z M84.7,348.6v-1.1c0-0.3-0.1-0.5-0.3-0.7c-0.2-0.2-0.5-0.3-0.8-0.3
		c-0.4,0-0.7,0.1-0.9,0.4c-0.2,0.3-0.4,0.7-0.4,1.2c0,0.5,0.1,0.9,0.4,1.2c0.2,0.3,0.6,0.4,0.9,0.4c0.3,0,0.6-0.1,0.8-0.3
		C84.6,349.2,84.7,348.9,84.7,348.6z M81.4,351.7l1-0.7c0.2,0.3,0.3,0.5,0.5,0.6c0.2,0.1,0.4,0.2,0.7,0.2c0.3,0,0.6-0.1,0.8-0.3
		c0.2-0.2,0.3-0.4,0.3-0.8v-0.7h0c-0.1,0.2-0.3,0.3-0.5,0.5c-0.2,0.1-0.5,0.2-0.8,0.2c-0.7,0-1.2-0.2-1.7-0.7
		c-0.5-0.5-0.7-1.2-0.7-2c0-0.8,0.2-1.5,0.7-2c0.5-0.5,1-0.7,1.6-0.7c0.6,0,1.1,0.2,1.4,0.7h0v-0.5H86v5.2c0,0.8-0.2,1.3-0.7,1.8
		c-0.4,0.4-1,0.6-1.7,0.6c-0.5,0-1-0.1-1.4-0.4C81.8,352.5,81.6,352.1,81.4,351.7z"/>
	<path class="st6" d="M154.6,323.5v-6.9h1.3v2.8h2.4v-2.8h1.3v6.9h-1.3v-3H156v3H154.6z M162.4,322.1c0.2,0.3,0.5,0.4,0.9,0.4
		c0.4,0,0.7-0.1,0.9-0.4c0.2-0.3,0.3-0.7,0.3-1.2s-0.1-0.9-0.3-1.2c-0.2-0.3-0.5-0.4-0.9-0.4c-0.4,0-0.7,0.1-0.9,0.4
		c-0.2,0.3-0.3,0.7-0.3,1.2C162.1,321.4,162.2,321.8,162.4,322.1z M165,323c-0.5,0.5-1,0.7-1.8,0.7c-0.7,0-1.3-0.2-1.8-0.7
		c-0.5-0.5-0.7-1.2-0.7-2c0-0.9,0.2-1.5,0.7-2s1.1-0.7,1.7-0.7c0.7,0,1.3,0.2,1.7,0.7c0.5,0.5,0.7,1.2,0.7,2
		C165.7,321.8,165.5,322.5,165,323z M168,322.1c0.2,0.3,0.5,0.4,0.9,0.4c0.4,0,0.7-0.1,0.9-0.4c0.2-0.3,0.3-0.7,0.3-1.2
		s-0.1-0.9-0.3-1.2c-0.2-0.3-0.5-0.4-0.9-0.4c-0.4,0-0.7,0.1-0.9,0.4c-0.2,0.3-0.3,0.7-0.3,1.2C167.7,321.4,167.8,321.8,168,322.1z
		 M170.6,323c-0.5,0.5-1,0.7-1.8,0.7c-0.7,0-1.3-0.2-1.8-0.7c-0.5-0.5-0.7-1.2-0.7-2c0-0.9,0.2-1.5,0.7-2c0.5-0.5,1.1-0.7,1.7-0.7
		c0.7,0,1.3,0.2,1.7,0.7c0.5,0.5,0.7,1.2,0.7,2C171.3,321.8,171.1,322.5,170.6,323z M172.3,323.5v-7.2h1.3v4.1h0l1.9-2.2h1.6
		l-1.9,2.1l2.1,3.1h-1.4l-1.6-2.4h0l-0.7,0.7v1.6H172.3z M181,323.5V323h0c0,0,0,0,0,0.1c0,0-0.1,0.1-0.1,0.1s-0.2,0.1-0.3,0.2
		c-0.1,0.1-0.2,0.1-0.4,0.2c-0.2,0-0.4,0.1-0.6,0.1c-0.6,0-1.1-0.1-1.4-0.4c-0.3-0.3-0.5-0.7-0.5-1.1c0-0.5,0.1-0.8,0.4-1
		c0.3-0.2,0.7-0.4,1.4-0.6c0.6-0.1,1-0.3,1.1-0.3c0.2-0.1,0.2-0.2,0.2-0.4s-0.1-0.3-0.2-0.4c-0.1-0.1-0.4-0.2-0.7-0.2
		c-0.3,0-0.6,0.1-0.7,0.2c-0.2,0.2-0.3,0.4-0.4,0.6l-1.1-0.4c0.1-0.4,0.4-0.8,0.7-1.1c0.4-0.3,0.8-0.4,1.4-0.4
		c0.6,0,1.2,0.2,1.6,0.5s0.6,0.9,0.6,1.6v3.3H181z M179.7,321.4c-0.3,0.1-0.5,0.2-0.7,0.3c-0.1,0.1-0.1,0.2-0.1,0.4
		c0,0.4,0.3,0.5,0.8,0.5c0.4,0,0.7-0.1,0.9-0.2c0.2-0.2,0.3-0.3,0.3-0.6v-0.9h0c0,0.1-0.1,0.1-0.1,0.1c0,0-0.1,0.1-0.3,0.1
		C180.2,321.3,180,321.3,179.7,321.4z M183.3,323.5v-7.2h1.3v2.5h0c0.1-0.2,0.3-0.3,0.5-0.5c0.2-0.1,0.5-0.2,0.8-0.2
		c0.6,0,1,0.2,1.3,0.5c0.3,0.3,0.5,0.8,0.5,1.4v3.5h-1.3v-3.2c0-0.3-0.1-0.5-0.2-0.7c-0.2-0.2-0.4-0.3-0.7-0.3
		c-0.3,0-0.5,0.1-0.7,0.3c-0.2,0.2-0.2,0.4-0.2,0.7v3.3H183.3z"/>
	<path class="st6" d="M154.3,257.5l-1.3-6.9h1.3l0.9,4.7h0l1.6-4.7h0.7l1.6,4.7h0l0.9-4.7h1.3l-1.3,6.9h-1.4l-1.4-4.3h-0.1l-1.4,4.3
		H154.3z M162.3,257.5v-5.2h1.3v5.2H162.3z M162.3,251.6v-1.2h1.3v1.2H162.3z M165,257.5v-5.2h1.2v0.5h0c0.1-0.2,0.3-0.3,0.6-0.5
		c0.2-0.1,0.5-0.2,0.8-0.2c0.6,0,1,0.2,1.4,0.5c0.3,0.3,0.5,0.8,0.5,1.4v3.4h-1.3v-3.1c0-0.4-0.1-0.6-0.2-0.8
		c-0.1-0.2-0.4-0.3-0.7-0.3c-0.3,0-0.6,0.1-0.7,0.3c-0.2,0.2-0.3,0.4-0.3,0.7v3.2H165z M174,255.4v-1c0-0.3-0.1-0.6-0.3-0.8
		c-0.2-0.2-0.5-0.3-0.8-0.3c-0.4,0-0.7,0.1-0.9,0.4c-0.2,0.3-0.3,0.7-0.3,1.2c0,0.5,0.1,0.9,0.3,1.2c0.2,0.3,0.5,0.4,0.9,0.4
		c0.3,0,0.6-0.1,0.8-0.3C173.9,256,174,255.7,174,255.4z M174.1,257.5V257h0c0,0-0.1,0.1-0.1,0.2c-0.1,0.1-0.2,0.2-0.5,0.3
		c-0.2,0.1-0.5,0.2-0.8,0.2c-0.7,0-1.2-0.2-1.7-0.7c-0.4-0.5-0.6-1.2-0.6-2c0-0.8,0.2-1.5,0.7-2c0.4-0.5,1-0.8,1.6-0.8
		c0.3,0,0.5,0.1,0.7,0.2c0.2,0.1,0.4,0.2,0.5,0.3l0.1,0.2h0v-2.5h1.3v7.2H174.1z M177.9,256.1c0.2,0.3,0.5,0.4,0.9,0.4
		c0.4,0,0.7-0.1,0.9-0.4c0.2-0.3,0.3-0.7,0.3-1.2s-0.1-0.9-0.3-1.2c-0.2-0.3-0.5-0.4-0.9-0.4c-0.4,0-0.7,0.1-0.9,0.4
		c-0.2,0.3-0.3,0.7-0.3,1.2C177.6,255.4,177.7,255.8,177.9,256.1z M180.5,257c-0.5,0.5-1,0.7-1.8,0.7c-0.7,0-1.3-0.2-1.8-0.7
		c-0.5-0.5-0.7-1.2-0.7-2c0-0.9,0.2-1.5,0.7-2c0.5-0.5,1.1-0.7,1.7-0.7c0.7,0,1.3,0.2,1.7,0.7c0.5,0.5,0.7,1.2,0.7,2
		C181.2,255.8,181,256.5,180.5,257z M183,257.5l-1.2-5.2h1.3l0.7,3.5h0l1.2-3.5h1.2l1.1,3.5h0l0.8-3.5h1.2l-1.3,5.2h-1.3l-1.2-3.8h0
		l-1.3,3.8H183z"/>
	<path class="st6" d="M37,207.9V201h4.4v1.2h-3v1.5h2.8v1.2h-2.8v1.7h3v1.2H37z M42.6,207.9v-7.2h1.3v7.2H42.6z M46.6,204.8v1
		c0,0.3,0.1,0.6,0.3,0.8c0.2,0.2,0.5,0.3,0.8,0.3c0.4,0,0.7-0.1,0.9-0.4c0.2-0.3,0.3-0.7,0.3-1.2c0-0.5-0.1-0.9-0.3-1.2
		c-0.2-0.3-0.5-0.4-0.9-0.4c-0.3,0-0.6,0.1-0.8,0.3C46.7,204.2,46.6,204.5,46.6,204.8z M45.3,207.9v-7.2h1.3v2.5h0c0,0,0,0,0-0.1
		c0,0,0.1-0.1,0.1-0.2c0.1-0.1,0.2-0.1,0.3-0.2c0.1-0.1,0.2-0.1,0.4-0.2c0.2,0,0.3-0.1,0.5-0.1c0.6,0,1.2,0.3,1.6,0.8
		c0.4,0.5,0.6,1.2,0.6,2c0,0.8-0.2,1.5-0.6,2c-0.4,0.5-1,0.7-1.6,0.7c-0.3,0-0.5-0.1-0.8-0.2c-0.2-0.1-0.4-0.2-0.5-0.3l-0.1-0.2h0
		v0.5H45.3z M52.4,206.5c0.2,0.3,0.5,0.4,0.9,0.4s0.7-0.1,0.9-0.4c0.2-0.3,0.3-0.7,0.3-1.2c0-0.5-0.1-0.9-0.3-1.2
		c-0.2-0.3-0.5-0.4-0.9-0.4s-0.7,0.1-0.9,0.4c-0.2,0.3-0.3,0.7-0.3,1.2C52.1,205.8,52.2,206.2,52.4,206.5z M55.1,207.3
		c-0.5,0.5-1,0.7-1.8,0.7s-1.3-0.2-1.8-0.7c-0.5-0.5-0.7-1.2-0.7-2c0-0.9,0.2-1.5,0.7-2c0.5-0.5,1.1-0.7,1.7-0.7s1.3,0.2,1.7,0.7
		c0.5,0.5,0.7,1.2,0.7,2C55.7,206.2,55.5,206.8,55.1,207.3z M57.5,207.9l-1.2-5.2h1.3l0.7,3.5h0l1.2-3.5h1.2l1.1,3.5h0l0.8-3.5h1.2
		l-1.3,5.2h-1.3l-1.2-3.8h0l-1.3,3.8H57.5z"/>
	<path class="st6" d="M133.2,112.7v-6.9h2.9c0.6,0,1.1,0.2,1.5,0.5c0.4,0.4,0.6,0.8,0.6,1.3c0,0.6-0.2,1-0.7,1.3v0
		c0.3,0.1,0.5,0.3,0.7,0.6c0.2,0.3,0.3,0.6,0.3,1c0,0.7-0.2,1.2-0.6,1.6c-0.4,0.4-1.1,0.6-2,0.6H133.2z M134.5,111.5h1.6
		c0.6,0,0.9-0.3,0.9-0.9c0-0.3-0.1-0.5-0.3-0.7c-0.2-0.2-0.4-0.2-0.7-0.2h-1.6V111.5z M134.5,108.6h1.4c0.3,0,0.5-0.1,0.6-0.2
		c0.2-0.1,0.2-0.3,0.2-0.6c0-0.3-0.1-0.5-0.2-0.6c-0.2-0.1-0.4-0.2-0.6-0.2h-1.4V108.6z M139.2,110v-1h3.2v1H139.2z M143.6,112.7
		v-6.9h1.3v2.8h2.4v-2.8h1.3v6.9h-1.3v-3H145v3H143.6z M153.1,112.7v-0.5h0c0,0,0,0,0,0.1c0,0-0.1,0.1-0.1,0.1
		c-0.1,0.1-0.2,0.1-0.3,0.2c-0.1,0.1-0.2,0.1-0.4,0.2c-0.2,0-0.4,0.1-0.6,0.1c-0.6,0-1.1-0.1-1.4-0.4c-0.3-0.3-0.5-0.7-0.5-1.1
		c0-0.5,0.1-0.8,0.4-1c0.3-0.2,0.7-0.4,1.4-0.6c0.6-0.1,1-0.3,1.1-0.3c0.2-0.1,0.2-0.2,0.2-0.4c0-0.2-0.1-0.3-0.2-0.4
		c-0.1-0.1-0.4-0.2-0.7-0.2c-0.3,0-0.6,0.1-0.7,0.2c-0.2,0.2-0.3,0.4-0.4,0.6l-1.1-0.4c0.1-0.4,0.4-0.8,0.7-1.1
		c0.4-0.3,0.8-0.4,1.4-0.4c0.6,0,1.2,0.2,1.6,0.5c0.4,0.3,0.6,0.9,0.6,1.6v3.3H153.1z M151.8,110.6c-0.3,0.1-0.5,0.2-0.6,0.3
		c-0.1,0.1-0.1,0.2-0.1,0.4c0,0.4,0.3,0.5,0.8,0.5c0.4,0,0.7-0.1,0.9-0.2c0.2-0.2,0.3-0.3,0.3-0.6v-0.9h0c0,0.1-0.1,0.1-0.1,0.1
		c0,0-0.1,0.1-0.3,0.1C152.4,110.4,152.2,110.5,151.8,110.6z M155.5,112.7v-7.2h1.3v7.2H155.5z M158.2,112.7v-7.2h1.3v7.2H158.2z"/>
	<path class="st6" d="M196,181.1v-6.9h2.9c0.6,0,1.1,0.2,1.5,0.5c0.4,0.4,0.6,0.8,0.6,1.3c0,0.6-0.2,1-0.8,1.3v0
		c0.3,0.1,0.5,0.3,0.7,0.6c0.2,0.3,0.3,0.6,0.3,1c0,0.7-0.2,1.2-0.6,1.6c-0.4,0.4-1.1,0.6-2,0.6H196z M197.3,179.9h1.6
		c0.6,0,0.9-0.3,0.9-0.9c0-0.3-0.1-0.5-0.3-0.6c-0.2-0.2-0.4-0.2-0.7-0.2h-1.6V179.9z M197.3,177h1.4c0.3,0,0.5-0.1,0.6-0.2
		c0.2-0.1,0.2-0.3,0.2-0.6c0-0.3-0.1-0.5-0.2-0.6c-0.2-0.1-0.4-0.2-0.6-0.2h-1.4V177z M208.8,178.4l1.4,0.3
		c-0.1,0.8-0.4,1.4-0.9,1.9c-0.5,0.5-1.1,0.7-1.9,0.7c-0.9,0-1.6-0.3-2.2-0.9c-0.6-0.6-0.8-1.5-0.8-2.8c0-1.1,0.3-1.9,0.9-2.6
		c0.6-0.6,1.3-0.9,2.1-0.9c0.7,0,1.3,0.2,1.8,0.7c0.5,0.4,0.8,1,0.9,1.8l-1.3,0.2c-0.1-0.4-0.2-0.8-0.4-1c-0.2-0.3-0.5-0.4-0.9-0.4
		c-0.5,0-0.8,0.2-1.2,0.6c-0.3,0.4-0.5,1-0.5,1.7c0,0.8,0.2,1.5,0.5,1.9c0.3,0.4,0.7,0.6,1.2,0.6C208.2,180,208.7,179.5,208.8,178.4
		z M211.2,179.3v-3.4h1.3v3.2c0,0.3,0.1,0.6,0.2,0.7s0.3,0.2,0.6,0.2c0.3,0,0.6-0.1,0.7-0.2c0.2-0.2,0.3-0.4,0.3-0.8v-3.1h1.3v5.2
		h-1.2v-0.5h0c-0.3,0.4-0.8,0.7-1.4,0.7c-0.6,0-1.1-0.2-1.4-0.5C211.3,180.4,211.2,179.9,211.2,179.3z M218.2,178v1
		c0,0.3,0.1,0.6,0.3,0.8c0.2,0.2,0.5,0.3,0.8,0.3c0.4,0,0.7-0.1,0.9-0.4c0.2-0.3,0.3-0.7,0.3-1.2c0-0.5-0.1-0.9-0.3-1.2
		c-0.2-0.3-0.5-0.4-0.9-0.4c-0.3,0-0.6,0.1-0.8,0.3C218.3,177.5,218.2,177.7,218.2,178z M216.9,181.1v-7.2h1.3v2.5h0c0,0,0,0,0-0.1
		c0,0,0.1-0.1,0.1-0.2c0.1-0.1,0.2-0.1,0.3-0.2c0.1-0.1,0.2-0.1,0.4-0.2c0.2,0,0.3-0.1,0.5-0.1c0.6,0,1.2,0.3,1.6,0.8
		c0.4,0.5,0.6,1.2,0.6,2c0,0.8-0.2,1.5-0.6,2c-0.4,0.5-1,0.8-1.6,0.8c-0.3,0-0.5-0.1-0.8-0.2c-0.2-0.1-0.4-0.2-0.5-0.3l-0.1-0.2h0
		v0.5H216.9z M224.1,178v1c0,0.3,0.1,0.6,0.3,0.8c0.2,0.2,0.5,0.3,0.8,0.3c0.4,0,0.7-0.1,0.9-0.4c0.2-0.3,0.3-0.7,0.3-1.2
		c0-0.5-0.1-0.9-0.3-1.2c-0.2-0.3-0.5-0.4-0.9-0.4c-0.3,0-0.6,0.1-0.8,0.3C224.2,177.5,224.1,177.7,224.1,178z M222.8,181.1v-7.2
		h1.3v2.5h0c0,0,0,0,0-0.1c0,0,0.1-0.1,0.1-0.2c0.1-0.1,0.2-0.1,0.3-0.2c0.1-0.1,0.2-0.1,0.4-0.2c0.2,0,0.3-0.1,0.5-0.1
		c0.6,0,1.2,0.3,1.6,0.8c0.4,0.5,0.6,1.2,0.6,2c0,0.8-0.2,1.5-0.6,2c-0.4,0.5-1,0.8-1.6,0.8c-0.3,0-0.5-0.1-0.8-0.2
		c-0.2-0.1-0.4-0.2-0.5-0.3l-0.1-0.2h0v0.5H222.8z M229,183.3l1-2.5l-2.1-5h1.3l1.4,3.5h0l1.4-3.5h1.3l-3,7.4H229z"/>
	<path class="st6" d="M386.2,210.6V206h1.3v4.6c0,0.4,0.1,0.7,0.3,0.9c0.2,0.2,0.5,0.3,0.9,0.3c0.4,0,0.7-0.1,0.9-0.3
		c0.2-0.2,0.3-0.5,0.3-0.9V206h1.3v4.7c0,0.8-0.2,1.4-0.7,1.8c-0.5,0.4-1.1,0.6-1.9,0.6c-0.8,0-1.4-0.2-1.9-0.6
		C386.4,212,386.2,211.4,386.2,210.6z M395.2,212.9V206h1.3v2.8h2.4V206h1.3v6.9h-1.3v-3h-2.4v3H395.2z M404.7,212.9v-0.5h0
		c0,0,0,0,0,0.1c0,0-0.1,0.1-0.1,0.1c-0.1,0.1-0.2,0.1-0.3,0.2c-0.1,0.1-0.2,0.1-0.4,0.2c-0.2,0-0.4,0.1-0.6,0.1
		c-0.6,0-1.1-0.1-1.4-0.4c-0.3-0.3-0.5-0.7-0.5-1.1c0-0.5,0.1-0.8,0.4-1c0.3-0.2,0.7-0.4,1.4-0.6c0.6-0.1,1-0.3,1.1-0.3
		c0.2-0.1,0.2-0.2,0.2-0.4c0-0.2-0.1-0.3-0.2-0.4c-0.1-0.1-0.4-0.2-0.7-0.2c-0.3,0-0.6,0.1-0.7,0.2c-0.2,0.2-0.3,0.4-0.4,0.6
		l-1.1-0.4c0.1-0.4,0.4-0.8,0.7-1.1c0.4-0.3,0.8-0.4,1.4-0.4c0.6,0,1.2,0.2,1.6,0.5c0.4,0.3,0.6,0.9,0.6,1.6v3.3H404.7z
		 M403.4,210.7c-0.3,0.1-0.5,0.2-0.6,0.3c-0.1,0.1-0.1,0.2-0.1,0.4c0,0.4,0.3,0.5,0.8,0.5c0.4,0,0.7-0.1,0.9-0.2
		c0.2-0.2,0.3-0.3,0.3-0.6v-0.9h0c0,0.1-0.1,0.1-0.1,0.1c0,0-0.1,0.1-0.3,0.1C404,210.6,403.8,210.6,403.4,210.7z M407.1,212.9v-7.2
		h1.3v7.2H407.1z M409.8,212.9v-7.2h1.3v7.2H409.8z"/>
	<path class="st6" d="M450.5,217.8v-5.7h-2v-1.2h5.4v1.2h-2v5.7H450.5z M454.2,217.8v-5.2h1.2v0.6h0c0.1-0.2,0.2-0.4,0.4-0.5
		c0.2-0.1,0.4-0.2,0.6-0.2c0.2,0,0.3,0,0.5,0.1l-0.2,1.2c-0.1-0.1-0.3-0.1-0.4-0.1c-0.6,0-0.9,0.4-0.9,1.2v2.9H454.2z M457.8,216
		v-3.4h1.3v3.2c0,0.3,0.1,0.6,0.2,0.7s0.3,0.2,0.6,0.2c0.3,0,0.6-0.1,0.8-0.2c0.2-0.2,0.3-0.4,0.3-0.8v-3.1h1.3v5.2h-1.2v-0.5h0
		c-0.3,0.4-0.8,0.7-1.4,0.7c-0.6,0-1.1-0.2-1.4-0.5C457.9,217.1,457.8,216.6,457.8,216z M466.7,215.7l1.2,0.3
		c-0.1,0.6-0.4,1.1-0.8,1.4c-0.4,0.3-0.9,0.5-1.5,0.5c-0.7,0-1.3-0.2-1.8-0.7c-0.5-0.5-0.7-1.2-0.7-2c0-0.9,0.2-1.5,0.7-2
		c0.5-0.5,1.1-0.7,1.7-0.7c0.6,0,1.1,0.2,1.5,0.5c0.4,0.3,0.6,0.8,0.7,1.4l-1.2,0.2c-0.1-0.6-0.5-1-1-1c-0.4,0-0.7,0.1-0.9,0.4
		c-0.2,0.3-0.3,0.7-0.3,1.2s0.1,0.9,0.3,1.2c0.2,0.3,0.5,0.4,0.9,0.4C466.2,216.8,466.6,216.4,466.7,215.7z M468.9,217.8v-7.2h1.3
		v4.1h0l1.9-2.2h1.6l-1.9,2.1l2.1,3.1h-1.4l-1.6-2.4h0l-0.7,0.7v1.6H468.9z"/>
	<path class="st6" d="M420.6,236.7v-6.9h2.8c0.7,0,1.3,0.2,1.7,0.6c0.4,0.4,0.7,0.9,0.7,1.6c0,0.7-0.2,1.2-0.6,1.6
		c-0.4,0.4-1,0.6-1.7,0.6H422v2.5H420.6z M422,232.9h1.5c0.3,0,0.5-0.1,0.7-0.3c0.2-0.2,0.3-0.4,0.3-0.7c0-0.3-0.1-0.6-0.3-0.7
		c-0.2-0.2-0.4-0.2-0.7-0.2H422V232.9z M426.6,236.7v-5.2h1.3v5.2H426.6z M426.6,230.7v-1.2h1.3v1.2H426.6z M429.2,236.7v-7.2h1.3
		v7.2H429.2z M431.9,236.7v-7.2h1.3v7.2H431.9z M437.6,236.7v-0.5h0c0,0,0,0-0.1,0.1c0,0-0.1,0.1-0.1,0.1c-0.1,0.1-0.2,0.1-0.3,0.2
		c-0.1,0.1-0.2,0.1-0.4,0.2s-0.4,0.1-0.6,0.1c-0.6,0-1.1-0.1-1.4-0.4c-0.3-0.3-0.5-0.7-0.5-1.1c0-0.5,0.1-0.8,0.4-1
		c0.3-0.2,0.7-0.4,1.4-0.6c0.6-0.1,1-0.3,1.1-0.3c0.2-0.1,0.2-0.2,0.2-0.4c0-0.2-0.1-0.3-0.2-0.4c-0.1-0.1-0.4-0.2-0.7-0.2
		c-0.3,0-0.6,0.1-0.7,0.2c-0.2,0.2-0.3,0.4-0.4,0.6l-1.1-0.4c0.1-0.4,0.4-0.8,0.7-1.1c0.4-0.3,0.8-0.4,1.4-0.4
		c0.6,0,1.2,0.2,1.6,0.5c0.4,0.3,0.6,0.9,0.6,1.6v3.3H437.6z M436.3,234.5c-0.3,0.1-0.5,0.2-0.7,0.3c-0.1,0.1-0.1,0.2-0.1,0.4
		c0,0.4,0.3,0.5,0.8,0.5c0.4,0,0.7-0.1,0.9-0.2c0.2-0.2,0.3-0.3,0.3-0.6V234h0c0,0.1-0.1,0.1-0.1,0.1c0,0-0.1,0.1-0.3,0.1
		C436.9,234.4,436.7,234.4,436.3,234.5z M440,236.7v-5.2h1.2v0.6h0c0.1-0.2,0.2-0.4,0.4-0.5c0.2-0.1,0.4-0.2,0.6-0.2
		c0.2,0,0.3,0,0.5,0.1l-0.2,1.2c-0.1-0.1-0.3-0.1-0.4-0.1c-0.6,0-0.9,0.4-0.9,1.2v2.9H440z"/>
	<path class="st6" d="M558.6,266.4v-5.7h-2v-1.2h5.4v1.2h-2v5.7H558.6z M563.2,265c0.2,0.3,0.5,0.4,0.9,0.4c0.4,0,0.7-0.1,0.9-0.4
		c0.2-0.3,0.3-0.7,0.3-1.2s-0.1-0.9-0.3-1.2c-0.2-0.3-0.5-0.4-0.9-0.4c-0.4,0-0.7,0.1-0.9,0.4c-0.2,0.3-0.3,0.7-0.3,1.2
		S563,264.7,563.2,265z M565.8,265.8c-0.5,0.5-1,0.7-1.8,0.7c-0.7,0-1.3-0.2-1.8-0.7c-0.5-0.5-0.7-1.2-0.7-2c0-0.9,0.2-1.5,0.7-2
		c0.5-0.5,1.1-0.7,1.7-0.7c0.7,0,1.3,0.2,1.7,0.7c0.5,0.5,0.7,1.2,0.7,2C566.5,264.7,566.3,265.3,565.8,265.8z M568.3,266.4
		l-1.2-5.2h1.3l0.7,3.5h0l1.2-3.5h1.2l1.1,3.5h0l0.8-3.5h1.2l-1.3,5.2h-1.3l-1.2-3.8h0l-1.3,3.8H568.3z M578.9,264.6l0.9,0.8
		c-0.5,0.8-1.3,1.2-2.2,1.2c-0.7,0-1.3-0.2-1.8-0.8c-0.5-0.5-0.7-1.2-0.7-2s0.2-1.5,0.7-2c0.5-0.5,1-0.8,1.7-0.8
		c0.7,0,1.3,0.3,1.7,0.8c0.5,0.5,0.7,1.2,0.7,2v0.4h-3.5c0,0.4,0.1,0.7,0.3,0.9c0.2,0.2,0.5,0.3,0.8,0.3c0.3,0,0.5-0.1,0.7-0.2
		C578.5,265,578.7,264.8,578.9,264.6z M576.4,263.2h2.3c0-0.3-0.1-0.6-0.3-0.8c-0.2-0.2-0.5-0.3-0.8-0.3c-0.3,0-0.6,0.1-0.8,0.3
		C576.6,262.7,576.5,262.9,576.4,263.2z M581,266.4v-5.2h1.2v0.6h0c0.1-0.2,0.2-0.4,0.4-0.5c0.2-0.1,0.4-0.2,0.6-0.2
		c0.2,0,0.3,0,0.5,0.1l-0.2,1.2c-0.1-0.1-0.3-0.1-0.4-0.1c-0.6,0-0.9,0.4-0.9,1.2v2.9H581z"/>
	<path class="st6" d="M401.6,155.3l-2.5-6.9h1.4l1.7,4.9h0l1.7-4.9h1.4l-2.5,6.9H401.6z M409,153.5l0.9,0.8
		c-0.5,0.8-1.3,1.2-2.2,1.2c-0.7,0-1.3-0.2-1.8-0.8c-0.5-0.5-0.7-1.2-0.7-2s0.2-1.5,0.7-2c0.5-0.5,1-0.8,1.7-0.8
		c0.7,0,1.3,0.3,1.7,0.8c0.5,0.5,0.7,1.2,0.7,2v0.4h-3.5c0,0.4,0.1,0.7,0.3,0.9c0.2,0.2,0.5,0.3,0.8,0.3c0.3,0,0.5-0.1,0.7-0.2
		C408.7,154,408.8,153.8,409,153.5z M406.6,152.2h2.3c0-0.3-0.1-0.6-0.3-0.8c-0.2-0.2-0.5-0.3-0.8-0.3c-0.3,0-0.6,0.1-0.8,0.3
		C406.7,151.6,406.6,151.9,406.6,152.2z M411.1,155.3v-5.2h1.2v0.5h0c0.1-0.2,0.3-0.3,0.6-0.5c0.2-0.1,0.5-0.2,0.8-0.2
		c0.6,0,1,0.2,1.4,0.5c0.3,0.3,0.5,0.8,0.5,1.4v3.4h-1.3v-3.1c0-0.4-0.1-0.6-0.2-0.8c-0.1-0.2-0.4-0.3-0.7-0.3
		c-0.3,0-0.6,0.1-0.7,0.3c-0.2,0.2-0.3,0.4-0.3,0.7v3.2H411.1z M417.2,153.5v-2.3h-0.8v-1.1h0.8v-1.3h1.2v1.3h1.3v1.1h-1.3v2.2
		c0,0.3,0,0.5,0.1,0.6c0.1,0.1,0.3,0.2,0.6,0.2h0.4v1.2H419c-0.7,0-1.2-0.1-1.5-0.4C417.3,154.6,417.2,154.1,417.2,153.5z"/>
	<path class="st7" d="M466.7,174.1h76.1c2.3,0,4.1,1.8,4.1,4.1v66.1c0,2.3-1.8,4.1-4.1,4.1h-76.1c-2.3,0-4.1-1.8-4.1-4.1v-66.1
		C462.6,175.9,464.5,174.1,466.7,174.1z"/>
	<g class="st8">
		<defs>
			<filter id="Adobe_OpacityMaskFilter" filterUnits="userSpaceOnUse" x="392.6" y="93.1" width="235" height="234.8">
				<feColorMatrix  type="matrix" values="1 0 0 0 0  0 1 0 0 0  0 0 1 0 0  0 0 0 1 0"/>
			</filter>
		</defs>
		<mask maskUnits="userSpaceOnUse" x="392.6" y="93.1" width="235" height="234.8" id="mask0_2_">
			<path class="st9" d="M466.7,174.1h76.1c2.3,0,4.1,1.8,4.1,4.1v66.1c0,2.3-1.8,4.1-4.1,4.1h-76.1c-2.3,0-4.1-1.8-4.1-4.1v-66.1
				C462.6,175.9,464.5,174.1,466.7,174.1z"/>
		</mask>
		<g class="st10">
			
				<rect x="471.5" y="260.7" transform="matrix(0.7074 -0.7068 0.7068 0.7074 -21.1048 474.1933)" class="st11" width="181.3" height="3.7"/>
			
				<rect x="466.3" y="255.5" transform="matrix(0.7074 -0.7068 0.7068 0.7074 -18.9507 468.9907)" class="st11" width="181.3" height="3.7"/>
			
				<rect x="461.1" y="250.3" transform="matrix(0.7074 -0.7068 0.7068 0.7074 -16.7956 463.7864)" class="st11" width="181.3" height="3.7"/>
			
				<rect x="455.9" y="245.1" transform="matrix(0.7074 -0.7068 0.7068 0.7074 -14.6419 458.5827)" class="st11" width="181.3" height="3.7"/>
			
				<rect x="450.7" y="239.9" transform="matrix(0.7074 -0.7068 0.7068 0.7074 -12.4872 453.3795)" class="st11" width="181.3" height="3.7"/>
			
				<rect x="445.5" y="234.7" transform="matrix(0.7074 -0.7068 0.7068 0.7074 -10.3332 448.1765)" class="st11" width="181.3" height="3.7"/>
			
				<rect x="440.3" y="229.5" transform="matrix(0.7074 -0.7068 0.7068 0.7074 -8.1792 442.9717)" class="st11" width="181.3" height="3.7"/>
			
				<rect x="435.1" y="224.3" transform="matrix(0.7074 -0.7068 0.7068 0.7074 -6.0252 437.7687)" class="st11" width="181.3" height="3.7"/>
			
				<rect x="429.9" y="219.1" transform="matrix(0.7074 -0.7068 0.7068 0.7074 -3.8708 432.5648)" class="st11" width="181.3" height="3.7"/>
			
				<rect x="424.7" y="213.9" transform="matrix(0.7074 -0.7068 0.7068 0.7074 -1.7168 427.3618)" class="st11" width="181.3" height="3.7"/>
			
				<rect x="419.4" y="208.7" transform="matrix(0.7074 -0.7068 0.7068 0.7074 0.4376 422.1578)" class="st11" width="181.3" height="3.7"/>
			
				<rect x="414.2" y="203.5" transform="matrix(0.7074 -0.7068 0.7068 0.7074 2.5913 416.9541)" class="st11" width="181.3" height="3.7"/>
			
				<rect x="409" y="198.3" transform="matrix(0.7074 -0.7068 0.7068 0.7074 4.7457 411.7501)" class="st11" width="181.3" height="3.7"/>
			
				<rect x="403.8" y="193.1" transform="matrix(0.7074 -0.7068 0.7068 0.7074 6.9002 406.5465)" class="st11" width="181.3" height="3.7"/>
			
				<rect x="398.6" y="187.9" transform="matrix(0.7074 -0.7068 0.7068 0.7074 9.0549 401.3432)" class="st11" width="181.3" height="3.7"/>
			
				<rect x="393.4" y="182.7" transform="matrix(0.7074 -0.7068 0.7068 0.7074 11.2092 396.1388)" class="st11" width="181.3" height="3.7"/>
			
				<rect x="388.2" y="177.5" transform="matrix(0.7074 -0.7068 0.7068 0.7074 13.3632 390.9358)" class="st11" width="181.3" height="3.7"/>
			
				<rect x="383" y="172.3" transform="matrix(0.7074 -0.7068 0.7068 0.7074 15.5168 385.7321)" class="st11" width="181.3" height="3.7"/>
			
				<rect x="377.8" y="167.1" transform="matrix(0.7074 -0.7068 0.7068 0.7074 17.6715 380.5288)" class="st11" width="181.3" height="3.7"/>
			
				<rect x="372.6" y="161.9" transform="matrix(0.7074 -0.7068 0.7068 0.7074 19.8259 375.3248)" class="st11" width="181.3" height="3.7"/>
			
				<rect x="367.4" y="156.7" transform="matrix(0.7074 -0.7068 0.7068 0.7074 21.9796 370.1212)" class="st11" width="181.3" height="3.7"/>
		</g>
	</g>
	<path class="st7" d="M119.7,147.3h63.2c2.3,0,4.1,1.8,4.1,4.1v51.3c0,2.3-1.8,4.1-4.1,4.1h-63.2c-2.3,0-4.1-1.8-4.1-4.1v-51.3
		C115.6,149.2,117.4,147.3,119.7,147.3z"/>
	<g class="st8">
		<defs>
			<filter id="Adobe_OpacityMaskFilter_1_" filterUnits="userSpaceOnUse" x="43.6" y="75.3" width="235" height="234.8">
				<feColorMatrix  type="matrix" values="1 0 0 0 0  0 1 0 0 0  0 0 1 0 0  0 0 0 1 0"/>
			</filter>
		</defs>
		<mask maskUnits="userSpaceOnUse" x="43.6" y="75.3" width="235" height="234.8" id="mask1_2_">
			<path class="st12" d="M119.7,147.3h63.2c2.3,0,4.1,1.8,4.1,4.1v51.3c0,2.3-1.8,4.1-4.1,4.1h-63.2c-2.3,0-4.1-1.8-4.1-4.1v-51.3
				C115.6,149.2,117.4,147.3,119.7,147.3z"/>
		</mask>
		<g class="st13">
			
				<rect x="122.5" y="242.9" transform="matrix(0.7074 -0.7068 0.7068 0.7074 -110.6206 222.2711)" class="st11" width="181.3" height="3.7"/>
			
				<rect x="117.3" y="237.7" transform="matrix(0.7074 -0.7068 0.7068 0.7074 -108.466 217.068)" class="st11" width="181.3" height="3.7"/>
			
				<rect x="112.1" y="232.5" transform="matrix(0.7074 -0.7068 0.7068 0.7074 -106.3116 211.864)" class="st11" width="181.3" height="3.7"/>
			
				<rect x="106.9" y="227.3" transform="matrix(0.7074 -0.7068 0.7068 0.7074 -104.1579 206.6603)" class="st11" width="181.3" height="3.7"/>
			
				<rect x="101.7" y="222.1" transform="matrix(0.7074 -0.7068 0.7068 0.7074 -102.0032 201.457)" class="st11" width="181.3" height="3.7"/>
			
				<rect x="96.5" y="216.9" transform="matrix(0.7074 -0.7068 0.7068 0.7074 -99.8488 196.253)" class="st11" width="181.3" height="3.7"/>
			
				<rect x="91.3" y="211.7" transform="matrix(0.7074 -0.7068 0.7068 0.7074 -97.6951 191.0493)" class="st11" width="181.3" height="3.7"/>
			
				<rect x="86" y="206.5" transform="matrix(0.7074 -0.7068 0.7068 0.7074 -95.5404 185.846)" class="st11" width="181.3" height="3.7"/>
			
				<rect x="80.8" y="201.3" transform="matrix(0.7074 -0.7068 0.7068 0.7074 -93.3867 180.6423)" class="st11" width="181.3" height="3.7"/>
			
				<rect x="75.6" y="196.1" transform="matrix(0.7074 -0.7068 0.7068 0.7074 -91.232 175.4391)" class="st11" width="181.3" height="3.7"/>
			
				<rect x="70.4" y="190.9" transform="matrix(0.7074 -0.7068 0.7068 0.7074 -89.0777 170.235)" class="st11" width="181.3" height="3.7"/>
			
				<rect x="65.2" y="185.7" transform="matrix(0.7074 -0.7068 0.7068 0.7074 -86.9239 165.0315)" class="st11" width="181.3" height="3.7"/>
			
				<rect x="60" y="180.5" transform="matrix(0.7074 -0.7068 0.7068 0.7074 -84.7695 159.8276)" class="st11" width="181.3" height="3.7"/>
			
				<rect x="54.8" y="175.3" transform="matrix(0.7074 -0.7068 0.7068 0.7074 -82.615 154.6239)" class="st11" width="181.3" height="3.7"/>
			
				<rect x="49.6" y="170" transform="matrix(0.7074 -0.7068 0.7068 0.7074 -80.4604 149.4204)" class="st11" width="181.3" height="3.7"/>
			
				<rect x="44.4" y="164.8" transform="matrix(0.7074 -0.7068 0.7068 0.7074 -78.3067 144.2166)" class="st11" width="181.3" height="3.7"/>
			
				<rect x="39.2" y="159.6" transform="matrix(0.7074 -0.7068 0.7068 0.7074 -76.1521 139.0132)" class="st11" width="181.3" height="3.7"/>
			
				<rect x="34" y="154.4" transform="matrix(0.7074 -0.7068 0.7068 0.7074 -73.9985 133.8093)" class="st11" width="181.3" height="3.7"/>
			
				<rect x="28.8" y="149.2" transform="matrix(0.7074 -0.7068 0.7068 0.7074 -71.8436 128.6063)" class="st11" width="181.3" height="3.7"/>
			
				<rect x="23.6" y="144" transform="matrix(0.7074 -0.7068 0.7068 0.7074 -69.6892 123.4023)" class="st11" width="181.3" height="3.7"/>
			
				<rect x="18.3" y="138.8" transform="matrix(0.7074 -0.7068 0.7068 0.7074 -67.5357 118.1983)" class="st11" width="181.3" height="3.7"/>
		</g>
	</g>
	<path class="st14" d="M507.5,215.9l-0.6-1.8h-4.3l-0.6,1.8h-2.1l4-11.2h1.8l4,11.2H507.5z M504.7,207.9l-1.5,4.4h3.1L504.7,207.9
		L504.7,207.9z"/>
	<path class="st14" d="M147.9,181.2V170h4.8c1,0,1.8,0.3,2.4,0.9c0.6,0.6,0.9,1.3,0.9,2.1c0,0.9-0.4,1.6-1.2,2.1v0
		c0.5,0.2,0.9,0.5,1.2,1c0.3,0.4,0.5,1,0.5,1.6c0,1.1-0.3,1.9-1,2.6c-0.7,0.6-1.7,0.9-3.2,0.9H147.9z M150,179.2h2.6
		c1,0,1.5-0.5,1.5-1.5c0-0.5-0.1-0.8-0.4-1.1c-0.3-0.3-0.6-0.4-1.1-0.4H150V179.2z M150,174.5h2.3c0.4,0,0.8-0.1,1-0.3
		c0.3-0.2,0.4-0.5,0.4-0.9c0-0.4-0.1-0.7-0.4-1c-0.2-0.2-0.6-0.3-1-0.3H150V174.5z"/>
	<path class="st15" d="M373.7,678.1l-0.5-1.5h-3.5l-0.5,1.5h-1.8l3.3-9.2h1.5l3.3,9.2H373.7z M371.4,671.5l-1.2,3.6h2.5L371.4,671.5
		L371.4,671.5z M376.6,675.6v-3h-1.1v-1.4h1.1v-1.7h1.6v1.7h1.8v1.4h-1.7v2.9c0,0.4,0.1,0.6,0.2,0.8c0.1,0.1,0.4,0.2,0.7,0.2h0.6
		v1.6h-0.7c-0.9,0-1.6-0.2-1.9-0.6C376.8,677.1,376.6,676.4,376.6,675.6z M381.6,675.6v-3h-1.1v-1.4h1.1v-1.7h1.6v1.7h1.8v1.4h-1.7
		v2.9c0,0.4,0.1,0.6,0.2,0.8c0.1,0.1,0.4,0.2,0.8,0.2h0.6v1.6H384c-0.9,0-1.6-0.2-1.9-0.6C381.7,677.1,381.6,676.4,381.6,675.6z
		 M390.1,678.1v-0.7h0c0,0,0,0.1-0.1,0.1c0,0-0.1,0.1-0.2,0.2c-0.1,0.1-0.2,0.2-0.4,0.3c-0.1,0.1-0.3,0.1-0.5,0.2
		c-0.2,0.1-0.5,0.1-0.7,0.1c-0.8,0-1.5-0.2-1.9-0.6c-0.4-0.4-0.6-0.9-0.6-1.5c0-0.6,0.2-1.1,0.5-1.4c0.4-0.3,1-0.6,1.8-0.8
		c0.8-0.2,1.3-0.3,1.5-0.5s0.3-0.3,0.3-0.5c0-0.2-0.1-0.4-0.3-0.5c-0.2-0.1-0.5-0.2-0.9-0.2c-0.5,0-0.8,0.1-1,0.3
		c-0.2,0.2-0.4,0.5-0.5,0.8l-1.4-0.6c0.2-0.6,0.5-1.1,1-1.4c0.5-0.4,1.1-0.6,1.9-0.6c0.8,0,1.5,0.2,2.1,0.7c0.5,0.4,0.8,1.1,0.8,2.1
		v4.4H390.1z M388.4,675.2c-0.4,0.1-0.7,0.2-0.9,0.4c-0.1,0.1-0.2,0.3-0.2,0.5c0,0.5,0.3,0.7,1,0.7c0.5,0,0.9-0.1,1.2-0.3
		c0.3-0.2,0.4-0.4,0.4-0.7v-1.2h0c0,0.1-0.1,0.1-0.1,0.2c0,0-0.2,0.1-0.4,0.2C389.2,675,388.8,675.1,388.4,675.2z M397.5,675.2
		l1.6,0.4c-0.2,0.8-0.5,1.5-1,1.9c-0.5,0.4-1.2,0.7-2,0.7c-0.9,0-1.7-0.3-2.3-1c-0.6-0.6-0.9-1.6-0.9-2.7c0-1.1,0.3-2,0.9-2.7
		c0.6-0.7,1.4-1,2.3-1c0.8,0,1.4,0.2,2,0.7c0.5,0.5,0.9,1.1,1,1.8l-1.6,0.3c-0.2-0.8-0.6-1.3-1.3-1.3c-0.5,0-0.9,0.2-1.2,0.6
		c-0.3,0.4-0.4,0.9-0.4,1.6c0,0.7,0.1,1.2,0.4,1.6c0.3,0.4,0.7,0.5,1.2,0.5C396.9,676.7,397.3,676.2,397.5,675.2z M400.4,678.1v-9.6
		h1.7v5.5h0l2.5-2.9h2.1l-2.5,2.8l2.7,4.1h-1.9l-2.1-3.2h0l-0.9,1v2.2H400.4z M412.2,675.6l1.2,1.1c-0.7,1-1.7,1.6-2.9,1.6
		c-1,0-1.8-0.3-2.4-1c-0.6-0.7-0.9-1.6-0.9-2.7c0-1.1,0.3-2,0.9-2.7c0.6-0.7,1.4-1,2.3-1c0.9,0,1.7,0.3,2.3,1
		c0.6,0.7,0.9,1.6,0.9,2.7v0.5H409c0,0.5,0.2,0.9,0.4,1.2c0.3,0.3,0.6,0.4,1.1,0.4c0.4,0,0.7-0.1,1-0.3
		C411.7,676.2,412,676,412.2,675.6z M409,673.8h3c0-0.4-0.2-0.8-0.5-1c-0.3-0.3-0.6-0.4-1.1-0.4c-0.4,0-0.8,0.1-1,0.4
		C409.2,673.1,409,673.4,409,673.8z M415,678.1v-7h1.6v0.7h0c0.1-0.3,0.3-0.5,0.6-0.6c0.3-0.2,0.5-0.2,0.9-0.2c0.2,0,0.4,0,0.6,0.1
		l-0.3,1.7c-0.2-0.1-0.4-0.1-0.5-0.1c-0.8,0-1.2,0.5-1.2,1.6v3.8H415z M419.3,675.8l1.5-0.4c0.1,1,0.6,1.5,1.6,1.5
		c0.4,0,0.8-0.1,1-0.2c0.3-0.1,0.4-0.3,0.4-0.6c0-0.2-0.1-0.4-0.3-0.4c-0.2-0.1-0.6-0.2-1.2-0.4c-0.2,0-0.3-0.1-0.4-0.1
		c-0.8-0.2-1.4-0.5-1.8-0.8c-0.4-0.3-0.6-0.7-0.6-1.2c0-0.6,0.2-1.1,0.7-1.5c0.5-0.4,1.1-0.6,1.9-0.6c1.6,0,2.5,0.7,2.9,2.1
		l-1.4,0.4c-0.1-0.3-0.3-0.6-0.5-0.8c-0.2-0.2-0.5-0.3-1-0.3c-0.3,0-0.6,0.1-0.8,0.2c-0.2,0.1-0.3,0.3-0.3,0.4
		c0,0.2,0.1,0.3,0.3,0.5c0.2,0.1,0.8,0.3,1.7,0.6c0.8,0.2,1.4,0.5,1.7,0.8c0.3,0.3,0.4,0.8,0.4,1.3c0,0.6-0.2,1.1-0.7,1.5
		c-0.5,0.4-1.2,0.7-2.1,0.7c-1,0-1.7-0.2-2.2-0.7C419.7,677,419.4,676.4,419.3,675.8z"/>
	<path class="st16" d="M308.9,48.6h1.2c0.3,0,0.6,0,0.8-0.1c0.2-0.1,0.5-0.2,0.7-0.4c0.2-0.2,0.4-0.5,0.5-0.9
		c0.1-0.4,0.2-0.9,0.2-1.5c0-1-0.2-1.8-0.6-2.2c-0.4-0.5-0.9-0.7-1.5-0.7h-1.3V48.6z M307.1,50.2V41h3.1c0.5,0,1,0.1,1.5,0.3
		c0.5,0.2,0.9,0.5,1.3,0.8c0.4,0.4,0.7,0.8,0.9,1.4c0.2,0.6,0.3,1.3,0.3,2.1c0,0.8-0.1,1.6-0.3,2.2c-0.2,0.6-0.5,1.1-0.9,1.4
		c-0.4,0.3-0.8,0.6-1.3,0.7c-0.5,0.2-1,0.2-1.5,0.2H307.1z M320.1,47.8l1.2,1.1c-0.7,1-1.7,1.6-2.9,1.6c-1,0-1.8-0.3-2.4-1
		c-0.6-0.7-0.9-1.6-0.9-2.7c0-1.1,0.3-2,0.9-2.7c0.6-0.7,1.4-1,2.3-1c0.9,0,1.7,0.3,2.3,1c0.6,0.7,0.9,1.6,0.9,2.7v0.5h-4.7
		c0,0.5,0.2,0.9,0.4,1.2c0.3,0.3,0.6,0.4,1.1,0.4c0.4,0,0.7-0.1,1-0.3C319.6,48.4,319.8,48.2,320.1,47.8z M316.8,46h3
		c0-0.4-0.2-0.8-0.5-1c-0.3-0.3-0.6-0.4-1.1-0.4c-0.4,0-0.8,0.1-1,0.4C317,45.3,316.8,45.6,316.8,46z M323.2,50.2v-5.5h-1.1v-1.4
		h1.1v-1c0-0.6,0.2-1,0.5-1.3c0.3-0.3,0.8-0.4,1.4-0.4h1.4v1.5h-1c-0.2,0-0.4,0-0.4,0.1c-0.1,0.1-0.1,0.2-0.1,0.4v0.6h1.8v1.4h-1.7
		v5.5H323.2z M332.1,47.8l1.2,1.1c-0.7,1-1.7,1.6-2.9,1.6c-1,0-1.8-0.3-2.4-1c-0.6-0.7-0.9-1.6-0.9-2.7c0-1.1,0.3-2,0.9-2.7
		c0.6-0.7,1.4-1,2.3-1c0.9,0,1.7,0.3,2.3,1c0.6,0.7,0.9,1.6,0.9,2.7v0.5h-4.7c0,0.5,0.2,0.9,0.4,1.2c0.3,0.3,0.6,0.4,1.1,0.4
		c0.4,0,0.7-0.1,1-0.3C331.6,48.4,331.9,48.2,332.1,47.8z M328.8,46h3c0-0.4-0.2-0.8-0.5-1c-0.3-0.3-0.6-0.4-1.1-0.4
		c-0.4,0-0.8,0.1-1,0.4C329,45.3,328.9,45.6,328.8,46z M334.9,50.2v-7h1.6v0.7h0c0.2-0.2,0.5-0.5,0.8-0.6c0.3-0.2,0.7-0.2,1.1-0.2
		c0.8,0,1.4,0.2,1.8,0.7c0.4,0.5,0.7,1.1,0.7,1.9v4.6h-1.7v-4.1c0-0.5-0.1-0.8-0.3-1.1c-0.2-0.2-0.5-0.4-0.9-0.4
		c-0.4,0-0.7,0.1-1,0.4c-0.2,0.2-0.4,0.6-0.4,1v4.3H334.9z M347,47.4v-1.3c0-0.4-0.1-0.8-0.4-1.1c-0.3-0.3-0.6-0.4-1.1-0.4
		c-0.5,0-0.9,0.2-1.2,0.5c-0.3,0.4-0.4,0.9-0.4,1.6c0,0.7,0.1,1.2,0.4,1.6c0.3,0.4,0.7,0.5,1.2,0.5c0.5,0,0.8-0.1,1.1-0.4
		C346.8,48.2,347,47.8,347,47.4z M347.1,50.2v-0.7h0c0,0.1-0.1,0.1-0.2,0.2c-0.1,0.1-0.3,0.2-0.6,0.4c-0.3,0.2-0.7,0.2-1,0.2
		c-0.9,0-1.7-0.3-2.2-1c-0.5-0.7-0.8-1.6-0.8-2.7c0-1.1,0.3-2,0.9-2.7c0.6-0.7,1.3-1,2.1-1c0.4,0,0.7,0.1,1,0.2
		c0.3,0.1,0.5,0.3,0.6,0.4l0.2,0.2h0v-3.3h1.7v9.6H347.1z M355,47.8l1.2,1.1c-0.7,1-1.7,1.6-2.9,1.6c-1,0-1.8-0.3-2.4-1
		c-0.6-0.7-0.9-1.6-0.9-2.7c0-1.1,0.3-2,0.9-2.7c0.6-0.7,1.4-1,2.3-1c0.9,0,1.7,0.3,2.3,1c0.6,0.7,0.9,1.6,0.9,2.7v0.5h-4.7
		c0,0.5,0.2,0.9,0.4,1.2c0.3,0.3,0.6,0.4,1.1,0.4c0.4,0,0.7-0.1,1-0.3C354.6,48.4,354.8,48.2,355,47.8z M351.8,46h3
		c0-0.4-0.2-0.8-0.5-1c-0.3-0.3-0.6-0.4-1.1-0.4c-0.4,0-0.8,0.1-1,0.4C352,45.3,351.8,45.6,351.8,46z M357.9,50.2v-7h1.6V44h0
		c0.1-0.3,0.3-0.5,0.6-0.6c0.3-0.2,0.5-0.2,0.9-0.2c0.2,0,0.4,0,0.6,0.1l-0.3,1.7c-0.2-0.1-0.4-0.1-0.5-0.1c-0.8,0-1.2,0.5-1.2,1.6
		v3.8H357.9z M362.2,47.9l1.5-0.4c0.1,1,0.6,1.5,1.6,1.5c0.4,0,0.8-0.1,1-0.2c0.3-0.1,0.4-0.3,0.4-0.6c0-0.2-0.1-0.4-0.3-0.4
		c-0.2-0.1-0.6-0.2-1.2-0.4c-0.2,0-0.3-0.1-0.4-0.1c-0.8-0.2-1.4-0.5-1.8-0.8c-0.4-0.3-0.6-0.7-0.6-1.2c0-0.6,0.2-1.1,0.7-1.5
		c0.5-0.4,1.1-0.6,1.9-0.6c1.6,0,2.5,0.7,2.9,2.1l-1.4,0.4c-0.1-0.3-0.3-0.6-0.5-0.8c-0.2-0.2-0.5-0.3-1-0.3c-0.3,0-0.6,0.1-0.8,0.2
		c-0.2,0.1-0.3,0.3-0.3,0.4c0,0.2,0.1,0.3,0.3,0.5c0.2,0.1,0.8,0.3,1.7,0.6c0.8,0.2,1.4,0.5,1.7,0.8c0.3,0.3,0.4,0.8,0.4,1.3
		c0,0.6-0.2,1.1-0.7,1.5c-0.5,0.4-1.2,0.7-2.1,0.7c-1,0-1.7-0.2-2.2-0.7C362.6,49.2,362.3,48.6,362.2,47.9z"/>
</g>
</svg>
