<?xml version="1.0" encoding="utf-8"?>
<!-- Generator: Adobe Illustrator 24.0.2, SVG Export Plug-In . SVG Version: 6.00 Build 0)  -->
<svg version="1.1" id="Layer_1" xmlns="http://www.w3.org/2000/svg" xmlns:xlink="http://www.w3.org/1999/xlink" x="0px" y="0px"
	 viewBox="0 0 708 708" style="enable-background:new 0 0 708 708;" xml:space="preserve">
<style type="text/css">
	.st0{fill-rule:evenodd;clip-rule:evenodd;fill:#2D2A2B;}
	.st1{fill-rule:evenodd;clip-rule:evenodd;fill:#181B21;filter:url(#Adobe_OpacityMaskFilter);}
	.st2{mask:url(#mask0_1_);}
	.st3{fill:none;stroke:#272A30;}
	.st4{fill:none;stroke:#272A30;stroke-width:2;}
	.st5{fill:#272A30;stroke:#272A30;}
	.st6{fill:#272A30;}
	.st7{fill:none;stroke:#999CA2;stroke-width:1.6;stroke-opacity:0.25;}
	.st8{fill:#C4C4C4;filter:url(#Adobe_OpacityMaskFilter_1_);}
	.st9{mask:url(#mask0_2_);}
	.st10{fill:#999CA2;fill-opacity:0.15;}
	.st11{fill:#E3E5EA;}
	.st12{fill:#999CA2;fill-opacity:0.25;}
	.st13{fill-rule:evenodd;clip-rule:evenodd;fill:#C4C4C4;filter:url(#Adobe_OpacityMaskFilter_2_);}
	.st14{mask:url(#mask1_2_);}
	.st15{fill:#7F838B;}
	.st16{fill:#E44C4D;}
	.st17{fill:#30D9D4;}
</style>
<path class="st0" d="M360.2,57.4l17.3-35.3h78.1v43.6h36L514.8,93l19,34.9h0.7v82.3h37l113.7,74.7v50.5h-15.9l-10.4,29h-1
	l-22.5,57.4h-16.6v4.1h15.9v30.4l-2.1,11.8v5.5l0.7,0.7v7.6l0.7,0.7v14.5l-0.7,0.7v9.7L616,556.2L603.9,568l-23.9,11.4h-62.2v16.9
	c0,6.9-12,13.9-18,16.6l-14.5,1.7h-7.3l-10.4-1.7c-8.8-7.1-15-12.9-19.7-17.4v0h0c-3.7-3.5-6.5-6.2-9-7.9c-8.9-4.1-27.7-5.4-36-5.5
	v-6.9h-4.8v9.7h-40.1v2.1l-3.5,7.6v2.8l0.7,0.7v4.8l0.7,0.7v3.5l4.1,11.1l3.5,2.1v45.6l-12.1,6.2h-4.1l-57.7-4.8L204,634l-8.3-42.9
	v-35.3c0-4.5-4.1-7.6-5.5-7.6h-7.3c-19.4-7.3-26.6-32.8-26.6-36.3v-35.6h-83v-44.9H62.9V322.9H85v-35.3H58.8l-36-10.4V145.9l9.7-9.7
	h0.7l9.7-9.7h79.5l51.2-28.7l3.8,1.7l15.2-19.4l-7.6-6.9l11.4-15.9H316v6.9h8.3v-6.9H360.2z M211.2,96.1l-4.1-4.1l-16.9,18.7
	l4.1,4.1L211.2,96.1z M316.7,82.3v8.3h8.3v-8.3H316.7z M383.7,135.5v-4.8H325v-21.4h-8.3v6.2h-56V112h-2.8v3.5h-22.1l-10.4-8
	l-24.2,29v51.5h64.3v-2.8h20.1v-2.8h-9.7v-10.4h-10.4V148l7.6-12.4h51.2v4.1h5.5v-4.1H383.7z M423.8,131.4v4.1h53.9v22.1h31.1v-2.1
	h-8.3l-18-14.5v-9.7H423.8z M478.5,177.7h30.4v3.5h-3.5L482.6,195v69.8h-4.1v-3.5H475v-12.4h-2.8v-4.8h6.2V177.7z M324.3,155.6h5.5
	v4.8l53.2,20.1h54.6v63.6h6.9v5.5h-6.9v4.8h-8.3v29.7h8.3v34.6h-4.1v-10.4h-54.6V204h-54.6V155.6z M190.8,268.3h74V224h-64.3v8.3
	l-35.3,22.1l-10,9l7.6,9l-14.2,15.9h-33.9v34.6h18v2.8h2.8v-2.8h31.1v-27.7c0-4.8,5.9-15.9,10-18.3
	C181.1,270.7,187.5,269,190.8,268.3z M132.8,346.4h2.8v1.4h21.4v99.6h-40.1v-15.9l7.6-6.9h0.7l7.6-7.6V346.4z M403.1,392.7v-30.4
	h34.6v30.4H403.1z M240.6,304.2v19.4h-9.7v8.6c1.4,19.4,19,75,83.7,75v45.6h-40.1l-83.7-75.4v-73.3H240.6z M172.9,431.4h-2.1v2.8
	h2.1V431.4z M186,431.4h10.4v6.2l77.4,67.8v29.7h11.1v5.5h-11.1v44.2h6.2v4.8h-23.5c0-26.6-9.7-57.7-40.8-68.5
	c-1.2-0.4-3.2-0.4-5.7-0.4c-7.9,0-20.4-0.1-24.1-14.1V431.4z M307.7,584.9h-4.8v4.1l0.7,0.7h4.1V584.9z M331.2,584.9h4.8v4.8h-4.8
	V584.9z M309.8,540.7v-5.5h7.6v-20h44.2v20h6.2v5.5H309.8z M398.2,549.7v-9h-4.8v-4.8h9.7v-84.4h-38.7v-44.2h38.7
	c-0.2-1.6-0.6-4.8,0-4.8h34.6v143.8h-34.6v3.5H398.2z M517.2,519.9v21.4h26.3l0.7-0.7v-29.7h29.7v-63.6h-18.3l-12.8,33.9l-34.2,22.1
	L517.2,519.9z M450.1,429.4v-4.1h14.5v4.1H450.1z M497.8,489.9l22.5-14.5l12.1-49.4h56v-4.1h-36.6v-43.6h-49.1l-19.4-18v-8.3h-5.5
	v98.9h5.5v15.9L497.8,489.9z M478.5,291.1v-2.8h4.8V318h-20.1v-27H478.5z M301.5,182.5v2.8h4.1v-2.8H301.5z"/>
<defs>
	<filter id="Adobe_OpacityMaskFilter" filterUnits="userSpaceOnUse" x="47.6" y="56.5" width="574.7" height="535.5">
		<feColorMatrix  type="matrix" values="1 0 0 0 0  0 1 0 0 0  0 0 1 0 0  0 0 0 1 0"/>
	</filter>
</defs>
<mask maskUnits="userSpaceOnUse" x="47.6" y="56.5" width="574.7" height="535.5" id="mask0_1_">
	<path class="st1" d="M360.2,57.4l17.3-35.3h78.1v43.6h36L514.8,93l19,34.9h0.7v82.3h37l113.7,74.7v50.5h-15.9l-10.4,29h-1
		l-22.5,57.4h-16.6v4.1h15.9v30.4l-2.1,11.8v5.5l0.7,0.7v7.6l0.7,0.7v14.5l-0.7,0.7v9.7L616,556.2L603.9,568l-23.9,11.4h-62.2v16.9
		c0,6.9-12,13.9-18,16.6l-14.5,1.7h-7.3l-10.4-1.7c-8.8-7.1-15-12.9-19.7-17.4v0h0c-3.7-3.5-6.5-6.2-9-7.9c-8.9-4.1-27.7-5.4-36-5.5
		v-6.9h-4.8v9.7h-40.1v2.1l-3.5,7.6v2.8l0.7,0.7v4.8l0.7,0.7v3.5l4.1,11.1l3.5,2.1v45.6l-12.1,6.2h-4.1l-57.7-4.8L204,634l-8.3-42.9
		v-35.3c0-4.5-4.1-7.6-5.5-7.6h-7.3c-19.4-7.3-26.6-32.8-26.6-36.3v-35.6h-83v-44.9H62.9V322.9H85v-35.3H58.8l-36-10.4V145.9
		l9.7-9.7h0.7l9.7-9.7h79.5l51.2-28.7l3.8,1.7l15.2-19.4l-7.6-6.9l11.4-15.9H316v6.9h8.3v-6.9H360.2z M211.2,96.1l-4.1-4.1
		l-16.9,18.7l4.1,4.1L211.2,96.1z M316.7,82.3v8.3h8.3v-8.3H316.7z M383.7,135.5v-4.8H325v-21.4h-8.3v6.2h-56V112h-2.8v3.5h-22.1
		l-10.4-8l-24.2,29v51.5h64.3v-2.8h20.1v-2.8h-9.7v-10.4h-10.4V148l7.6-12.4h51.2v4.1h5.5v-4.1H383.7z M423.8,131.4v4.1h53.9v22.1
		h31.1v-2.1h-8.3l-18-14.5v-9.7H423.8z M478.5,177.7h30.4v3.5h-3.5L482.6,195v69.8h-4.1v-3.5H475v-12.4h-2.8v-4.8h6.2V177.7z
		 M324.3,155.6h5.5v4.8l53.2,20.1h54.6v63.6h6.9v5.5h-6.9v4.8h-8.3v29.7h8.3v34.6h-4.1v-10.4h-54.6V204h-54.6V155.6z M190.8,268.3
		h74V224h-64.3v8.3l-35.3,22.1l-10,9l7.6,9l-14.2,15.9h-33.9v34.6h18v2.8h2.8v-2.8h31.1v-27.7c0-4.8,5.9-15.9,10-18.3
		C181.1,270.7,187.5,269,190.8,268.3z M132.8,346.4h2.8v1.4h21.4v99.6h-40.1v-15.9l7.6-6.9h0.7l7.6-7.6V346.4z M403.1,392.7v-30.4
		h34.6v30.4H403.1z M240.6,304.2v19.4h-9.7v8.6c1.4,19.4,19,75,83.7,75v45.6h-40.1l-83.7-75.4v-73.3H240.6z M172.9,431.4h-2.1v2.8
		h2.1V431.4z M186,431.4h10.4v6.2l77.4,67.8v29.7h11.1v5.5h-11.1v44.2h6.2v4.8h-23.5c0-26.6-9.7-57.7-40.8-68.5
		c-1.2-0.4-3.2-0.4-5.7-0.4c-7.9,0-20.4-0.1-24.1-14.1V431.4z M307.7,584.9h-4.8v4.1l0.7,0.7h4.1V584.9z M331.2,584.9h4.8v4.8h-4.8
		V584.9z M309.8,540.7v-5.5h7.6v-20h44.2v20h6.2v5.5H309.8z M398.2,549.7v-9h-4.8v-4.8h9.7v-84.4h-38.7v-44.2h38.7
		c-0.2-1.6-0.6-4.8,0-4.8h34.6v143.8h-34.6v3.5H398.2z M517.2,519.9v21.4h26.3l0.7-0.7v-29.7h29.7v-63.6h-18.3l-12.8,33.9
		l-34.2,22.1L517.2,519.9z M450.1,429.4v-4.1h14.5v4.1H450.1z M497.8,489.9l22.5-14.5l12.1-49.4h56v-4.1h-36.6v-43.6h-49.1l-19.4-18
		v-8.3h-5.5v98.9h5.5v15.9L497.8,489.9z M478.5,291.1v-2.8h4.8V318h-20.1v-27H478.5z M301.5,182.5v2.8h4.1v-2.8H301.5z"/>
</mask>
<g class="st2">
	<path class="st3" d="M551.5,264.5h10"/>
	<circle class="st4" cx="102.7" cy="208.5" r="11.4"/>
	<path class="st5" d="M48.1,169.7v-20.1h20.1v20.1H48.1z"/>
	<path class="st5" d="M48.1,169.7v24.9h2.1v-24.9H48.1z"/>
	<path class="st5" d="M48.1,244.6v20.1h20.1v-20.1H48.1z"/>
	<path class="st5" d="M48.1,244.6v-24.9h2.1v24.9H48.1z"/>
	<path class="st5" d="M172,189v-44h-3.5v44H172z"/>
	<path class="st5" d="M209,199.5V188h21.5v11.5H209z"/>
	<path class="st5" d="M235.5,199.5V188h-5v11.5H235.5z"/>
	<path class="st5" d="M82.5,382H62v10h20.5V382z"/>
	<path class="st3" d="M72,382v10"/>
	<path class="st3" d="M73,432h44"/>
	<path class="st3" d="M117,437H73"/>
	<path class="st5" d="M255,280.5V268h9.5v12.5H255z"/>
	<path class="st5" d="M300.5,308.5h-60V305H297v-36.5h3.5V308.5z"/>
	<path class="st5" d="M293.5,293.5h3.5V305h-11.5l6.5-6.5L293.5,293.5z"/>
	<path class="st6" d="M286,318.5h-11v-5v-5h11v5V318.5z"/>
	<path class="st3" d="M286,313.5v5h-11v-5 M286,313.5v-5h-11v5 M286,313.5h-11"/>
	<path class="st3" d="M285.5,184.8h39"/>
	<path class="st5" d="M314,195v-10h11v14h-0.5H317v-4H314z"/>
	<path class="st3" d="M317,195h7.5"/>
	<path class="st3" d="M314,190.5h10.5"/>
	<path class="st5" d="M310,228.5l-19,3.5l2,10l19.5-4.5L310,228.5z"/>
	<path class="st5" d="M324,242.5l-1-10.5l10-1l1.5,10.5L324,242.5z"/>
	<path class="st5" d="M350,242l-3.5-2l-4.5,8.5l4,2.5L350,242z"/>
	<path class="st5" d="M364,254h15v10.5h-11V259h-4V254z"/>
	<path class="st3" d="M368,259v-5"/>
	<circle class="st4" cx="339" cy="358" r="13"/>
	<path class="st5" d="M306,353h21l-1,4v4l1,3h-21V353z"/>
	<path class="st5" d="M361,337l-12,11.5l1.5,3.5l1.5,3.5v4l16.5-16L361,337z"/>
	<path class="st3" d="M436.8,317.8L425,328.5"/>
	<path class="st5" d="M403.6,353h33.6v10h-33.6V353z"/>
	<path class="st3" d="M437.2,318.5v4.5h-4v25h4v14.5"/>
	<path class="st3" d="M409.5,392.5v10"/>
	<path class="st3" d="M432,392.5v10"/>
	<path class="st3" d="M437.5,448.3H454v2h-16.5"/>
	<path class="st3" d="M478,448.3h-16v2h16"/>
	<path class="st5" d="M467,457.5v-7h17.5V464h-1L467,457.5z"/>
	<path class="st3" d="M472.5,450.5v5.5H472v3.5"/>
	<path class="st3" d="M483.5,456h-11"/>
	<path class="st3" d="M476,461v-5"/>
	<path class="st5" d="M471.5,581.5c0.5-2,2.5-3,4.5-3h6c2,0,6.5-2,9.5-2.5s2,0.5,2.5,2.5s-2,5.5-2.5,6.5s-3.5,3.5-5,3.5s-2.5,3-4,3
		H476c-2,0-4.5-3.5-4.5-4.5S471,583.5,471.5,581.5z"/>
	<path class="st5" d="M482,546c-0.5,2-4,2-6,1.5c-0.3,0-1.2-0.2-2-1c-1-1-3,0.5-6-0.5s-2-4-2.5-4.5s0.5-2,1-2s0-2.5,1.5-3.5
		s-0.5-3.5-0.5-4.5s1-3.5,2-3.5s2-1,2.5-2.5s2.5-2.5,5-2.5s4,1,7,2.5s3,7,3,9s-0.5,4.5-1.5,5S482.5,544,482,546z"/>
	<path class="st3" d="M573.4,510.3c0,4-0.4,28-30.4,30.5"/>
	<path class="st3" d="M537.8,579.4c7.9-3.8,52.2-13.5,70.3-71.9c3.2-36.3,9.2-65.4,13.6-81.8"/>
	<path class="st5" d="M566.5,388.2H550v-9.5h16.5V388.2z"/>
	<path class="st5" d="M532,373v7h-15v-12.5h9.5v5.5H532z"/>
	<path class="st3" d="M526.5,373v5.5"/>
	<path class="st5" d="M561.5,274v-25.5H557v5h-15.5v11h10v9.5H561.5z"/>
	<path class="st3" d="M557,253.5h4.5"/>
	<path class="st3" d="M551.5,264.5v-11"/>
	<path class="st3" d="M499.5,216.3v72.5H483"/>
	<path class="st5" d="M487,302.8h-4.5v-14h15v10H487V302.8z"/>
	<path class="st3" d="M493.5,298.8v-10"/>
	<path class="st3" d="M487,298.8h-4"/>
	<path class="st3" d="M481,288.5v-24"/>
	<path class="st3" d="M472.5,247.5h-14"/>
	<path class="st3" d="M444,245l8-11"/>
	<path class="st3" d="M508.5,157.7h26"/>
	<path class="st3" d="M508.5,180.3h26"/>
	<path class="st3" d="M508.5,155.6h26"/>
	<path class="st3" d="M508.5,177.7h26"/>
	<path class="st6" d="M489,74.5h10l1-3l-6-7.5h-7v1.5L489,74.5z"/>
	<path class="st6" d="M479.5,70v-4.5V64h-7v1.5V70H479.5z"/>
	<path class="st6" d="M459.5,69.5v-4V64h-3.4v1v1.2H454v3.3H459.5z"/>
	<path class="st3" d="M489,74.5h10l1-3l-6-7.5h-7v1.5L489,74.5z"/>
	<path class="st3" d="M479.5,70v-4.5V64h-7v1.5V70H479.5z"/>
	<path class="st3" d="M459.5,69.5v-4V64h-3.4v1v1.2H454v3.3H459.5z"/>
	<path class="st5" d="M374.5,135.5v9.5H364v-9.5H374.5z"/>
	<path class="st5" d="M374.5,150H364v-5h10.5V150z"/>
	<path class="st5" d="M257.5,61v-4h5v4H257.5z"/>
	<path class="st5" d="M308.5,60.5V57h8v5H312v-1.5H308.5z"/>
	<path class="st5" d="M313,84h4v5h-4V84z"/>
	<path class="st5" d="M313.5,110.5h3.5v5.5h-5.5v-4.5h2V110.5z"/>
	<path class="st3" d="M464,318v34.5h14"/>
</g>
<g>
	<path class="st7" d="M63.4,242.3v-68.4c0-1.5,1.2-2.8,2.8-2.8H134c1.5,0,2.8,1.2,2.8,2.8v68.4c0,1.5-1.2,2.8-2.8,2.8H66.2
		C64.7,245.1,63.4,243.8,63.4,242.3z"/>
	<defs>
		<filter id="Adobe_OpacityMaskFilter_1_" filterUnits="userSpaceOnUse" x="18.6" y="127.2" width="162.5" height="162.4">
			<feColorMatrix  type="matrix" values="1 0 0 0 0  0 1 0 0 0  0 0 1 0 0  0 0 0 1 0"/>
		</filter>
	</defs>
	<mask maskUnits="userSpaceOnUse" x="18.6" y="127.2" width="162.5" height="162.4" id="mask0_2_">
		<path class="st8" d="M63.4,242.3v-68.4c0-1.5,1.2-2.8,2.8-2.8H134c1.5,0,2.8,1.2,2.8,2.8v68.4c0,1.5-1.2,2.8-2.8,2.8H66.2
			C64.7,245.1,63.4,243.8,63.4,242.3z"/>
	</mask>
	<g class="st9">
		
			<rect x="73.2" y="243.1" transform="matrix(0.7074 -0.7068 0.7068 0.7074 -132.9671 167.5119)" class="st10" width="125.3" height="2.5"/>
		
			<rect x="69.6" y="239.5" transform="matrix(0.7074 -0.7068 0.7068 0.7074 -131.478 163.9149)" class="st10" width="125.3" height="2.5"/>
		
			<rect x="66" y="235.9" transform="matrix(0.7074 -0.7068 0.7068 0.7074 -129.9879 160.3164)" class="st10" width="125.3" height="2.5"/>
		
			<rect x="62.4" y="232.3" transform="matrix(0.7074 -0.7068 0.7068 0.7074 -128.499 156.7189)" class="st10" width="125.3" height="2.5"/>
		
			<rect x="58.8" y="228.7" transform="matrix(0.7074 -0.7068 0.7068 0.7074 -127.0086 153.1206)" class="st10" width="125.3" height="2.5"/>
		
			<rect x="55.2" y="225.1" transform="matrix(0.7074 -0.7068 0.7068 0.7074 -125.5198 149.5231)" class="st10" width="125.3" height="2.5"/>
		
			<rect x="51.6" y="221.5" transform="matrix(0.7074 -0.7068 0.7068 0.7074 -124.0303 145.9253)" class="st10" width="125.3" height="2.5"/>
		
			<rect x="48" y="217.9" transform="matrix(0.7074 -0.7068 0.7068 0.7074 -122.5407 142.3274)" class="st10" width="125.3" height="2.5"/>
		
			<rect x="44.4" y="214.3" transform="matrix(0.7074 -0.7068 0.7068 0.7074 -121.0517 138.7297)" class="st10" width="125.3" height="2.5"/>
		
			<rect x="40.8" y="210.7" transform="matrix(0.7074 -0.7068 0.7068 0.7074 -119.5622 135.1319)" class="st10" width="125.3" height="2.5"/>
		
			<rect x="37.2" y="207.1" transform="matrix(0.7074 -0.7068 0.7068 0.7074 -118.0727 131.5339)" class="st10" width="125.3" height="2.5"/>
		
			<rect x="33.6" y="203.5" transform="matrix(0.7074 -0.7068 0.7068 0.7074 -116.583 127.9362)" class="st10" width="125.3" height="2.5"/>
		
			<rect x="30" y="199.9" transform="matrix(0.7074 -0.7068 0.7068 0.7074 -115.0936 124.3381)" class="st10" width="125.3" height="2.5"/>
		
			<rect x="26.4" y="196.3" transform="matrix(0.7074 -0.7068 0.7068 0.7074 -113.6039 120.7402)" class="st10" width="125.3" height="2.5"/>
		
			<rect x="22.8" y="192.7" transform="matrix(0.7074 -0.7068 0.7068 0.7074 -112.1149 117.1428)" class="st10" width="125.3" height="2.5"/>
		
			<rect x="19.2" y="189.1" transform="matrix(0.7074 -0.7068 0.7068 0.7074 -110.6249 113.5444)" class="st10" width="125.3" height="2.5"/>
		
			<rect x="15.6" y="185.5" transform="matrix(0.7074 -0.7068 0.7068 0.7074 -109.1358 109.9471)" class="st10" width="125.3" height="2.5"/>
		
			<rect x="12" y="181.9" transform="matrix(0.7074 -0.7068 0.7068 0.7074 -107.6464 106.349)" class="st10" width="125.3" height="2.5"/>
		
			<rect x="8.4" y="178.3" transform="matrix(0.7074 -0.7068 0.7068 0.7074 -106.1567 102.7515)" class="st10" width="125.3" height="2.5"/>
		
			<rect x="4.7" y="174.7" transform="matrix(0.7074 -0.7068 0.7068 0.7074 -104.6671 99.1536)" class="st10" width="125.3" height="2.5"/>
		
			<rect x="1.1" y="171.1" transform="matrix(0.7074 -0.7068 0.7068 0.7074 -103.1784 95.5552)" class="st10" width="125.3" height="2.5"/>
	</g>
	<path class="st11" d="M93.5,215h5c2.6,0,4-1.4,4-3.2c0-1.7-1.2-2.8-2.6-2.8v-0.1c1.2-0.3,2.1-1.1,2.1-2.5c0-1.7-1.3-3-3.9-3h-4.7
		V215z M96,213v-3.1H98c1.2,0,1.9,0.7,1.9,1.6c0,0.9-0.6,1.4-2,1.4H96z M96,208.2v-2.9h1.9c1.1,0,1.7,0.6,1.7,1.4
		c0,0.9-0.8,1.5-1.8,1.5H96z"/>
	<path class="st12" d="M532.7,302.7l0.6,0.6l0,0L532.7,302.7z M550.4,285.6l-0.6-0.6l0,0L550.4,285.6z M532.7,349.9l-0.6,0.6l0,0
		L532.7,349.9z M550.4,367.7l0.6-0.6l0,0L550.4,367.7z M552.4,368.5v0.8V368.5z M624.7,368.5v-0.8V368.5z M626.7,367.7l0.6,0.6
		L626.7,367.7z M644.4,349.9l0.6,0.6L644.4,349.9z M645.2,348h0.8H645.2z M645.2,305.4h-0.8H645.2z M644.4,303.4l-0.6,0.6l0,0
		L644.4,303.4z M626,285.6l0.6-0.6l0,0L626,285.6z M624.1,284.8V284V284.8z M552.3,284.8v0.8V284.8z M580.9,345.7h-0.8H580.9z
		 M580.9,332.5h0.8H580.9z M581.6,331.8v0.8V331.8z M595.5,331.8V331V331.8z M634.9,345.7h0.8H634.9z M634.9,307.6h-0.8H634.9z
		 M634.2,306.9v-0.8V306.9z M596.8,306.9v0.8V306.9z M596.2,307.6h0.8H596.2z M596.2,320.8h-0.8H596.2z M595.5,321.5v-0.8V321.5z
		 M581.6,321.5v0.8V321.5z M580.3,306.9v-0.8V306.9z M542.9,306.9v0.8V306.9z M533.3,303.2l17.7-17.1l-1.1-1.2l-17.7,17.1
		L533.3,303.2z M532.7,304.7c0-0.5,0.2-1,0.6-1.4l-1.1-1.2c-0.7,0.7-1.1,1.6-1.1,2.6H532.7z M532.7,348v-43.3h-1.6V348H532.7z
		 M533.2,349.4c-0.4-0.4-0.6-0.9-0.6-1.4h-1.6c0,0.9,0.4,1.9,1,2.5L533.2,349.4z M551,367.1l-17.7-17.7l-1.1,1.1l17.7,17.7
		L551,367.1z M552.4,367.7c-0.5,0-1-0.2-1.4-0.6l-1.1,1.1c0.7,0.7,1.6,1,2.5,1V367.7z M624.7,367.7h-72.4v1.6h72.4V367.7z
		 M626.1,367.1c-0.4,0.4-0.9,0.6-1.4,0.6v1.6c0.9,0,1.9-0.4,2.5-1L626.1,367.1z M643.9,349.4l-17.7,17.7l1.1,1.1l17.7-17.7
		L643.9,349.4z M644.4,348c0,0.5-0.2,1-0.6,1.4l1.1,1.1c0.7-0.7,1-1.6,1-2.5H644.4z M644.4,305.4V348h1.6v-42.6H644.4z M643.8,303.9
		c0.4,0.4,0.6,0.9,0.6,1.4h1.6c0-1-0.4-1.9-1.1-2.6L643.8,303.9z M625.4,286.2l18.4,17.8l1.1-1.2L626.6,285L625.4,286.2z
		 M624.1,285.6c0.5,0,1,0.2,1.4,0.6l1.1-1.2c-0.7-0.6-1.6-1-2.5-1V285.6z M552.3,285.6h71.7V284h-71.7V285.6z M551,286.2
		c0.4-0.4,0.9-0.6,1.4-0.6V284c-0.9,0-1.8,0.4-2.5,1L551,286.2z M543,345.7v-38h-1.6v38H543z M542.9,345.6c0.1,0,0.1,0,0.1,0.1h-1.6
		c0,0.8,0.7,1.5,1.5,1.5V345.6z M580.3,345.6h-37.3v1.6h37.3V345.6z M580.1,345.7c0-0.1,0-0.1,0.1-0.1v1.6c0.8,0,1.5-0.7,1.5-1.5
		H580.1z M580.1,332.5v13.1h1.6v-13.1H580.1z M581.6,331c-0.8,0-1.5,0.7-1.5,1.5h1.6c0,0.1,0,0.1-0.1,0.1V331z M595.5,331h-13.8v1.6
		h13.8V331z M597,332.5c0-0.8-0.7-1.5-1.5-1.5v1.6c-0.1,0-0.1,0-0.1-0.1H597z M597,345.7v-13.1h-1.6v13.1H597z M596.8,345.6
		c0.1,0,0.1,0,0.1,0.1h-1.6c0,0.8,0.7,1.5,1.5,1.5V345.6z M634.2,345.6h-37.3v1.6h37.3V345.6z M634.1,345.7c0-0.1,0-0.1,0.1-0.1v1.6
		c0.8,0,1.5-0.7,1.5-1.5H634.1z M634.1,307.6v38h1.6v-38H634.1z M634.2,307.7c-0.1,0-0.1,0-0.1-0.1h1.6c0-0.8-0.7-1.5-1.5-1.5V307.7
		z M596.8,307.7h37.3v-1.6h-37.3V307.7z M597,307.6c0,0.1,0,0.1-0.1,0.1v-1.6c-0.8,0-1.5,0.7-1.5,1.5H597z M597,320.8v-13.1h-1.6
		v13.1H597z M595.5,322.3c0.8,0,1.5-0.7,1.5-1.5h-1.6c0-0.1,0-0.1,0.1-0.1V322.3z M581.6,322.3h13.8v-1.6h-13.8V322.3z M580.1,320.8
		c0,0.8,0.7,1.5,1.5,1.5v-1.6c0.1,0,0.1,0,0.1,0.1H580.1z M580.1,307.6v13.1h1.6v-13.1H580.1z M580.3,307.7c-0.1,0-0.1,0-0.1-0.1
		h1.6c0-0.8-0.7-1.5-1.5-1.5V307.7z M542.9,307.7h37.3v-1.6h-37.3V307.7z M543,307.6c0,0.1,0,0.1-0.1,0.1v-1.6
		c-0.8,0-1.5,0.7-1.5,1.5H543z"/>
	<defs>
		<filter id="Adobe_OpacityMaskFilter_2_" filterUnits="userSpaceOnUse" x="501.9" y="249.6" width="173.3" height="162.4">
			<feColorMatrix  type="matrix" values="1 0 0 0 0  0 1 0 0 0  0 0 1 0 0  0 0 0 1 0"/>
		</filter>
	</defs>
	<mask maskUnits="userSpaceOnUse" x="501.9" y="249.6" width="173.3" height="162.4" id="mask1_2_">
		<path class="st13" d="M550.4,285.6l-17.7,17.1c-0.5,0.5-0.8,1.2-0.8,2V348c0,0.7,0.3,1.4,0.8,2l17.7,17.7c0.5,0.5,1.2,0.8,2,0.8
			h72.4c0.7,0,1.4-0.3,2-0.8l17.7-17.7c0.5-0.5,0.8-1.2,0.8-2v-42.6c0-0.8-0.3-1.5-0.8-2L626,285.6c-0.5-0.5-1.2-0.8-1.9-0.8h-71.7
			C551.6,284.8,550.9,285.1,550.4,285.6z M542.2,307.6v38c0,0.4,0.3,0.7,0.7,0.7h37.3c0.4,0,0.7-0.3,0.7-0.7v-13.1
			c0-0.4,0.3-0.7,0.7-0.7h13.8c0.4,0,0.7,0.3,0.7,0.7v13.1c0,0.4,0.3,0.7,0.7,0.7h37.3c0.4,0,0.7-0.3,0.7-0.7v-38
			c0-0.4-0.3-0.7-0.7-0.7h-37.3c-0.4,0-0.7,0.3-0.7,0.7v13.1c0,0.4-0.3,0.7-0.7,0.7h-13.8c-0.4,0-0.7-0.3-0.7-0.7v-13.1
			c0-0.4-0.3-0.7-0.7-0.7h-37.3C542.5,306.9,542.2,307.3,542.2,307.6z"/>
	</mask>
	<g class="st14">
		
			<rect x="567.3" y="361.9" transform="matrix(0.7074 -0.7068 0.7068 0.7074 -72.3402 551.5201)" class="st10" width="125.3" height="2.5"/>
		
			<rect x="556.5" y="365.5" transform="matrix(0.7074 -0.7068 0.7068 0.7074 -78.0473 544.9302)" class="st10" width="125.3" height="2.5"/>
		
			<rect x="552.9" y="361.9" transform="matrix(0.7074 -0.7068 0.7068 0.7074 -76.5574 541.3332)" class="st10" width="125.3" height="2.5"/>
		
			<rect x="549.3" y="358.3" transform="matrix(0.7074 -0.7068 0.7068 0.7074 -75.068 537.735)" class="st10" width="125.3" height="2.5"/>
		
			<rect x="545.7" y="354.7" transform="matrix(0.7074 -0.7068 0.7068 0.7074 -73.5789 534.1379)" class="st10" width="125.3" height="2.5"/>
		
			<rect x="542.1" y="351.1" transform="matrix(0.7074 -0.7068 0.7068 0.7074 -72.0899 530.5386)" class="st10" width="125.3" height="2.5"/>
		
			<rect x="538.5" y="347.5" transform="matrix(0.7074 -0.7068 0.7068 0.7074 -70.6 526.9416)" class="st10" width="125.3" height="2.5"/>
		
			<rect x="534.9" y="343.9" transform="matrix(0.7074 -0.7068 0.7068 0.7074 -69.1103 523.3441)" class="st10" width="125.3" height="2.5"/>
		
			<rect x="531.2" y="340.3" transform="matrix(0.7074 -0.7068 0.7068 0.7074 -67.6208 519.746)" class="st10" width="125.3" height="2.5"/>
		
			<rect x="527.6" y="336.7" transform="matrix(0.7074 -0.7068 0.7068 0.7074 -66.1322 516.1476)" class="st10" width="125.3" height="2.5"/>
		
			<rect x="524" y="333.1" transform="matrix(0.7074 -0.7068 0.7068 0.7074 -64.6423 512.5507)" class="st10" width="125.3" height="2.5"/>
		
			<rect x="520.4" y="329.5" transform="matrix(0.7074 -0.7068 0.7068 0.7074 -63.1528 508.9525)" class="st10" width="125.3" height="2.5"/>
		
			<rect x="516.8" y="325.9" transform="matrix(0.7074 -0.7068 0.7068 0.7074 -61.6634 505.3543)" class="st10" width="125.3" height="2.5"/>
		
			<rect x="513.2" y="322.3" transform="matrix(0.7074 -0.7068 0.7068 0.7074 -60.1736 501.7569)" class="st10" width="125.3" height="2.5"/>
		
			<rect x="509.6" y="318.7" transform="matrix(0.7074 -0.7068 0.7068 0.7074 -58.6843 498.1583)" class="st10" width="125.3" height="2.5"/>
		
			<rect x="506" y="315.1" transform="matrix(0.7074 -0.7068 0.7068 0.7074 -57.1945 494.5609)" class="st10" width="125.3" height="2.5"/>
		
			<rect x="502.4" y="311.5" transform="matrix(0.7074 -0.7068 0.7068 0.7074 -55.7049 490.9631)" class="st10" width="125.3" height="2.5"/>
		
			<rect x="498.8" y="307.9" transform="matrix(0.7074 -0.7068 0.7068 0.7074 -54.2159 487.366)" class="st10" width="125.3" height="2.5"/>
		
			<rect x="495.2" y="304.3" transform="matrix(0.7074 -0.7068 0.7068 0.7074 -52.7264 483.7678)" class="st10" width="125.3" height="2.5"/>
		
			<rect x="491.6" y="300.7" transform="matrix(0.7074 -0.7068 0.7068 0.7074 -51.2367 480.1703)" class="st10" width="125.3" height="2.5"/>
		
			<rect x="488" y="297.1" transform="matrix(0.7074 -0.7068 0.7068 0.7074 -49.7472 476.5721)" class="st10" width="125.3" height="2.5"/>
		
			<rect x="484.4" y="293.5" transform="matrix(0.7074 -0.7068 0.7068 0.7074 -48.2585 472.9739)" class="st10" width="125.3" height="2.5"/>
	</g>
	<path class="st11" d="M631.2,300l0.9-2.7h4.2l0.9,2.7h2.6l-4-11.6h-3.2l-4,11.6H631.2z M632.6,295.4l1.4-4.4h0.1l1.4,4.4H632.6z"/>
	<path class="st15" d="M568.9,273l0.5-1.5h2.4l0.5,1.5h1.5l-2.3-6.5h-1.8l-2.3,6.5H568.9z M569.7,270.4l0.8-2.5h0.1l0.8,2.5H569.7z
		 M580,268.3h1.3c0-1.2-1-2-2.4-2c-1.4,0-2.5,0.8-2.5,2c0,1,0.7,1.5,1.8,1.8l0.7,0.2c0.7,0.2,1.1,0.4,1.1,0.8c0,0.5-0.5,0.8-1.2,0.8
		c-0.7,0-1.2-0.3-1.3-1h-1.3c0,1.4,1,2.1,2.6,2.1c1.6,0,2.5-0.8,2.5-2c0-1.1-0.8-1.7-2-1.9l-0.6-0.1c-0.6-0.1-1-0.3-1-0.8
		c0-0.4,0.4-0.7,1.1-0.7C579.5,267.5,579.9,267.8,580,268.3z M582.2,273h1.4v-4.9h-1.4V273z M582.9,267.5c0.4,0,0.7-0.3,0.7-0.7
		c0-0.4-0.3-0.7-0.7-0.7c-0.4,0-0.7,0.3-0.7,0.7C582.1,267.1,582.5,267.5,582.9,267.5z M587.2,268.1h-0.9v-1.2h-1.4v1.2h-0.7v1h0.7
		v2.6c0,1,0.6,1.4,1.6,1.4c0.4,0,0.6-0.1,0.7-0.1l-0.2-1c-0.1,0-0.2,0-0.3,0c-0.3,0-0.5-0.1-0.5-0.5v-2.4h0.9V268.1z M590.2,273.1
		c1.2,0,2-0.6,2.2-1.5l-1.3-0.1c-0.1,0.4-0.5,0.6-0.9,0.6c-0.7,0-1.1-0.5-1.1-1.2v0h3.3v-0.4c0-1.7-1-2.5-2.3-2.5
		c-1.4,0-2.4,1-2.4,2.5C587.7,272.1,588.7,273.1,590.2,273.1z M589.1,270c0-0.6,0.5-1,1.1-1c0.6,0,1,0.4,1,1H589.1z"/>
	<path class="st15" d="M580.8,513.7c-0.2-1.5-1.3-2.4-2.8-2.4c-1.7,0-3,1.2-3,3.4c0,2.1,1.3,3.4,3,3.4c1.7,0,2.7-1.1,2.8-2.3l-1.4,0
		c-0.1,0.7-0.7,1.1-1.4,1.1c-1,0-1.7-0.7-1.7-2.1c0-1.4,0.7-2.1,1.7-2.1c0.8,0,1.3,0.4,1.4,1.2H580.8z M583.1,518.1
		c0.7,0,1.2-0.3,1.4-0.8h0v0.7h1.3v-3.3c0-1.2-1-1.7-2.1-1.7c-1.2,0-1.9,0.6-2.1,1.5l1.3,0.1c0.1-0.3,0.4-0.6,0.9-0.6
		c0.5,0,0.7,0.2,0.7,0.6v0c0,0.3-0.3,0.4-1.2,0.4c-1,0.1-1.8,0.4-1.8,1.5C581.4,517.6,582.1,518.1,583.1,518.1z M583.5,517.1
		c-0.4,0-0.7-0.2-0.7-0.6c0-0.4,0.3-0.6,0.8-0.6c0.3,0,0.8-0.1,0.9-0.2v0.5C584.5,516.8,584.1,517.1,583.5,517.1z M591.2,513.1h-1.4
		l-1,3.5h-0.1l-1-3.5h-1.4l1.7,4.9h1.5L591.2,513.1z M593.9,518.1c1.2,0,2-0.6,2.2-1.5l-1.3-0.1c-0.1,0.4-0.5,0.6-0.9,0.6
		c-0.7,0-1.1-0.5-1.1-1.2v0h3.3v-0.4c0-1.7-1-2.5-2.3-2.5c-1.4,0-2.4,1-2.4,2.5C591.5,517.1,592.4,518.1,593.9,518.1z M592.8,515
		c0-0.6,0.5-1,1.1-1c0.6,0,1,0.4,1,1H592.8z"/>
	<path class="st15" d="M519.1,462l0.5-1.5h2.4l0.5,1.5h1.5l-2.3-6.5h-1.8l-2.3,6.5H519.1z M519.9,459.4l0.8-2.5h0.1l0.8,2.5H519.9z
		 M530.2,457.3h1.3c0-1.2-1-2-2.4-2c-1.4,0-2.5,0.8-2.5,2c0,1,0.7,1.5,1.8,1.8l0.7,0.2c0.7,0.2,1.1,0.4,1.1,0.8
		c0,0.5-0.5,0.8-1.2,0.8c-0.7,0-1.2-0.3-1.3-1h-1.3c0,1.4,1,2.1,2.6,2.1c1.6,0,2.5-0.8,2.5-2c0-1.1-0.8-1.7-2-1.9l-0.6-0.1
		c-0.6-0.1-1-0.3-1-0.8c0-0.4,0.4-0.7,1.1-0.7C529.7,456.5,530.1,456.8,530.2,457.3z M533.8,459.2c0-0.6,0.4-1,0.9-1
		c0.6,0,0.9,0.4,0.9,1v2.9h1.4v-3.1c0-1.1-0.7-1.8-1.7-1.8c-0.7,0-1.2,0.4-1.5,0.9h-0.1v-2.5h-1.3v6.5h1.4V459.2z M540.2,462.1
		c1.5,0,2.4-1,2.4-2.5c0-1.5-0.9-2.5-2.4-2.5c-1.5,0-2.4,1-2.4,2.5C537.8,461.1,538.7,462.1,540.2,462.1z M540.2,461
		c-0.7,0-1-0.6-1-1.5c0-0.9,0.4-1.5,1-1.5c0.7,0,1,0.6,1,1.5C541.2,460.4,540.9,461,540.2,461z M543.4,463.8h1.4v-2.6h0
		c0.2,0.4,0.6,0.9,1.4,0.9c1.1,0,2-0.9,2-2.5c0-1.7-0.9-2.5-2-2.5c-0.8,0-1.2,0.5-1.4,0.9h-0.1v-0.8h-1.3V463.8z M544.7,459.5
		c0-0.9,0.4-1.4,1-1.4c0.7,0,1,0.6,1,1.4c0,0.9-0.4,1.5-1,1.5C545.1,461,544.7,460.4,544.7,459.5z"/>
	<path class="st15" d="M441.9,564l0.5-1.5h2.4l0.5,1.5h1.5l-2.3-6.5h-1.8l-2.3,6.5H441.9z M442.8,561.4l0.8-2.5h0.1l0.8,2.5H442.8z
		 M449.4,564h4.2v-1.1h-2.8v-5.4h-1.4V564z M456.7,564.1c1.5,0,2.4-1,2.4-2.5c0-1.5-0.9-2.5-2.4-2.5c-1.5,0-2.4,1-2.4,2.5
		C454.2,563.1,455.2,564.1,456.7,564.1z M456.7,563c-0.7,0-1-0.6-1-1.5c0-0.9,0.4-1.5,1-1.5c0.7,0,1,0.6,1,1.5
		C457.7,562.4,457.3,563,456.7,563z M459.9,564h1.3v-0.8h0.1c0.2,0.4,0.6,0.9,1.4,0.9c1.1,0,2-0.9,2-2.5c0-1.7-0.9-2.5-2-2.5
		c-0.8,0-1.2,0.5-1.4,0.9h0v-2.5h-1.4V564z M461.2,561.5c0-0.9,0.4-1.4,1-1.4c0.7,0,1,0.6,1,1.4c0,0.9-0.4,1.5-1,1.5
		C461.6,563,461.2,562.4,461.2,561.5z M465.6,564h1.3v-0.8h0.1c0.2,0.4,0.6,0.9,1.4,0.9c1.1,0,2-0.9,2-2.5c0-1.7-0.9-2.5-2-2.5
		c-0.8,0-1.2,0.5-1.4,0.9h0v-2.5h-1.4V564z M466.9,561.5c0-0.9,0.4-1.4,1-1.4c0.7,0,1,0.6,1,1.4c0,0.9-0.4,1.5-1,1.5
		C467.3,563,466.9,562.4,466.9,561.5z M471.8,565.8c1,0,1.5-0.5,1.8-1.3l1.9-5.4l-1.4,0l-1,3.6h-0.1l-1-3.6h-1.4l1.8,5l-0.1,0.2
		c-0.2,0.5-0.5,0.5-1,0.3l-0.3,1C471.2,565.8,471.5,565.8,471.8,565.8z"/>
	<path class="st15" d="M443,460h1.4v-2.3h1l1.2,2.3h1.5l-1.4-2.5c0.7-0.3,1.2-1,1.2-1.9c0-1.3-0.9-2.1-2.3-2.1H443V460z
		 M444.3,456.6v-2h0.9c0.8,0,1.2,0.4,1.2,1c0,0.6-0.4,1-1.2,1H444.3z M450.9,460.1c1.5,0,2.4-1,2.4-2.5c0-1.5-0.9-2.5-2.4-2.5
		c-1.5,0-2.4,1-2.4,2.5C448.5,459.1,449.4,460.1,450.9,460.1z M450.9,459c-0.7,0-1-0.6-1-1.5c0-0.9,0.4-1.5,1-1.5c0.7,0,1,0.6,1,1.5
		C451.9,458.4,451.6,459,450.9,459z M454.1,461.8h1.4v-2.6h0c0.2,0.4,0.6,0.9,1.4,0.9c1.1,0,2-0.9,2-2.5c0-1.7-0.9-2.5-2-2.5
		c-0.8,0-1.2,0.5-1.4,0.9h-0.1v-0.8h-1.3V461.8z M455.4,457.5c0-0.9,0.4-1.4,1-1.4c0.7,0,1,0.6,1,1.4c0,0.9-0.4,1.5-1,1.5
		C455.8,459,455.4,458.4,455.4,457.5z M462,460.1c1.2,0,2-0.6,2.2-1.5l-1.3-0.1c-0.1,0.4-0.5,0.6-0.9,0.6c-0.7,0-1.1-0.5-1.1-1.2v0
		h3.3v-0.4c0-1.7-1-2.5-2.3-2.5c-1.4,0-2.4,1-2.4,2.5C459.5,459.1,460.5,460.1,462,460.1z M460.9,457c0-0.6,0.5-1,1.1-1
		c0.6,0,1,0.4,1,1H460.9z"/>
	<path class="st15" d="M445.7,392h1.4v-2.7h2.8v2.7h1.4v-6.5h-1.4v2.7h-2.8v-2.7h-1.4V392z M453.8,392.1c0.7,0,1.2-0.3,1.4-0.8h0
		v0.7h1.3v-3.3c0-1.2-1-1.7-2.1-1.7c-1.2,0-1.9,0.6-2.1,1.5l1.3,0.1c0.1-0.3,0.4-0.6,0.9-0.6c0.5,0,0.7,0.2,0.7,0.6v0
		c0,0.3-0.3,0.4-1.2,0.4c-1,0.1-1.8,0.4-1.8,1.5C452.1,391.6,452.8,392.1,453.8,392.1z M454.1,391.1c-0.4,0-0.7-0.2-0.7-0.6
		c0-0.4,0.3-0.6,0.8-0.6c0.3,0,0.8-0.1,0.9-0.2v0.5C455.2,390.8,454.7,391.1,454.1,391.1z M458.9,385.5h-1.4v6.5h1.4V385.5z
		 M461.2,385.5h-1.4v6.5h1.4V385.5z"/>
	<path class="st15" d="M417.9,239.5v6.5h1.3v-4.3h0.1l1.7,4.2h0.9l1.7-4.2h0.1v4.3h1.3v-6.5h-1.7l-1.8,4.4h-0.1l-1.8-4.4H417.9z
		 M428.2,246.1c1.2,0,2-0.6,2.2-1.5l-1.3-0.1c-0.1,0.4-0.5,0.6-0.9,0.6c-0.7,0-1.1-0.5-1.1-1.2v0h3.3v-0.4c0-1.7-1-2.5-2.3-2.5
		c-1.4,0-2.4,1-2.4,2.5C425.8,245.1,426.7,246.1,428.2,246.1z M427.1,243c0-0.6,0.5-1,1.1-1c0.6,0,1,0.4,1,1H427.1z M433.9,241.1
		H433v-1.2h-1.4v1.2h-0.7v1h0.7v2.6c0,1,0.6,1.4,1.6,1.4c0.4,0,0.6-0.1,0.7-0.1l-0.2-1c-0.1,0-0.2,0-0.3,0c-0.3,0-0.5-0.1-0.5-0.5
		v-2.4h0.9V241.1z M436.1,246.1c0.7,0,1.2-0.3,1.4-0.8h0v0.7h1.3v-3.3c0-1.2-1-1.7-2.1-1.7c-1.2,0-2,0.6-2.1,1.5l1.3,0.1
		c0.1-0.3,0.4-0.6,0.9-0.6c0.5,0,0.7,0.2,0.7,0.6v0c0,0.3-0.3,0.4-1.2,0.4c-1,0.1-1.8,0.4-1.8,1.5
		C434.5,245.6,435.2,246.1,436.1,246.1z M436.5,245.1c-0.4,0-0.7-0.2-0.7-0.6c0-0.4,0.3-0.6,0.8-0.6c0.3,0,0.8-0.1,0.9-0.2v0.5
		C437.5,244.8,437.1,245.1,436.5,245.1z M441.2,239.5h-1.4v6.5h1.4V239.5z M446.6,246c2,0,3.2-1.2,3.2-3.3c0-2-1.2-3.3-3.2-3.3h-2.3
		v6.5H446.6z M445.6,244.8v-4.2h0.9c1.2,0,1.9,0.6,1.9,2.1c0,1.5-0.6,2.1-1.9,2.1H445.6z M452.9,246.1c1.5,0,2.4-1,2.4-2.5
		c0-1.5-0.9-2.5-2.4-2.5c-1.5,0-2.4,1-2.4,2.5C450.5,245.1,451.4,246.1,452.9,246.1z M452.9,245c-0.7,0-1-0.6-1-1.5
		c0-0.9,0.4-1.5,1-1.5c0.7,0,1,0.6,1,1.5C453.9,244.4,453.6,245,452.9,245z M458.3,246.1c1.5,0,2.4-1,2.4-2.5c0-1.5-0.9-2.5-2.4-2.5
		c-1.5,0-2.4,1-2.4,2.5C455.9,245.1,456.8,246.1,458.3,246.1z M458.3,245c-0.7,0-1-0.6-1-1.5c0-0.9,0.4-1.5,1-1.5c0.7,0,1,0.6,1,1.5
		C459.4,244.4,459,245,458.3,245z M461.6,246h1.4v-2.8c0-0.6,0.4-1,1-1c0.2,0,0.4,0,0.6,0.1v-1.2c-0.1,0-0.3,0-0.4,0
		c-0.5,0-1,0.3-1.2,0.9h-0.1v-0.9h-1.3V246z M469.2,242.5c-0.1-0.9-0.9-1.5-2.1-1.5c-1.3,0-2.1,0.6-2.1,1.5c0,0.7,0.5,1.2,1.4,1.4
		l0.9,0.2c0.4,0.1,0.6,0.2,0.6,0.5c0,0.3-0.3,0.5-0.8,0.5c-0.5,0-0.8-0.2-0.9-0.6l-1.3,0.1c0.1,0.9,0.9,1.5,2.2,1.5
		c1.3,0,2.2-0.6,2.2-1.6c0-0.7-0.5-1.1-1.4-1.3L467,243c-0.5-0.1-0.6-0.3-0.6-0.5c0-0.3,0.3-0.5,0.8-0.5c0.5,0,0.8,0.3,0.8,0.6
		L469.2,242.5z"/>
	<path class="st15" d="M459.1,273.3h1.3c0-1.2-1-2-2.4-2c-1.4,0-2.5,0.8-2.5,2c0,1,0.7,1.5,1.8,1.8l0.7,0.2c0.7,0.2,1.1,0.4,1.1,0.8
		c0,0.5-0.5,0.8-1.2,0.8c-0.7,0-1.2-0.3-1.3-1h-1.3c0,1.4,1,2.1,2.6,2.1c1.6,0,2.5-0.8,2.5-2c0-1.1-0.8-1.7-2-1.9l-0.6-0.1
		c-0.6-0.1-1-0.3-1-0.8c0-0.4,0.4-0.7,1.1-0.7C458.7,272.5,459.1,272.8,459.1,273.3z M462.3,278h1.4l0.8-3.1h0.1l0.8,3.1h1.4
		l1.3-4.9h-1.4l-0.7,3.3h0l-0.8-3.3H464l-0.8,3.3h0l-0.8-3.3H461L462.3,278z M468.9,278h1.4v-4.9h-1.4V278z M469.6,272.5
		c0.4,0,0.7-0.3,0.7-0.7c0-0.4-0.3-0.7-0.7-0.7c-0.4,0-0.7,0.3-0.7,0.7C468.9,272.1,469.2,272.5,469.6,272.5z M473.9,273.1H473v-1.2
		h-1.4v1.2H471v1h0.7v2.6c0,1,0.6,1.4,1.6,1.4c0.4,0,0.6-0.1,0.7-0.1l-0.2-1c-0.1,0-0.2,0-0.3,0c-0.3,0-0.5-0.1-0.5-0.5v-2.4h0.9
		V273.1z M476.9,278.1c1.3,0,2.1-0.8,2.2-1.9h-1.3c-0.1,0.5-0.4,0.8-0.9,0.8c-0.6,0-1-0.5-1-1.5c0-0.9,0.4-1.5,1-1.5
		c0.5,0,0.8,0.3,0.9,0.8h1.3c-0.1-1.1-0.9-1.9-2.2-1.9c-1.5,0-2.4,1-2.4,2.5C474.5,277.1,475.4,278.1,476.9,278.1z M481.2,275.2
		c0-0.6,0.4-1,0.9-1c0.6,0,0.9,0.4,0.9,1v2.9h1.4v-3.1c0-1.1-0.7-1.8-1.7-1.8c-0.7,0-1.2,0.4-1.5,0.9h-0.1v-2.5h-1.3v6.5h1.4V275.2z
		"/>
	<path class="st15" d="M408.9,389.5v6.5h1.3v-4.3h0.1l1.7,4.2h0.9l1.7-4.2h0.1v4.3h1.3v-6.5h-1.7l-1.8,4.4h-0.1l-1.8-4.4H408.9z
		 M417.1,396h1.4v-4.9h-1.4V396z M417.7,390.5c0.4,0,0.7-0.3,0.7-0.7c0-0.4-0.3-0.7-0.7-0.7c-0.4,0-0.7,0.3-0.7,0.7
		C417,390.1,417.3,390.5,417.7,390.5z M421.2,396.1c0.8,0,1.2-0.5,1.4-0.9h0.1v0.8h1.3v-6.5h-1.4v2.5h0c-0.2-0.4-0.6-0.9-1.4-0.9
		c-1.1,0-2,0.8-2,2.5C419.2,395.2,420.1,396.1,421.2,396.1z M421.7,395c-0.7,0-1-0.6-1-1.5c0-0.9,0.4-1.4,1-1.4c0.7,0,1,0.6,1,1.4
		C422.7,394.4,422.3,395,421.7,395z M409.6,403.7c-0.2-1.5-1.3-2.4-2.8-2.4c-1.7,0-3,1.2-3,3.4c0,2.1,1.3,3.4,3,3.4
		c1.7,0,2.7-1.1,2.8-2.3l-1.4,0c-0.1,0.7-0.7,1.1-1.4,1.1c-1,0-1.7-0.7-1.7-2.1c0-1.4,0.7-2.1,1.7-2.1c0.8,0,1.3,0.4,1.4,1.2H409.6z
		 M411.8,405.2c0-0.6,0.4-1,0.9-1c0.6,0,0.9,0.4,0.9,1v2.9h1.4v-3.1c0-1.1-0.7-1.8-1.7-1.8c-0.7,0-1.2,0.4-1.5,0.9h-0.1v-2.5h-1.3
		v6.5h1.4V405.2z M419.1,405.9c0,0.7-0.4,1-0.9,1c-0.5,0-0.8-0.4-0.8-0.9v-2.9H416v3.1c0,1.1,0.7,1.8,1.7,1.8c0.7,0,1.3-0.4,1.5-1
		h0.1v0.9h1.3v-4.9h-1.4V405.9z M424.1,403.1h-0.9v-1.2h-1.4v1.2h-0.7v1h0.7v2.6c0,1,0.6,1.4,1.6,1.4c0.4,0,0.6-0.1,0.7-0.1l-0.2-1
		c-0.1,0-0.2,0-0.3,0c-0.3,0-0.5-0.1-0.5-0.5v-2.4h0.9V403.1z M427.1,408.1c1.2,0,2-0.6,2.2-1.5l-1.3-0.1c-0.1,0.4-0.5,0.6-0.9,0.6
		c-0.7,0-1.1-0.5-1.1-1.2v0h3.3v-0.4c0-1.7-1-2.5-2.3-2.5c-1.4,0-2.4,1-2.4,2.5C424.7,407.1,425.6,408.1,427.1,408.1z M426,405
		c0-0.6,0.5-1,1.1-1c0.6,0,1,0.4,1,1H426z"/>
	<path class="st15" d="M427.8,329.5v6.5h1.3v-4.3h0.1l1.7,4.2h0.9l1.7-4.2h0.1v4.3h1.3v-6.5h-1.7l-1.8,4.4h-0.1l-1.8-4.4H427.8z
		 M435.9,336h1.4v-4.9h-1.4V336z M436.6,330.5c0.4,0,0.7-0.3,0.7-0.7c0-0.4-0.3-0.7-0.7-0.7c-0.4,0-0.7,0.3-0.7,0.7
		C435.9,330.1,436.2,330.5,436.6,330.5z M440.1,336.1c0.8,0,1.2-0.5,1.4-0.9h0.1v0.8h1.3v-6.5h-1.4v2.5h0c-0.2-0.4-0.6-0.9-1.4-0.9
		c-1.1,0-2,0.8-2,2.5C438.1,335.2,439,336.1,440.1,336.1z M440.5,335c-0.7,0-1-0.6-1-1.5c0-0.9,0.4-1.4,1-1.4c0.7,0,1,0.6,1,1.4
		C441.6,334.4,441.2,335,440.5,335z M447.4,336h1.3l1.2-4.3h0.1l1.2,4.3h1.3l1.9-6.5H453L452,334h-0.1l-1.2-4.6h-1.3l-1.2,4.5h-0.1
		l-1.1-4.5h-1.5L447.4,336z M456.9,336.1c1.5,0,2.4-1,2.4-2.5c0-1.5-0.9-2.5-2.4-2.5c-1.5,0-2.4,1-2.4,2.5
		C454.5,335.1,455.4,336.1,456.9,336.1z M456.9,335c-0.7,0-1-0.6-1-1.5c0-0.9,0.4-1.5,1-1.5c0.7,0,1,0.6,1,1.5
		C457.9,334.4,457.6,335,456.9,335z M462.3,336.1c1.5,0,2.4-1,2.4-2.5c0-1.5-0.9-2.5-2.4-2.5c-1.5,0-2.4,1-2.4,2.5
		C459.9,335.1,460.8,336.1,462.3,336.1z M462.3,335c-0.7,0-1-0.6-1-1.5c0-0.9,0.4-1.5,1-1.5c0.7,0,1,0.6,1,1.5
		C463.4,334.4,463,335,462.3,335z M467.3,336.1c0.8,0,1.2-0.5,1.4-0.9h0.1v0.8h1.3v-6.5h-1.4v2.5h0c-0.2-0.4-0.6-0.9-1.4-0.9
		c-1.1,0-2,0.8-2,2.5C465.4,335.2,466.2,336.1,467.3,336.1z M467.8,335c-0.7,0-1-0.6-1-1.5c0-0.9,0.4-1.4,1-1.4c0.7,0,1,0.6,1,1.4
		C468.8,334.4,468.4,335,467.8,335z M438.9,348c2,0,3.2-1.2,3.2-3.3c0-2-1.2-3.3-3.2-3.3h-2.3v6.5H438.9z M437.9,346.8v-4.2h0.9
		c1.2,0,1.9,0.6,1.9,2.1c0,1.5-0.6,2.1-1.9,2.1H437.9z M445.2,348.1c1.5,0,2.4-1,2.4-2.5c0-1.5-0.9-2.5-2.4-2.5
		c-1.5,0-2.4,1-2.4,2.5C442.8,347.1,443.7,348.1,445.2,348.1z M445.2,347c-0.7,0-1-0.6-1-1.5c0-0.9,0.4-1.5,1-1.5c0.7,0,1,0.6,1,1.5
		C446.2,346.4,445.9,347,445.2,347z M450.6,348.1c1.5,0,2.4-1,2.4-2.5c0-1.5-0.9-2.5-2.4-2.5c-1.5,0-2.4,1-2.4,2.5
		C448.2,347.1,449.2,348.1,450.6,348.1z M450.7,347c-0.7,0-1-0.6-1-1.5c0-0.9,0.4-1.5,1-1.5c0.7,0,1,0.6,1,1.5
		C451.7,346.4,451.3,347,450.7,347z M453.9,348h1.4v-2.8c0-0.6,0.4-1,1-1c0.2,0,0.4,0,0.6,0.1v-1.2c-0.1,0-0.3,0-0.4,0
		c-0.5,0-1,0.3-1.2,0.9h-0.1v-0.9h-1.3V348z M461.6,344.5c-0.1-0.9-0.9-1.5-2.1-1.5c-1.3,0-2.1,0.6-2.1,1.5c0,0.7,0.5,1.2,1.4,1.4
		l0.9,0.2c0.4,0.1,0.6,0.2,0.6,0.5c0,0.3-0.3,0.5-0.8,0.5c-0.5,0-0.8-0.2-0.9-0.6l-1.3,0.1c0.1,0.9,0.9,1.5,2.2,1.5
		c1.3,0,2.2-0.6,2.2-1.6c0-0.7-0.5-1.1-1.4-1.3l-0.9-0.2c-0.5-0.1-0.6-0.3-0.6-0.5c0-0.3,0.3-0.5,0.8-0.5c0.5,0,0.8,0.3,0.8,0.6
		L461.6,344.5z"/>
	<path class="st15" d="M328.4,419.5v6.5h1.3v-4.3h0.1l1.7,4.2h0.9l1.7-4.2h0.1v4.3h1.3v-6.5h-1.7l-1.8,4.4h-0.1l-1.8-4.4H328.4z
		 M336.6,426h1.4v-4.9h-1.4V426z M337.2,420.5c0.4,0,0.7-0.3,0.7-0.7c0-0.4-0.3-0.7-0.7-0.7c-0.4,0-0.7,0.3-0.7,0.7
		C336.5,420.1,336.8,420.5,337.2,420.5z M340.7,426.1c0.8,0,1.2-0.5,1.4-0.9h0.1v0.8h1.3v-6.5h-1.4v2.5h0c-0.2-0.4-0.6-0.9-1.4-0.9
		c-1.1,0-2,0.8-2,2.5C338.7,425.2,339.6,426.1,340.7,426.1z M341.2,425c-0.7,0-1-0.6-1-1.5c0-0.9,0.4-1.4,1-1.4c0.7,0,1,0.6,1,1.4
		C342.2,424.4,341.8,425,341.2,425z M320.7,438h2.8c1.5,0,2.3-0.8,2.3-1.8c0-1-0.7-1.6-1.4-1.6v-0.1c0.7-0.2,1.2-0.6,1.2-1.4
		c0-1-0.7-1.7-2.2-1.7h-2.6V438z M322.1,436.9v-1.7h1.2c0.7,0,1.1,0.4,1.1,0.9c0,0.5-0.3,0.8-1.1,0.8H322.1z M322.1,434.2v-1.6h1.1
		c0.6,0,1,0.3,1,0.8c0,0.5-0.4,0.8-1,0.8H322.1z M328.7,438.1c1.5,0,2.4-1,2.4-2.5c0-1.5-0.9-2.5-2.4-2.5c-1.5,0-2.4,1-2.4,2.5
		C326.3,437.1,327.3,438.1,328.7,438.1z M328.7,437c-0.7,0-1-0.6-1-1.5c0-0.9,0.4-1.5,1-1.5c0.7,0,1,0.6,1,1.5
		C329.8,436.4,329.4,437,328.7,437z M334.6,433.1h-0.9v-1.2h-1.4v1.2h-0.7v1h0.7v2.6c0,1,0.6,1.4,1.6,1.4c0.4,0,0.6-0.1,0.7-0.1
		l-0.2-1c-0.1,0-0.2,0-0.3,0c-0.3,0-0.5-0.1-0.5-0.5v-2.4h0.9V433.1z M338,433.1h-0.9v-1.2h-1.4v1.2H335v1h0.7v2.6
		c0,1,0.6,1.4,1.6,1.4c0.4,0,0.6-0.1,0.7-0.1l-0.2-1c-0.1,0-0.2,0-0.3,0c-0.3,0-0.5-0.1-0.5-0.5v-2.4h0.9V433.1z M341,438.1
		c1.5,0,2.4-1,2.4-2.5c0-1.5-0.9-2.5-2.4-2.5c-1.5,0-2.4,1-2.4,2.5C338.5,437.1,339.5,438.1,341,438.1z M341,437c-0.7,0-1-0.6-1-1.5
		c0-0.9,0.4-1.5,1-1.5c0.7,0,1,0.6,1,1.5C342,436.4,341.6,437,341,437z M344.2,438h1.4V435c0-0.5,0.3-0.9,0.8-0.9
		c0.4,0,0.7,0.3,0.7,0.8v3.1h1.3v-3c0-0.5,0.3-0.9,0.8-0.9c0.4,0,0.8,0.3,0.8,0.8v3h1.4v-3.3c0-1.1-0.6-1.7-1.5-1.7
		c-0.7,0-1.3,0.4-1.5,0.9h-0.1c-0.2-0.6-0.7-0.9-1.3-0.9c-0.7,0-1.2,0.4-1.4,0.9h-0.1v-0.9h-1.3V438z"/>
	<path class="st15" d="M268.1,90l0.5-1.5h2.4l0.5,1.5h1.5l-2.3-6.5h-1.8l-2.3,6.5H268.1z M269,87.4l0.8-2.5h0.1l0.8,2.5H269z
		 M273.6,90h1.4v-2.8c0-0.6,0.4-1,1-1c0.2,0,0.4,0,0.6,0.1v-1.2c-0.1,0-0.3,0-0.4,0c-0.5,0-1,0.3-1.2,0.9h-0.1v-0.9h-1.3V90z
		 M279.2,90.1c1.3,0,2.1-0.8,2.2-1.9h-1.3c-0.1,0.5-0.4,0.8-0.9,0.8c-0.6,0-1-0.5-1-1.5c0-0.9,0.4-1.5,1-1.5c0.5,0,0.8,0.3,0.9,0.8
		h1.3c-0.1-1.1-0.9-1.9-2.2-1.9c-1.5,0-2.4,1-2.4,2.5C276.8,89.1,277.7,90.1,279.2,90.1z M283.6,87.2c0-0.6,0.4-1,0.9-1
		c0.6,0,0.9,0.4,0.9,1V90h1.4v-3.1c0-1.2-0.7-1.8-1.7-1.8c-0.7,0-1.2,0.4-1.5,0.9h-0.1v-2.5h-1.3V90h1.4V87.2z M290,90.1
		c1.2,0,2-0.6,2.2-1.5l-1.3-0.1c-0.1,0.4-0.5,0.6-0.9,0.6c-0.7,0-1.1-0.5-1.1-1.2v0h3.3v-0.4c0-1.7-1-2.5-2.3-2.5
		c-1.4,0-2.4,1-2.4,2.5C287.5,89.1,288.5,90.1,290,90.1z M288.9,87c0-0.6,0.5-1,1.1-1c0.6,0,1,0.4,1,1H288.9z M297.1,86.5
		c-0.1-0.9-0.9-1.5-2.1-1.5c-1.3,0-2.1,0.6-2.1,1.5c0,0.7,0.5,1.2,1.4,1.4l0.9,0.2c0.4,0.1,0.6,0.2,0.6,0.5c0,0.3-0.3,0.5-0.8,0.5
		c-0.5,0-0.8-0.2-0.9-0.6l-1.3,0.1c0.1,0.9,0.9,1.5,2.2,1.5c1.3,0,2.2-0.6,2.2-1.6c0-0.7-0.5-1.1-1.4-1.3l-0.9-0.2
		c-0.5-0.1-0.6-0.3-0.6-0.5c0-0.3,0.3-0.5,0.8-0.5c0.5,0,0.8,0.3,0.8,0.6L297.1,86.5z"/>
	<path class="st15" d="M481.1,172l0.5-1.5h2.4l0.5,1.5h1.5l-2.3-6.5h-1.8l-2.3,6.5H481.1z M481.9,169.4l0.8-2.5h0.1l0.8,2.5H481.9z
		 M488.6,172h2.8c1.5,0,2.3-0.8,2.3-1.8c0-1-0.7-1.6-1.4-1.6v-0.1c0.7-0.2,1.2-0.6,1.2-1.4c0-1-0.7-1.7-2.2-1.7h-2.6V172z
		 M490,170.9v-1.7h1.2c0.7,0,1.1,0.4,1.1,0.9c0,0.5-0.3,0.8-1.1,0.8H490z M490,168.2v-1.6h1.1c0.6,0,1,0.3,1,0.8
		c0,0.5-0.4,0.8-1,0.8H490z M494.5,172h1.4v-2.8c0-0.6,0.4-1,1-1c0.2,0,0.4,0,0.6,0.1v-1.2c-0.1,0-0.3,0-0.4,0c-0.5,0-1,0.3-1.2,0.9
		h-0.1v-0.9h-1.3V172z M498.1,172h1.4v-4.9h-1.4V172z M498.8,166.5c0.4,0,0.7-0.3,0.7-0.7c0-0.4-0.3-0.7-0.7-0.7
		c-0.4,0-0.7,0.3-0.7,0.7C498,166.1,498.4,166.5,498.8,166.5z M502.3,172.1c0.8,0,1.2-0.5,1.4-0.9h0.1v0.8h1.3v-6.5h-1.4v2.5h0
		c-0.2-0.4-0.6-0.9-1.4-0.9c-1.1,0-2,0.8-2,2.5C500.3,171.2,501.1,172.1,502.3,172.1z M502.7,171c-0.7,0-1-0.6-1-1.5
		c0-0.8,0.4-1.4,1-1.4c0.7,0,1,0.6,1,1.4C503.7,170.4,503.3,171,502.7,171z M508.3,173.9c1.4,0,2.4-0.6,2.4-1.9v-5h-1.4v0.8h-0.1
		c-0.2-0.4-0.6-0.9-1.4-0.9c-1.1,0-2,0.8-2,2.5c0,1.6,0.9,2.4,2,2.4c0.8,0,1.2-0.4,1.4-0.8h0.1v0.9c0,0.7-0.4,0.9-1,0.9
		c-0.6,0-0.9-0.3-1-0.6l-1.3,0.2C506.2,173.3,507,173.9,508.3,173.9z M508.3,170.9c-0.7,0-1-0.5-1-1.4c0-0.8,0.4-1.4,1-1.4
		c0.7,0,1,0.6,1,1.4C509.4,170.4,509,170.9,508.3,170.9z M513.9,172.1c1.2,0,2-0.6,2.2-1.5l-1.3-0.1c-0.1,0.4-0.5,0.6-0.9,0.6
		c-0.7,0-1.1-0.5-1.1-1.2v0h3.3v-0.4c0-1.7-1-2.5-2.3-2.5c-1.4,0-2.4,1-2.4,2.5C511.5,171.1,512.4,172.1,513.9,172.1z M512.9,169
		c0-0.6,0.5-1,1.1-1c0.6,0,1,0.4,1,1H512.9z"/>
	<path class="st15" d="M317.6,355.5v6.5h1.3v-4.3h0.1l1.7,4.2h0.9l1.7-4.2h0.1v4.3h1.3v-6.5H323l-1.8,4.4h-0.1l-1.8-4.4H317.6z
		 M325.8,362h1.4v-4.9h-1.4V362z M326.4,356.5c0.4,0,0.7-0.3,0.7-0.7c0-0.4-0.3-0.7-0.7-0.7c-0.4,0-0.7,0.3-0.7,0.7
		C325.7,356.1,326,356.5,326.4,356.5z M329.9,362.1c0.8,0,1.2-0.5,1.4-0.9h0.1v0.8h1.3v-6.5h-1.4v2.5h0c-0.2-0.4-0.6-0.9-1.4-0.9
		c-1.1,0-2,0.8-2,2.5C327.9,361.2,328.8,362.1,329.9,362.1z M330.4,361c-0.7,0-1-0.6-1-1.5c0-0.9,0.4-1.4,1-1.4c0.7,0,1,0.6,1,1.4
		C331.4,360.4,331,361,330.4,361z M335.8,362h1.4v-2.1h1.2c1.5,0,2.4-0.9,2.4-2.2c0-1.3-0.9-2.2-2.3-2.2h-2.6V362z M337.2,358.8
		v-2.2h0.9c0.8,0,1.2,0.4,1.2,1.1c0,0.6-0.4,1.1-1.2,1.1H337.2z M341.5,362h1.4v-4.9h-1.4V362z M342.2,356.5c0.4,0,0.7-0.3,0.7-0.7
		c0-0.4-0.3-0.7-0.7-0.7c-0.4,0-0.7,0.3-0.7,0.7C341.5,356.1,341.8,356.5,342.2,356.5z M345.2,355.5h-1.4v6.5h1.4V355.5z
		 M347.6,355.5h-1.4v6.5h1.4V355.5z M350,362.1c0.7,0,1.2-0.3,1.4-0.8h0v0.7h1.3v-3.3c0-1.2-1-1.7-2.1-1.7c-1.2,0-1.9,0.6-2.1,1.5
		l1.3,0.1c0.1-0.3,0.4-0.6,0.9-0.6c0.5,0,0.7,0.2,0.7,0.6v0c0,0.3-0.3,0.4-1.2,0.4c-1,0.1-1.8,0.4-1.8,1.5
		C348.4,361.6,349.1,362.1,350,362.1z M350.4,361.1c-0.4,0-0.7-0.2-0.7-0.6c0-0.4,0.3-0.6,0.8-0.6c0.3,0,0.8-0.1,0.9-0.2v0.5
		C351.4,360.8,351,361.1,350.4,361.1z M353.8,362h1.4v-2.8c0-0.6,0.4-1,1-1c0.2,0,0.4,0,0.6,0.1v-1.2c-0.1,0-0.3,0-0.4,0
		c-0.5,0-1,0.3-1.2,0.9h-0.1v-0.9h-1.3V362z"/>
	<path class="st15" d="M239.6,318.5v6.5h1.3v-4.3h0.1l1.7,4.2h0.9l1.7-4.2h0.1v4.3h1.3v-6.5h-1.7l-1.8,4.4h-0.1l-1.8-4.4H239.6z
		 M247.7,325h1.4v-4.9h-1.4V325z M248.4,319.5c0.4,0,0.7-0.3,0.7-0.7c0-0.4-0.3-0.7-0.7-0.7c-0.4,0-0.7,0.3-0.7,0.7
		C247.6,319.1,248,319.5,248.4,319.5z M251.9,325.1c0.8,0,1.2-0.5,1.4-0.9h0.1v0.8h1.3v-6.5h-1.4v2.5h0c-0.2-0.4-0.6-0.9-1.4-0.9
		c-1.1,0-2,0.8-2,2.5C249.9,324.2,250.7,325.1,251.9,325.1z M252.3,324c-0.7,0-1-0.6-1-1.5c0-0.9,0.4-1.4,1-1.4c0.7,0,1,0.6,1,1.4
		C253.3,323.4,253,324,252.3,324z M261.3,320.3h1.3c0-1.2-1-2-2.4-2c-1.4,0-2.5,0.8-2.5,2c0,1,0.7,1.5,1.8,1.8l0.7,0.2
		c0.7,0.2,1.1,0.4,1.1,0.8c0,0.5-0.5,0.8-1.2,0.8c-0.7,0-1.2-0.3-1.3-1h-1.3c0,1.4,1,2.1,2.6,2.1c1.6,0,2.5-0.8,2.5-2
		c0-1.1-0.8-1.7-2-1.9l-0.6-0.1c-0.6-0.1-1-0.3-1-0.8c0-0.4,0.4-0.7,1.1-0.7C260.8,319.5,261.2,319.8,261.3,320.3z M266.1,320.1
		h-0.9v-1.2h-1.4v1.2h-0.7v1h0.7v2.6c0,1,0.6,1.4,1.6,1.4c0.4,0,0.6-0.1,0.7-0.1l-0.2-1c-0.1,0-0.2,0-0.3,0c-0.3,0-0.5-0.1-0.5-0.5
		v-2.4h0.9V320.1z M268.3,325.1c0.7,0,1.2-0.3,1.4-0.8h0v0.7h1.3v-3.3c0-1.2-1-1.7-2.1-1.7c-1.2,0-1.9,0.6-2.1,1.5l1.3,0.1
		c0.1-0.3,0.4-0.6,0.9-0.6c0.5,0,0.7,0.2,0.7,0.6v0c0,0.3-0.3,0.4-1.2,0.4c-1,0.1-1.8,0.4-1.8,1.5
		C266.7,324.6,267.4,325.1,268.3,325.1z M268.7,324.1c-0.4,0-0.7-0.2-0.7-0.6c0-0.4,0.3-0.6,0.8-0.6c0.3,0,0.8-0.1,0.9-0.2v0.5
		C269.7,323.8,269.3,324.1,268.7,324.1z M274.3,325.1c1.3,0,2.1-0.8,2.2-1.9h-1.3c-0.1,0.5-0.4,0.8-0.9,0.8c-0.6,0-1-0.5-1-1.5
		c0-0.9,0.4-1.5,1-1.5c0.5,0,0.8,0.3,0.9,0.8h1.3c-0.1-1.1-0.9-1.9-2.2-1.9c-1.5,0-2.4,1-2.4,2.5
		C271.9,324.1,272.8,325.1,274.3,325.1z M277.3,325h1.4v-1.6l0.4-0.4l1.3,2h1.6l-1.9-2.8l1.8-2.1h-1.6l-1.6,1.9h-0.1v-3.5h-1.4V325z
		"/>
	<path class="st15" d="M305.8,221.5v6.5h1.3v-4.3h0.1l1.7,4.2h0.9l1.7-4.2h0.1v4.3h1.3v-6.5h-1.7l-1.8,4.4h-0.1l-1.8-4.4H305.8z
		 M313.9,228h1.4v-4.9h-1.4V228z M314.6,222.5c0.4,0,0.7-0.3,0.7-0.7c0-0.4-0.3-0.7-0.7-0.7c-0.4,0-0.7,0.3-0.7,0.7
		C313.9,222.1,314.2,222.5,314.6,222.5z M318.1,228.1c0.8,0,1.2-0.5,1.4-0.9h0.1v0.8h1.3v-6.5h-1.4v2.5h0c-0.2-0.4-0.6-0.9-1.4-0.9
		c-1.1,0-2,0.8-2,2.5C316.1,227.2,317,228.1,318.1,228.1z M318.5,227c-0.7,0-1-0.6-1-1.5c0-0.8,0.4-1.4,1-1.4c0.7,0,1,0.6,1,1.4
		C319.6,226.4,319.2,227,318.5,227z M323.7,222.6h2v5.4h1.4v-5.4h2v-1.1h-5.4V222.6z M331.4,228.1c1.5,0,2.4-1,2.4-2.5
		c0-1.5-0.9-2.5-2.4-2.5s-2.4,1-2.4,2.5C328.9,227.1,329.9,228.1,331.4,228.1z M331.4,227c-0.7,0-1-0.6-1-1.5c0-0.9,0.4-1.5,1-1.5
		c0.7,0,1,0.6,1,1.5C332.4,226.4,332,227,331.4,227z M334.6,229.8h1.4v-2.6h0c0.2,0.4,0.6,0.9,1.4,0.9c1.1,0,2-0.9,2-2.5
		c0-1.7-0.9-2.5-2-2.5c-0.8,0-1.2,0.5-1.4,0.9h-0.1v-0.8h-1.3V229.8z M335.9,225.5c0-0.9,0.4-1.4,1-1.4c0.7,0,1,0.6,1,1.4
		c0,0.9-0.4,1.5-1,1.5C336.3,227,335.9,226.4,335.9,225.5z"/>
	<path class="st15" d="M271.8,156.5v6.5h1.3v-4.3h0.1l1.7,4.2h0.9l1.7-4.2h0.1v4.3h1.3v-6.5h-1.7l-1.8,4.4h-0.1l-1.8-4.4H271.8z
		 M279.9,163h1.4v-4.9h-1.4V163z M280.6,157.5c0.4,0,0.7-0.3,0.7-0.7c0-0.4-0.3-0.7-0.7-0.7c-0.4,0-0.7,0.3-0.7,0.7
		C279.9,157.1,280.2,157.5,280.6,157.5z M284.1,163.1c0.8,0,1.2-0.5,1.4-0.9h0.1v0.8h1.3v-6.5h-1.4v2.5h0c-0.2-0.4-0.6-0.9-1.4-0.9
		c-1.1,0-2,0.8-2,2.5C282.1,162.2,283,163.1,284.1,163.1z M284.5,162c-0.7,0-1-0.6-1-1.5c0-0.8,0.4-1.4,1-1.4c0.7,0,1,0.6,1,1.4
		C285.6,161.4,285.2,162,284.5,162z M295.5,156.5h-1.4v4.1H294l-2.8-4.1H290v6.5h1.4v-4.1h0l2.8,4.1h1.2V156.5z M298.7,163.1
		c1.2,0,2-0.6,2.2-1.5l-1.3-0.1c-0.1,0.4-0.5,0.6-0.9,0.6c-0.7,0-1.1-0.5-1.1-1.2v0h3.3v-0.4c0-1.7-1-2.5-2.3-2.5
		c-1.4,0-2.4,1-2.4,2.5C296.3,162.1,297.2,163.1,298.7,163.1z M297.6,160c0-0.6,0.5-1,1.1-1c0.6,0,1,0.4,1,1H297.6z M305.9,159.5
		c-0.1-0.9-0.9-1.5-2.1-1.5c-1.3,0-2.1,0.6-2.1,1.5c0,0.7,0.5,1.2,1.4,1.4l0.9,0.2c0.4,0.1,0.6,0.2,0.6,0.5c0,0.3-0.3,0.5-0.8,0.5
		c-0.5,0-0.8-0.2-0.9-0.6l-1.3,0.1c0.1,0.9,0.9,1.5,2.2,1.5c1.3,0,2.2-0.6,2.2-1.6c0-0.7-0.5-1.1-1.4-1.3l-0.9-0.2
		c-0.5-0.1-0.6-0.3-0.6-0.5c0-0.3,0.3-0.5,0.8-0.5c0.5,0,0.8,0.3,0.8,0.6L305.9,159.5z M309.4,158.1h-0.9v-1.2h-1.4v1.2h-0.7v1h0.7
		v2.6c0,1,0.6,1.4,1.6,1.4c0.4,0,0.6-0.1,0.7-0.1l-0.2-1c-0.1,0-0.2,0-0.3,0c-0.3,0-0.5-0.1-0.5-0.5v-2.4h0.9V158.1z"/>
	<path class="st15" d="M205.8,213h2.8c1.5,0,2.3-0.8,2.3-1.8c0-1-0.7-1.6-1.4-1.6v-0.1c0.7-0.2,1.2-0.6,1.2-1.4c0-1-0.7-1.7-2.2-1.7
		h-2.6V213z M207.2,211.9v-1.7h1.2c0.7,0,1.1,0.4,1.1,0.9c0,0.5-0.3,0.8-1.1,0.8H207.2z M207.2,209.2v-1.6h1.1c0.6,0,1,0.3,1,0.8
		c0,0.5-0.4,0.8-1,0.8H207.2z M213.4,207.6h2v5.4h1.4v-5.4h2v-1.1h-5.4V207.6z M222.1,210.9c0,0.7-0.4,1-0.9,1
		c-0.5,0-0.8-0.4-0.8-0.9v-2.9h-1.4v3.1c0,1.1,0.7,1.8,1.7,1.8c0.7,0,1.3-0.4,1.5-1h0.1v0.9h1.3v-4.9h-1.4V210.9z M225.8,210.2
		c0-0.6,0.4-1,0.9-1c0.5,0,0.9,0.4,0.9,1v2.9h1.4v-3.1c0-1.1-0.7-1.8-1.7-1.8c-0.7,0-1.3,0.4-1.5,0.9h-0.1v-0.9h-1.3v4.9h1.4V210.2z
		 M231.3,210.2c0-0.6,0.4-1,0.9-1c0.5,0,0.9,0.4,0.9,1v2.9h1.4v-3.1c0-1.1-0.7-1.8-1.7-1.8c-0.7,0-1.3,0.4-1.5,0.9h-0.1v-0.9H230
		v4.9h1.4V210.2z M237.7,213.1c1.2,0,2-0.6,2.2-1.5l-1.3-0.1c-0.1,0.4-0.5,0.6-0.9,0.6c-0.7,0-1.1-0.5-1.1-1.2v0h3.3v-0.4
		c0-1.7-1-2.5-2.3-2.5c-1.4,0-2.4,1-2.4,2.5C235.3,212.1,236.2,213.1,237.7,213.1z M236.6,210c0-0.6,0.5-1,1.1-1c0.6,0,1,0.4,1,1
		H236.6z M242.1,206.5h-1.4v6.5h1.4V206.5z"/>
	<path class="st15" d="M172.9,293h2.8c1.5,0,2.3-0.8,2.3-1.8c0-1-0.7-1.6-1.4-1.6v-0.1c0.7-0.2,1.2-0.6,1.2-1.4c0-1-0.7-1.7-2.2-1.7
		h-2.6V293z M174.3,291.9v-1.7h1.2c0.7,0,1.1,0.4,1.1,0.9c0,0.5-0.3,0.8-1.1,0.8H174.3z M174.3,289.2v-1.6h1.1c0.6,0,1,0.3,1,0.8
		c0,0.5-0.4,0.8-1,0.8H174.3z M180.8,293h4.4v-1.1h-3v-1.6h2.8v-1.1h-2.8v-1.6h3v-1.1h-4.4V293z M187.5,286.5h-1.4v6.5h1.4V286.5z
		 M188.6,293h1.3v-0.8h0.1c0.2,0.4,0.6,0.9,1.4,0.9c1.1,0,2-0.9,2-2.5c0-1.7-0.9-2.5-2-2.5c-0.8,0-1.2,0.5-1.4,0.9h0v-2.5h-1.4V293z
		 M189.9,290.5c0-0.9,0.4-1.4,1-1.4c0.7,0,1,0.6,1,1.4c0,0.9-0.4,1.5-1,1.5C190.3,292,189.9,291.4,189.9,290.5z M196.4,293.1
		c1.5,0,2.4-1,2.4-2.5c0-1.5-0.9-2.5-2.4-2.5c-1.5,0-2.4,1-2.4,2.5C194,292.1,194.9,293.1,196.4,293.1z M196.4,292
		c-0.7,0-1-0.6-1-1.5c0-0.9,0.4-1.5,1-1.5c0.7,0,1,0.6,1,1.5C197.4,291.4,197.1,292,196.4,292z M200.5,293h1.4l0.8-3.1h0.1l0.8,3.1
		h1.4l1.3-4.9h-1.4l-0.7,3.3h0l-0.8-3.3h-1.4l-0.8,3.3h0l-0.8-3.3h-1.4L200.5,293z"/>
	<path class="st15" d="M25.9,211h2.8c1.5,0,2.3-0.8,2.3-1.8c0-1-0.7-1.6-1.4-1.6v-0.1c0.7-0.2,1.2-0.6,1.2-1.4c0-1-0.7-1.7-2.2-1.7
		h-2.6V211z M27.3,209.9v-1.7h1.2c0.7,0,1.1,0.4,1.1,0.9c0,0.5-0.3,0.8-1.1,0.8H27.3z M27.3,207.2v-1.6h1.1c0.6,0,1,0.3,1,0.8
		c0,0.5-0.4,0.8-1,0.8H27.3z M33.8,211h2.8c1.5,0,2.3-0.8,2.3-1.8c0-1-0.7-1.6-1.4-1.6v-0.1c0.7-0.2,1.2-0.6,1.2-1.4
		c0-1-0.7-1.7-2.2-1.7h-2.6V211z M35.1,209.9v-1.7h1.2c0.7,0,1.1,0.4,1.1,0.9c0,0.5-0.3,0.8-1.1,0.8H35.1z M35.1,207.2v-1.6h1.1
		c0.6,0,1,0.3,1,0.8c0,0.5-0.4,0.8-1,0.8H35.1z M41,211.1c0.7,0,1.2-0.3,1.4-0.8h0v0.7h1.3v-3.3c0-1.2-1-1.7-2.1-1.7
		c-1.2,0-1.9,0.6-2.1,1.5l1.3,0.1c0.1-0.3,0.4-0.6,0.9-0.6c0.5,0,0.7,0.2,0.7,0.6v0c0,0.3-0.3,0.4-1.2,0.4c-1,0.1-1.8,0.4-1.8,1.5
		C39.4,210.6,40.1,211.1,41,211.1z M41.4,210.1c-0.4,0-0.7-0.2-0.7-0.6c0-0.4,0.3-0.6,0.8-0.6c0.3,0,0.8-0.1,0.9-0.2v0.5
		C42.4,209.8,42,210.1,41.4,210.1z M47,211.1c1.3,0,2.1-0.8,2.2-1.9h-1.3c-0.1,0.5-0.4,0.8-0.9,0.8c-0.6,0-1-0.5-1-1.5
		c0-0.9,0.4-1.5,1-1.5c0.5,0,0.8,0.3,0.9,0.8h1.3c-0.1-1.1-0.9-1.9-2.2-1.9c-1.5,0-2.4,1-2.4,2.5C44.5,210.1,45.4,211.1,47,211.1z
		 M49.9,211h1.4v-1.6l0.4-0.4l1.3,2h1.6l-1.9-2.8l1.8-2.1h-1.6l-1.6,1.9h-0.1v-3.5h-1.4V211z"/>
	<path class="st15" d="M158.8,172h2.8c1.5,0,2.3-0.8,2.3-1.8c0-1-0.7-1.6-1.4-1.6v-0.1c0.7-0.2,1.2-0.6,1.2-1.4c0-1-0.7-1.7-2.2-1.7
		h-2.6V172z M160.2,170.9v-1.7h1.2c0.7,0,1.1,0.4,1.1,0.9c0,0.5-0.3,0.8-1.1,0.8H160.2z M160.2,168.2v-1.6h1.1c0.6,0,1,0.3,1,0.8
		c0,0.5-0.4,0.8-1,0.8H160.2z M168.1,172h1.3l1.2-4.3h0.1l1.2,4.3h1.3l1.9-6.5h-1.5l-1.1,4.6h-0.1l-1.2-4.6h-1.3l-1.2,4.5h-0.1
		l-1.1-4.5h-1.5L168.1,172z M176.7,172.1c0.7,0,1.2-0.3,1.4-0.8h0v0.7h1.3v-3.3c0-1.2-1-1.7-2.1-1.7c-1.2,0-1.9,0.6-2.1,1.5l1.3,0.1
		c0.1-0.3,0.4-0.6,0.9-0.6c0.5,0,0.7,0.2,0.7,0.6v0c0,0.3-0.3,0.4-1.2,0.4c-1,0.1-1.8,0.4-1.8,1.5
		C175.1,171.6,175.8,172.1,176.7,172.1z M177.1,171.1c-0.4,0-0.7-0.2-0.7-0.6c0-0.4,0.3-0.6,0.8-0.6c0.3,0,0.8-0.1,0.9-0.2v0.5
		C178.1,170.8,177.7,171.1,177.1,171.1z M181.8,165.5h-1.4v6.5h1.4V165.5z M184.2,165.5h-1.4v6.5h1.4V165.5z"/>
	<path class="st15" d="M100.6,188h2.8c1.5,0,2.3-0.8,2.3-1.8c0-1-0.7-1.6-1.4-1.6v-0.1c0.7-0.2,1.2-0.6,1.2-1.4c0-1-0.7-1.7-2.2-1.7
		h-2.6V188z M102,186.9v-1.7h1.2c0.7,0,1.1,0.4,1.1,0.9c0,0.5-0.3,0.8-1.1,0.8H102z M102,184.2v-1.6h1.1c0.6,0,1,0.3,1,0.8
		c0,0.5-0.4,0.8-1,0.8H102z M112.1,183.3h1.3c0-1.2-1-2-2.4-2c-1.4,0-2.5,0.8-2.5,2c0,1,0.7,1.5,1.8,1.8l0.7,0.2
		c0.7,0.2,1.1,0.4,1.1,0.8c0,0.5-0.5,0.8-1.2,0.8c-0.7,0-1.2-0.3-1.3-1h-1.3c0,1.4,1,2.1,2.6,2.1c1.6,0,2.5-0.8,2.5-2
		c0-1.1-0.8-1.7-2-1.9l-0.6-0.1c-0.6-0.1-1-0.3-1-0.8c0-0.4,0.4-0.7,1.1-0.7C111.6,182.5,112,182.8,112.1,183.3z M114.3,188h1.4
		v-4.9h-1.4V188z M115,182.5c0.4,0,0.7-0.3,0.7-0.7c0-0.4-0.3-0.7-0.7-0.7c-0.4,0-0.7,0.3-0.7,0.7
		C114.3,182.1,114.6,182.5,115,182.5z M119.3,183.1h-0.9v-1.2H117v1.2h-0.7v1h0.7v2.6c0,1,0.6,1.4,1.6,1.4c0.4,0,0.6-0.1,0.7-0.1
		l-0.2-1c-0.1,0-0.2,0-0.3,0c-0.3,0-0.5-0.1-0.5-0.5v-2.4h0.9V183.1z M122.3,188.1c1.2,0,2-0.6,2.2-1.5l-1.3-0.1
		c-0.1,0.4-0.5,0.6-0.9,0.6c-0.7,0-1.1-0.5-1.1-1.2v0h3.3v-0.4c0-1.7-1-2.5-2.3-2.5c-1.4,0-2.4,1-2.4,2.5
		C119.8,187.1,120.8,188.1,122.3,188.1z M121.2,185c0-0.6,0.5-1,1.1-1c0.6,0,1,0.4,1,1H121.2z"/>
	<path class="st15" d="M77,351h2.8c1.5,0,2.3-0.8,2.3-1.8c0-1-0.7-1.6-1.4-1.6v-0.1c0.7-0.2,1.2-0.6,1.2-1.4c0-1-0.7-1.7-2.2-1.7H77
		V351z M78.4,349.9v-1.7h1.2c0.7,0,1.1,0.4,1.1,0.9c0,0.5-0.3,0.8-1.1,0.8H78.4z M78.4,347.2v-1.6h1.1c0.6,0,1,0.3,1,0.8
		c0,0.5-0.4,0.8-1,0.8H78.4z M84.8,344.5v6.5h1.3v-4.3h0.1l1.7,4.2h0.9l1.7-4.2h0.1v4.3h1.3v-6.5h-1.7l-1.8,4.4h-0.1l-1.8-4.4H84.8z
		 M94.4,351.1c0.7,0,1.2-0.3,1.4-0.8h0v0.7h1.3v-3.3c0-1.2-1-1.7-2.1-1.7c-1.2,0-1.9,0.6-2.1,1.5l1.3,0.1c0.1-0.3,0.4-0.6,0.9-0.6
		c0.5,0,0.7,0.2,0.7,0.6v0c0,0.3-0.3,0.4-1.2,0.4c-1,0.1-1.8,0.4-1.8,1.5C92.7,350.6,93.4,351.1,94.4,351.1z M94.8,350.1
		c-0.4,0-0.7-0.2-0.7-0.6c0-0.4,0.3-0.6,0.8-0.6c0.3,0,0.8-0.1,0.9-0.2v0.5C95.8,349.8,95.4,350.1,94.8,350.1z M98.1,351h1.4v-4.9
		h-1.4V351z M98.8,345.5c0.4,0,0.7-0.3,0.7-0.7c0-0.4-0.3-0.7-0.7-0.7c-0.4,0-0.7,0.3-0.7,0.7C98.1,345.1,98.4,345.5,98.8,345.5z
		 M101.9,348.2c0-0.6,0.4-1,0.9-1c0.5,0,0.9,0.4,0.9,1v2.9h1.4v-3.1c0-1.1-0.7-1.8-1.7-1.8c-0.7,0-1.3,0.4-1.5,0.9h-0.1v-0.9h-1.3
		v4.9h1.4V348.2z"/>
	<path class="st15" d="M87.7,465h2.8c1.5,0,2.3-0.8,2.3-1.8c0-1-0.7-1.6-1.4-1.6v-0.1c0.7-0.2,1.2-0.6,1.2-1.4c0-1-0.7-1.7-2.2-1.7
		h-2.6V465z M89.1,463.9v-1.7h1.2c0.7,0,1.1,0.4,1.1,0.9c0,0.5-0.3,0.8-1.1,0.8H89.1z M89.1,461.2v-1.6h1.1c0.6,0,1,0.3,1,0.8
		c0,0.5-0.4,0.8-1,0.8H89.1z M97.1,465h1.3l1.2-4.3h0.1l1.2,4.3h1.3l1.9-6.5h-1.5l-1.1,4.6h-0.1l-1.2-4.6h-1.3l-1.2,4.5h-0.1
		l-1.1-4.5h-1.5L97.1,465z M104.8,465h1.4v-4.9h-1.4V465z M105.5,459.5c0.4,0,0.7-0.3,0.7-0.7c0-0.4-0.3-0.7-0.7-0.7
		c-0.4,0-0.7,0.3-0.7,0.7C104.8,459.1,105.1,459.5,105.5,459.5z M108.6,462.2c0-0.6,0.4-1,0.9-1c0.5,0,0.9,0.4,0.9,1v2.9h1.4v-3.1
		c0-1.1-0.7-1.8-1.7-1.8c-0.7,0-1.3,0.4-1.5,0.9h-0.1v-0.9h-1.3v4.9h1.4V462.2z M114.5,465.1c0.8,0,1.2-0.5,1.4-0.9h0.1v0.8h1.3
		v-6.5H116v2.5h0c-0.2-0.4-0.6-0.9-1.4-0.9c-1.1,0-2,0.8-2,2.5C112.5,464.2,113.4,465.1,114.5,465.1z M115,464c-0.7,0-1-0.6-1-1.5
		c0-0.9,0.4-1.4,1-1.4c0.7,0,1,0.6,1,1.4C116,463.4,115.6,464,115,464z M120.6,465.1c1.5,0,2.4-1,2.4-2.5c0-1.5-0.9-2.5-2.4-2.5
		c-1.5,0-2.4,1-2.4,2.5C118.2,464.1,119.1,465.1,120.6,465.1z M120.6,464c-0.7,0-1-0.6-1-1.5c0-0.9,0.4-1.5,1-1.5c0.7,0,1,0.6,1,1.5
		C121.6,463.4,121.3,464,120.6,464z M124.6,465h1.4l0.8-3.1h0.1l0.8,3.1h1.4l1.3-4.9h-1.4l-0.7,3.3h0l-0.8-3.3h-1.4l-0.8,3.3h0
		l-0.8-3.3h-1.4L124.6,465z"/>
	<path class="st15" d="M206,437.5v6.5h1.3v-4.3h0.1l1.7,4.2h0.9l1.7-4.2h0.1v4.3h1.3v-6.5h-1.7l-1.8,4.4h-0.1l-1.8-4.4H206z
		 M214.1,444h1.4v-4.9h-1.4V444z M214.8,438.5c0.4,0,0.7-0.3,0.7-0.7c0-0.4-0.3-0.7-0.7-0.7c-0.4,0-0.7,0.3-0.7,0.7
		C214.1,438.1,214.4,438.5,214.8,438.5z M218.3,444.1c0.8,0,1.2-0.5,1.4-0.9h0.1v0.8h1.3v-6.5h-1.4v2.5h0c-0.2-0.4-0.6-0.9-1.4-0.9
		c-1.1,0-2,0.8-2,2.5C216.3,443.2,217.2,444.1,218.3,444.1z M218.8,443c-0.7,0-1-0.6-1-1.5c0-0.9,0.4-1.4,1-1.4c0.7,0,1,0.6,1,1.4
		C219.8,442.4,219.4,443,218.8,443z M230,439.7c-0.2-1.5-1.3-2.4-2.8-2.4c-1.7,0-3,1.2-3,3.4c0,2.1,1.3,3.4,3,3.4
		c1.7,0,2.7-1.1,2.8-2.3l-1.4,0c-0.1,0.7-0.7,1.1-1.4,1.1c-1,0-1.7-0.7-1.7-2.1c0-1.4,0.7-2.1,1.7-2.1c0.8,0,1.3,0.4,1.4,1.2H230z
		 M232.2,444.1c0.7,0,1.2-0.3,1.4-0.8h0v0.7h1.3v-3.3c0-1.2-1-1.7-2.1-1.7c-1.2,0-1.9,0.6-2.1,1.5l1.3,0.1c0.1-0.3,0.4-0.6,0.9-0.6
		c0.5,0,0.7,0.2,0.7,0.6v0c0,0.3-0.3,0.4-1.2,0.4c-1,0.1-1.8,0.4-1.8,1.5C230.6,443.6,231.3,444.1,232.2,444.1z M232.6,443.1
		c-0.4,0-0.7-0.2-0.7-0.6c0-0.4,0.3-0.6,0.8-0.6c0.3,0,0.8-0.1,0.9-0.2v0.5C233.7,442.8,233.2,443.1,232.6,443.1z M237.3,441.2
		c0-0.6,0.4-1,0.9-1c0.5,0,0.9,0.4,0.9,1v2.9h1.4v-3.1c0-1.1-0.7-1.8-1.7-1.8c-0.7,0-1.3,0.4-1.5,0.9h-0.1v-0.9H236v4.9h1.4V441.2z
		 M242.9,441.2c0-0.6,0.4-1,0.9-1c0.5,0,0.9,0.4,0.9,1v2.9h1.4v-3.1c0-1.1-0.7-1.8-1.7-1.8c-0.7,0-1.3,0.4-1.5,0.9h-0.1v-0.9h-1.3
		v4.9h1.4V441.2z M249.2,444.1c1.5,0,2.4-1,2.4-2.5c0-1.5-0.9-2.5-2.4-2.5c-1.5,0-2.4,1-2.4,2.5
		C246.8,443.1,247.7,444.1,249.2,444.1z M249.2,443c-0.7,0-1-0.6-1-1.5c0-0.9,0.4-1.5,1-1.5c0.7,0,1,0.6,1,1.5
		C250.3,442.4,249.9,443,249.2,443z M253.8,441.2c0-0.6,0.4-1,0.9-1c0.5,0,0.9,0.4,0.9,1v2.9h1.4v-3.1c0-1.1-0.7-1.8-1.7-1.8
		c-0.7,0-1.3,0.4-1.5,0.9h-0.1v-0.9h-1.3v4.9h1.4V441.2z"/>
	<path class="st15" d="M186.2,532.3h1.3c0-1.2-1-2-2.4-2c-1.4,0-2.5,0.8-2.5,2c0,1,0.7,1.5,1.8,1.8l0.7,0.2c0.7,0.2,1.1,0.4,1.1,0.8
		c0,0.5-0.5,0.8-1.2,0.8c-0.7,0-1.2-0.3-1.3-1h-1.3c0,1.4,1,2.1,2.6,2.1c1.6,0,2.5-0.8,2.5-2c0-1.1-0.8-1.7-2-1.9l-0.6-0.1
		c-0.6-0.1-1-0.3-1-0.8c0-0.4,0.4-0.7,1.1-0.7C185.7,531.5,186.1,531.8,186.2,532.3z M189.8,534.2c0-0.6,0.4-1,0.9-1
		c0.5,0,0.9,0.4,0.9,1v2.9h1.4v-3.1c0-1.1-0.7-1.8-1.7-1.8c-0.7,0-1.3,0.4-1.5,0.9h-0.1v-0.9h-1.3v4.9h1.4V534.2z M195.4,537.1
		c0.7,0,1.2-0.3,1.4-0.8h0v0.7h1.3v-3.3c0-1.2-1-1.7-2.1-1.7c-1.2,0-1.9,0.6-2.1,1.5l1.3,0.1c0.1-0.3,0.4-0.6,0.9-0.6
		c0.5,0,0.7,0.2,0.7,0.6v0c0,0.3-0.3,0.4-1.2,0.4c-1,0.1-1.8,0.4-1.8,1.5C193.7,536.6,194.4,537.1,195.4,537.1z M195.7,536.1
		c-0.4,0-0.7-0.2-0.7-0.6c0-0.4,0.3-0.6,0.8-0.6c0.3,0,0.8-0.1,0.9-0.2v0.5C196.8,535.8,196.3,536.1,195.7,536.1z M199.1,537h1.4
		v-1.6l0.4-0.4l1.3,2h1.6l-1.9-2.8l1.8-2.1h-1.6l-1.6,1.9h-0.1v-3.5h-1.4V537z M206.3,537.1c1.2,0,2-0.6,2.2-1.5l-1.3-0.1
		c-0.1,0.4-0.5,0.6-0.9,0.6c-0.7,0-1.1-0.5-1.1-1.2v0h3.3v-0.4c0-1.7-1-2.5-2.3-2.5c-1.4,0-2.4,1-2.4,2.5
		C203.8,536.1,204.8,537.1,206.3,537.1z M205.2,534c0-0.6,0.5-1,1.1-1c0.6,0,1,0.4,1,1H205.2z"/>
	<path class="st15" d="M569.7,329h1.4v-2.1h1.2c1.5,0,2.4-0.9,2.4-2.2c0-1.3-0.9-2.2-2.3-2.2h-2.6V329z M571.1,325.8v-2.2h0.9
		c0.8,0,1.2,0.4,1.2,1.1c0,0.6-0.4,1.1-1.2,1.1H571.1z M576.2,330.8c1,0,1.6-0.5,1.8-1.3l1.9-5.4l-1.4,0l-1,3.6h-0.1l-1-3.6H575
		l1.8,5l-0.1,0.2c-0.2,0.5-0.5,0.5-1,0.3l-0.3,1C575.6,330.8,575.9,330.8,576.2,330.8z M580.6,329h1.4v-2.8c0-0.6,0.4-1,1-1
		c0.2,0,0.4,0,0.6,0.1v-1.2c-0.1,0-0.3,0-0.4,0c-0.5,0-1,0.3-1.2,0.9h-0.1v-0.9h-1.3V329z M585.5,329.1c0.7,0,1.2-0.3,1.4-0.8h0v0.7
		h1.3v-3.3c0-1.2-1-1.7-2.1-1.7c-1.2,0-1.9,0.6-2.1,1.5l1.3,0.1c0.1-0.3,0.4-0.6,0.9-0.6c0.5,0,0.7,0.2,0.7,0.6v0
		c0,0.3-0.3,0.4-1.2,0.4c-1,0.1-1.8,0.4-1.8,1.5C583.8,328.6,584.5,329.1,585.5,329.1z M585.8,328.1c-0.4,0-0.7-0.2-0.7-0.6
		c0-0.4,0.3-0.6,0.8-0.6c0.3,0,0.8-0.1,0.9-0.2v0.5C586.9,327.8,586.4,328.1,585.8,328.1z M589.2,329h1.4V326c0-0.5,0.3-0.9,0.8-0.9
		c0.4,0,0.7,0.3,0.7,0.8v3.1h1.3v-3c0-0.5,0.3-0.9,0.8-0.9c0.4,0,0.8,0.3,0.8,0.8v3h1.4v-3.3c0-1.1-0.6-1.7-1.5-1.7
		c-0.7,0-1.3,0.4-1.5,0.9h-0.1c-0.2-0.6-0.7-0.9-1.3-0.9c-0.7,0-1.2,0.4-1.4,0.9h-0.1v-0.9h-1.3V329z M597.3,329h1.4v-4.9h-1.4V329z
		 M598,323.5c0.4,0,0.7-0.3,0.7-0.7c0-0.4-0.3-0.7-0.7-0.7c-0.4,0-0.7,0.3-0.7,0.7C597.3,323.1,597.6,323.5,598,323.5z M601.5,329.1
		c0.8,0,1.2-0.5,1.4-0.9h0.1v0.8h1.3v-6.5h-1.4v2.5h0c-0.2-0.4-0.6-0.9-1.4-0.9c-1.1,0-2,0.8-2,2.5
		C599.5,328.2,600.4,329.1,601.5,329.1z M601.9,328c-0.7,0-1-0.6-1-1.5c0-0.9,0.4-1.4,1-1.4c0.7,0,1,0.6,1,1.4
		C603,327.4,602.6,328,601.9,328z M609.4,325.5c-0.1-0.9-0.9-1.5-2.1-1.5c-1.3,0-2.1,0.6-2.1,1.5c0,0.7,0.5,1.2,1.4,1.4l0.8,0.2
		c0.4,0.1,0.6,0.2,0.6,0.5c0,0.3-0.3,0.5-0.8,0.5c-0.5,0-0.8-0.2-0.9-0.6l-1.3,0.1c0.1,0.9,0.9,1.5,2.2,1.5c1.3,0,2.2-0.6,2.2-1.6
		c0-0.7-0.5-1.1-1.4-1.3l-0.9-0.2c-0.5-0.1-0.6-0.3-0.6-0.5c0-0.3,0.3-0.5,0.8-0.5c0.5,0,0.8,0.3,0.8,0.6L609.4,325.5z"/>
	<path class="st16" d="M382.1,46c2.7,0,4.3-1.6,4.3-4.4c0-2.7-1.6-4.4-4.2-4.4H379V46H382.1z M380.8,44.4v-5.6h1.2
		c1.6,0,2.5,0.8,2.5,2.8c0,1.9-0.9,2.8-2.5,2.8H380.8z M390.5,46.1c1.6,0,2.7-0.8,3-2l-1.7-0.1c-0.2,0.5-0.7,0.8-1.3,0.8
		c-0.9,0-1.5-0.6-1.5-1.6v0h4.5v-0.5c0-2.2-1.3-3.3-3.1-3.3c-1.9,0-3.2,1.4-3.2,3.4C387.3,44.8,388.5,46.1,390.5,46.1z M389.1,42.1
		c0-0.7,0.6-1.3,1.4-1.3c0.8,0,1.3,0.6,1.3,1.3H389.1z M398.1,39.5h-1.3V39c0-0.4,0.2-0.7,0.7-0.7c0.2,0,0.4,0,0.6,0.1l0.3-1.4
		c-0.2-0.1-0.7-0.2-1.3-0.2c-1.2,0-2.1,0.7-2.1,2.1v0.5h-0.9v1.4h0.9V46h1.8v-5.2h1.3V39.5z M401.9,46.1c1.6,0,2.7-0.8,3-2l-1.7-0.1
		c-0.2,0.5-0.7,0.8-1.3,0.8c-0.9,0-1.5-0.6-1.5-1.6v0h4.5v-0.5c0-2.2-1.3-3.3-3.1-3.3c-1.9,0-3.2,1.4-3.2,3.4
		C398.7,44.8,399.9,46.1,401.9,46.1z M400.4,42.1c0-0.7,0.6-1.3,1.4-1.3c0.8,0,1.3,0.6,1.3,1.3H400.4z M407.8,42.2
		c0-0.8,0.5-1.3,1.2-1.3c0.7,0,1.2,0.5,1.2,1.3V46h1.8v-4.2c0-1.5-0.9-2.5-2.3-2.5c-1,0-1.7,0.5-2,1.2h-0.1v-1.2H406V46h1.8V42.2z
		 M415.7,46.1c1.1,0,1.6-0.6,1.9-1.2h0.1v1h1.8v-8.7h-1.8v3.3h-0.1c-0.2-0.5-0.8-1.2-1.9-1.2c-1.4,0-2.7,1.1-2.7,3.4
		C413.1,44.9,414.3,46.1,415.7,46.1z M416.3,44.7c-0.9,0-1.4-0.8-1.4-1.9c0-1.1,0.5-1.9,1.4-1.9c0.9,0,1.4,0.7,1.4,1.9
		C417.7,43.9,417.2,44.7,416.3,44.7z M423.8,46.1c1.6,0,2.7-0.8,3-2l-1.7-0.1c-0.2,0.5-0.7,0.8-1.3,0.8c-0.9,0-1.5-0.6-1.5-1.6v0
		h4.5v-0.5c0-2.2-1.3-3.3-3.1-3.3c-1.9,0-3.2,1.4-3.2,3.4C420.6,44.8,421.8,46.1,423.8,46.1z M422.4,42.1c0-0.7,0.6-1.3,1.4-1.3
		c0.8,0,1.3,0.6,1.3,1.3H422.4z M427.9,46h1.8v-3.7c0-0.8,0.6-1.4,1.4-1.4c0.3,0,0.6,0,0.8,0.1v-1.6c-0.2,0-0.4-0.1-0.6-0.1
		c-0.7,0-1.3,0.4-1.6,1.2h-0.1v-1.1h-1.8V46z M438.2,41.3c-0.2-1.2-1.1-2-2.8-2c-1.7,0-2.8,0.8-2.8,2c0,1,0.6,1.6,1.9,1.9l1.1,0.2
		c0.6,0.1,0.8,0.3,0.8,0.7c0,0.4-0.4,0.7-1.1,0.7c-0.6,0-1.1-0.3-1.2-0.8l-1.8,0.1c0.2,1.3,1.2,2,3,2c1.7,0,2.9-0.9,2.9-2.2
		c0-0.9-0.6-1.5-1.9-1.8l-1.2-0.2c-0.6-0.1-0.8-0.3-0.8-0.7c0-0.4,0.4-0.6,1-0.6c0.6,0,1,0.3,1.1,0.8L438.2,41.3z"/>
	<path class="st17" d="M278.5,643l0.6-2h3.1l0.6,2h2l-3-8.7h-2.4l-3,8.7H278.5z M279.6,639.6l1.1-3.3h0.1l1.1,3.3H279.6z
		 M288.9,636.5h-1.2v-1.6h-1.8v1.6h-0.9v1.4h0.9v3.4c0,1.3,0.9,1.9,2.2,1.9c0.5,0,0.8-0.1,1-0.2l-0.3-1.4c-0.1,0-0.3,0.1-0.5,0.1
		c-0.4,0-0.6-0.1-0.6-0.6v-3.2h1.2V636.5z M293.4,636.5h-1.2v-1.6h-1.8v1.6h-0.9v1.4h0.9v3.4c0,1.3,0.9,1.9,2.2,1.9
		c0.5,0,0.8-0.1,1-0.2l-0.3-1.4c-0.1,0-0.3,0.1-0.5,0.1c-0.4,0-0.6-0.1-0.6-0.6v-3.2h1.2V636.5z M296.4,643.1c1,0,1.6-0.4,1.9-1h0.1
		v0.9h1.7v-4.4c0-1.6-1.3-2.2-2.8-2.2c-1.6,0-2.6,0.8-2.9,1.9l1.7,0.1c0.1-0.4,0.5-0.8,1.2-0.8c0.6,0,1,0.3,1,0.8v0
		c0,0.4-0.4,0.5-1.6,0.6c-1.3,0.1-2.5,0.6-2.5,2C294.2,642.5,295.1,643.1,296.4,643.1z M296.9,641.9c-0.6,0-1-0.3-1-0.8
		c0-0.5,0.4-0.8,1.1-0.9c0.4-0.1,1-0.1,1.3-0.3v0.7C298.2,641.3,297.7,641.9,296.9,641.9z M304.3,643.1c1.7,0,2.8-1,2.9-2.5h-1.7
		c-0.1,0.7-0.6,1.1-1.2,1.1c-0.8,0-1.4-0.7-1.4-2c0-1.2,0.6-1.9,1.4-1.9c0.7,0,1.1,0.4,1.2,1.1h1.7c-0.1-1.5-1.2-2.5-2.9-2.5
		c-2,0-3.2,1.4-3.2,3.4C301.1,641.7,302.3,643.1,304.3,643.1z M308.3,643h1.8v-2.1l0.5-0.6l1.8,2.6h2.1l-2.6-3.7l2.4-2.8h-2.1
		l-2.1,2.5h-0.1v-4.7h-1.8V643z M317.9,643.1c1.6,0,2.7-0.8,3-2l-1.7-0.1c-0.2,0.5-0.7,0.8-1.3,0.8c-0.9,0-1.5-0.6-1.5-1.6v0h4.5
		v-0.5c0-2.2-1.3-3.3-3.1-3.3c-1.9,0-3.2,1.4-3.2,3.4C314.6,641.8,315.9,643.1,317.9,643.1z M316.4,639.1c0-0.7,0.6-1.3,1.4-1.3
		c0.8,0,1.3,0.6,1.3,1.3H316.4z M321.9,643h1.8v-3.7c0-0.8,0.6-1.4,1.4-1.4c0.3,0,0.6,0,0.8,0.1v-1.6c-0.2,0-0.4-0.1-0.6-0.1
		c-0.7,0-1.3,0.4-1.6,1.2h-0.1v-1.1h-1.8V643z M332.2,638.3c-0.2-1.2-1.1-2-2.8-2c-1.7,0-2.8,0.8-2.8,2c0,1,0.6,1.6,1.9,1.9l1.1,0.2
		c0.6,0.1,0.8,0.3,0.8,0.7c0,0.4-0.4,0.7-1.1,0.7c-0.6,0-1.1-0.3-1.2-0.8l-1.8,0.1c0.2,1.3,1.2,2,3,2c1.7,0,2.9-0.9,2.9-2.2
		c0-0.9-0.6-1.5-1.9-1.8l-1.2-0.2c-0.6-0.1-0.8-0.3-0.8-0.7c0-0.4,0.4-0.6,1-0.6c0.6,0,1,0.3,1.1,0.8L332.2,638.3z"/>
</g>
</svg>
