<?xml version="1.0" encoding="utf-8"?>
<!-- Generator: Adobe Illustrator 24.0.2, SVG Export Plug-In . SVG Version: 6.00 Build 0)  -->
<svg version="1.1" id="Layer_1" xmlns="http://www.w3.org/2000/svg" xmlns:xlink="http://www.w3.org/1999/xlink" x="0px" y="0px"
	 viewBox="0 0 708 708" style="enable-background:new 0 0 708 708;" xml:space="preserve">
<style type="text/css">
	.st0{fill:#15181E;}
	.st1{opacity:0.75;}
	.st2{fill:url(#SVGID_1_);}
	.st3{fill:#101319;}
	.st4{opacity:0.8;fill:url(#SVGID_2_);enable-background:new    ;}
	.st5{opacity:0.8;fill:url(#SVGID_3_);enable-background:new    ;}
	.st6{fill:url(#SVGID_4_);}
	.st7{fill:url(#SVGID_5_);}
	.st8{fill:url(#SVGID_6_);}
	.st9{fill:url(#SVGID_7_);}
	.st10{fill:url(#SVGID_8_);}
	.st11{fill:url(#SVGID_9_);}
	.st12{fill:none;stroke:#15181E;stroke-width:1.6433;stroke-dasharray:1.64,1.64;}
	.st13{fill-rule:evenodd;clip-rule:evenodd;fill:#101319;}
	.st14{opacity:0.25;}
	.st15{fill:#31353D;}
	.st16{opacity:0.5;fill:#15181E;enable-background:new    ;}
	.st17{opacity:0.7;fill:#31353D;enable-background:new    ;}
	.st18{opacity:0.35;fill:#15181E;enable-background:new    ;}
	.st19{fill:#7986A3;}
	.st20{fill:#4D5F83;fill-opacity:0.15;stroke:#4D5F83;stroke-width:1.6433;stroke-miterlimit:16;}
	.st21{fill:#4D5F83;fill-opacity:0.15;stroke:#4D5F83;stroke-width:1.6433;stroke-miterlimit:2.3662;}
	.st22{opacity:0.15;}
	.st23{fill:#070E1D;filter:url(#Adobe_OpacityMaskFilter);}
	.st24{fill:#070E1D;}
	.st25{mask:url(#mask0_2_);}
	.st26{fill:#4D5F83;}
	.st27{fill:#E5EBEF;}
	.st28{fill:#F44348;}
	.st29{fill:#24E8AD;}
</style>
<path class="st0" d="M587.3,178.7v41.4h-33.9V211h-40.5v-21.5H555v-10.8H587.3z"/>
<path class="st0" d="M474.8,429.4h8.3v20.7h-6.6v38.1h-22.3v5h-17.4v-5.8h-22.3v-67h26.5v-5h9.9v5h24V429.4z"/>
<path class="st0" d="M608,370.7v-46.3h-43.9v46.3H608z"/>
<path class="st0" d="M548.4,324.3v1.7h-43v-11.6h-20.7v14.9H483v22.3h19.9l3.3-3.3h57.9v-24H548.4z"/>
<path class="st0" d="M478.9,329.3h4.1v14.9h-4.1v18.2h-47.2v-3.3H421v-44.7h57.9V329.3z"/>
<path class="st0" d="M622.9,378.9h48v43.9h-52.1l-62.9,39.7h-23.2v16.6H483v-49.7h0.8v-28.1h25.7v16.6h42.2l69.5-40.6L622.9,378.9z"
	/>
<path class="st0" d="M398.6,113.3V29.7l13.2-14.9h7.4L434.6,2l14.1,5.4h8.3l6.2,6.2v5.8l6.6,6.6v26.1l5,5v22.3H445v33.9H398.6z"/>
<rect x="445" y="79.4" class="st0" width="67.9" height="86.1"/>
<path class="st0" d="M512.8,136.5h109.2v35.6h-22.3v-6.6h-86.9V136.5z"/>
<path class="st0" d="M599.7,172.1v46.3h62.9v-19.9h-13.2v-9.9h-9.9v-16.5H599.7z"/>
<path class="st0" d="M553.4,220.1h48v-9.9h48v8.3v7.4h22.3v101h-23.2v-2.5H548.4v-11.6h-22.3v-77h27.3V220.1z"/>
<path class="st0" d="M621.2,324.3h27.3v54.6h-25.7l-1.7-1.7V324.3z"/>
<rect x="431.7" y="362.4" class="st0" width="25.7" height="53"/>
<path class="st0" d="M479.7,165.4h33.1v116.7h-17.4V297h-19v-9.1h-49.7v-35.6h53V165.4z"/>
<path class="st0" d="M398.6,113.3V79.4h-80.3v56.3H250v28.1h132.9v-50.5H398.6z"/>
<path class="st0" d="M234,135.6h21.5v93.5h33.9v42.2h-73.7v-62.1h-62.1V182H234V135.6z"/>
<path class="st0" d="M222.4,277.2v-5.8h8.3v5.8h58.8v23.2h-73.7v-23.2H222.4z"/>
<path class="st0" d="M153.7,209.3h31.4v79.4h-17.4v31.4l0.8,19v18.2H54.4v-68.7H37v-78.6h116.7V209.3z"/>
<path class="st0" d="M243.9,300.3h24.8v5h19.9v81.9h-23.2l-5,2.5h-6.6v-0.8H253l-5,2.5h-1.7v-4.1h-21.5v-48l1.7-19v-15.7h17.4V300.3
	z"/>
<path class="st0" d="M226.5,320.2h-58.8l0.8,19h56.3L226.5,320.2z"/>
<path class="st0" d="M289.4,260.6v-19.9h12.4V235l19.4-19h13.7v-32.3h46.3v33.1h14.9l18.2,19v28.1h12.4v21.5h-12.4v43.9h-51.3v8.3
	h-21.5v-8.3h-39.7v-68.7H289.4z"/>
<path class="st0" d="M301.8,337.6h77v42.6l2.5,3.7v17.4l-1.7,1.7v13.2l-56.3,0.8v-48h-21.5V337.6z"/>
<path class="st0" d="M224.9,417h98.5l56.3-0.8h28.1v51.3H373v5h-43v-5H224.9V417z"/>
<path class="st0" d="M288.6,393v24h-63.7v-24h24l5-2.5v-0.8h6.6v1.7h0.8l5-2.5h1.7v4.1H288.6z"/>
<rect x="109.8" y="408.7" class="st0" width="28.1" height="38.9"/>
<path class="st0" d="M82.5,357.4h29l-1.7,6.2v84h-1.7v13.2H86.7v-44.7h-4.1V357.4z"/>
<path class="st0" d="M59.3,460.9h48.8v19h41.4v15.3h7.4v-15.3h49.7v73.7h-51.3v-36.2h-5.8v22.1H59.3V460.9z"/>
<path class="st0" d="M139.6,580.9v-27.3h67v-10.8h47.2v-22.3h73.7v22.3H373v-19.9h41.4v-15.7l15.7-14.1h46.3v82.8H353.1v-5.8h-77
	v11.6h-22.3l-0.8-0.8H139.6z"/>
<path class="st0" d="M276.2,581.7h-22.3v97.2l38.9,26.1h74.5l44.7-29.8V652l-5.8-12l5.8-9.5v-6.6h-39.7v-48h-19v48h-77V581.7z"/>
<path class="st0" d="M224.9,479.5v-12h68.7v11.6h9.1v5.8l2.5,2.9v32.7h-22.3v-8.3h-57.1v-29.8L224.9,479.5z"/>
<path class="st0" d="M317.5,472.5h90.2v46.3h-5.8v4.1h-11.6v-4.1h-5v-23.2h-67.9V472.5z"/>
<g class="st1">
	<g class="st1">
		
			<linearGradient id="SVGID_1_" gradientUnits="userSpaceOnUse" x1="483.047" y1="376.982" x2="542.63" y2="376.982" gradientTransform="matrix(1 0 0 -1 0 710)">
			<stop  offset="0.2292" style="stop-color:#181A20"/>
			<stop  offset="1" style="stop-color:#22252B"/>
		</linearGradient>
		<path class="st2" d="M548.4,324.3v1.7h-43v-11.6h-20.7v14.9H483v22.3h19.9l3.3-3.3h57.9v-24H548.4z"/>
		<path class="st3" d="M478.9,329.3h4.1v14.9h-4.1v18.2h-47.2v-3.3H421v-44.7h57.9V329.3z"/>
		
			<linearGradient id="SVGID_2_" gradientUnits="userSpaceOnUse" x1="483.047" y1="281.814" x2="554.629" y2="281.814" gradientTransform="matrix(1 0 0 -1 0 710)">
			<stop  offset="0" style="stop-color:#22252B"/>
			<stop  offset="1" style="stop-color:#101318"/>
		</linearGradient>
		<path class="st4" d="M622.9,378.9h48v43.9h-52.1l-62.9,39.7h-23.2v16.6H483v-49.7h0.8v-28.1h25.7v16.6h42.2l69.5-40.5L622.9,378.9
			z"/>
		
			<linearGradient id="SVGID_3_" gradientUnits="userSpaceOnUse" x1="634.9005" y1="385.671" x2="634.9005" y2="331.053" gradientTransform="matrix(1 0 0 -1 0 710)">
			<stop  offset="0" style="stop-color:#22252B"/>
			<stop  offset="1" style="stop-color:#1B1D23"/>
		</linearGradient>
		<path class="st5" d="M621.2,324.3h27.3v54.6h-25.7l-1.7-1.7V324.3z"/>
		
			<linearGradient id="SVGID_4_" gradientUnits="userSpaceOnUse" x1="444.566" y1="347.604" x2="444.566" y2="294.6411" gradientTransform="matrix(1 0 0 -1 0 710)">
			<stop  offset="0.2552" style="stop-color:#181A20"/>
			<stop  offset="1" style="stop-color:#22252B"/>
		</linearGradient>
		<rect x="431.7" y="362.4" class="st6" width="25.7" height="53"/>
		
			<linearGradient id="SVGID_5_" gradientUnits="userSpaceOnUse" x1="341.536" y1="372.431" x2="341.536" y2="292.986" gradientTransform="matrix(1 0 0 -1 0 710)">
			<stop  offset="0" style="stop-color:#22252B"/>
			<stop  offset="1" style="stop-color:#181A20"/>
		</linearGradient>
		<path class="st7" d="M301.8,337.6h77v42.6l2.5,3.7v17.4l-1.7,1.7v13.2l-56.3,0.8v-48h-21.5V337.6z"/>
		<path class="st0" d="M224.9,417h98.5l56.3-0.8h28.1v51.3H373v5h-43v-5H224.9V417z"/>
		
			<linearGradient id="SVGID_6_" gradientUnits="userSpaceOnUse" x1="256.7125" y1="321.123" x2="256.7125" y2="292.986" gradientTransform="matrix(1 0 0 -1 0 710)">
			<stop  offset="0" style="stop-color:#181A20"/>
			<stop  offset="1" style="stop-color:#22252B"/>
		</linearGradient>
		<path class="st8" d="M288.6,393v24h-63.7v-24h24l5-2.5v-0.8h6.6v1.7h0.8l5-2.5h1.7v4.1H288.6z"/>
		
			<radialGradient id="SVGID_7_" cx="48.6695" cy="750.4036" r="1" gradientTransform="matrix(3.749771e-15 61.2384 80.4799 -4.927972e-15 -60099.6914 -2459.9861)" gradientUnits="userSpaceOnUse">
			<stop  offset="0" style="stop-color:#22252B"/>
			<stop  offset="1" style="stop-color:#22252B;stop-opacity:0"/>
		</radialGradient>
		<path class="st9" d="M139.6,580.9v-27.3h67v-10.8h47.2v-22.3h73.7v22.3H373v-19.9h41.4v-15.7l15.7-14.1h46.3v82.8H353.1v-5.8h-77
			v11.6h-22.3l-0.8-0.8H139.6z"/>
		<path class="st0" d="M224.9,479.5v-12h68.7v11.6h9.1v5.8l2.5,2.9v32.7h-22.3v-8.3h-57.1v-29.8L224.9,479.5z"/>
	</g>
	
		<linearGradient id="SVGID_8_" gradientUnits="userSpaceOnUse" x1="528.976" y1="555.7315" x2="598.076" y2="555.7315" gradientTransform="matrix(1 0 0 -1 0 710)">
		<stop  offset="0" style="stop-color:#22252B"/>
		<stop  offset="1" style="stop-color:#2D3038"/>
	</linearGradient>
	<path class="st10" d="M512.8,136.5h109.2v35.6h-22.3v-6.6h-86.9V136.5z"/>
	
		<linearGradient id="SVGID_9_" gradientUnits="userSpaceOnUse" x1="362.639" y1="237.54" x2="362.639" y2="187.06" gradientTransform="matrix(1 0 0 -1 0 710)">
		<stop  offset="0.4601" style="stop-color:#202229"/>
		<stop  offset="1" style="stop-color:#22252B;stop-opacity:0"/>
	</linearGradient>
	<path class="st11" d="M317.5,472.5h90.2v46.3h-5.8v4.1h-11.6v-4.1h-5v-23.2h-67.9V472.5z"/>
	<path class="st0" d="M599.7,172.1v46.3h62.9v-19.9h-13.2v-9.9h-9.9v-16.5H599.7z"/>
</g>
<path class="st12" d="M648.6,224.2v-14.9h-46.3v14.9"/>
<rect x="153.7" y="209.3" class="st3" width="31.4" height="0.8"/>
<rect x="243.9" y="300.3" class="st3" width="24.8" height="0.8"/>
<rect x="222.4" y="271.4" class="st3" width="8.3" height="0.8"/>
<rect x="255.5" y="135.6" class="st3" width="0.8" height="28.1"/>
<rect x="289.4" y="240.7" class="st3" width="0.8" height="19.9"/>
<rect x="82.5" y="357.4" class="st3" width="29" height="0.8"/>
<rect x="206.6" y="556.9" class="st3" width="0.8" height="24"/>
<rect x="282.8" y="519.6" class="st3" width="22.3" height="0.8"/>
<rect x="224.9" y="467.5" class="st3" width="68.7" height="0.8"/>
<rect x="330" y="471.6" class="st3" width="43" height="0.8"/>
<rect x="390.4" y="522.1" class="st3" width="11.6" height="0.8"/>
<rect x="436.7" y="492.3" class="st3" width="17.4" height="0.8"/>
<rect x="440.8" y="415.4" class="st3" width="9.9" height="0.8"/>
<path class="st13" d="M623.1,378.1l-1.8-1.8v1l-0.1,0.1l1.6,1.6h25.8v-0.8H623.1z"/>
<rect x="478.9" y="329.3" class="st3" width="0.8" height="14.9"/>
<rect x="561.7" y="326" class="st3" width="0.8" height="22.3"/>
<rect x="562.5" y="324.3" class="st3" width="29" height="0.8"/>
<rect x="553.4" y="219.2" class="st3" width="33.9" height="0.8"/>
<rect x="512.8" y="189.4" class="st3" width="0.8" height="21.5"/>
<rect x="425.9" y="263.9" class="st3" width="0.8" height="21.5"/>
<rect x="512.8" y="136.5" class="st3" width="0.8" height="29"/>
<rect x="479.7" y="165.4" class="st3" width="33.1" height="0.8"/>
<rect x="599.7" y="165.4" class="st3" width="22.3" height="0.8"/>
<rect x="341.5" y="336.7" class="st3" width="21.5" height="0.8"/>
<path class="st3" d="M621.2,324.3h28.1v2.5h-0.8v-1.7h-27.3V324.3z"/>
<path class="st3" d="M482.2,429.4h0.8v20.7h-0.8V429.4z"/>
<rect x="224.9" y="416.2" class="st3" width="63.7" height="0.8"/>
<path class="st3" d="M323.3,415.4h56.3v0.8h-56.3V415.4z"/>
<rect x="253.8" y="389.7" class="st3" width="6.6" height="0.8"/>
<path class="st3" d="M167.8,320.2h0.8l0.8,19h-0.8L167.8,320.2z"/>
<path class="st3" d="M225.7,320.2h0.8l-1.7,19H224L225.7,320.2z"/>
<g class="st14">
	<rect x="573.2" y="178.7" class="st15" width="14.1" height="11.6"/>
	
		<rect x="578.4" y="253.9" transform="matrix(0.95 -0.3123 0.3123 0.95 -52.1907 203.1661)" class="st15" width="59.4" height="21.2"/>
	<rect x="548.4" y="309.4" class="st15" width="14.1" height="16.6"/>
	<rect x="591.5" y="324.3" class="st15" width="16.6" height="15.7"/>
	
		<rect x="605.2" y="415.9" transform="matrix(0.8464 -0.5325 0.5325 0.8464 -130.6978 389.8175)" class="st15" width="10.7" height="11.2"/>
	<rect x="476.4" y="281.3" class="st15" width="19" height="15.7"/>
	<rect x="479.7" y="232.5" class="st15" width="12.4" height="19"/>
	<rect x="479.7" y="223.4" class="st16" width="7.4" height="9.1"/>
	<rect x="344.8" y="212.6" class="st15" width="26.5" height="5.8"/>
	<rect x="301.8" y="278.8" class="st0" width="11.6" height="50.5"/>
	<path class="st0" d="M391.2,249.9h-60.4v46.3h9.9v9.9h36.4v-9.9h14.1V249.9z"/>
	<rect x="153.7" y="182" class="st15" width="15.7" height="12.4"/>
	<rect x="75.9" y="210.1" class="st0" width="19.9" height="16.6"/>
	<path class="st15" d="M42.8,247.4H37v41.4h33.9v-36.4H42.8V247.4z"/>
	<rect x="118.1" y="340.1" class="st15" width="19.9" height="17.4"/>
	<rect x="87.4" y="272.9" class="st15" width="66.2" height="26.5"/>
	<rect x="128.7" y="299.4" class="st16" width="19.9" height="15.7"/>
	<rect x="164.9" y="270.9" class="st16" width="20.1" height="18.1"/>
	<rect x="268.7" y="342.5" class="st0" width="19.9" height="16.6"/>
	<rect x="109.8" y="408.7" class="st15" width="28.1" height="22.3"/>
	<rect x="157" y="479.9" class="st15" width="15.7" height="14.1"/>
	<rect x="224.9" y="431.9" class="st15" width="19.9" height="16.6"/>
	<rect x="365.5" y="402.9" class="st0" width="14.1" height="12.4"/>
	<rect x="333.3" y="465.8" class="st17" width="36.4" height="6.6"/>
	<rect x="336.6" y="460" class="st18" width="29.8" height="5.8"/>
	<rect x="414.4" y="443.5" class="st15" width="20.7" height="18.2"/>
	<rect x="459.9" y="472.5" class="st15" width="16.6" height="15.7"/>
	<rect x="373" y="561.8" class="st15" width="18.2" height="14.1"/>
	<rect x="206.6" y="542.8" class="st15" width="18.2" height="14.1"/>
	<rect x="273.7" y="467.5" class="st16" width="19.9" height="16.6"/>
</g>
<g>
	<path class="st19" d="M228,236.4l1.4,0.3c-0.1,0.8-0.4,1.4-0.9,1.9c-0.5,0.5-1.1,0.7-1.9,0.7c-0.9,0-1.6-0.3-2.2-0.9
		c-0.6-0.6-0.8-1.5-0.8-2.8c0-1.1,0.3-1.9,0.9-2.6c0.6-0.6,1.3-0.9,2.1-0.9c0.7,0,1.3,0.2,1.8,0.7c0.5,0.4,0.8,1,0.9,1.8l-1.3,0.2
		c-0.1-0.4-0.2-0.8-0.4-1c-0.2-0.3-0.5-0.4-0.9-0.4c-0.5,0-0.8,0.2-1.2,0.6c-0.3,0.4-0.5,0.9-0.5,1.7c0,0.8,0.2,1.5,0.5,1.9
		c0.3,0.4,0.7,0.6,1.2,0.6C227.4,238.1,227.8,237.5,228,236.4z M232.9,239.2v-6.9h1.3v5.7h2.8v1.2H232.9z M237.9,239.2v-5.2h1.3v5.2
		H237.9z M237.9,233.2V232h1.3v1.2H237.9z M240.6,239.2v-5.2h1.2v0.5h0c0.1-0.2,0.3-0.3,0.6-0.5c0.2-0.1,0.5-0.2,0.8-0.2
		c0.6,0,1,0.2,1.4,0.5c0.3,0.3,0.5,0.8,0.5,1.4v3.4h-1.3v-3.1c0-0.4-0.1-0.6-0.2-0.8c-0.1-0.2-0.4-0.3-0.7-0.3
		c-0.3,0-0.6,0.1-0.7,0.3c-0.2,0.2-0.3,0.4-0.3,0.7v3.2H240.6z M246.4,239.2V232h1.3v4.1h0l1.9-2.2h1.6l-1.9,2.1l2.1,3.1H250
		l-1.6-2.4h0l-0.7,0.7v1.6H246.4z"/>
	<path class="st19" d="M343.3,204.2v-6.9h2.9c0.6,0,1.1,0.2,1.5,0.5c0.4,0.4,0.6,0.8,0.6,1.3c0,0.6-0.2,1-0.8,1.3v0
		c0.3,0.1,0.5,0.3,0.7,0.6c0.2,0.3,0.3,0.6,0.3,1c0,0.7-0.2,1.2-0.6,1.6c-0.4,0.4-1.1,0.6-2,0.6H343.3z M344.6,202.9h1.6
		c0.6,0,0.9-0.3,0.9-0.9c0-0.3-0.1-0.5-0.3-0.7c-0.2-0.2-0.4-0.2-0.7-0.2h-1.6V202.9z M344.6,200h1.4c0.3,0,0.5-0.1,0.6-0.2
		c0.2-0.1,0.2-0.3,0.2-0.6c0-0.3-0.1-0.5-0.2-0.6c-0.2-0.1-0.4-0.2-0.6-0.2h-1.4V200z M352.6,204.2v-0.5h0c0,0,0,0,0,0.1
		c0,0-0.1,0.1-0.1,0.1c-0.1,0.1-0.2,0.1-0.3,0.2c-0.1,0.1-0.2,0.1-0.4,0.2c-0.2,0-0.4,0.1-0.6,0.1c-0.6,0-1.1-0.1-1.4-0.4
		c-0.3-0.3-0.5-0.7-0.5-1.1c0-0.5,0.1-0.8,0.4-1c0.3-0.2,0.7-0.4,1.4-0.6c0.6-0.1,1-0.3,1.1-0.3c0.2-0.1,0.2-0.2,0.2-0.4
		s-0.1-0.3-0.2-0.4c-0.1-0.1-0.4-0.2-0.7-0.2c-0.3,0-0.6,0.1-0.8,0.2c-0.2,0.2-0.3,0.4-0.4,0.6l-1.1-0.4c0.1-0.4,0.4-0.8,0.7-1.1
		c0.4-0.3,0.8-0.4,1.4-0.4c0.6,0,1.2,0.2,1.6,0.5c0.4,0.3,0.6,0.9,0.6,1.6v3.3H352.6z M351.3,202c-0.3,0.1-0.5,0.2-0.7,0.3
		c-0.1,0.1-0.1,0.2-0.1,0.4c0,0.4,0.3,0.5,0.8,0.5c0.4,0,0.7-0.1,0.9-0.2c0.2-0.2,0.3-0.3,0.3-0.6v-0.9h0c0,0.1-0.1,0.1-0.1,0.1
		c0,0-0.1,0.1-0.3,0.1C351.8,201.9,351.6,201.9,351.3,202z M358.1,202.1l1.2,0.3c-0.1,0.6-0.4,1.1-0.8,1.4c-0.4,0.3-0.9,0.5-1.5,0.5
		c-0.7,0-1.3-0.2-1.8-0.7c-0.5-0.5-0.7-1.2-0.7-2c0-0.9,0.2-1.5,0.7-2c0.5-0.5,1.1-0.7,1.7-0.7c0.6,0,1.1,0.2,1.5,0.5
		c0.4,0.3,0.6,0.8,0.7,1.4l-1.2,0.2c-0.1-0.6-0.5-1-1-1c-0.4,0-0.7,0.1-0.9,0.4c-0.2,0.3-0.3,0.7-0.3,1.2s0.1,0.9,0.3,1.2
		c0.2,0.3,0.5,0.4,0.9,0.4C357.6,203.2,358,202.8,358.1,202.1z M360.3,204.2V197h1.3v4.1h0l1.9-2.2h1.6l-1.9,2.1l2.1,3.1h-1.4
		l-1.6-2.4h0l-0.7,0.7v1.6H360.3z M368.5,204.2v-6.9h2.9c0.6,0,1.1,0.2,1.5,0.5c0.4,0.4,0.6,0.8,0.6,1.3c0,0.6-0.2,1-0.7,1.3v0
		c0.3,0.1,0.5,0.3,0.7,0.6c0.2,0.3,0.3,0.6,0.3,1c0,0.7-0.2,1.2-0.6,1.6c-0.4,0.4-1.1,0.6-2,0.6H368.5z M369.8,202.9h1.6
		c0.6,0,0.9-0.3,0.9-0.9c0-0.3-0.1-0.5-0.3-0.7c-0.2-0.2-0.4-0.2-0.7-0.2h-1.6V202.9z M369.8,200h1.4c0.3,0,0.5-0.1,0.6-0.2
		c0.2-0.1,0.2-0.3,0.2-0.6c0-0.3-0.1-0.5-0.2-0.6c-0.2-0.1-0.4-0.2-0.6-0.2h-1.4V200z"/>
	<path class="st19" d="M534.9,155.3v-6.9h1.3v2.8h2.4v-2.8h1.3v6.9h-1.3v-3h-2.4v3H534.9z M544.8,153.5l0.9,0.8
		c-0.5,0.8-1.3,1.2-2.2,1.2c-0.7,0-1.3-0.2-1.8-0.7c-0.5-0.5-0.7-1.2-0.7-2c0-0.8,0.2-1.5,0.7-2c0.5-0.5,1-0.8,1.7-0.8
		c0.7,0,1.3,0.3,1.7,0.8c0.5,0.5,0.7,1.2,0.7,2v0.4h-3.5c0,0.4,0.1,0.7,0.3,0.9c0.2,0.2,0.5,0.3,0.8,0.3c0.3,0,0.5-0.1,0.7-0.2
		C544.4,153.9,544.6,153.7,544.8,153.5z M542.4,152.1h2.3c0-0.3-0.1-0.6-0.3-0.8c-0.2-0.2-0.5-0.3-0.8-0.3c-0.3,0-0.6,0.1-0.8,0.3
		C542.5,151.5,542.4,151.8,542.4,152.1z M549.9,155.3v-0.5h0c0,0,0,0,0,0.1c0,0-0.1,0.1-0.1,0.1c-0.1,0.1-0.2,0.1-0.3,0.2
		c-0.1,0.1-0.2,0.1-0.4,0.2c-0.2,0-0.4,0.1-0.6,0.1c-0.6,0-1.1-0.1-1.4-0.4c-0.3-0.3-0.5-0.7-0.5-1.1c0-0.5,0.1-0.8,0.4-1
		c0.3-0.2,0.7-0.4,1.4-0.6c0.6-0.1,1-0.3,1.1-0.3c0.2-0.1,0.2-0.2,0.2-0.4c0-0.2-0.1-0.3-0.2-0.4c-0.1-0.1-0.4-0.2-0.7-0.2
		c-0.3,0-0.6,0.1-0.7,0.2c-0.2,0.2-0.3,0.4-0.4,0.6l-1.1-0.4c0.1-0.4,0.4-0.8,0.7-1.1c0.4-0.3,0.8-0.4,1.4-0.4
		c0.6,0,1.2,0.2,1.6,0.5c0.4,0.3,0.6,0.9,0.6,1.6v3.3H549.9z M548.6,153.1c-0.3,0.1-0.5,0.2-0.7,0.3c-0.1,0.1-0.1,0.2-0.1,0.4
		c0,0.4,0.3,0.5,0.8,0.5c0.4,0,0.7-0.1,0.9-0.2c0.2-0.2,0.3-0.3,0.3-0.6v-0.9h0c0,0.1-0.1,0.1-0.1,0.1c0,0-0.1,0.1-0.3,0.1
		C549.2,153,548.9,153,548.6,153.1z M553.4,155.3l-2.1-5.2h1.3l1.3,3.4h0l1.3-3.4h1.3l-2.1,5.2H553.4z M560.6,153.5l0.9,0.8
		c-0.5,0.8-1.3,1.2-2.2,1.2c-0.7,0-1.3-0.2-1.8-0.7c-0.5-0.5-0.7-1.2-0.7-2c0-0.8,0.2-1.5,0.7-2c0.5-0.5,1-0.8,1.7-0.8
		c0.7,0,1.3,0.3,1.7,0.8c0.5,0.5,0.7,1.2,0.7,2v0.4h-3.5c0,0.4,0.1,0.7,0.3,0.9c0.2,0.2,0.5,0.3,0.8,0.3c0.3,0,0.5-0.1,0.7-0.2
		C560.2,153.9,560.4,153.7,560.6,153.5z M558.2,152.1h2.3c0-0.3-0.1-0.6-0.3-0.8c-0.2-0.2-0.5-0.3-0.8-0.3c-0.3,0-0.6,0.1-0.8,0.3
		C558.3,151.5,558.2,151.8,558.2,152.1z M562.7,155.3V150h1.2v0.5h0c0.1-0.2,0.3-0.3,0.6-0.5s0.5-0.2,0.8-0.2c0.6,0,1,0.2,1.4,0.5
		c0.3,0.3,0.5,0.8,0.5,1.4v3.4h-1.3v-3.1c0-0.4-0.1-0.6-0.2-0.8c-0.1-0.2-0.4-0.3-0.7-0.3c-0.3,0-0.6,0.1-0.7,0.3
		c-0.2,0.2-0.3,0.4-0.3,0.7v3.2H562.7z M570.6,153l1.4-0.3c0.1,0.5,0.2,0.9,0.4,1.2c0.2,0.2,0.5,0.4,1,0.4c0.4,0,0.7-0.1,0.9-0.2
		c0.2-0.1,0.3-0.3,0.3-0.6c0-0.3-0.1-0.5-0.3-0.6c-0.2-0.2-0.7-0.3-1.5-0.6c-0.7-0.2-1.2-0.5-1.5-0.8c-0.3-0.3-0.4-0.7-0.4-1.2
		c0-0.5,0.2-1,0.6-1.4c0.4-0.4,1-0.6,1.7-0.6c0.7,0,1.2,0.2,1.7,0.5c0.5,0.3,0.8,0.8,0.9,1.4l-1.3,0.3c-0.2-0.7-0.6-1-1.3-1
		c-0.3,0-0.6,0.1-0.8,0.2c-0.2,0.1-0.2,0.3-0.2,0.5c0,0.2,0.1,0.4,0.3,0.5c0.2,0.1,0.7,0.3,1.5,0.6c0.8,0.3,1.3,0.5,1.6,0.9
		c0.3,0.3,0.4,0.7,0.4,1.2c0,0.6-0.2,1.1-0.7,1.5c-0.5,0.4-1.1,0.6-1.8,0.6c-0.8,0-1.4-0.2-1.9-0.6C571,154.4,570.7,153.8,570.6,153
		z M577.1,153.4v-2.3h-0.8V150h0.8v-1.3h1.2v1.3h1.3v1.1h-1.3v2.2c0,0.3,0,0.5,0.1,0.6c0.1,0.1,0.3,0.2,0.6,0.2h0.4v1.2H579
		c-0.7,0-1.2-0.1-1.4-0.4C577.3,154.5,577.1,154,577.1,153.4z M583.6,155.3v-0.5h0c0,0,0,0,0,0.1c0,0-0.1,0.1-0.1,0.1
		c-0.1,0.1-0.2,0.1-0.3,0.2c-0.1,0.1-0.2,0.1-0.4,0.2c-0.2,0-0.4,0.1-0.6,0.1c-0.6,0-1.1-0.1-1.4-0.4c-0.3-0.3-0.5-0.7-0.5-1.1
		c0-0.5,0.1-0.8,0.4-1c0.3-0.2,0.7-0.4,1.4-0.6c0.6-0.1,1-0.3,1.1-0.3c0.2-0.1,0.2-0.2,0.2-0.4c0-0.2-0.1-0.3-0.2-0.4
		c-0.1-0.1-0.4-0.2-0.7-0.2c-0.3,0-0.6,0.1-0.8,0.2c-0.2,0.2-0.3,0.4-0.4,0.6l-1.1-0.4c0.1-0.4,0.4-0.8,0.7-1.1
		c0.4-0.3,0.8-0.4,1.4-0.4c0.6,0,1.2,0.2,1.6,0.5c0.4,0.3,0.6,0.9,0.6,1.6v3.3H583.6z M582.3,153.1c-0.3,0.1-0.5,0.2-0.7,0.3
		c-0.1,0.1-0.1,0.2-0.1,0.4c0,0.4,0.3,0.5,0.8,0.5c0.4,0,0.7-0.1,0.9-0.2c0.2-0.2,0.3-0.3,0.3-0.6v-0.9h0c0,0.1-0.1,0.1-0.1,0.1
		c0,0-0.1,0.1-0.3,0.1C582.8,153,582.6,153,582.3,153.1z M585.9,155.3V150h1.3v5.2H585.9z M585.9,149.3v-1.2h1.3v1.2H585.9z
		 M588.6,155.3V150h1.2v0.6h0c0.1-0.2,0.2-0.4,0.4-0.5c0.2-0.1,0.4-0.2,0.6-0.2c0.2,0,0.3,0,0.5,0.1l-0.2,1.2
		c-0.1-0.1-0.3-0.1-0.4-0.1c-0.6,0-0.9,0.4-0.9,1.2v2.9H588.6z M591.8,153.5l1.2-0.3c0.1,0.7,0.5,1.1,1.2,1.1c0.3,0,0.6-0.1,0.7-0.1
		c0.2-0.1,0.3-0.2,0.3-0.4c0-0.2-0.1-0.3-0.2-0.3c-0.1-0.1-0.4-0.2-0.9-0.3c-0.1,0-0.2-0.1-0.3-0.1c-0.6-0.2-1-0.4-1.3-0.6
		c-0.3-0.2-0.4-0.5-0.4-0.9c0-0.4,0.2-0.8,0.5-1.1c0.4-0.3,0.8-0.5,1.5-0.5c1.2,0,1.9,0.5,2.2,1.5l-1.1,0.3
		c-0.1-0.2-0.2-0.4-0.4-0.6c-0.2-0.1-0.4-0.2-0.7-0.2c-0.2,0-0.5,0-0.6,0.1c-0.1,0.1-0.2,0.2-0.2,0.3c0,0.1,0.1,0.3,0.3,0.3
		c0.2,0.1,0.6,0.2,1.3,0.4c0.6,0.2,1,0.4,1.2,0.6c0.2,0.2,0.3,0.6,0.3,1c0,0.4-0.2,0.8-0.6,1.1c-0.4,0.3-0.9,0.5-1.6,0.5
		c-0.7,0-1.3-0.2-1.7-0.5C592.1,154.5,591.9,154.1,591.8,153.5z"/>
	<path class="st19" d="M609.4,201.2L609,200h-2.6l-0.4,1.1h-1.3l2.5-6.9h1.1l2.5,6.9H609.4z M607.7,196.2l-0.9,2.7h1.9L607.7,196.2
		L607.7,196.2z M614.1,201.2v-6.9h1.3v2.8h2.4v-2.8h1.3v6.9h-1.3v-3h-2.4v3H614.1z M624,199.4l0.9,0.8c-0.5,0.8-1.3,1.2-2.2,1.2
		c-0.7,0-1.3-0.2-1.8-0.7c-0.5-0.5-0.7-1.2-0.7-2c0-0.8,0.2-1.5,0.7-2c0.5-0.5,1-0.8,1.7-0.8s1.3,0.3,1.7,0.8c0.5,0.5,0.7,1.2,0.7,2
		v0.4h-3.5c0,0.4,0.1,0.7,0.3,0.9c0.2,0.2,0.5,0.3,0.8,0.3c0.3,0,0.5-0.1,0.7-0.2C623.6,199.8,623.8,199.6,624,199.4z M621.5,198
		h2.3c0-0.3-0.1-0.6-0.3-0.8c-0.2-0.2-0.5-0.3-0.8-0.3c-0.3,0-0.6,0.1-0.8,0.3C621.7,197.4,621.6,197.7,621.5,198z M629.1,201.2
		v-0.5h0c0,0,0,0,0,0.1c0,0-0.1,0.1-0.1,0.1c-0.1,0.1-0.2,0.1-0.3,0.2c-0.1,0.1-0.2,0.1-0.4,0.2c-0.2,0-0.4,0.1-0.6,0.1
		c-0.6,0-1.1-0.1-1.4-0.4c-0.3-0.3-0.5-0.7-0.5-1.1c0-0.5,0.1-0.8,0.4-1c0.3-0.2,0.7-0.4,1.4-0.6c0.6-0.1,1-0.3,1.1-0.3
		c0.2-0.1,0.2-0.2,0.2-0.4s-0.1-0.3-0.2-0.4c-0.1-0.1-0.4-0.2-0.7-0.2c-0.3,0-0.6,0.1-0.7,0.2c-0.2,0.2-0.3,0.4-0.4,0.6l-1.1-0.4
		c0.1-0.4,0.4-0.8,0.7-1.1c0.4-0.3,0.8-0.4,1.4-0.4c0.6,0,1.2,0.2,1.6,0.5c0.4,0.3,0.6,0.9,0.6,1.6v3.3H629.1z M627.8,199
		c-0.3,0.1-0.5,0.2-0.6,0.3c-0.1,0.1-0.1,0.2-0.1,0.4c0,0.4,0.3,0.5,0.8,0.5c0.4,0,0.7-0.1,0.9-0.2c0.2-0.2,0.3-0.3,0.3-0.6v-0.9h0
		c0,0.1-0.1,0.1-0.1,0.1c0,0-0.1,0.1-0.3,0.1C628.3,198.9,628.1,198.9,627.8,199z M632.6,201.2l-2.1-5.2h1.3l1.3,3.4h0l1.3-3.4h1.3
		l-2.1,5.2H632.6z M639.8,199.4l0.9,0.8c-0.5,0.8-1.3,1.2-2.2,1.2c-0.7,0-1.3-0.2-1.8-0.7c-0.5-0.5-0.7-1.2-0.7-2
		c0-0.8,0.2-1.5,0.7-2c0.5-0.5,1-0.8,1.7-0.8c0.7,0,1.3,0.3,1.7,0.8c0.5,0.5,0.7,1.2,0.7,2v0.4h-3.5c0,0.4,0.1,0.7,0.3,0.9
		c0.2,0.2,0.5,0.3,0.8,0.3c0.3,0,0.5-0.1,0.7-0.2C639.4,199.8,639.6,199.6,639.8,199.4z M637.3,198h2.3c0-0.3-0.1-0.6-0.3-0.8
		c-0.2-0.2-0.5-0.3-0.8-0.3c-0.3,0-0.6,0.1-0.8,0.3C637.5,197.4,637.4,197.7,637.3,198z M641.9,201.2v-5.2h1.2v0.5h0
		c0.1-0.2,0.3-0.3,0.6-0.5s0.5-0.2,0.8-0.2c0.6,0,1,0.2,1.4,0.5c0.3,0.3,0.5,0.8,0.5,1.4v3.4h-1.3v-3.1c0-0.4-0.1-0.6-0.2-0.8
		c-0.1-0.2-0.4-0.3-0.7-0.3c-0.3,0-0.6,0.1-0.7,0.3c-0.2,0.2-0.3,0.4-0.3,0.7v3.2H641.9z"/>
	<path class="st19" d="M437.9,342.2l-0.4-1.1h-2.6l-0.4,1.1h-1.3l2.5-6.9h1.1l2.5,6.9H437.9z M436.2,337.2l-0.9,2.7h1.9L436.2,337.2
		L436.2,337.2z M442.1,339.9l1.4-0.3c0.1,0.5,0.2,0.9,0.4,1.2c0.2,0.2,0.5,0.4,1,0.4c0.4,0,0.7-0.1,0.9-0.2c0.2-0.1,0.3-0.3,0.3-0.6
		c0-0.3-0.1-0.5-0.3-0.6c-0.2-0.2-0.7-0.3-1.5-0.6c-0.7-0.2-1.2-0.5-1.5-0.8c-0.3-0.3-0.4-0.7-0.4-1.2c0-0.5,0.2-1,0.6-1.4
		c0.4-0.4,1-0.6,1.7-0.6c0.7,0,1.2,0.2,1.7,0.5c0.5,0.3,0.8,0.8,0.9,1.4l-1.3,0.3c-0.2-0.7-0.6-1-1.3-1c-0.3,0-0.6,0.1-0.8,0.2
		c-0.2,0.1-0.2,0.3-0.2,0.5c0,0.2,0.1,0.4,0.3,0.5c0.2,0.1,0.7,0.3,1.5,0.6c0.8,0.3,1.3,0.5,1.6,0.9c0.3,0.3,0.4,0.7,0.4,1.2
		c0,0.6-0.2,1.1-0.7,1.5c-0.5,0.4-1.1,0.6-1.8,0.6c-0.8,0-1.4-0.2-1.9-0.6C442.5,341.3,442.2,340.7,442.1,339.9z M448.4,342.2V335
		h1.3v2.5h0c0.1-0.2,0.3-0.3,0.5-0.5c0.2-0.1,0.5-0.2,0.7-0.2c0.6,0,1,0.2,1.3,0.5c0.3,0.3,0.5,0.8,0.5,1.4v3.5h-1.3V339
		c0-0.3-0.1-0.5-0.2-0.7c-0.2-0.2-0.4-0.3-0.7-0.3c-0.3,0-0.5,0.1-0.7,0.3c-0.2,0.2-0.2,0.4-0.2,0.7v3.3H448.4z M455.3,340.7
		c0.2,0.3,0.5,0.4,0.9,0.4c0.4,0,0.7-0.1,0.9-0.4c0.2-0.3,0.3-0.7,0.3-1.2s-0.1-0.9-0.3-1.2c-0.2-0.3-0.5-0.4-0.9-0.4
		c-0.4,0-0.7,0.1-0.9,0.4c-0.2,0.3-0.3,0.7-0.3,1.2C455,340.1,455.1,340.5,455.3,340.7z M457.9,341.6c-0.5,0.5-1,0.7-1.8,0.7
		c-0.7,0-1.3-0.2-1.8-0.7c-0.5-0.5-0.7-1.2-0.7-2c0-0.9,0.2-1.5,0.7-2c0.5-0.5,1.1-0.7,1.7-0.7c0.7,0,1.3,0.2,1.7,0.7
		c0.5,0.5,0.7,1.2,0.7,2C458.6,340.4,458.4,341.1,457.9,341.6z M459.7,342.2v-5.2h1.2v0.6h0c0.1-0.2,0.2-0.4,0.4-0.5
		c0.2-0.1,0.4-0.2,0.6-0.2c0.2,0,0.3,0,0.5,0.1l-0.2,1.2c-0.1-0.1-0.3-0.1-0.4-0.1c-0.6,0-0.9,0.4-0.9,1.2v2.9H459.7z M463.7,340.3
		V338h-0.8v-1.1h0.8v-1.3h1.2v1.3h1.3v1.1h-1.3v2.2c0,0.3,0,0.5,0.1,0.6c0.1,0.1,0.3,0.2,0.6,0.2h0.4v1.2h-0.5
		c-0.7,0-1.2-0.1-1.4-0.4C463.8,341.4,463.7,341,463.7,340.3z"/>
	<path class="st19" d="M569.6,354.6v-5.7h-2v-1.2h5.4v1.2h-2v5.7H569.6z M574.2,353.2c0.2,0.3,0.5,0.4,0.9,0.4s0.7-0.1,0.9-0.4
		c0.2-0.3,0.3-0.7,0.3-1.2c0-0.5-0.1-0.9-0.3-1.2c-0.2-0.3-0.5-0.4-0.9-0.4c-0.4,0-0.6,0.1-0.9,0.4c-0.2,0.3-0.3,0.7-0.3,1.2
		C573.8,352.5,573.9,352.9,574.2,353.2z M576.8,354c-0.5,0.5-1,0.7-1.8,0.7c-0.7,0-1.3-0.2-1.8-0.7c-0.5-0.5-0.7-1.2-0.7-2
		c0-0.9,0.2-1.5,0.7-2c0.5-0.5,1.1-0.7,1.7-0.7c0.7,0,1.3,0.2,1.7,0.7c0.5,0.5,0.7,1.2,0.7,2C577.5,352.8,577.2,353.5,576.8,354z
		 M579.3,354.6l-1.2-5.2h1.3l0.7,3.5h0l1.2-3.5h1.2l1.1,3.5h0l0.8-3.5h1.2l-1.3,5.2H583l-1.2-3.8h0l-1.3,3.8H579.3z M589.8,352.8
		l0.9,0.8c-0.5,0.8-1.3,1.2-2.2,1.2c-0.7,0-1.3-0.2-1.8-0.7c-0.5-0.5-0.7-1.2-0.7-2c0-0.8,0.2-1.5,0.7-2c0.5-0.5,1-0.8,1.7-0.8
		c0.7,0,1.3,0.3,1.7,0.8c0.5,0.5,0.7,1.2,0.7,2v0.4h-3.5c0,0.4,0.1,0.7,0.3,0.9c0.2,0.2,0.5,0.3,0.8,0.3c0.3,0,0.5-0.1,0.7-0.2
		C589.4,353.2,589.6,353,589.8,352.8z M587.4,351.4h2.3c0-0.3-0.1-0.6-0.3-0.8c-0.2-0.2-0.5-0.3-0.8-0.3c-0.3,0-0.6,0.1-0.8,0.3
		C587.5,350.8,587.4,351.1,587.4,351.4z M591.9,354.6v-5.2h1.2v0.6h0c0.1-0.2,0.2-0.4,0.4-0.5c0.2-0.1,0.4-0.2,0.6-0.2
		c0.2,0,0.3,0,0.5,0.1l-0.2,1.2c-0.1-0.1-0.3-0.1-0.4-0.1c-0.6,0-0.9,0.4-0.9,1.2v2.9H591.9z M595.1,352.9l1.2-0.3
		c0.1,0.7,0.5,1.1,1.2,1.1c0.3,0,0.6,0,0.8-0.1c0.2-0.1,0.3-0.2,0.3-0.4c0-0.2-0.1-0.3-0.2-0.3c-0.1-0.1-0.4-0.2-0.9-0.3
		c-0.1,0-0.2-0.1-0.3-0.1c-0.6-0.2-1-0.4-1.3-0.6c-0.3-0.2-0.4-0.5-0.4-0.9c0-0.4,0.2-0.8,0.5-1.1c0.4-0.3,0.8-0.5,1.4-0.5
		c1.2,0,1.9,0.5,2.2,1.5l-1.1,0.3c-0.1-0.2-0.2-0.4-0.4-0.6c-0.2-0.1-0.4-0.2-0.7-0.2c-0.2,0-0.5,0-0.6,0.1
		c-0.1,0.1-0.2,0.2-0.2,0.3c0,0.1,0.1,0.3,0.3,0.3c0.2,0.1,0.6,0.2,1.3,0.4c0.6,0.2,1,0.4,1.2,0.6c0.2,0.2,0.3,0.6,0.3,1
		c0,0.4-0.2,0.8-0.6,1.1c-0.4,0.3-0.9,0.5-1.6,0.5c-0.7,0-1.3-0.2-1.7-0.5C595.4,353.8,595.2,353.4,595.1,352.9z"/>
	<path class="st19" d="M114,433.1l1.4,0.3c-0.1,0.8-0.4,1.4-0.9,1.9c-0.5,0.5-1.1,0.7-1.9,0.7c-0.9,0-1.6-0.3-2.2-0.9
		c-0.6-0.6-0.8-1.5-0.8-2.8c0-1.1,0.3-1.9,0.9-2.6c0.6-0.6,1.3-0.9,2.1-0.9c0.7,0,1.3,0.2,1.8,0.7c0.5,0.4,0.8,1,0.9,1.8l-1.3,0.2
		c-0.1-0.4-0.2-0.8-0.4-1c-0.2-0.3-0.5-0.4-0.9-0.4c-0.5,0-0.8,0.2-1.2,0.6c-0.3,0.4-0.5,1-0.5,1.7c0,0.8,0.2,1.5,0.5,1.9
		c0.3,0.4,0.7,0.6,1.2,0.6C113.4,434.7,113.9,434.2,114,433.1z M116.4,433.9v-3.4h1.3v3.2c0,0.3,0.1,0.6,0.2,0.7s0.3,0.2,0.6,0.2
		c0.3,0,0.6-0.1,0.7-0.2c0.2-0.2,0.3-0.4,0.3-0.8v-3.1h1.3v5.2h-1.2v-0.5h0c-0.3,0.4-0.8,0.7-1.4,0.7c-0.6,0-1.1-0.2-1.4-0.5
		C116.5,435,116.4,434.6,116.4,433.9z M123.4,432.7v1c0,0.3,0.1,0.6,0.3,0.8c0.2,0.2,0.5,0.3,0.8,0.3c0.4,0,0.7-0.1,0.9-0.4
		c0.2-0.3,0.3-0.7,0.3-1.2c0-0.5-0.1-0.9-0.3-1.2c-0.2-0.3-0.5-0.4-0.9-0.4c-0.3,0-0.6,0.1-0.8,0.3
		C123.5,432.1,123.4,432.4,123.4,432.7z M122.1,435.8v-7.2h1.3v2.5h0c0,0,0,0,0-0.1c0,0,0.1-0.1,0.1-0.2c0.1-0.1,0.2-0.1,0.3-0.2
		c0.1-0.1,0.2-0.1,0.4-0.2c0.2,0,0.3-0.1,0.5-0.1c0.6,0,1.2,0.3,1.6,0.8c0.4,0.5,0.6,1.2,0.6,2c0,0.8-0.2,1.5-0.6,2
		c-0.4,0.5-1,0.7-1.6,0.7c-0.3,0-0.5-0.1-0.8-0.2c-0.2-0.1-0.4-0.2-0.5-0.3l-0.1-0.2h0v0.5H122.1z M129.3,432.7v1
		c0,0.3,0.1,0.6,0.3,0.8c0.2,0.2,0.5,0.3,0.8,0.3c0.4,0,0.7-0.1,0.9-0.4c0.2-0.3,0.3-0.7,0.3-1.2c0-0.5-0.1-0.9-0.3-1.2
		c-0.2-0.3-0.5-0.4-0.9-0.4c-0.3,0-0.6,0.1-0.8,0.3C129.4,432.1,129.3,432.4,129.3,432.7z M128,435.8v-7.2h1.3v2.5h0
		c0,0,0,0,0.1-0.1c0,0,0.1-0.1,0.1-0.2c0.1-0.1,0.2-0.1,0.3-0.2c0.1-0.1,0.2-0.1,0.4-0.2c0.2,0,0.3-0.1,0.5-0.1
		c0.6,0,1.2,0.3,1.6,0.8c0.4,0.5,0.6,1.2,0.6,2c0,0.8-0.2,1.5-0.6,2c-0.4,0.5-1,0.7-1.6,0.7c-0.3,0-0.5-0.1-0.8-0.2
		c-0.2-0.1-0.4-0.2-0.5-0.3l-0.1-0.2h0v0.5H128z M134.2,438l1-2.5l-2.1-5h1.3l1.4,3.5h0l1.4-3.5h1.3l-3,7.4H134.2z"/>
	<path class="st19" d="M46.2,276.9V270H49c0.7,0,1.3,0.2,1.7,0.6c0.4,0.4,0.7,0.9,0.7,1.6c0,0.7-0.2,1.2-0.6,1.6
		c-0.4,0.4-1,0.6-1.7,0.6h-1.5v2.5H46.2z M47.5,273.2H49c0.3,0,0.5-0.1,0.7-0.3c0.2-0.2,0.3-0.4,0.3-0.7c0-0.3-0.1-0.6-0.3-0.7
		c-0.2-0.2-0.4-0.2-0.7-0.2h-1.4V273.2z M52.1,276.9v-7.2h1.3v7.2H52.1z M57.8,276.9v-0.5h0c0,0,0,0,0,0.1c0,0-0.1,0.1-0.1,0.1
		c-0.1,0.1-0.2,0.1-0.3,0.2c-0.1,0.1-0.2,0.1-0.4,0.2c-0.2,0-0.4,0.1-0.6,0.1c-0.6,0-1.1-0.1-1.4-0.4c-0.3-0.3-0.5-0.7-0.5-1.1
		c0-0.5,0.1-0.8,0.4-1c0.3-0.2,0.7-0.4,1.4-0.6c0.6-0.1,1-0.3,1.1-0.3c0.2-0.1,0.2-0.2,0.2-0.4s-0.1-0.3-0.2-0.4
		c-0.1-0.1-0.4-0.2-0.7-0.2c-0.3,0-0.6,0.1-0.7,0.2c-0.2,0.2-0.3,0.4-0.4,0.6l-1.1-0.4c0.1-0.4,0.4-0.8,0.7-1.1
		c0.4-0.3,0.8-0.4,1.4-0.4c0.6,0,1.2,0.2,1.6,0.5c0.4,0.3,0.6,0.9,0.6,1.6v3.3H57.8z M56.5,274.8c-0.3,0.1-0.5,0.2-0.7,0.3
		c-0.1,0.1-0.1,0.2-0.1,0.4c0,0.4,0.3,0.5,0.8,0.5c0.4,0,0.7-0.1,0.9-0.2c0.2-0.2,0.3-0.3,0.3-0.6v-0.9h0c0,0.1-0.1,0.1-0.1,0.1
		c0,0-0.1,0.1-0.3,0.1C57.1,274.6,56.8,274.7,56.5,274.8z M60.4,275v-2.3h-0.8v-1.1h0.8v-1.3h1.2v1.3H63v1.1h-1.3v2.2
		c0,0.3,0,0.5,0.1,0.6c0.1,0.1,0.3,0.2,0.6,0.2h0.4v1.2h-0.5c-0.7,0-1.2-0.1-1.4-0.4C60.6,276.2,60.4,275.7,60.4,275z"/>
	<path class="st19" d="M165.7,284.1v-6.9h1.3v5.7h2.9v1.2H165.7z M171.9,282.7c0.2,0.3,0.5,0.4,0.9,0.4c0.4,0,0.7-0.1,0.9-0.4
		c0.2-0.3,0.3-0.7,0.3-1.2s-0.1-0.9-0.3-1.2c-0.2-0.3-0.5-0.4-0.9-0.4c-0.4,0-0.7,0.1-0.9,0.4c-0.2,0.3-0.3,0.7-0.3,1.2
		C171.6,282,171.7,282.4,171.9,282.7z M174.5,283.5c-0.5,0.5-1,0.7-1.8,0.7c-0.7,0-1.3-0.2-1.8-0.7c-0.5-0.5-0.7-1.2-0.7-2
		c0-0.9,0.2-1.5,0.7-2c0.5-0.5,1.1-0.7,1.7-0.7c0.7,0,1.3,0.2,1.7,0.7c0.5,0.5,0.7,1.2,0.7,2C175.2,282.3,175,283,174.5,283.5z
		 M179.6,282v-1.1c0-0.3-0.1-0.5-0.3-0.8c-0.2-0.2-0.5-0.3-0.8-0.3c-0.4,0-0.7,0.1-0.9,0.4c-0.2,0.3-0.4,0.7-0.4,1.2
		c0,0.5,0.1,0.9,0.4,1.2c0.2,0.3,0.6,0.4,0.9,0.4c0.3,0,0.6-0.1,0.8-0.3C179.5,282.6,179.6,282.3,179.6,282z M176.3,285.1l1-0.7
		c0.2,0.3,0.3,0.5,0.5,0.6c0.2,0.1,0.4,0.2,0.7,0.2c0.3,0,0.6-0.1,0.8-0.3c0.2-0.2,0.3-0.4,0.3-0.8v-0.7h0c-0.1,0.2-0.3,0.3-0.5,0.5
		c-0.2,0.1-0.5,0.2-0.8,0.2c-0.7,0-1.2-0.2-1.7-0.7c-0.5-0.5-0.7-1.2-0.7-2c0-0.8,0.2-1.5,0.7-2c0.5-0.5,1-0.7,1.6-0.7
		c0.6,0,1.1,0.2,1.4,0.7h0v-0.5h1.2v5.2c0,0.8-0.2,1.3-0.7,1.8c-0.4,0.4-1,0.6-1.7,0.6c-0.5,0-1-0.1-1.4-0.4
		C176.7,285.9,176.5,285.5,176.3,285.1z M181.8,282.4l1.2-0.3c0.1,0.7,0.5,1.1,1.2,1.1c0.3,0,0.6,0,0.8-0.1c0.2-0.1,0.3-0.2,0.3-0.4
		c0-0.2-0.1-0.3-0.2-0.3c-0.1-0.1-0.4-0.2-0.9-0.3c-0.1,0-0.2-0.1-0.3-0.1c-0.6-0.2-1-0.4-1.3-0.6c-0.3-0.2-0.4-0.5-0.4-0.9
		c0-0.4,0.2-0.8,0.5-1.1c0.4-0.3,0.8-0.5,1.4-0.5c1.2,0,1.9,0.5,2.2,1.5l-1.1,0.3c-0.1-0.2-0.2-0.4-0.4-0.6
		c-0.2-0.1-0.4-0.2-0.7-0.2c-0.2,0-0.4,0-0.6,0.1c-0.1,0.1-0.2,0.2-0.2,0.3c0,0.1,0.1,0.3,0.3,0.3c0.2,0.1,0.6,0.2,1.3,0.4
		c0.6,0.2,1,0.4,1.2,0.6c0.2,0.2,0.3,0.6,0.3,1c0,0.4-0.2,0.8-0.6,1.1c-0.4,0.3-0.9,0.5-1.6,0.5c-0.7,0-1.3-0.2-1.7-0.5
		C182.1,283.3,181.9,282.9,181.8,282.4z"/>
	<path class="st19" d="M349.2,294.3v-6.9h2.9c0.6,0,1.1,0.2,1.5,0.5c0.4,0.4,0.6,0.8,0.6,1.3c0,0.6-0.2,1-0.7,1.3v0
		c0.3,0.1,0.5,0.3,0.7,0.6c0.2,0.3,0.3,0.6,0.3,1c0,0.7-0.2,1.2-0.6,1.6c-0.4,0.4-1.1,0.6-2,0.6H349.2z M350.5,293.1h1.6
		c0.6,0,0.9-0.3,0.9-0.9c0-0.3-0.1-0.5-0.3-0.7c-0.2-0.2-0.4-0.2-0.7-0.2h-1.6V293.1z M350.5,290.2h1.4c0.3,0,0.5-0.1,0.6-0.2
		c0.2-0.1,0.2-0.3,0.2-0.6c0-0.3-0.1-0.5-0.2-0.6c-0.2-0.1-0.4-0.2-0.6-0.2h-1.4V290.2z M355.2,291.5v-1h3.2v1H355.2z M359.6,294.3
		v-6.9h2.9c0.6,0,1.1,0.2,1.5,0.5c0.4,0.4,0.6,0.8,0.6,1.3c0,0.6-0.2,1-0.7,1.3v0c0.3,0.1,0.5,0.3,0.7,0.6c0.2,0.3,0.3,0.6,0.3,1
		c0,0.7-0.2,1.2-0.6,1.6c-0.4,0.4-1.1,0.6-2,0.6H359.6z M360.9,293.1h1.6c0.6,0,0.9-0.3,0.9-0.9c0-0.3-0.1-0.5-0.3-0.7
		c-0.2-0.2-0.4-0.2-0.7-0.2h-1.6V293.1z M360.9,290.2h1.4c0.3,0,0.5-0.1,0.6-0.2c0.2-0.1,0.2-0.3,0.2-0.6c0-0.3-0.1-0.5-0.2-0.6
		c-0.2-0.1-0.4-0.2-0.6-0.2h-1.4V290.2z M367.1,292.9c0.2,0.3,0.5,0.4,0.9,0.4c0.4,0,0.7-0.1,0.9-0.4c0.2-0.3,0.3-0.7,0.3-1.2
		c0-0.5-0.1-0.9-0.3-1.2c-0.2-0.3-0.5-0.4-0.9-0.4c-0.4,0-0.7,0.1-0.9,0.4c-0.2,0.3-0.3,0.7-0.3,1.2
		C366.8,292.2,366.9,292.6,367.1,292.9z M369.8,293.7c-0.5,0.5-1,0.7-1.8,0.7c-0.7,0-1.3-0.2-1.8-0.7c-0.5-0.5-0.7-1.2-0.7-2
		c0-0.9,0.2-1.5,0.7-2c0.5-0.5,1.1-0.7,1.7-0.7c0.7,0,1.3,0.2,1.7,0.7c0.5,0.5,0.7,1.2,0.7,2C370.4,292.5,370.2,293.2,369.8,293.7z
		 M370.7,294.3l1.8-2.7l-1.7-2.5h1.3l1.2,1.8h0l1.2-1.8h1.3l-1.7,2.5l1.8,2.7h-1.4l-1.2-1.9h0l-1.2,1.9H370.7z"/>
	<path class="st19" d="M612.9,264.5l-0.4-1.1h-2.6l-0.4,1.1h-1.3l2.5-6.9h1.1l2.5,6.9H612.9z M611.2,259.6l-0.9,2.7h1.9L611.2,259.6
		L611.2,259.6z M614.3,261.8v-1h3.2v1H614.3z M618.7,264.5v-6.9h2.9c0.6,0,1.1,0.2,1.5,0.5c0.4,0.4,0.6,0.8,0.6,1.3
		c0,0.6-0.2,1-0.8,1.3v0c0.3,0.1,0.5,0.3,0.7,0.6c0.2,0.3,0.3,0.6,0.3,1c0,0.7-0.2,1.2-0.6,1.6c-0.4,0.4-1.1,0.6-2,0.6H618.7z
		 M620.1,263.3h1.6c0.6,0,0.9-0.3,0.9-0.9c0-0.3-0.1-0.5-0.3-0.7c-0.2-0.2-0.4-0.2-0.7-0.2h-1.6V263.3z M620.1,260.4h1.4
		c0.3,0,0.5-0.1,0.6-0.2c0.2-0.1,0.2-0.3,0.2-0.6c0-0.3-0.1-0.5-0.2-0.6c-0.2-0.1-0.4-0.2-0.6-0.2h-1.4V260.4z M626.3,263.1
		c0.2,0.3,0.5,0.4,0.9,0.4c0.4,0,0.7-0.1,0.9-0.4c0.2-0.3,0.3-0.7,0.3-1.2c0-0.5-0.1-0.9-0.3-1.2c-0.2-0.3-0.5-0.4-0.9-0.4
		c-0.4,0-0.7,0.1-0.9,0.4c-0.2,0.3-0.3,0.7-0.3,1.2C626,262.4,626.1,262.8,626.3,263.1z M628.9,263.9c-0.5,0.5-1,0.7-1.8,0.7
		c-0.7,0-1.3-0.2-1.8-0.7c-0.5-0.5-0.7-1.2-0.7-2c0-0.9,0.2-1.5,0.7-2c0.5-0.5,1.1-0.7,1.7-0.7c0.7,0,1.3,0.2,1.7,0.7
		c0.5,0.5,0.7,1.2,0.7,2C629.6,262.8,629.4,263.4,628.9,263.9z M629.8,264.5l1.8-2.7l-1.7-2.5h1.3l1.2,1.8h0l1.2-1.8h1.3l-1.7,2.5
		l1.8,2.7h-1.4l-1.2-1.9h0l-1.2,1.9H629.8z"/>
	<path class="st19" d="M619.8,351.6l-0.4-1.1h-2.6l-0.4,1.1h-1.3l2.5-6.9h1.1l2.5,6.9H619.8z M618.1,346.6l-0.9,2.7h1.9L618.1,346.6
		L618.1,346.6z M624.1,348.8v-1h3.2v1H624.1z M631,351.6v-6.9h2.8c0.7,0,1.3,0.2,1.7,0.6c0.4,0.4,0.7,0.9,0.7,1.6
		c0,0.5-0.1,0.9-0.4,1.3c-0.3,0.3-0.6,0.6-1.1,0.7l1.5,2.7h-1.4l-1.4-2.6h-1v2.6H631z M632.3,347.8h1.4c0.8,0,1.1-0.3,1.1-1
		c0-0.7-0.4-1-1.1-1h-1.4V347.8z M640.2,351.6v-0.5h0c0,0,0,0,0,0.1c0,0-0.1,0.1-0.1,0.1c-0.1,0.1-0.2,0.1-0.3,0.2
		c-0.1,0.1-0.2,0.1-0.4,0.2c-0.2,0-0.4,0.1-0.6,0.1c-0.6,0-1.1-0.1-1.4-0.4c-0.3-0.3-0.5-0.7-0.5-1.1c0-0.5,0.1-0.8,0.4-1
		c0.3-0.2,0.7-0.4,1.4-0.6c0.6-0.1,1-0.3,1.1-0.3c0.2-0.1,0.2-0.2,0.2-0.4c0-0.2-0.1-0.3-0.2-0.4c-0.1-0.1-0.4-0.2-0.7-0.2
		c-0.3,0-0.6,0.1-0.8,0.2c-0.2,0.2-0.3,0.4-0.4,0.6l-1.1-0.4c0.1-0.4,0.4-0.8,0.7-1.1c0.4-0.3,0.8-0.4,1.4-0.4
		c0.6,0,1.2,0.2,1.6,0.5c0.4,0.3,0.6,0.9,0.6,1.6v3.3H640.2z M638.9,349.4c-0.3,0.1-0.5,0.2-0.7,0.3c-0.1,0.1-0.1,0.2-0.1,0.4
		c0,0.4,0.3,0.5,0.8,0.5c0.4,0,0.7-0.1,0.9-0.2c0.2-0.2,0.3-0.3,0.3-0.6v-0.9h0c0,0.1-0.1,0.1-0.1,0.1c0,0-0.1,0.1-0.3,0.1
		C639.4,349.3,639.2,349.3,638.9,349.4z M642.5,351.6v-5.2h1.2v0.5h0c0.1-0.2,0.3-0.3,0.5-0.5c0.2-0.1,0.5-0.2,0.7-0.2
		c0.3,0,0.5,0.1,0.8,0.2c0.2,0.1,0.4,0.3,0.6,0.5h0c0.1-0.2,0.3-0.4,0.6-0.5c0.2-0.1,0.5-0.2,0.8-0.2c0.6,0,1.1,0.2,1.5,0.5
		c0.4,0.3,0.6,0.8,0.6,1.3v3.6h-1.2v-3.3c0-0.3-0.1-0.5-0.2-0.6c-0.1-0.2-0.4-0.2-0.7-0.2c-0.3,0-0.5,0.1-0.7,0.2
		c-0.2,0.2-0.2,0.3-0.2,0.6v3.4h-1.2v-3.3c0-0.2-0.1-0.5-0.2-0.6c-0.2-0.2-0.4-0.3-0.7-0.3c-0.3,0-0.5,0.1-0.7,0.2s-0.2,0.3-0.2,0.6
		v3.4H642.5z M652.3,348.4v1.1c0,0.3,0.1,0.6,0.3,0.8c0.2,0.2,0.5,0.3,0.8,0.3c0.4,0,0.7-0.1,0.9-0.4c0.2-0.3,0.4-0.7,0.4-1.2
		c0-0.5-0.1-0.9-0.4-1.2c-0.2-0.3-0.5-0.4-0.9-0.4c-0.3,0-0.6,0.1-0.8,0.3C652.4,347.9,652.3,348.1,652.3,348.4z M651,353.8v-7.4
		h1.2v0.5h0c0,0,0,0,0-0.1c0,0,0.1-0.1,0.1-0.2c0.1-0.1,0.2-0.1,0.3-0.2c0.1-0.1,0.2-0.1,0.4-0.2c0.2,0,0.4-0.1,0.5-0.1
		c0.6,0,1.2,0.2,1.6,0.7c0.5,0.5,0.7,1.2,0.7,2c0,0.9-0.2,1.5-0.7,2c-0.4,0.5-1,0.7-1.6,0.7c-0.2,0-0.4,0-0.5-0.1
		c-0.2,0-0.3-0.1-0.4-0.2c-0.1-0.1-0.2-0.1-0.3-0.2c-0.1-0.1-0.1-0.1-0.2-0.2l0-0.1h0v2.7H651z"/>
	<path class="st19" d="M566.6,431.7l-0.4-1.1h-2.6l-0.4,1.1h-1.3l2.5-6.9h1.1l2.5,6.9H566.6z M564.9,426.7l-0.9,2.7h1.9L564.9,426.7
		L564.9,426.7z M571.3,431.7v-6.9h1.3v5.7h2.8v1.2H571.3z M577.5,430.2c0.2,0.3,0.5,0.4,0.9,0.4c0.4,0,0.7-0.1,0.9-0.4
		c0.2-0.3,0.3-0.7,0.3-1.2s-0.1-0.9-0.3-1.2c-0.2-0.3-0.5-0.4-0.9-0.4c-0.4,0-0.7,0.1-0.9,0.4c-0.2,0.3-0.3,0.7-0.3,1.2
		S577.3,430,577.5,430.2z M580.1,431.1c-0.5,0.5-1,0.7-1.8,0.7c-0.7,0-1.3-0.2-1.8-0.7c-0.5-0.5-0.7-1.2-0.7-2c0-0.9,0.2-1.5,0.7-2
		c0.5-0.5,1.1-0.7,1.7-0.7c0.7,0,1.3,0.2,1.7,0.7c0.5,0.5,0.7,1.2,0.7,2C580.8,429.9,580.6,430.6,580.1,431.1z M581.9,431.7v-5.2
		h1.2v0.5h0c0.1-0.2,0.3-0.3,0.6-0.5c0.2-0.1,0.5-0.2,0.8-0.2c0.6,0,1,0.2,1.4,0.5c0.3,0.3,0.5,0.8,0.5,1.4v3.4h-1.3v-3.1
		c0-0.4-0.1-0.6-0.2-0.8c-0.1-0.2-0.4-0.3-0.7-0.3c-0.3,0-0.6,0.1-0.7,0.3c-0.2,0.2-0.3,0.4-0.3,0.7v3.2H581.9z M591,429.6v-1.1
		c0-0.3-0.1-0.5-0.3-0.8c-0.2-0.2-0.5-0.3-0.8-0.3c-0.4,0-0.7,0.1-0.9,0.4s-0.4,0.7-0.4,1.2s0.1,0.9,0.4,1.2
		c0.2,0.3,0.6,0.4,0.9,0.4c0.3,0,0.6-0.1,0.8-0.3C590.9,430.1,591,429.9,591,429.6z M587.7,432.7l1-0.7c0.2,0.3,0.3,0.5,0.5,0.6
		c0.2,0.1,0.4,0.2,0.7,0.2c0.3,0,0.6-0.1,0.8-0.3c0.2-0.2,0.3-0.4,0.3-0.8v-0.7h0c-0.1,0.2-0.3,0.3-0.5,0.5
		c-0.2,0.1-0.5,0.2-0.8,0.2c-0.7,0-1.2-0.2-1.7-0.7c-0.5-0.5-0.7-1.2-0.7-2c0-0.8,0.2-1.5,0.7-2c0.5-0.5,1-0.7,1.6-0.7
		c0.6,0,1.1,0.2,1.4,0.7h0v-0.5h1.2v5.2c0,0.8-0.2,1.3-0.7,1.8c-0.4,0.4-1,0.6-1.7,0.6c-0.5,0-1-0.1-1.4-0.4
		C588.1,433.4,587.9,433.1,587.7,432.7z"/>
	<path class="st19" d="M432.4,455.2L432,454h-2.6l-0.4,1.1h-1.3l2.5-6.9h1.1l2.5,6.9H432.4z M430.7,450.2l-0.9,2.7h1.9L430.7,450.2
		L430.7,450.2z M437.1,455.2v-6.9h1.3v5.7h2.8v1.2H437.1z M443.3,453.7c0.2,0.3,0.5,0.4,0.9,0.4c0.4,0,0.7-0.1,0.9-0.4
		c0.2-0.3,0.3-0.7,0.3-1.2s-0.1-0.9-0.3-1.2c-0.2-0.3-0.5-0.4-0.9-0.4c-0.4,0-0.7,0.1-0.9,0.4c-0.2,0.3-0.3,0.7-0.3,1.2
		C443,453.1,443.1,453.5,443.3,453.7z M445.9,454.6c-0.5,0.5-1,0.7-1.8,0.7c-0.7,0-1.3-0.2-1.8-0.7c-0.5-0.5-0.7-1.2-0.7-2
		c0-0.9,0.2-1.5,0.7-2c0.5-0.5,1.1-0.7,1.7-0.7c0.7,0,1.3,0.2,1.7,0.7c0.5,0.5,0.7,1.2,0.7,2C446.6,453.4,446.4,454.1,445.9,454.6z
		 M448.9,452.1v1c0,0.3,0.1,0.6,0.3,0.8c0.2,0.2,0.5,0.3,0.8,0.3c0.4,0,0.7-0.1,0.9-0.4c0.2-0.3,0.3-0.7,0.3-1.2
		c0-0.5-0.1-0.9-0.3-1.2c-0.2-0.3-0.5-0.4-0.9-0.4c-0.3,0-0.6,0.1-0.8,0.3C449,451.5,448.9,451.8,448.9,452.1z M447.7,455.2V448h1.3
		v2.5h0c0,0,0,0,0-0.1c0,0,0.1-0.1,0.1-0.2c0.1-0.1,0.2-0.1,0.3-0.2c0.1-0.1,0.2-0.1,0.4-0.2c0.2,0,0.3-0.1,0.5-0.1
		c0.6,0,1.2,0.3,1.6,0.8c0.4,0.5,0.6,1.2,0.6,2c0,0.8-0.2,1.5-0.6,2c-0.4,0.5-1,0.7-1.6,0.7c-0.3,0-0.5-0.1-0.8-0.2
		c-0.2-0.1-0.4-0.2-0.5-0.3l-0.1-0.2h0v0.5H447.7z M454.8,452.1v1c0,0.3,0.1,0.6,0.3,0.8c0.2,0.2,0.5,0.3,0.8,0.3
		c0.4,0,0.7-0.1,0.9-0.4c0.2-0.3,0.3-0.7,0.3-1.2c0-0.5-0.1-0.9-0.3-1.2c-0.2-0.3-0.5-0.4-0.9-0.4c-0.3,0-0.6,0.1-0.8,0.3
		C454.9,451.5,454.8,451.8,454.8,452.1z M453.6,455.2V448h1.3v2.5h0c0,0,0,0,0-0.1c0,0,0.1-0.1,0.1-0.2c0.1-0.1,0.2-0.1,0.3-0.2
		c0.1-0.1,0.2-0.1,0.4-0.2c0.2,0,0.3-0.1,0.5-0.1c0.6,0,1.2,0.3,1.6,0.8c0.4,0.5,0.6,1.2,0.6,2c0,0.8-0.2,1.5-0.6,2
		c-0.4,0.5-1,0.7-1.6,0.7c-0.3,0-0.5-0.1-0.8-0.2c-0.2-0.1-0.4-0.2-0.5-0.3l-0.1-0.2h0v0.5H453.6z M459.7,457.4l1-2.5l-2.1-5h1.3
		l1.4,3.5h0l1.4-3.5h1.3l-3,7.4H459.7z"/>
	<path class="st19" d="M427.8,552.1c-0.9,0-1.6-0.3-2.2-0.9c-0.6-0.6-0.8-1.5-0.8-2.8c0-1.1,0.3-1.9,0.9-2.6
		c0.6-0.6,1.3-0.9,2.1-0.9c0.7,0,1.3,0.2,1.8,0.6c0.5,0.4,0.8,1,0.9,1.7l-1.3,0.2c-0.2-0.9-0.6-1.3-1.3-1.3c-0.5,0-0.8,0.2-1.2,0.6
		c-0.3,0.4-0.5,1-0.5,1.7c0,0.8,0.2,1.5,0.5,1.9c0.3,0.4,0.7,0.6,1.2,0.6c0.4,0,0.8-0.1,1-0.4c0.2-0.2,0.4-0.6,0.4-1h-1.3v-1.1h2.6
		v0.9c0,0.9-0.2,1.6-0.7,2.1C429.2,551.9,428.5,552.1,427.8,552.1z M434.5,552v-0.5h0c0,0,0,0,0,0.1c0,0-0.1,0.1-0.1,0.1
		c-0.1,0.1-0.2,0.1-0.3,0.2c-0.1,0.1-0.2,0.1-0.4,0.2c-0.2,0-0.4,0.1-0.6,0.1c-0.6,0-1.1-0.1-1.4-0.4c-0.3-0.3-0.5-0.7-0.5-1.1
		c0-0.5,0.1-0.8,0.4-1c0.3-0.2,0.7-0.4,1.4-0.6c0.6-0.1,1-0.3,1.1-0.3c0.2-0.1,0.2-0.2,0.2-0.4c0-0.2-0.1-0.3-0.2-0.4
		c-0.1-0.1-0.4-0.2-0.7-0.2c-0.3,0-0.6,0.1-0.8,0.2c-0.2,0.2-0.3,0.4-0.4,0.6l-1.1-0.4c0.1-0.4,0.4-0.8,0.7-1.1
		c0.4-0.3,0.8-0.4,1.4-0.4c0.6,0,1.2,0.2,1.6,0.5c0.4,0.3,0.6,0.9,0.6,1.6v3.3H434.5z M433.2,549.8c-0.3,0.1-0.5,0.2-0.7,0.3
		c-0.1,0.1-0.1,0.2-0.1,0.4c0,0.4,0.3,0.5,0.8,0.5c0.4,0,0.7-0.1,0.9-0.2c0.2-0.2,0.3-0.3,0.3-0.6v-0.9h0c0,0.1-0.1,0.1-0.1,0.1
		c0,0-0.1,0.1-0.3,0.1C433.7,549.7,433.5,549.8,433.2,549.8z M436.8,552v-5.2h1.2v0.6h0c0.1-0.2,0.2-0.4,0.4-0.5
		c0.2-0.1,0.4-0.2,0.6-0.2c0.2,0,0.3,0,0.5,0.1l-0.2,1.2c-0.1-0.1-0.3-0.1-0.4-0.1c-0.6,0-0.9,0.4-0.9,1.2v2.9H436.8z M443.7,549.8
		v-1c0-0.3-0.1-0.6-0.3-0.8c-0.2-0.2-0.5-0.3-0.8-0.3c-0.4,0-0.7,0.1-0.9,0.4c-0.2,0.3-0.3,0.7-0.3,1.2c0,0.5,0.1,0.9,0.3,1.2
		c0.2,0.3,0.5,0.4,0.9,0.4c0.3,0,0.6-0.1,0.8-0.3C443.6,550.4,443.7,550.2,443.7,549.8z M443.8,552v-0.5h0c0,0-0.1,0.1-0.1,0.2
		c-0.1,0.1-0.2,0.2-0.5,0.3c-0.2,0.1-0.5,0.2-0.8,0.2c-0.7,0-1.2-0.2-1.7-0.7c-0.4-0.5-0.6-1.2-0.6-2c0-0.8,0.2-1.5,0.7-2
		c0.4-0.5,1-0.8,1.6-0.8c0.3,0,0.5,0.1,0.7,0.2c0.2,0.1,0.4,0.2,0.5,0.3l0.1,0.2h0v-2.5h1.3v7.2H443.8z M449.7,550.2l0.9,0.8
		c-0.5,0.8-1.3,1.2-2.2,1.2c-0.7,0-1.3-0.2-1.8-0.7c-0.5-0.5-0.7-1.2-0.7-2c0-0.8,0.2-1.5,0.7-2c0.5-0.5,1-0.8,1.7-0.8
		c0.7,0,1.3,0.3,1.7,0.8c0.5,0.5,0.7,1.2,0.7,2v0.4h-3.5c0,0.4,0.1,0.7,0.3,0.9c0.2,0.2,0.5,0.3,0.8,0.3c0.3,0,0.5-0.1,0.7-0.2
		C449.4,550.6,449.6,550.4,449.7,550.2z M447.3,548.8h2.3c0-0.3-0.1-0.6-0.3-0.8c-0.2-0.2-0.5-0.3-0.8-0.3c-0.3,0-0.6,0.1-0.8,0.3
		C447.4,548.2,447.3,548.5,447.3,548.8z M451.9,552v-5.2h1.2v0.5h0c0.1-0.2,0.3-0.3,0.6-0.5s0.5-0.2,0.8-0.2c0.6,0,1,0.2,1.4,0.5
		c0.3,0.3,0.5,0.8,0.5,1.4v3.4h-1.3v-3.1c0-0.4-0.1-0.6-0.2-0.8c-0.1-0.2-0.4-0.3-0.7-0.3c-0.3,0-0.6,0.1-0.7,0.3
		c-0.2,0.2-0.3,0.4-0.3,0.7v3.2H451.9z"/>
	<path class="st19" d="M524,204.5l-0.4-1.1H521l-0.4,1.1h-1.3l2.5-6.9h1.1l2.5,6.9H524z M522.3,199.6l-0.9,2.7h1.9L522.3,199.6
		L522.3,199.6z M530,204.5v-5.7h-2v-1.2h5.4v1.2h-2v5.7H530z M533.6,202.7v-3.4h1.3v3.2c0,0.3,0.1,0.6,0.2,0.7s0.3,0.2,0.6,0.2
		c0.3,0,0.6-0.1,0.7-0.2c0.2-0.2,0.3-0.4,0.3-0.8v-3.1h1.3v5.2h-1.2V204h0c-0.3,0.4-0.8,0.7-1.4,0.7c-0.6,0-1.1-0.2-1.4-0.5
		C533.8,203.8,533.6,203.3,533.6,202.7z M539.4,204.5v-5.2h1.2v0.5h0c0.1-0.2,0.3-0.3,0.6-0.5c0.2-0.1,0.5-0.2,0.8-0.2
		c0.6,0,1,0.2,1.4,0.5c0.3,0.3,0.5,0.8,0.5,1.4v3.4h-1.3v-3.1c0-0.4-0.1-0.6-0.2-0.8c-0.1-0.2-0.4-0.3-0.7-0.3
		c-0.3,0-0.6,0.1-0.7,0.3c-0.2,0.2-0.3,0.4-0.3,0.7v3.2H539.4z M545.2,204.5v-5.2h1.2v0.5h0c0.1-0.2,0.3-0.3,0.6-0.5
		c0.2-0.1,0.5-0.2,0.8-0.2c0.6,0,1,0.2,1.4,0.5c0.3,0.3,0.5,0.8,0.5,1.4v3.4h-1.3v-3.1c0-0.4-0.1-0.6-0.2-0.8
		c-0.1-0.2-0.4-0.3-0.7-0.3c-0.3,0-0.6,0.1-0.7,0.3c-0.2,0.2-0.3,0.4-0.3,0.7v3.2H545.2z M554.4,202.7l0.9,0.8
		c-0.5,0.8-1.3,1.2-2.2,1.2c-0.7,0-1.3-0.2-1.8-0.8c-0.5-0.5-0.7-1.2-0.7-2c0-0.8,0.2-1.5,0.7-2c0.5-0.5,1-0.8,1.7-0.8
		c0.7,0,1.3,0.3,1.7,0.8c0.5,0.5,0.7,1.2,0.7,2v0.4H552c0,0.4,0.1,0.7,0.3,0.9c0.2,0.2,0.5,0.3,0.8,0.3c0.3,0,0.5-0.1,0.7-0.2
		C554,203.2,554.2,203,554.4,202.7z M552,201.3h2.3c0-0.3-0.1-0.6-0.3-0.8c-0.2-0.2-0.5-0.3-0.8-0.3c-0.3,0-0.6,0.1-0.8,0.3
		C552.1,200.8,552,201,552,201.3z M556.5,204.5v-7.2h1.3v7.2H556.5z"/>
	<path class="st19" d="M475.3,273l-0.4-1.1h-2.6l-0.4,1.1h-1.3l2.5-6.9h1.1l2.5,6.9H475.3z M473.6,268.1l-0.9,2.7h1.9L473.6,268.1
		L473.6,268.1z M480,273v-6.9h1.3v5.7h2.8v1.2H480z M485,273v-5.2h1.3v5.2H485z M485,267v-1.2h1.3v1.2H485z M487.7,273v-5.2h1.2v0.5
		h0c0.1-0.2,0.3-0.3,0.6-0.5s0.5-0.2,0.8-0.2c0.6,0,1,0.2,1.4,0.5c0.3,0.3,0.5,0.8,0.5,1.4v3.4h-1.3v-3.1c0-0.4-0.1-0.6-0.2-0.8
		c-0.1-0.2-0.4-0.3-0.7-0.3c-0.3,0-0.6,0.1-0.7,0.3c-0.2,0.2-0.3,0.4-0.3,0.7v3.2H487.7z M493.5,273v-7.2h1.3v4.1h0l1.9-2.2h1.6
		l-1.9,2.1l2.1,3.1H497l-1.6-2.4h0l-0.7,0.8v1.6H493.5z"/>
	<path class="st19" d="M605.6,225.7v-6.9h2.9c0.6,0,1.1,0.2,1.5,0.5c0.4,0.4,0.6,0.8,0.6,1.3c0,0.6-0.2,1-0.7,1.3v0
		c0.3,0.1,0.5,0.3,0.7,0.6c0.2,0.3,0.3,0.6,0.3,1c0,0.7-0.2,1.2-0.6,1.6c-0.4,0.4-1.1,0.6-2,0.6H605.6z M607,224.4h1.6
		c0.6,0,0.9-0.3,0.9-0.9c0-0.3-0.1-0.5-0.3-0.7c-0.2-0.2-0.4-0.2-0.7-0.2H607V224.4z M607,221.6h1.4c0.3,0,0.5-0.1,0.6-0.2
		c0.2-0.1,0.2-0.3,0.2-0.6c0-0.3-0.1-0.5-0.2-0.6c-0.2-0.1-0.4-0.2-0.6-0.2H607V221.6z M613.2,224.3c0.2,0.3,0.5,0.4,0.9,0.4
		c0.4,0,0.7-0.1,0.9-0.4c0.2-0.3,0.3-0.7,0.3-1.2c0-0.5-0.1-0.9-0.3-1.2c-0.2-0.3-0.5-0.4-0.9-0.4c-0.4,0-0.7,0.1-0.9,0.4
		c-0.2,0.3-0.3,0.7-0.3,1.2C612.8,223.6,612.9,224,613.2,224.3z M615.8,225.1c-0.5,0.5-1,0.7-1.8,0.7c-0.7,0-1.3-0.2-1.8-0.7
		c-0.5-0.5-0.7-1.2-0.7-2c0-0.9,0.2-1.5,0.7-2s1.1-0.7,1.7-0.7c0.7,0,1.3,0.2,1.7,0.7c0.5,0.5,0.7,1.2,0.7,2
		C616.5,223.9,616.2,224.6,615.8,225.1z M617.8,223.8v-2.3H617v-1.1h0.8v-1.3h1.2v1.3h1.3v1.1H619v2.2c0,0.3,0,0.5,0.1,0.6
		c0.1,0.1,0.3,0.2,0.6,0.2h0.4v1.2h-0.5c-0.7,0-1.2-0.1-1.5-0.4C617.9,224.9,617.8,224.5,617.8,223.8z M621.5,223.8v-2.3h-0.8v-1.1
		h0.8v-1.3h1.2v1.3h1.3v1.1h-1.3v2.2c0,0.3,0,0.5,0.1,0.6c0.1,0.1,0.3,0.2,0.6,0.2h0.4v1.2h-0.5c-0.7,0-1.2-0.1-1.4-0.4
		C621.6,224.9,621.5,224.5,621.5,223.8z M626.3,224.3c0.2,0.3,0.5,0.4,0.9,0.4c0.4,0,0.7-0.1,0.9-0.4c0.2-0.3,0.3-0.7,0.3-1.2
		c0-0.5-0.1-0.9-0.3-1.2c-0.2-0.3-0.5-0.4-0.9-0.4c-0.4,0-0.7,0.1-0.9,0.4c-0.2,0.3-0.3,0.7-0.3,1.2
		C626,223.6,626.1,224,626.3,224.3z M628.9,225.1c-0.5,0.5-1,0.7-1.8,0.7c-0.7,0-1.3-0.2-1.8-0.7c-0.5-0.5-0.7-1.2-0.7-2
		c0-0.9,0.2-1.5,0.7-2c0.5-0.5,1.1-0.7,1.7-0.7c0.7,0,1.3,0.2,1.7,0.7c0.5,0.5,0.7,1.2,0.7,2C629.6,223.9,629.4,224.6,628.9,225.1z
		 M630.6,225.7v-5.2h1.2v0.5h0c0.1-0.2,0.3-0.3,0.5-0.5c0.2-0.1,0.5-0.2,0.7-0.2c0.3,0,0.5,0.1,0.8,0.2c0.2,0.1,0.4,0.3,0.6,0.5h0
		c0.1-0.2,0.3-0.4,0.6-0.5c0.2-0.1,0.5-0.2,0.8-0.2c0.6,0,1.1,0.2,1.5,0.5c0.4,0.3,0.6,0.8,0.6,1.3v3.6h-1.2v-3.3
		c0-0.3-0.1-0.5-0.2-0.6c-0.1-0.2-0.4-0.2-0.7-0.2c-0.3,0-0.5,0.1-0.7,0.2c-0.2,0.2-0.2,0.3-0.2,0.6v3.4h-1.2v-3.3
		c0-0.2-0.1-0.5-0.2-0.6c-0.2-0.2-0.4-0.3-0.7-0.3c-0.3,0-0.5,0.1-0.7,0.2c-0.2,0.2-0.2,0.3-0.2,0.6v3.4H630.6z M645.7,225.7
		l-0.4-1.1h-2.6l-0.4,1.1H641l2.5-6.9h1.1l2.5,6.9H645.7z M644,220.8l-0.9,2.7h1.9L644,220.8L644,220.8z M614.1,235.9l-0.5,0.4
		c-0.1-0.1-0.2-0.2-0.4-0.4c-0.1-0.2-0.3-0.5-0.5-0.9c-0.2-0.4-0.4-0.8-0.5-1.3c-0.1-0.5-0.2-1-0.2-1.6c0-0.4,0-0.8,0.1-1.2
		c0.1-0.4,0.2-0.8,0.4-1c0.1-0.3,0.3-0.5,0.5-0.8c0.2-0.3,0.3-0.4,0.4-0.5c0.1-0.1,0.2-0.2,0.3-0.3l0.5,0.4c-0.4,0.5-0.8,1.1-1,1.6
		c-0.2,0.5-0.3,1.1-0.3,1.9c0,0.7,0.1,1.4,0.4,2.1C613.4,234.8,613.7,235.4,614.1,235.9z M616.1,232.1v0.8c0,0.3,0.1,0.5,0.2,0.7
		c0.2,0.2,0.4,0.3,0.7,0.3c0.3,0,0.6-0.1,0.7-0.3c0.2-0.2,0.3-0.6,0.3-1c0-0.4-0.1-0.8-0.3-1c-0.2-0.2-0.4-0.3-0.7-0.3
		c-0.3,0-0.5,0.1-0.7,0.3C616.2,231.6,616.1,231.8,616.1,232.1z M615,234.7v-6h1.1v2.1h0c0,0,0,0,0-0.1c0,0,0.1-0.1,0.1-0.1
		c0.1-0.1,0.1-0.1,0.2-0.2c0.1-0.1,0.2-0.1,0.3-0.1c0.1,0,0.3-0.1,0.4-0.1c0.5,0,1,0.2,1.3,0.6c0.4,0.4,0.5,1,0.5,1.7
		c0,0.7-0.2,1.3-0.5,1.7c-0.3,0.4-0.8,0.6-1.4,0.6c-0.2,0-0.4,0-0.6-0.1c-0.2-0.1-0.3-0.2-0.4-0.3l-0.1-0.1h0v0.4H615z M622.8,233.2
		l0.7,0.7c-0.4,0.6-1,1-1.8,1c-0.6,0-1.1-0.2-1.5-0.6c-0.4-0.4-0.6-1-0.6-1.7c0-0.7,0.2-1.3,0.6-1.7c0.4-0.4,0.9-0.6,1.4-0.6
		s1.1,0.2,1.4,0.6c0.4,0.4,0.6,1,0.6,1.7v0.3h-2.9c0,0.3,0.1,0.6,0.3,0.8c0.2,0.2,0.4,0.3,0.7,0.3c0.2,0,0.4-0.1,0.6-0.2
		C622.5,233.6,622.6,233.4,622.8,233.2z M620.7,232h1.9c0-0.3-0.1-0.5-0.3-0.6c-0.2-0.2-0.4-0.2-0.7-0.2c-0.3,0-0.5,0.1-0.6,0.3
		C620.9,231.6,620.8,231.8,620.7,232z M624.5,234.7v-6h1.1v6H624.5z M627.8,233.5c0.2,0.2,0.4,0.3,0.7,0.3s0.5-0.1,0.7-0.3
		c0.2-0.2,0.3-0.6,0.3-1s-0.1-0.8-0.3-1c-0.2-0.2-0.4-0.4-0.7-0.4s-0.5,0.1-0.7,0.3c-0.2,0.2-0.3,0.6-0.3,1S627.6,233.3,627.8,233.5
		z M630,234.2c-0.4,0.4-0.9,0.6-1.5,0.6c-0.6,0-1.1-0.2-1.5-0.6c-0.4-0.4-0.6-1-0.6-1.7c0-0.7,0.2-1.3,0.6-1.7
		c0.4-0.4,0.9-0.6,1.4-0.6s1.1,0.2,1.4,0.6c0.4,0.4,0.6,1,0.6,1.7C630.6,233.2,630.4,233.8,630,234.2z M632.1,234.7l-1-4.4h1
		l0.6,2.9h0l1-2.9h1l0.9,2.9h0l0.7-2.9h1l-1,4.4h-1.1l-1-3.1h0l-1.1,3.1H632.1z M638.4,236.3l-0.5-0.4c0.4-0.5,0.7-1,0.9-1.7
		c0.2-0.7,0.4-1.3,0.4-2.1c0-0.8-0.1-1.4-0.3-1.9c-0.2-0.5-0.5-1-1-1.6l0.5-0.4c0.1,0.1,0.2,0.2,0.3,0.3c0.1,0.1,0.2,0.3,0.4,0.5
		c0.2,0.3,0.3,0.5,0.5,0.8c0.1,0.3,0.2,0.6,0.3,1c0.1,0.4,0.2,0.8,0.2,1.2c0,0.5-0.1,1.1-0.2,1.6c-0.1,0.5-0.3,1-0.5,1.3
		c-0.2,0.4-0.4,0.6-0.5,0.9C638.6,236.1,638.5,236.2,638.4,236.3z"/>
	<path class="st19" d="M233.1,291.4l1.4,0.3c-0.1,0.8-0.4,1.4-0.9,1.9c-0.5,0.5-1.1,0.7-1.9,0.7c-0.9,0-1.6-0.3-2.2-0.9
		c-0.6-0.6-0.8-1.5-0.8-2.8c0-1.1,0.3-1.9,0.9-2.6c0.6-0.6,1.3-0.9,2.1-0.9c0.7,0,1.3,0.2,1.8,0.7c0.5,0.4,0.8,1,0.9,1.8l-1.3,0.2
		c-0.1-0.4-0.2-0.8-0.4-1c-0.2-0.3-0.5-0.4-0.9-0.4c-0.5,0-0.8,0.2-1.2,0.6c-0.3,0.4-0.5,1-0.5,1.7c0,0.8,0.2,1.5,0.5,1.9
		c0.3,0.4,0.7,0.6,1.2,0.6C232.5,293.1,233,292.5,233.1,291.4z M238.7,294.2l-1.2-5.2h1.3l0.7,3.5h0l1.2-3.5h1.2l1.1,3.5h0l0.8-3.5
		h1.2l-1.3,5.2h-1.3l-1.2-3.8h0l-1.3,3.8H238.7z M246,294.2v-5.2h1.3v5.2H246z M246,288.2V287h1.3v1.2H246z M248.6,294.2v-5.2h1.2
		v0.5h0c0.1-0.2,0.3-0.3,0.6-0.5s0.5-0.2,0.8-0.2c0.6,0,1,0.2,1.4,0.5c0.3,0.3,0.5,0.8,0.5,1.4v3.4h-1.3v-3.1c0-0.4-0.1-0.6-0.2-0.8
		c-0.1-0.2-0.4-0.3-0.7-0.3c-0.3,0-0.6,0.1-0.7,0.3c-0.2,0.2-0.3,0.4-0.3,0.7v3.2H248.6z M257.7,292v-1c0-0.3-0.1-0.6-0.3-0.8
		c-0.2-0.2-0.5-0.3-0.8-0.3c-0.4,0-0.7,0.1-0.9,0.4c-0.2,0.3-0.3,0.7-0.3,1.2c0,0.5,0.1,0.9,0.3,1.2c0.2,0.3,0.5,0.4,0.9,0.4
		c0.3,0,0.6-0.1,0.8-0.3C257.6,292.6,257.7,292.3,257.7,292z M257.8,294.2v-0.5h0c0,0-0.1,0.1-0.1,0.2c-0.1,0.1-0.2,0.2-0.5,0.3
		c-0.2,0.1-0.5,0.2-0.8,0.2c-0.7,0-1.2-0.2-1.7-0.7c-0.4-0.5-0.6-1.2-0.6-2c0-0.8,0.2-1.5,0.7-2c0.4-0.5,1-0.8,1.6-0.8
		c0.3,0,0.5,0.1,0.7,0.2c0.2,0.1,0.4,0.2,0.5,0.3l0.1,0.2h0V287h1.3v7.2H257.8z M261.6,292.7c0.2,0.3,0.5,0.4,0.9,0.4
		c0.4,0,0.7-0.1,0.9-0.4c0.2-0.3,0.3-0.7,0.3-1.2s-0.1-0.9-0.3-1.2c-0.2-0.3-0.5-0.4-0.9-0.4c-0.4,0-0.7,0.1-0.9,0.4
		c-0.2,0.3-0.3,0.7-0.3,1.2C261.3,292.1,261.4,292.5,261.6,292.7z M264.2,293.6c-0.5,0.5-1,0.7-1.8,0.7c-0.7,0-1.3-0.2-1.8-0.7
		c-0.5-0.5-0.7-1.2-0.7-2c0-0.9,0.2-1.5,0.7-2c0.5-0.5,1.1-0.7,1.7-0.7c0.7,0,1.3,0.2,1.7,0.7c0.5,0.5,0.7,1.2,0.7,2
		C264.9,292.4,264.7,293.1,264.2,293.6z M266.7,294.2l-1.2-5.2h1.3l0.7,3.5h0l1.2-3.5h1.2l1.1,3.5h0l0.8-3.5h1.2l-1.3,5.2h-1.3
		l-1.2-3.8h0l-1.3,3.8H266.7z"/>
	<path class="st19" d="M243.7,339.6c-0.9,0-1.6-0.3-2.2-0.9c-0.6-0.6-0.8-1.5-0.8-2.8c0-1.1,0.3-1.9,0.9-2.6
		c0.6-0.6,1.3-0.9,2.1-0.9c0.7,0,1.3,0.2,1.8,0.6c0.5,0.4,0.8,1,0.9,1.7L245,335c-0.2-0.9-0.6-1.3-1.3-1.3c-0.5,0-0.8,0.2-1.2,0.6
		c-0.3,0.4-0.5,1-0.5,1.7c0,0.8,0.2,1.5,0.5,1.9c0.3,0.4,0.7,0.6,1.2,0.6c0.4,0,0.8-0.1,1-0.4c0.2-0.2,0.4-0.6,0.4-1h-1.3v-1.1h2.6
		v0.9c0,0.9-0.2,1.6-0.7,2.1C245.1,339.4,244.5,339.6,243.7,339.6z M250.4,339.5V339h0c0,0,0,0-0.1,0.1c0,0-0.1,0.1-0.1,0.1
		c-0.1,0.1-0.2,0.1-0.3,0.2c-0.1,0.1-0.2,0.1-0.4,0.2c-0.2,0-0.4,0.1-0.6,0.1c-0.6,0-1.1-0.1-1.4-0.4c-0.3-0.3-0.5-0.7-0.5-1.1
		c0-0.5,0.1-0.8,0.4-1c0.3-0.2,0.7-0.4,1.4-0.6c0.6-0.1,1-0.3,1.1-0.3c0.2-0.1,0.2-0.2,0.2-0.4c0-0.2-0.1-0.3-0.2-0.4
		c-0.1-0.1-0.4-0.2-0.7-0.2c-0.3,0-0.6,0.1-0.8,0.2c-0.2,0.2-0.3,0.4-0.4,0.6l-1.1-0.4c0.1-0.4,0.4-0.8,0.7-1.1
		c0.4-0.3,0.8-0.4,1.4-0.4c0.6,0,1.2,0.2,1.6,0.5c0.4,0.3,0.6,0.9,0.6,1.6v3.3H250.4z M249.1,337.3c-0.3,0.1-0.5,0.2-0.7,0.3
		c-0.1,0.1-0.1,0.2-0.1,0.4c0,0.4,0.3,0.5,0.8,0.5c0.4,0,0.7-0.1,0.9-0.2c0.2-0.2,0.3-0.3,0.3-0.6v-0.9h0c0,0.1-0.1,0.1-0.1,0.1
		c0,0-0.1,0.1-0.3,0.1C249.7,337.2,249.5,337.3,249.1,337.3z M252.8,339.5v-5.2h1.2v0.6h0c0.1-0.2,0.2-0.4,0.4-0.5
		c0.2-0.1,0.4-0.2,0.6-0.2c0.2,0,0.3,0,0.5,0.1l-0.2,1.2c-0.1-0.1-0.3-0.1-0.4-0.1c-0.6,0-0.9,0.4-0.9,1.2v2.9H252.8z M259.4,339.5
		V339h0c0,0,0,0,0,0.1c0,0-0.1,0.1-0.1,0.1c-0.1,0.1-0.2,0.1-0.3,0.2s-0.2,0.1-0.4,0.2c-0.2,0-0.4,0.1-0.6,0.1
		c-0.6,0-1.1-0.1-1.4-0.4c-0.3-0.3-0.5-0.7-0.5-1.1c0-0.5,0.1-0.8,0.4-1c0.3-0.2,0.7-0.4,1.4-0.6c0.6-0.1,1-0.3,1.1-0.3
		c0.2-0.1,0.2-0.2,0.2-0.4c0-0.2-0.1-0.3-0.2-0.4c-0.1-0.1-0.4-0.2-0.7-0.2c-0.3,0-0.6,0.1-0.8,0.2c-0.2,0.2-0.3,0.4-0.4,0.6
		l-1.1-0.4c0.1-0.4,0.4-0.8,0.7-1.1c0.4-0.3,0.8-0.4,1.4-0.4c0.6,0,1.2,0.2,1.6,0.5c0.4,0.3,0.6,0.9,0.6,1.6v3.3H259.4z
		 M258.1,337.3c-0.3,0.1-0.5,0.2-0.6,0.3c-0.1,0.1-0.1,0.2-0.1,0.4c0,0.4,0.3,0.5,0.8,0.5c0.4,0,0.7-0.1,0.9-0.2
		c0.2-0.2,0.3-0.3,0.3-0.6v-0.9h0c0,0.1-0.1,0.1-0.1,0.1c0,0-0.1,0.1-0.3,0.1C258.7,337.2,258.4,337.3,258.1,337.3z M265.1,337.4
		v-1.1c0-0.3-0.1-0.5-0.3-0.8c-0.2-0.2-0.5-0.3-0.8-0.3c-0.4,0-0.7,0.1-0.9,0.4c-0.2,0.3-0.4,0.7-0.4,1.2c0,0.5,0.1,0.9,0.4,1.2
		c0.2,0.3,0.6,0.4,0.9,0.4c0.3,0,0.6-0.1,0.8-0.3C265,338,265.1,337.7,265.1,337.4z M261.8,340.5l1-0.7c0.2,0.3,0.3,0.5,0.5,0.6
		c0.2,0.1,0.4,0.2,0.7,0.2c0.3,0,0.6-0.1,0.8-0.3c0.2-0.2,0.3-0.4,0.3-0.8V339h0c-0.1,0.2-0.3,0.3-0.5,0.5c-0.2,0.1-0.5,0.2-0.8,0.2
		c-0.7,0-1.2-0.2-1.7-0.7c-0.5-0.5-0.7-1.2-0.7-2c0-0.8,0.2-1.5,0.7-2c0.5-0.5,1-0.7,1.6-0.7c0.6,0,1.1,0.2,1.4,0.7h0v-0.5h1.2v5.2
		c0,0.8-0.2,1.3-0.7,1.8c-0.4,0.4-1,0.6-1.7,0.6c-0.5,0-1-0.1-1.4-0.4C262.2,341.3,262,340.9,261.8,340.5z M271.1,337.7l0.9,0.8
		c-0.5,0.8-1.3,1.2-2.2,1.2c-0.7,0-1.3-0.2-1.8-0.8c-0.5-0.5-0.7-1.2-0.7-2c0-0.8,0.2-1.5,0.7-2c0.5-0.5,1-0.8,1.7-0.8
		c0.7,0,1.3,0.3,1.7,0.8c0.5,0.5,0.7,1.2,0.7,2v0.4h-3.5c0,0.4,0.1,0.7,0.3,0.9c0.2,0.2,0.5,0.3,0.8,0.3c0.3,0,0.5-0.1,0.7-0.2
		C270.7,338.1,270.9,337.9,271.1,337.7z M268.7,336.3h2.3c0-0.3-0.1-0.6-0.3-0.8c-0.2-0.2-0.5-0.3-0.8-0.3c-0.3,0-0.6,0.1-0.8,0.3
		C268.8,335.7,268.7,336,268.7,336.3z"/>
	<path class="st19" d="M178.5,332.9l1.4,0.3c-0.1,0.8-0.4,1.4-0.9,1.9c-0.5,0.5-1.1,0.7-1.9,0.7c-0.9,0-1.6-0.3-2.2-0.9
		c-0.6-0.6-0.8-1.5-0.8-2.8c0-1.1,0.3-1.9,0.9-2.6c0.6-0.6,1.3-0.9,2.1-0.9c0.7,0,1.3,0.2,1.8,0.7c0.5,0.4,0.8,1,0.9,1.8l-1.3,0.2
		c-0.1-0.4-0.2-0.8-0.4-1c-0.2-0.3-0.5-0.4-0.9-0.4c-0.5,0-0.8,0.2-1.2,0.6c-0.3,0.4-0.5,1-0.5,1.7c0,0.8,0.2,1.5,0.5,1.9
		c0.3,0.4,0.7,0.6,1.2,0.6C177.9,334.6,178.4,334,178.5,332.9z M182.1,334.2c0.2,0.3,0.5,0.4,0.9,0.4c0.4,0,0.7-0.1,0.9-0.4
		c0.2-0.3,0.3-0.7,0.3-1.2c0-0.5-0.1-0.9-0.3-1.2c-0.2-0.3-0.5-0.4-0.9-0.4c-0.4,0-0.7,0.1-0.9,0.4c-0.2,0.3-0.3,0.7-0.3,1.2
		C181.8,333.6,181.9,334,182.1,334.2z M184.8,335.1c-0.5,0.5-1,0.7-1.8,0.7c-0.7,0-1.3-0.2-1.8-0.7c-0.5-0.5-0.7-1.2-0.7-2
		c0-0.9,0.2-1.5,0.7-2c0.5-0.5,1.1-0.7,1.7-0.7c0.7,0,1.3,0.2,1.7,0.7c0.5,0.5,0.7,1.2,0.7,2C185.5,333.9,185.2,334.6,184.8,335.1z
		 M186.5,335.7v-5.2h1.2v0.5h0c0.1-0.2,0.3-0.3,0.6-0.5s0.5-0.2,0.8-0.2c0.6,0,1,0.2,1.4,0.5c0.3,0.3,0.5,0.8,0.5,1.4v3.4h-1.3v-3.1
		c0-0.4-0.1-0.6-0.2-0.8c-0.1-0.2-0.4-0.3-0.7-0.3c-0.3,0-0.6,0.1-0.7,0.3c-0.2,0.2-0.3,0.4-0.3,0.7v3.2H186.5z M192.3,335.7v-5.2
		h1.2v0.5h0c0.1-0.2,0.3-0.3,0.6-0.5s0.5-0.2,0.8-0.2c0.6,0,1,0.2,1.4,0.5c0.3,0.3,0.5,0.8,0.5,1.4v3.4h-1.3v-3.1
		c0-0.4-0.1-0.6-0.2-0.8c-0.1-0.2-0.4-0.3-0.7-0.3c-0.3,0-0.6,0.1-0.7,0.3c-0.2,0.2-0.3,0.4-0.3,0.7v3.2H192.3z M201.5,333.9
		l0.9,0.8c-0.5,0.8-1.3,1.2-2.2,1.2c-0.7,0-1.3-0.2-1.8-0.7c-0.5-0.5-0.7-1.2-0.7-2c0-0.8,0.2-1.5,0.7-2c0.5-0.5,1-0.8,1.7-0.8
		c0.7,0,1.3,0.3,1.7,0.8c0.5,0.5,0.7,1.2,0.7,2v0.4h-3.5c0,0.4,0.1,0.7,0.3,0.9c0.2,0.2,0.5,0.3,0.8,0.3c0.3,0,0.5-0.1,0.7-0.2
		C201.2,334.3,201.4,334.1,201.5,333.9z M199.1,332.5h2.3c0-0.3-0.1-0.6-0.3-0.8c-0.2-0.2-0.5-0.3-0.8-0.3c-0.3,0-0.6,0.1-0.8,0.3
		C199.2,331.9,199.1,332.2,199.1,332.5z M206.8,333.6l1.2,0.3c-0.1,0.6-0.4,1.1-0.8,1.4c-0.4,0.3-0.9,0.5-1.5,0.5
		c-0.7,0-1.3-0.2-1.8-0.7c-0.5-0.5-0.7-1.2-0.7-2c0-0.9,0.2-1.5,0.7-2c0.5-0.5,1.1-0.7,1.7-0.7c0.6,0,1.1,0.2,1.5,0.5
		c0.4,0.3,0.6,0.8,0.7,1.4l-1.2,0.2c-0.1-0.6-0.5-1-1-1c-0.4,0-0.7,0.1-0.9,0.4c-0.2,0.3-0.3,0.7-0.3,1.2c0,0.5,0.1,0.9,0.3,1.2
		c0.2,0.3,0.5,0.4,0.9,0.4C206.3,334.7,206.7,334.3,206.8,333.6z M209.2,333.8v-2.3h-0.8v-1.1h0.8v-1.3h1.2v1.3h1.3v1.1h-1.3v2.2
		c0,0.3,0,0.5,0.1,0.6c0.1,0.1,0.3,0.2,0.6,0.2h0.4v1.2h-0.5c-0.7,0-1.2-0.1-1.4-0.4C209.4,334.9,209.2,334.5,209.2,333.8z
		 M214,334.2c0.2,0.3,0.5,0.4,0.9,0.4c0.4,0,0.7-0.1,0.9-0.4c0.2-0.3,0.3-0.7,0.3-1.2c0-0.5-0.1-0.9-0.3-1.2
		c-0.2-0.3-0.5-0.4-0.9-0.4c-0.4,0-0.7,0.1-0.9,0.4c-0.2,0.3-0.3,0.7-0.3,1.2C213.7,333.6,213.8,334,214,334.2z M216.6,335.1
		c-0.5,0.5-1,0.7-1.8,0.7c-0.7,0-1.3-0.2-1.8-0.7c-0.5-0.5-0.7-1.2-0.7-2c0-0.9,0.2-1.5,0.7-2c0.5-0.5,1.1-0.7,1.7-0.7
		c0.7,0,1.3,0.2,1.7,0.7c0.5,0.5,0.7,1.2,0.7,2C217.3,333.9,217.1,334.6,216.6,335.1z M218.4,335.7v-5.2h1.2v0.6h0
		c0.1-0.2,0.2-0.4,0.4-0.5c0.2-0.1,0.4-0.2,0.6-0.2c0.2,0,0.3,0,0.5,0.1l-0.2,1.2c-0.1-0.1-0.3-0.1-0.4-0.1c-0.6,0-0.9,0.4-0.9,1.2
		v2.9H218.4z"/>
	<path class="st19" d="M83.3,394.1l1.4,0.3c-0.1,0.8-0.4,1.4-0.9,1.9c-0.5,0.5-1.1,0.7-1.9,0.7c-0.9,0-1.6-0.3-2.2-0.9
		c-0.6-0.6-0.8-1.5-0.8-2.8c0-1.1,0.3-1.9,0.9-2.6c0.6-0.6,1.3-0.9,2.1-0.9c0.7,0,1.3,0.2,1.8,0.7c0.5,0.4,0.8,1,0.9,1.8l-1.3,0.2
		c-0.1-0.4-0.2-0.8-0.4-1c-0.2-0.3-0.5-0.4-0.9-0.4c-0.5,0-0.8,0.2-1.2,0.6c-0.3,0.4-0.5,1-0.5,1.7c0,0.8,0.2,1.5,0.5,1.9
		c0.3,0.4,0.7,0.6,1.2,0.6C82.8,395.8,83.2,395.2,83.3,394.1z M87.9,394.1v-1h3.2v1H87.9z M94.8,396.9V390h1.3v5.7H99v1.2H94.8z
		 M101.1,395.5c0.2,0.3,0.5,0.4,0.9,0.4c0.4,0,0.7-0.1,0.9-0.4c0.2-0.3,0.3-0.7,0.3-1.2s-0.1-0.9-0.3-1.2c-0.2-0.3-0.5-0.4-0.9-0.4
		c-0.4,0-0.7,0.1-0.9,0.4c-0.2,0.3-0.3,0.7-0.3,1.2C100.7,394.8,100.9,395.2,101.1,395.5z M103.7,396.3c-0.5,0.5-1,0.7-1.8,0.7
		s-1.3-0.2-1.8-0.7c-0.5-0.5-0.7-1.2-0.7-2c0-0.9,0.2-1.5,0.7-2c0.5-0.5,1.1-0.7,1.7-0.7c0.7,0,1.3,0.2,1.7,0.7
		c0.5,0.5,0.7,1.2,0.7,2C104.4,395.1,104.1,395.8,103.7,396.3z M105.4,396.9v-5.2h1.2v0.5h0c0.1-0.2,0.3-0.3,0.6-0.5
		s0.5-0.2,0.8-0.2c0.6,0,1,0.2,1.4,0.5c0.3,0.3,0.5,0.8,0.5,1.4v3.4h-1.3v-3.1c0-0.4-0.1-0.6-0.2-0.8c-0.1-0.2-0.4-0.3-0.7-0.3
		c-0.3,0-0.6,0.1-0.7,0.3c-0.2,0.2-0.3,0.4-0.3,0.7v3.2H105.4z M114.6,394.8v-1.1c0-0.3-0.1-0.5-0.3-0.7c-0.2-0.2-0.5-0.3-0.8-0.3
		c-0.4,0-0.7,0.1-0.9,0.4c-0.2,0.3-0.4,0.7-0.4,1.2c0,0.5,0.1,0.9,0.4,1.2c0.2,0.3,0.6,0.4,0.9,0.4c0.3,0,0.6-0.1,0.8-0.3
		C114.5,395.4,114.6,395.1,114.6,394.8z M111.3,398l1-0.7c0.2,0.3,0.3,0.5,0.5,0.6c0.2,0.1,0.4,0.2,0.7,0.2c0.3,0,0.6-0.1,0.8-0.3
		c0.2-0.2,0.3-0.4,0.3-0.8v-0.7h0c-0.1,0.2-0.3,0.3-0.5,0.5c-0.2,0.1-0.5,0.2-0.8,0.2c-0.7,0-1.2-0.2-1.7-0.7
		c-0.5-0.5-0.7-1.2-0.7-2c0-0.8,0.2-1.5,0.7-2c0.5-0.5,1-0.8,1.6-0.8c0.6,0,1.1,0.2,1.4,0.7h0v-0.5h1.2v5.2c0,0.8-0.2,1.3-0.7,1.8
		c-0.4,0.4-1,0.6-1.7,0.6c-0.5,0-1-0.1-1.4-0.4C111.7,398.7,111.4,398.3,111.3,398z"/>
	<path class="st19" d="M167.7,510.4l1.4,0.3c-0.1,0.8-0.4,1.4-0.9,1.9c-0.5,0.5-1.1,0.7-1.9,0.7c-0.9,0-1.6-0.3-2.2-0.9
		c-0.6-0.6-0.8-1.5-0.8-2.8c0-1.1,0.3-1.9,0.9-2.6c0.6-0.6,1.3-0.9,2.1-0.9c0.7,0,1.3,0.2,1.8,0.7c0.5,0.4,0.8,1,0.9,1.8l-1.3,0.2
		c-0.1-0.4-0.2-0.8-0.4-1c-0.2-0.3-0.5-0.4-0.9-0.4c-0.5,0-0.8,0.2-1.2,0.6c-0.3,0.4-0.5,1-0.5,1.7c0,0.8,0.2,1.5,0.5,1.9
		c0.3,0.4,0.7,0.6,1.2,0.6C167.1,512.1,167.5,511.5,167.7,510.4z M172.6,513.2v-6.9h1.3v5.7h2.8v1.2H172.6z M178.9,511.7
		c0.2,0.3,0.5,0.4,0.9,0.4s0.7-0.1,0.9-0.4c0.2-0.3,0.3-0.7,0.3-1.2s-0.1-0.9-0.3-1.2c-0.2-0.3-0.5-0.4-0.9-0.4
		c-0.4,0-0.7,0.1-0.9,0.4c-0.2,0.3-0.3,0.7-0.3,1.2C178.6,511.1,178.7,511.5,178.9,511.7z M181.5,512.6c-0.5,0.5-1,0.7-1.8,0.7
		c-0.7,0-1.3-0.2-1.8-0.7c-0.5-0.5-0.7-1.2-0.7-2c0-0.9,0.2-1.5,0.7-2c0.5-0.5,1.1-0.7,1.7-0.7c0.7,0,1.3,0.2,1.7,0.7
		c0.5,0.5,0.7,1.2,0.7,2C182.2,511.4,182,512.1,181.5,512.6z M184.5,510.1v1c0,0.3,0.1,0.6,0.3,0.8c0.2,0.2,0.5,0.3,0.8,0.3
		c0.4,0,0.7-0.1,0.9-0.4c0.2-0.3,0.3-0.7,0.3-1.2c0-0.5-0.1-0.9-0.3-1.2c-0.2-0.3-0.5-0.4-0.9-0.4c-0.3,0-0.6,0.1-0.8,0.3
		C184.6,509.5,184.5,509.8,184.5,510.1z M183.2,513.2V506h1.3v2.5h0c0,0,0,0,0-0.1c0,0,0.1-0.1,0.1-0.2c0.1-0.1,0.2-0.1,0.3-0.2
		c0.1-0.1,0.2-0.1,0.4-0.2c0.2,0,0.3-0.1,0.5-0.1c0.6,0,1.2,0.3,1.6,0.8c0.4,0.5,0.6,1.2,0.6,2c0,0.8-0.2,1.5-0.6,2
		c-0.4,0.5-1,0.7-1.6,0.7c-0.3,0-0.5-0.1-0.8-0.2c-0.2-0.1-0.4-0.2-0.5-0.3l-0.1-0.2h0v0.5H183.2z M190.4,510.1v1
		c0,0.3,0.1,0.6,0.3,0.8c0.2,0.2,0.5,0.3,0.8,0.3c0.4,0,0.7-0.1,0.9-0.4c0.2-0.3,0.3-0.7,0.3-1.2c0-0.5-0.1-0.9-0.3-1.2
		c-0.2-0.3-0.5-0.4-0.9-0.4c-0.3,0-0.6,0.1-0.8,0.3C190.5,509.5,190.4,509.8,190.4,510.1z M189.1,513.2V506h1.3v2.5h0c0,0,0,0,0-0.1
		c0,0,0.1-0.1,0.1-0.2c0.1-0.1,0.2-0.1,0.3-0.2c0.1-0.1,0.2-0.1,0.4-0.2c0.2,0,0.3-0.1,0.5-0.1c0.6,0,1.2,0.3,1.6,0.8
		c0.4,0.5,0.6,1.2,0.6,2c0,0.8-0.2,1.5-0.6,2c-0.4,0.5-1,0.7-1.6,0.7c-0.3,0-0.5-0.1-0.8-0.2c-0.2-0.1-0.4-0.2-0.5-0.3l-0.1-0.2h0
		v0.5H189.1z M195.3,515.4l1-2.5l-2.1-5h1.3l1.4,3.5h0l1.4-3.5h1.3l-3,7.4H195.3z"/>
	<path class="st19" d="M235.3,408v-6.9h1.4l2,4.5h0l2-4.5h1.4v6.9h-1.3v-4.2h0l-2,4.2h-0.2l-2-4.2h0v4.2H235.3z M243.6,408v-5.2h1.3
		v5.2H243.6z M243.6,402v-1.2h1.3v1.2H243.6z M249.5,405.8v-1c0-0.3-0.1-0.6-0.3-0.8c-0.2-0.2-0.5-0.3-0.8-0.3
		c-0.4,0-0.7,0.1-0.9,0.4c-0.2,0.3-0.3,0.7-0.3,1.2c0,0.5,0.1,0.9,0.3,1.2c0.2,0.3,0.5,0.4,0.9,0.4c0.3,0,0.6-0.1,0.8-0.3
		C249.4,406.4,249.5,406.1,249.5,405.8z M249.5,408v-0.5h0c0,0-0.1,0.1-0.1,0.2c-0.1,0.1-0.2,0.2-0.5,0.3c-0.2,0.1-0.5,0.2-0.8,0.2
		c-0.7,0-1.2-0.2-1.7-0.8c-0.4-0.5-0.6-1.2-0.6-2c0-0.8,0.2-1.5,0.7-2c0.4-0.5,1-0.8,1.6-0.8c0.3,0,0.5,0.1,0.7,0.2
		c0.2,0.1,0.4,0.2,0.5,0.3l0.1,0.2h0v-2.5h1.3v7.2H249.5z M256,406.7h0.9c0.2,0,0.4,0,0.6-0.1c0.2-0.1,0.3-0.2,0.5-0.3
		s0.3-0.4,0.4-0.7c0.1-0.3,0.1-0.7,0.1-1.2c0-0.8-0.1-1.3-0.4-1.7c-0.3-0.4-0.7-0.5-1.1-0.5h-1V406.7z M254.7,408v-6.9h2.3
		c0.4,0,0.8,0.1,1.1,0.2s0.7,0.3,0.9,0.6c0.3,0.3,0.5,0.6,0.7,1.1c0.2,0.4,0.3,1,0.3,1.5c0,0.6-0.1,1.2-0.3,1.6
		c-0.2,0.5-0.4,0.8-0.7,1.1c-0.3,0.2-0.6,0.4-1,0.6c-0.3,0.1-0.7,0.2-1.1,0.2H254.7z M262.3,406.5c0.2,0.3,0.5,0.4,0.9,0.4
		s0.7-0.1,0.9-0.4c0.2-0.3,0.3-0.7,0.3-1.2s-0.1-0.9-0.3-1.2c-0.2-0.3-0.5-0.4-0.9-0.4c-0.4,0-0.6,0.1-0.9,0.4
		c-0.2,0.3-0.3,0.7-0.3,1.2C261.9,405.9,262,406.3,262.3,406.5z M264.9,407.4c-0.5,0.5-1,0.7-1.8,0.7s-1.3-0.2-1.8-0.7
		c-0.5-0.5-0.7-1.2-0.7-2c0-0.9,0.2-1.5,0.7-2c0.5-0.5,1.1-0.7,1.7-0.7c0.7,0,1.3,0.2,1.7,0.7c0.5,0.5,0.7,1.2,0.7,2
		C265.6,406.2,265.3,406.9,264.9,407.4z M267.8,406.5c0.2,0.3,0.5,0.4,0.9,0.4c0.4,0,0.7-0.1,0.9-0.4c0.2-0.3,0.3-0.7,0.3-1.2
		s-0.1-0.9-0.3-1.2c-0.2-0.3-0.5-0.4-0.9-0.4s-0.7,0.1-0.9,0.4c-0.2,0.3-0.3,0.7-0.3,1.2C267.5,405.9,267.6,406.3,267.8,406.5z
		 M270.5,407.4c-0.5,0.5-1,0.7-1.8,0.7c-0.7,0-1.3-0.2-1.8-0.7c-0.5-0.5-0.7-1.2-0.7-2c0-0.9,0.2-1.5,0.7-2c0.5-0.5,1.1-0.7,1.7-0.7
		c0.7,0,1.3,0.2,1.7,0.7c0.5,0.5,0.7,1.2,0.7,2C271.2,406.2,270.9,406.9,270.5,407.4z M272.2,408v-5.2h1.2v0.6h0
		c0.1-0.2,0.2-0.4,0.4-0.5c0.2-0.1,0.4-0.2,0.6-0.2c0.2,0,0.3,0,0.5,0.1l-0.2,1.2c-0.1-0.1-0.3-0.1-0.4-0.1c-0.6,0-0.9,0.4-0.9,1.2
		v2.9H272.2z M275.4,406.2l1.2-0.3c0.1,0.7,0.5,1.1,1.2,1.1c0.3,0,0.6,0,0.7-0.1c0.2-0.1,0.3-0.2,0.3-0.4c0-0.2-0.1-0.3-0.2-0.3
		c-0.1-0.1-0.4-0.2-0.9-0.3c-0.1,0-0.2-0.1-0.3-0.1c-0.6-0.2-1-0.4-1.3-0.6c-0.3-0.2-0.4-0.5-0.4-0.9c0-0.4,0.2-0.8,0.5-1.1
		c0.4-0.3,0.8-0.5,1.4-0.5c1.2,0,1.9,0.5,2.2,1.5l-1.1,0.3c-0.1-0.2-0.2-0.4-0.4-0.6c-0.2-0.1-0.4-0.2-0.7-0.2c-0.2,0-0.5,0-0.6,0.1
		c-0.1,0.1-0.2,0.2-0.2,0.3c0,0.1,0.1,0.3,0.3,0.3c0.2,0.1,0.6,0.2,1.3,0.4c0.6,0.2,1,0.4,1.2,0.6c0.2,0.2,0.3,0.6,0.3,1
		c0,0.4-0.2,0.8-0.6,1.1c-0.4,0.3-0.9,0.5-1.6,0.5c-0.7,0-1.3-0.2-1.7-0.5C275.7,407.2,275.5,406.8,275.4,406.2z"/>
	<path class="st19" d="M343.1,438.2v-6.9h1.4l2,4.5h0l2-4.5h1.4v6.9h-1.3v-4.2h0l-2,4.2h-0.2l-2-4.2h0v4.2H343.1z M351.4,438.2v-5.2
		h1.3v5.2H351.4z M351.4,432.2V431h1.3v1.2H351.4z M357.3,436v-1c0-0.3-0.1-0.6-0.3-0.8c-0.2-0.2-0.5-0.3-0.8-0.3
		c-0.4,0-0.7,0.1-0.9,0.4c-0.2,0.3-0.3,0.7-0.3,1.2c0,0.5,0.1,0.9,0.3,1.2c0.2,0.3,0.5,0.4,0.9,0.4c0.3,0,0.6-0.1,0.8-0.3
		C357.2,436.6,357.3,436.3,357.3,436z M357.4,438.2v-0.5h0c0,0-0.1,0.1-0.1,0.2c-0.1,0.1-0.2,0.2-0.5,0.3c-0.2,0.1-0.5,0.2-0.8,0.2
		c-0.7,0-1.2-0.2-1.7-0.7c-0.4-0.5-0.6-1.2-0.6-2c0-0.8,0.2-1.5,0.7-2c0.4-0.5,1-0.8,1.6-0.8c0.3,0,0.5,0.1,0.7,0.2
		c0.2,0.1,0.4,0.2,0.5,0.3l0.1,0.2h0V431h1.3v7.2H357.4z M332.8,450.4l1.4,0.3c-0.1,0.8-0.4,1.4-0.9,1.9c-0.5,0.5-1.1,0.7-1.9,0.7
		c-0.9,0-1.6-0.3-2.2-0.9c-0.6-0.6-0.8-1.5-0.8-2.8c0-1.1,0.3-1.9,0.9-2.6c0.6-0.6,1.3-0.9,2.1-0.9c0.7,0,1.3,0.2,1.8,0.7
		c0.5,0.4,0.8,1,0.9,1.8l-1.3,0.2c-0.1-0.4-0.2-0.8-0.4-1c-0.2-0.3-0.5-0.4-0.9-0.4c-0.5,0-0.8,0.2-1.2,0.6c-0.3,0.4-0.5,1-0.5,1.7
		c0,0.8,0.2,1.5,0.5,1.9c0.3,0.4,0.7,0.6,1.2,0.6C332.2,452.1,332.7,451.5,332.8,450.4z M336.5,451.7c0.2,0.3,0.5,0.4,0.9,0.4
		c0.4,0,0.7-0.1,0.9-0.4c0.2-0.3,0.3-0.7,0.3-1.2s-0.1-0.9-0.3-1.2c-0.2-0.3-0.5-0.4-0.9-0.4c-0.4,0-0.7,0.1-0.9,0.4
		c-0.2,0.3-0.3,0.7-0.3,1.2C336.1,451.1,336.2,451.5,336.5,451.7z M339.1,452.6c-0.5,0.5-1,0.7-1.8,0.7s-1.3-0.2-1.8-0.7
		c-0.5-0.5-0.7-1.2-0.7-2c0-0.9,0.2-1.5,0.7-2c0.5-0.5,1.1-0.7,1.7-0.7c0.7,0,1.3,0.2,1.7,0.7c0.5,0.5,0.7,1.2,0.7,2
		C339.8,451.4,339.5,452.1,339.1,452.6z M340.8,451.3v-3.4h1.3v3.2c0,0.3,0.1,0.6,0.2,0.7s0.3,0.2,0.6,0.2c0.3,0,0.6-0.1,0.8-0.2
		c0.2-0.2,0.3-0.4,0.3-0.8v-3.1h1.3v5.2h-1.2v-0.5h0c-0.3,0.4-0.8,0.7-1.4,0.7c-0.6,0-1.1-0.2-1.4-0.5
		C340.9,452.4,340.8,451.9,340.8,451.3z M346.5,453.2v-5.2h1.2v0.6h0c0.1-0.2,0.2-0.4,0.4-0.5c0.2-0.1,0.4-0.2,0.6-0.2
		c0.2,0,0.3,0,0.5,0.1l-0.2,1.2c-0.1-0.1-0.3-0.1-0.4-0.1c-0.6,0-0.9,0.4-0.9,1.2v2.9H346.5z M350.5,451.3V449h-0.8v-1.1h0.8v-1.3
		h1.2v1.3h1.3v1.1h-1.3v2.2c0,0.3,0,0.5,0.1,0.6c0.1,0.1,0.3,0.2,0.6,0.2h0.4v1.2h-0.5c-0.7,0-1.2-0.1-1.4-0.4
		C350.6,452.4,350.5,452,350.5,451.3z M354.5,455.4l1-2.5l-2.1-5h1.3l1.4,3.5h0l1.4-3.5h1.3l-3,7.4H354.5z M362.4,453.2v-0.5h0
		c0,0,0,0,0,0.1c0,0-0.1,0.1-0.1,0.1c-0.1,0.1-0.2,0.1-0.3,0.2c-0.1,0.1-0.2,0.1-0.4,0.2c-0.2,0-0.4,0.1-0.6,0.1
		c-0.6,0-1.1-0.1-1.4-0.4c-0.3-0.3-0.5-0.7-0.5-1.1c0-0.5,0.1-0.8,0.4-1c0.3-0.2,0.7-0.4,1.4-0.6c0.6-0.1,1-0.3,1.1-0.3
		c0.2-0.1,0.2-0.2,0.2-0.4s-0.1-0.3-0.2-0.4c-0.1-0.1-0.4-0.2-0.7-0.2c-0.3,0-0.6,0.1-0.7,0.2c-0.2,0.2-0.3,0.4-0.4,0.6l-1.1-0.4
		c0.1-0.4,0.4-0.8,0.7-1.1c0.4-0.3,0.8-0.4,1.4-0.4c0.6,0,1.2,0.2,1.6,0.5c0.4,0.3,0.6,0.9,0.6,1.6v3.3H362.4z M361.1,451
		c-0.3,0.1-0.5,0.2-0.7,0.3c-0.1,0.1-0.1,0.2-0.1,0.4c0,0.4,0.3,0.5,0.8,0.5c0.4,0,0.7-0.1,0.9-0.2c0.2-0.2,0.3-0.3,0.3-0.6v-0.9h0
		c0,0.1-0.1,0.1-0.1,0.1c0,0-0.1,0.1-0.3,0.1C361.6,450.9,361.4,450.9,361.1,451z M364.7,453.2v-5.2h1.2v0.6h0
		c0.1-0.2,0.2-0.4,0.4-0.5c0.2-0.1,0.4-0.2,0.6-0.2c0.2,0,0.3,0,0.5,0.1l-0.2,1.2c-0.1-0.1-0.3-0.1-0.4-0.1c-0.6,0-0.9,0.4-0.9,1.2
		v2.9H364.7z M371.6,451v-1c0-0.3-0.1-0.6-0.3-0.8c-0.2-0.2-0.5-0.3-0.8-0.3c-0.4,0-0.7,0.1-0.9,0.4c-0.2,0.3-0.3,0.7-0.3,1.2
		c0,0.5,0.1,0.9,0.3,1.2c0.2,0.3,0.5,0.4,0.9,0.4c0.3,0,0.6-0.1,0.8-0.3C371.5,451.6,371.6,451.3,371.6,451z M371.7,453.2v-0.5h0
		c0,0-0.1,0.1-0.1,0.2c-0.1,0.1-0.2,0.2-0.5,0.3c-0.2,0.1-0.5,0.2-0.8,0.2c-0.7,0-1.2-0.2-1.7-0.7c-0.4-0.5-0.6-1.2-0.6-2
		c0-0.8,0.2-1.5,0.7-2c0.4-0.5,1-0.8,1.6-0.8c0.3,0,0.5,0.1,0.7,0.2c0.2,0.1,0.4,0.2,0.5,0.3l0.1,0.2h0V446h1.3v7.2H371.7z"/>
	<path class="st19" d="M335.3,351.2v-6.9h2.9c0.6,0,1.1,0.2,1.5,0.5c0.4,0.4,0.6,0.8,0.6,1.3c0,0.6-0.2,1-0.8,1.3v0
		c0.3,0.1,0.5,0.3,0.7,0.6c0.2,0.3,0.3,0.6,0.3,1c0,0.7-0.2,1.2-0.6,1.6c-0.4,0.4-1.1,0.6-2,0.6H335.3z M336.6,349.9h1.6
		c0.6,0,0.9-0.3,0.9-0.9c0-0.3-0.1-0.5-0.3-0.7c-0.2-0.2-0.4-0.2-0.7-0.2h-1.6V349.9z M336.6,347h1.4c0.3,0,0.5-0.1,0.6-0.2
		c0.2-0.1,0.2-0.3,0.2-0.6c0-0.3-0.1-0.5-0.2-0.6c-0.2-0.1-0.4-0.2-0.6-0.2h-1.4V347z M345.5,349.9h0.9c0.2,0,0.4,0,0.6-0.1
		c0.2-0.1,0.3-0.2,0.5-0.3c0.2-0.2,0.3-0.4,0.4-0.7c0.1-0.3,0.1-0.7,0.1-1.2c0-0.8-0.1-1.3-0.4-1.7c-0.3-0.4-0.7-0.5-1.1-0.5h-1
		V349.9z M344.1,351.2v-6.9h2.3c0.4,0,0.8,0.1,1.1,0.2c0.3,0.1,0.7,0.3,0.9,0.6c0.3,0.3,0.5,0.6,0.7,1.1c0.2,0.4,0.3,1,0.3,1.5
		c0,0.6-0.1,1.2-0.3,1.6c-0.2,0.5-0.4,0.8-0.7,1.1c-0.3,0.2-0.6,0.4-1,0.6c-0.3,0.1-0.7,0.2-1.1,0.2H344.1z M351.7,349.7
		c0.2,0.3,0.5,0.4,0.9,0.4c0.4,0,0.7-0.1,0.9-0.4c0.2-0.3,0.3-0.7,0.3-1.2s-0.1-0.9-0.3-1.2c-0.2-0.3-0.5-0.4-0.9-0.4
		c-0.4,0-0.7,0.1-0.9,0.4c-0.2,0.3-0.3,0.7-0.3,1.2C351.4,349.1,351.5,349.5,351.7,349.7z M354.3,350.6c-0.5,0.5-1,0.7-1.8,0.7
		c-0.7,0-1.3-0.2-1.8-0.7c-0.5-0.5-0.7-1.2-0.7-2c0-0.9,0.2-1.5,0.7-2c0.5-0.5,1.1-0.7,1.7-0.7c0.7,0,1.3,0.2,1.7,0.7s0.7,1.2,0.7,2
		C355,349.4,354.8,350.1,354.3,350.6z M357.3,349.7c0.2,0.3,0.5,0.4,0.9,0.4c0.4,0,0.7-0.1,0.9-0.4c0.2-0.3,0.3-0.7,0.3-1.2
		s-0.1-0.9-0.3-1.2c-0.2-0.3-0.5-0.4-0.9-0.4c-0.4,0-0.7,0.1-0.9,0.4c-0.2,0.3-0.3,0.7-0.3,1.2C357,349.1,357.1,349.5,357.3,349.7z
		 M359.9,350.6c-0.5,0.5-1,0.7-1.8,0.7c-0.7,0-1.3-0.2-1.8-0.7c-0.5-0.5-0.7-1.2-0.7-2c0-0.9,0.2-1.5,0.7-2c0.5-0.5,1.1-0.7,1.7-0.7
		c0.7,0,1.3,0.2,1.7,0.7s0.7,1.2,0.7,2C360.6,349.4,360.4,350.1,359.9,350.6z M361.6,351.2v-5.2h1.2v0.6h0c0.1-0.2,0.2-0.4,0.4-0.5
		c0.2-0.1,0.4-0.2,0.6-0.2c0.2,0,0.3,0,0.5,0.1l-0.2,1.2c-0.1-0.1-0.3-0.1-0.4-0.1c-0.6,0-0.9,0.4-0.9,1.2v2.9H361.6z"/>
	<path class="st19" d="M323.5,489.2v-6.9h1.4l2,4.5h0l2-4.5h1.4v6.9h-1.3v-4.2h0l-2,4.2h-0.2l-2-4.2h0v4.2H323.5z M331.7,489.2v-5.2
		h1.3v5.2H331.7z M331.7,483.2V482h1.3v1.2H331.7z M337.6,487v-1c0-0.3-0.1-0.6-0.3-0.8c-0.2-0.2-0.5-0.3-0.8-0.3
		c-0.4,0-0.7,0.1-0.9,0.4c-0.2,0.3-0.3,0.7-0.3,1.2c0,0.5,0.1,0.9,0.3,1.2c0.2,0.3,0.5,0.4,0.9,0.4c0.3,0,0.6-0.1,0.8-0.3
		C337.5,487.6,337.6,487.3,337.6,487z M337.7,489.2v-0.5h0c0,0-0.1,0.1-0.1,0.2c-0.1,0.1-0.2,0.2-0.5,0.3c-0.2,0.1-0.5,0.2-0.8,0.2
		c-0.7,0-1.2-0.2-1.7-0.7c-0.4-0.5-0.6-1.2-0.6-2c0-0.8,0.2-1.5,0.7-2c0.4-0.5,1-0.8,1.6-0.8c0.3,0,0.5,0.1,0.7,0.2
		c0.2,0.1,0.4,0.2,0.5,0.3l0.1,0.2h0V482h1.3v7.2H337.7z M343.7,489.2l-1.3-6.9h1.4l0.9,4.7h0l1.6-4.7h0.7l1.6,4.7h0l0.9-4.7h1.3
		l-1.3,6.9H348l-1.4-4.3h-0.1l-1.4,4.3H343.7z M351.7,489.2v-5.2h1.3v5.2H351.7z M351.7,483.2V482h1.3v1.2H351.7z M354.3,489.2v-5.2
		h1.2v0.5h0c0.1-0.2,0.3-0.3,0.6-0.5c0.2-0.1,0.5-0.2,0.8-0.2c0.6,0,1,0.2,1.4,0.5c0.3,0.3,0.5,0.8,0.5,1.4v3.4h-1.3v-3.1
		c0-0.4-0.1-0.6-0.2-0.8c-0.1-0.2-0.4-0.3-0.7-0.3c-0.3,0-0.6,0.1-0.7,0.3c-0.2,0.2-0.3,0.4-0.3,0.7v3.2H354.3z M363.4,487v-1
		c0-0.3-0.1-0.6-0.3-0.8c-0.2-0.2-0.5-0.3-0.8-0.3c-0.4,0-0.7,0.1-0.9,0.4c-0.2,0.3-0.3,0.7-0.3,1.2c0,0.5,0.1,0.9,0.3,1.2
		c0.2,0.3,0.5,0.4,0.9,0.4c0.3,0,0.6-0.1,0.8-0.3C363.3,487.6,363.4,487.3,363.4,487z M363.5,489.2v-0.5h0c0,0-0.1,0.1-0.1,0.2
		c-0.1,0.1-0.2,0.2-0.5,0.3c-0.2,0.1-0.5,0.2-0.8,0.2c-0.7,0-1.2-0.2-1.7-0.7c-0.4-0.5-0.6-1.2-0.6-2c0-0.8,0.2-1.5,0.7-2
		c0.4-0.5,1-0.8,1.6-0.8c0.3,0,0.5,0.1,0.7,0.2c0.2,0.1,0.4,0.2,0.5,0.3l0.1,0.2h0V482h1.3v7.2H363.5z M367.3,487.7
		c0.2,0.3,0.5,0.4,0.9,0.4c0.4,0,0.7-0.1,0.9-0.4c0.2-0.3,0.3-0.7,0.3-1.2s-0.1-0.9-0.3-1.2c-0.2-0.3-0.5-0.4-0.9-0.4
		c-0.4,0-0.6,0.1-0.9,0.4c-0.2,0.3-0.3,0.7-0.3,1.2C367,487.1,367.1,487.5,367.3,487.7z M369.9,488.6c-0.5,0.5-1,0.7-1.8,0.7
		s-1.3-0.2-1.8-0.7c-0.5-0.5-0.7-1.2-0.7-2c0-0.9,0.2-1.5,0.7-2c0.5-0.5,1.1-0.7,1.7-0.7c0.7,0,1.3,0.2,1.7,0.7
		c0.5,0.5,0.7,1.2,0.7,2C370.6,487.4,370.4,488.1,369.9,488.6z M372.4,489.2l-1.2-5.2h1.3l0.7,3.5h0l1.2-3.5h1.2l1.1,3.5h0l0.8-3.5
		h1.2l-1.3,5.2h-1.3l-1.2-3.8h0l-1.3,3.8H372.4z"/>
	<path class="st19" d="M235.4,503.6v-6.9h2.9c0.6,0,1.1,0.2,1.5,0.5c0.4,0.4,0.6,0.8,0.6,1.3c0,0.6-0.2,1-0.7,1.3v0
		c0.3,0.1,0.5,0.3,0.7,0.6c0.2,0.3,0.3,0.6,0.3,1c0,0.7-0.2,1.2-0.6,1.6c-0.4,0.4-1.1,0.6-2,0.6H235.4z M236.7,502.4h1.6
		c0.6,0,0.9-0.3,0.9-0.9c0-0.3-0.1-0.5-0.3-0.7c-0.2-0.2-0.4-0.2-0.7-0.2h-1.6V502.4z M236.7,499.5h1.4c0.3,0,0.5-0.1,0.6-0.2
		c0.2-0.1,0.2-0.3,0.2-0.6c0-0.3-0.1-0.5-0.2-0.6c-0.2-0.1-0.4-0.2-0.6-0.2h-1.4V499.5z M242.9,502.2c0.2,0.3,0.5,0.4,0.9,0.4
		c0.4,0,0.7-0.1,0.9-0.4c0.2-0.3,0.3-0.7,0.3-1.2c0-0.5-0.1-0.9-0.3-1.2c-0.2-0.3-0.5-0.4-0.9-0.4c-0.4,0-0.7,0.1-0.9,0.4
		c-0.2,0.3-0.3,0.7-0.3,1.2C242.6,501.6,242.7,501.9,242.9,502.2z M245.5,503.1c-0.5,0.5-1,0.7-1.8,0.7c-0.7,0-1.3-0.2-1.8-0.7
		c-0.5-0.5-0.7-1.2-0.7-2c0-0.9,0.2-1.5,0.7-2c0.5-0.5,1.1-0.7,1.7-0.7c0.7,0,1.3,0.2,1.7,0.7c0.5,0.5,0.7,1.2,0.7,2
		C246.2,501.9,246,502.6,245.5,503.1z M247.5,501.8v-2.3h-0.8v-1.1h0.8v-1.3h1.2v1.3h1.3v1.1h-1.3v2.2c0,0.3,0,0.5,0.1,0.6
		c0.1,0.1,0.3,0.2,0.6,0.2h0.4v1.2h-0.5c-0.7,0-1.2-0.1-1.4-0.4C247.7,502.9,247.5,502.4,247.5,501.8z M251.3,501.8v-2.3h-0.8v-1.1
		h0.8v-1.3h1.2v1.3h1.3v1.1h-1.3v2.2c0,0.3,0,0.5,0.1,0.6c0.1,0.1,0.3,0.2,0.6,0.2h0.4v1.2h-0.5c-0.7,0-1.2-0.1-1.5-0.4
		C251.4,502.9,251.3,502.4,251.3,501.8z M256,502.2c0.2,0.3,0.5,0.4,0.9,0.4c0.4,0,0.7-0.1,0.9-0.4c0.2-0.3,0.3-0.7,0.3-1.2
		c0-0.5-0.1-0.9-0.3-1.2c-0.2-0.3-0.5-0.4-0.9-0.4c-0.4,0-0.7,0.1-0.9,0.4c-0.2,0.3-0.3,0.7-0.3,1.2
		C255.7,501.6,255.8,501.9,256,502.2z M258.7,503.1c-0.5,0.5-1,0.7-1.8,0.7c-0.7,0-1.3-0.2-1.8-0.7c-0.5-0.5-0.7-1.2-0.7-2
		c0-0.9,0.2-1.5,0.7-2c0.5-0.5,1.1-0.7,1.7-0.7c0.7,0,1.3,0.2,1.7,0.7c0.5,0.5,0.7,1.2,0.7,2C259.3,501.9,259.1,502.6,258.7,503.1z
		 M260.4,503.6v-5.2h1.2v0.5h0c0.1-0.2,0.3-0.3,0.5-0.5c0.2-0.1,0.5-0.2,0.7-0.2c0.3,0,0.5,0.1,0.8,0.2c0.2,0.1,0.4,0.3,0.6,0.5h0
		c0.1-0.2,0.3-0.4,0.6-0.5c0.2-0.1,0.5-0.2,0.8-0.2c0.6,0,1.1,0.2,1.5,0.5c0.4,0.3,0.6,0.8,0.6,1.3v3.6h-1.2v-3.3
		c0-0.3-0.1-0.5-0.2-0.6c-0.1-0.2-0.4-0.2-0.7-0.2c-0.3,0-0.5,0.1-0.7,0.2c-0.2,0.2-0.2,0.3-0.2,0.6v3.4h-1.2v-3.3
		c0-0.2-0.1-0.5-0.2-0.6c-0.2-0.2-0.4-0.3-0.7-0.3c-0.3,0-0.5,0.1-0.7,0.2c-0.2,0.2-0.2,0.3-0.2,0.6v3.4H260.4z M271.5,503.6v-6.9
		h1.4l2,4.5h0l2-4.5h1.4v6.9H277v-4.2h0l-2,4.2h-0.2l-2-4.2h0v4.2H271.5z M279.7,503.6v-5.2h1.3v5.2H279.7z M279.7,497.7v-1.2h1.3
		v1.2H279.7z M285.6,501.5v-1c0-0.3-0.1-0.6-0.3-0.8c-0.2-0.2-0.5-0.3-0.8-0.3c-0.4,0-0.7,0.1-0.9,0.4c-0.2,0.3-0.3,0.7-0.3,1.2
		c0,0.5,0.1,0.9,0.3,1.2c0.2,0.3,0.5,0.4,0.9,0.4c0.3,0,0.6-0.1,0.8-0.3C285.5,502.1,285.6,501.8,285.6,501.5z M285.7,503.6v-0.5h0
		c0,0-0.1,0.1-0.1,0.2c-0.1,0.1-0.2,0.2-0.5,0.3c-0.2,0.1-0.5,0.2-0.8,0.2c-0.7,0-1.2-0.2-1.7-0.7c-0.4-0.5-0.6-1.2-0.6-2
		c0-0.8,0.2-1.5,0.7-2c0.4-0.5,1-0.7,1.6-0.7c0.3,0,0.5,0.1,0.7,0.2c0.2,0.1,0.4,0.2,0.5,0.3l0.1,0.2h0v-2.5h1.3v7.2H285.7z"/>
	<path class="st20" d="M593.9,222.2h4.2c2.3,0,4.1-1.8,4.1-4.1v-1.7c0-2.3,1.8-4.1,4.1-4.1h39.8c2.3,0,4.1,1.8,4.1,4.1v7.5
		c0,2.3,1.8,4.1,4.1,4.1h14.1c2.3,0,4.1,1.8,4.1,4.1v51.4c0,2.3-1.8,4.1-4.1,4.1h-74.5c-2.3,0-4.1-1.8-4.1-4.1v-57.2
		C589.8,224.1,591.6,222.2,593.9,222.2z"/>
	<path class="st21" d="M324.1,240.4h75.4c2.3,0,4.1,1.8,4.1,4.1v67.1c0,2.3-1.8,4.1-4.1,4.1h-75.4c-2.3,0-4.1-1.8-4.1-4.1v-67.1
		C320,242.3,321.8,240.4,324.1,240.4z"/>
	<path class="st20" d="M59.3,212.3h91.1c2.3,0,4.1,1.8,4.1,4.1v70.4c0,2.3-1.8,4.1-4.1,4.1H75.8c-2.3,0-4.1-1.8-4.1-4.1v-28.2
		c0-2.3-1.8-4.1-4.1-4.1h-8.3c-2.3,0-4.1-1.8-4.1-4.1v-34C55.2,214.1,57,212.3,59.3,212.3z"/>
	<g class="st22">
		<defs>
			<filter id="Adobe_OpacityMaskFilter" filterUnits="userSpaceOnUse" x="-11.3" y="124.2" width="737.6" height="271.5">
				<feColorMatrix  type="matrix" values="1 0 0 0 0  0 1 0 0 0  0 0 1 0 0  0 0 0 1 0"/>
			</filter>
		</defs>
		<mask maskUnits="userSpaceOnUse" x="-11.3" y="124.2" width="737.6" height="271.5" id="mask0_2_">
			<path class="st23" d="M589.8,226.3c0-2.3,1.8-4.1,4.1-4.1h4.2c2.3,0,4.1-1.8,4.1-4.1v-1.7c0-2.3,1.8-4.1,4.1-4.1h39.8
				c2.3,0,4.1,1.8,4.1,4.1v7.5c0,2.3,1.8,4.1,4.1,4.1h14.1c2.3,0,4.1,1.8,4.1,4.1v51.4c0,2.3-1.8,4.1-4.1,4.1h-74.5
				c-2.3,0-4.1-1.8-4.1-4.1V226.3z"/>
			<path class="st24" d="M320,244.5c0-2.3,1.8-4.1,4.1-4.1h75.4c2.3,0,4.1,1.8,4.1,4.1v67.1c0,2.3-1.8,4.1-4.1,4.1h-75.4
				c-2.3,0-4.1-1.8-4.1-4.1V244.5z"/>
			<path class="st24" d="M55.2,216.4c0-2.3,1.8-4.1,4.1-4.1h91.1c2.3,0,4.1,1.8,4.1,4.1v70.4c0,2.3-1.8,4.1-4.1,4.1H75.8
				c-2.3,0-4.1-1.8-4.1-4.1v-28.2c0-2.3-1.8-4.1-4.1-4.1h-8.3c-2.3,0-4.1-1.8-4.1-4.1V216.4z"/>
		</mask>
		<g class="st25">
			
				<rect x="68.9" y="294.5" transform="matrix(0.7074 -0.7068 0.7068 0.7074 -162.369 200.4611)" class="st26" width="184.1" height="3.7"/>
			
				<rect x="63.6" y="289.2" transform="matrix(0.7074 -0.7068 0.7068 0.7074 -160.1803 195.176)" class="st26" width="184.1" height="3.7"/>
			
				<rect x="58.3" y="283.9" transform="matrix(0.7074 -0.7068 0.7068 0.7074 -157.9922 189.8895)" class="st26" width="184.1" height="3.7"/>
			
				<rect x="53" y="278.6" transform="matrix(0.7074 -0.7068 0.7068 0.7074 -155.8043 184.6043)" class="st26" width="184.1" height="3.7"/>
			
				<rect x="47.7" y="273.3" transform="matrix(0.7074 -0.7068 0.7068 0.7074 -153.6159 179.3185)" class="st26" width="184.1" height="3.7"/>
			
				<rect x="42.4" y="268" transform="matrix(0.7074 -0.7068 0.7068 0.7074 -151.4275 174.0327)" class="st26" width="184.1" height="3.7"/>
			
				<rect x="37.1" y="262.8" transform="matrix(0.7074 -0.7068 0.7068 0.7074 -149.2398 168.7472)" class="st26" width="184.1" height="3.7"/>
			
				<rect x="31.8" y="257.5" transform="matrix(0.7074 -0.7068 0.7068 0.7074 -147.0512 163.4618)" class="st26" width="184.1" height="3.7"/>
			
				<rect x="26.5" y="252.2" transform="matrix(0.7074 -0.7068 0.7068 0.7074 -144.8635 158.1762)" class="st26" width="184.1" height="3.7"/>
			
				<rect x="21.2" y="246.9" transform="matrix(0.7074 -0.7068 0.7068 0.7074 -142.6751 152.8905)" class="st26" width="184.1" height="3.7"/>
			
				<rect x="16" y="241.6" transform="matrix(0.7074 -0.7068 0.7068 0.7074 -140.4866 147.6047)" class="st26" width="184.1" height="3.7"/>
			
				<rect x="10.7" y="236.3" transform="matrix(0.7074 -0.7068 0.7068 0.7074 -138.2991 142.3187)" class="st26" width="184.1" height="3.7"/>
			
				<rect x="5.4" y="231" transform="matrix(0.7074 -0.7068 0.7068 0.7074 -136.1104 137.0336)" class="st26" width="184.1" height="3.7"/>
			
				<rect x="0.1" y="225.8" transform="matrix(0.7074 -0.7068 0.7068 0.7074 -133.9221 131.7476)" class="st26" width="184.1" height="3.7"/>
			
				<rect x="-5.2" y="220.5" transform="matrix(0.7074 -0.7068 0.7068 0.7074 -131.7337 126.4617)" class="st26" width="184.1" height="3.7"/>
			
				<rect x="-10.5" y="215.2" transform="matrix(0.7074 -0.7068 0.7068 0.7074 -129.546 121.1762)" class="st26" width="184.1" height="3.7"/>
			
				<rect x="-15.8" y="209.9" transform="matrix(0.7074 -0.7068 0.7068 0.7074 -127.3574 115.8908)" class="st26" width="184.1" height="3.7"/>
			
				<rect x="-21.1" y="204.6" transform="matrix(0.7074 -0.7068 0.7068 0.7074 -125.1697 110.6053)" class="st26" width="184.1" height="3.7"/>
			
				<rect x="-26.4" y="199.3" transform="matrix(0.7074 -0.7068 0.7068 0.7074 -122.9811 105.3198)" class="st26" width="184.1" height="3.7"/>
			
				<rect x="-31.7" y="194" transform="matrix(0.7074 -0.7068 0.7068 0.7074 -120.7927 100.034)" class="st26" width="184.1" height="3.7"/>
			
				<rect x="-36.9" y="188.8" transform="matrix(0.7074 -0.7068 0.7068 0.7074 -118.6044 94.7478)" class="st26" width="184.1" height="3.7"/>
			
				<rect x="316" y="327.5" transform="matrix(0.7074 -0.7068 0.7068 0.7074 -113.3918 384.825)" class="st26" width="184.1" height="3.7"/>
			
				<rect x="310.7" y="322.2" transform="matrix(0.7074 -0.7068 0.7068 0.7074 -111.2032 379.5398)" class="st26" width="184.1" height="3.7"/>
			
				<rect x="305.4" y="316.9" transform="matrix(0.7074 -0.7068 0.7068 0.7074 -109.0148 374.2538)" class="st26" width="184.1" height="3.7"/>
			
				<rect x="300.1" y="311.6" transform="matrix(0.7074 -0.7068 0.7068 0.7074 -106.8272 368.9681)" class="st26" width="184.1" height="3.7"/>
			
				<rect x="294.9" y="306.4" transform="matrix(0.7074 -0.7068 0.7068 0.7074 -104.6388 363.6822)" class="st26" width="184.1" height="3.7"/>
			
				<rect x="289.6" y="301.1" transform="matrix(0.7074 -0.7068 0.7068 0.7074 -102.4501 358.397)" class="st26" width="184.1" height="3.7"/>
			
				<rect x="284.3" y="295.8" transform="matrix(0.7074 -0.7068 0.7068 0.7074 -100.2628 353.1106)" class="st26" width="184.1" height="3.7"/>
			
				<rect x="279" y="290.5" transform="matrix(0.7074 -0.7068 0.7068 0.7074 -98.0741 347.8253)" class="st26" width="184.1" height="3.7"/>
			
				<rect x="273.7" y="285.2" transform="matrix(0.7074 -0.7068 0.7068 0.7074 -95.8865 342.5397)" class="st26" width="184.1" height="3.7"/>
			
				<rect x="268.4" y="279.9" transform="matrix(0.7074 -0.7068 0.7068 0.7074 -93.6978 337.2545)" class="st26" width="184.1" height="3.7"/>
			
				<rect x="263.1" y="274.6" transform="matrix(0.7074 -0.7068 0.7068 0.7074 -91.5095 331.9685)" class="st26" width="184.1" height="3.7"/>
			
				<rect x="257.8" y="269.4" transform="matrix(0.7074 -0.7068 0.7068 0.7074 -89.3218 326.6829)" class="st26" width="184.1" height="3.7"/>
			
				<rect x="252.5" y="264.1" transform="matrix(0.7074 -0.7068 0.7068 0.7074 -87.1334 321.3969)" class="st26" width="184.1" height="3.7"/>
			
				<rect x="247.2" y="258.8" transform="matrix(0.7074 -0.7068 0.7068 0.7074 -84.9451 316.111)" class="st26" width="184.1" height="3.7"/>
			
				<rect x="242" y="253.5" transform="matrix(0.7074 -0.7068 0.7068 0.7074 -82.7564 310.8257)" class="st26" width="184.1" height="3.7"/>
			
				<rect x="236.7" y="248.2" transform="matrix(0.7074 -0.7068 0.7068 0.7074 -80.5688 305.5401)" class="st26" width="184.1" height="3.7"/>
			
				<rect x="231.4" y="242.9" transform="matrix(0.7074 -0.7068 0.7068 0.7074 -78.3801 300.2548)" class="st26" width="184.1" height="3.7"/>
			
				<rect x="226.1" y="237.6" transform="matrix(0.7074 -0.7068 0.7068 0.7074 -76.1927 294.9684)" class="st26" width="184.1" height="3.7"/>
			
				<rect x="220.8" y="232.4" transform="matrix(0.7074 -0.7068 0.7068 0.7074 -74.0041 289.6832)" class="st26" width="184.1" height="3.7"/>
			
				<rect x="215.5" y="227.1" transform="matrix(0.7074 -0.7068 0.7068 0.7074 -71.8154 284.398)" class="st26" width="184.1" height="3.7"/>
			
				<rect x="210.2" y="221.8" transform="matrix(0.7074 -0.7068 0.7068 0.7074 -69.6281 279.1116)" class="st26" width="184.1" height="3.7"/>
			
				<rect x="567.8" y="313.7" transform="matrix(0.7074 -0.7068 0.7068 0.7074 -29.9396 558.7503)" class="st26" width="184.1" height="3.7"/>
			
				<rect x="562.5" y="308.4" transform="matrix(0.7074 -0.7068 0.7068 0.7074 -27.7506 553.4658)" class="st26" width="184.1" height="3.7"/>
			
				<rect x="557.2" y="303.1" transform="matrix(0.7074 -0.7068 0.7068 0.7074 -25.5626 548.1791)" class="st26" width="184.1" height="3.7"/>
			
				<rect x="551.9" y="297.8" transform="matrix(0.7074 -0.7068 0.7068 0.7074 -23.3746 542.8942)" class="st26" width="184.1" height="3.7"/>
			
				<rect x="546.6" y="292.5" transform="matrix(0.7074 -0.7068 0.7068 0.7074 -21.1865 537.6075)" class="st26" width="184.1" height="3.7"/>
			
				<rect x="541.3" y="287.2" transform="matrix(0.7074 -0.7068 0.7068 0.7074 -18.9979 532.3223)" class="st26" width="184.1" height="3.7"/>
			
				<rect x="536.1" y="282" transform="matrix(0.7074 -0.7068 0.7068 0.7074 -16.8102 527.0366)" class="st26" width="184.1" height="3.7"/>
			
				<rect x="530.8" y="276.7" transform="matrix(0.7074 -0.7068 0.7068 0.7074 -14.6219 521.7507)" class="st26" width="184.1" height="3.7"/>
			
				<rect x="525.5" y="271.4" transform="matrix(0.7074 -0.7068 0.7068 0.7074 -12.4339 516.4658)" class="st26" width="184.1" height="3.7"/>
			
				<rect x="520.2" y="266.1" transform="matrix(0.7074 -0.7068 0.7068 0.7074 -10.2456 511.1798)" class="st26" width="184.1" height="3.7"/>
			
				<rect x="514.9" y="260.8" transform="matrix(0.7074 -0.7068 0.7068 0.7074 -8.0569 505.8946)" class="st26" width="184.1" height="3.7"/>
			
				<rect x="509.6" y="255.5" transform="matrix(0.7074 -0.7068 0.7068 0.7074 -5.8696 500.6082)" class="st26" width="184.1" height="3.7"/>
			
				<rect x="504.3" y="250.2" transform="matrix(0.7074 -0.7068 0.7068 0.7074 -3.6809 495.3229)" class="st26" width="184.1" height="3.7"/>
			
				<rect x="499" y="245" transform="matrix(0.7074 -0.7068 0.7068 0.7074 -1.4927 490.0367)" class="st26" width="184.1" height="3.7"/>
			
				<rect x="493.7" y="239.7" transform="matrix(0.7074 -0.7068 0.7068 0.7074 0.6958 484.7511)" class="st26" width="184.1" height="3.7"/>
			
				<rect x="488.5" y="234.4" transform="matrix(0.7074 -0.7068 0.7068 0.7074 2.8835 479.4654)" class="st26" width="184.1" height="3.7"/>
			
				<rect x="483.2" y="229.1" transform="matrix(0.7074 -0.7068 0.7068 0.7074 5.0721 474.1801)" class="st26" width="184.1" height="3.7"/>
			
				<rect x="477.9" y="223.8" transform="matrix(0.7074 -0.7068 0.7068 0.7074 7.2598 468.8945)" class="st26" width="184.1" height="3.7"/>
			
				<rect x="472.6" y="218.5" transform="matrix(0.7074 -0.7068 0.7068 0.7074 9.4484 463.6093)" class="st26" width="184.1" height="3.7"/>
			
				<rect x="467.3" y="213.2" transform="matrix(0.7074 -0.7068 0.7068 0.7074 11.6368 458.3233)" class="st26" width="184.1" height="3.7"/>
			
				<rect x="462" y="208" transform="matrix(0.7074 -0.7068 0.7068 0.7074 13.8255 453.0381)" class="st26" width="184.1" height="3.7"/>
		</g>
	</g>
	<path class="st27" d="M110.7,249.7l2.3,0.5c-0.2,1.3-0.7,2.4-1.5,3.2c-0.8,0.8-1.8,1.1-3.1,1.1c-1.5,0-2.7-0.5-3.6-1.5
		c-0.9-1-1.4-2.6-1.4-4.7c0-1.8,0.5-3.2,1.5-4.3c1-1,2.2-1.5,3.5-1.5c1.2,0,2.2,0.4,3,1.1c0.8,0.7,1.3,1.7,1.4,3l-2.2,0.3
		c-0.1-0.7-0.3-1.3-0.7-1.7c-0.4-0.4-0.9-0.7-1.5-0.7c-0.8,0-1.4,0.3-1.9,1c-0.5,0.7-0.8,1.6-0.8,2.8c0,1.4,0.3,2.4,0.8,3.1
		c0.5,0.7,1.2,1,2,1C109.7,252.5,110.5,251.6,110.7,249.7z"/>
	<path class="st27" d="M357.8,282.4v-11.5h4.9c1,0,1.8,0.3,2.4,0.9c0.6,0.6,0.9,1.3,0.9,2.2c0,1-0.4,1.7-1.2,2.2v0
		c0.5,0.2,0.9,0.5,1.2,1c0.3,0.4,0.5,1,0.5,1.6c0,1.1-0.3,2-1,2.6c-0.7,0.6-1.8,1-3.3,1H357.8z M360,280.4h2.7
		c1.1,0,1.6-0.5,1.6-1.5c0-0.5-0.1-0.8-0.4-1.1c-0.3-0.3-0.7-0.4-1.1-0.4H360V280.4z M360,275.6h2.4c0.4,0,0.8-0.1,1.1-0.3
		c0.3-0.2,0.4-0.5,0.4-1c0-0.4-0.1-0.8-0.4-1c-0.3-0.2-0.6-0.3-1.1-0.3H360V275.6z"/>
	<path class="st27" d="M634.4,259.3l-0.7-1.9h-4.4l-0.7,1.9h-2.2l4.2-11.5h1.9l4.1,11.5H634.4z M631.5,251l-1.6,4.5h3.1L631.5,251
		L631.5,251z"/>
	<path class="st28" d="M406.8,46.8h1.2c0.3,0,0.6,0,0.8-0.1c0.2-0.1,0.5-0.2,0.7-0.4c0.2-0.2,0.4-0.5,0.5-0.9
		c0.1-0.4,0.2-0.9,0.2-1.5c0-1-0.2-1.8-0.6-2.2c-0.4-0.5-0.9-0.7-1.5-0.7h-1.3V46.8z M405,48.4v-9.2h3.1c0.5,0,1,0.1,1.5,0.3
		c0.5,0.2,0.9,0.5,1.3,0.8c0.4,0.4,0.7,0.8,0.9,1.4c0.2,0.6,0.3,1.3,0.3,2.1c0,0.8-0.1,1.6-0.3,2.2c-0.2,0.6-0.5,1.1-0.9,1.4
		c-0.4,0.3-0.8,0.6-1.3,0.7c-0.5,0.2-1,0.2-1.5,0.2H405z M418,46l1.2,1.1c-0.7,1-1.7,1.6-2.9,1.6c-1,0-1.8-0.3-2.4-1
		c-0.6-0.7-0.9-1.6-0.9-2.7c0-1.1,0.3-2,0.9-2.7c0.6-0.7,1.4-1,2.3-1c0.9,0,1.7,0.3,2.3,1c0.6,0.7,0.9,1.6,0.9,2.7v0.5h-4.7
		c0,0.5,0.2,0.9,0.4,1.2c0.3,0.3,0.6,0.4,1.1,0.4c0.4,0,0.7-0.1,1-0.3C417.5,46.6,417.8,46.3,418,46z M414.8,44.2h3
		c0-0.4-0.2-0.8-0.5-1c-0.3-0.3-0.6-0.4-1.1-0.4c-0.4,0-0.8,0.1-1,0.4C414.9,43.4,414.8,43.8,414.8,44.2z M421.2,48.4v-5.5h-1.1
		v-1.4h1.1v-1c0-0.6,0.2-1,0.5-1.3c0.3-0.3,0.8-0.4,1.4-0.4h1.4v1.5h-1c-0.2,0-0.4,0-0.4,0.1c-0.1,0.1-0.1,0.2-0.1,0.4v0.6h1.8v1.4
		h-1.7v5.5H421.2z M430,46l1.2,1.1c-0.7,1-1.7,1.6-2.9,1.6c-1,0-1.8-0.3-2.4-1c-0.6-0.7-0.9-1.6-0.9-2.7c0-1.1,0.3-2,0.9-2.7
		c0.6-0.7,1.4-1,2.3-1c0.9,0,1.7,0.3,2.3,1c0.6,0.7,0.9,1.6,0.9,2.7v0.5h-4.7c0,0.5,0.2,0.9,0.4,1.2c0.3,0.3,0.6,0.4,1.1,0.4
		c0.4,0,0.7-0.1,1-0.3C429.6,46.6,429.8,46.3,430,46z M426.8,44.2h3c0-0.4-0.2-0.8-0.5-1c-0.3-0.3-0.6-0.4-1.1-0.4
		c-0.4,0-0.8,0.1-1,0.4C427,43.4,426.8,43.8,426.8,44.2z M432.8,48.4v-7h1.6v0.7h0c0.2-0.2,0.5-0.5,0.8-0.6c0.3-0.2,0.7-0.2,1.1-0.2
		c0.8,0,1.4,0.2,1.8,0.7c0.4,0.5,0.7,1.1,0.7,1.9v4.6h-1.7v-4.1c0-0.5-0.1-0.8-0.3-1.1c-0.2-0.2-0.5-0.4-0.9-0.4
		c-0.4,0-0.7,0.1-1,0.4c-0.2,0.2-0.4,0.6-0.4,1v4.3H432.8z M444.9,45.6v-1.3c0-0.4-0.1-0.8-0.4-1.1c-0.3-0.3-0.6-0.4-1.1-0.4
		c-0.5,0-0.9,0.2-1.2,0.5c-0.3,0.4-0.4,0.9-0.4,1.6c0,0.7,0.1,1.2,0.4,1.6c0.3,0.4,0.7,0.5,1.2,0.5c0.5,0,0.8-0.1,1.1-0.4
		C444.8,46.3,444.9,46,444.9,45.6z M445,48.4v-0.7h0c0,0.1-0.1,0.1-0.2,0.2c-0.1,0.1-0.3,0.2-0.6,0.4c-0.3,0.2-0.7,0.2-1,0.2
		c-0.9,0-1.7-0.3-2.2-1c-0.5-0.7-0.8-1.6-0.8-2.7c0-1.1,0.3-2,0.9-2.7c0.6-0.7,1.3-1,2.1-1c0.4,0,0.7,0.1,1,0.2
		c0.3,0.1,0.5,0.3,0.6,0.4l0.2,0.2h0v-3.3h1.7v9.6H445z M453,46l1.2,1.1c-0.7,1-1.7,1.6-2.9,1.6c-1,0-1.8-0.3-2.4-1
		c-0.6-0.7-0.9-1.6-0.9-2.7c0-1.1,0.3-2,0.9-2.7c0.6-0.7,1.4-1,2.3-1c0.9,0,1.7,0.3,2.3,1c0.6,0.7,0.9,1.6,0.9,2.7v0.5h-4.7
		c0,0.5,0.2,0.9,0.4,1.2c0.3,0.3,0.6,0.4,1.1,0.4c0.4,0,0.7-0.1,1-0.3C452.5,46.6,452.8,46.3,453,46z M449.7,44.2h3
		c0-0.4-0.2-0.8-0.5-1c-0.3-0.3-0.6-0.4-1.1-0.4c-0.4,0-0.8,0.1-1,0.4C449.9,43.4,449.8,43.8,449.7,44.2z M455.8,48.4v-7h1.6v0.7h0
		c0.1-0.3,0.3-0.5,0.6-0.6c0.3-0.2,0.5-0.2,0.9-0.2c0.2,0,0.4,0,0.6,0.1l-0.3,1.7c-0.2-0.1-0.4-0.1-0.5-0.1c-0.8,0-1.2,0.5-1.2,1.6
		v3.8H455.8z M460.1,46.1l1.5-0.4c0.1,1,0.6,1.5,1.6,1.5c0.4,0,0.8-0.1,1-0.2c0.3-0.1,0.4-0.3,0.4-0.6c0-0.2-0.1-0.4-0.3-0.4
		c-0.2-0.1-0.6-0.2-1.2-0.4c-0.2,0-0.3-0.1-0.4-0.1c-0.8-0.2-1.4-0.5-1.8-0.8c-0.4-0.3-0.6-0.7-0.6-1.2c0-0.6,0.2-1.1,0.7-1.5
		c0.5-0.4,1.1-0.6,1.9-0.6c1.6,0,2.5,0.7,2.9,2.1l-1.4,0.4c-0.1-0.3-0.3-0.6-0.5-0.8c-0.2-0.2-0.5-0.3-1-0.3c-0.3,0-0.6,0.1-0.8,0.2
		c-0.2,0.1-0.3,0.3-0.3,0.4c0,0.2,0.1,0.3,0.3,0.5c0.2,0.1,0.8,0.3,1.7,0.6c0.8,0.2,1.4,0.5,1.7,0.8c0.3,0.3,0.4,0.8,0.4,1.3
		c0,0.6-0.2,1.1-0.7,1.5c-0.5,0.4-1.2,0.7-2.1,0.7c-1,0-1.7-0.2-2.2-0.7C460.5,47.4,460.2,46.8,460.1,46.1z"/>
	<path class="st29" d="M310.4,670l-0.5-1.5h-3.5l-0.5,1.5h-1.8l3.3-9.2h1.5l3.3,9.2H310.4z M308.1,663.4l-1.2,3.6h2.5L308.1,663.4
		L308.1,663.4z M313.3,667.5v-3h-1.1V663h1.1v-1.7h1.6v1.7h1.8v1.4H315v2.9c0,0.4,0.1,0.6,0.2,0.8c0.1,0.1,0.4,0.2,0.8,0.2h0.6v1.6
		h-0.7c-0.9,0-1.6-0.2-1.9-0.6C313.5,669,313.3,668.4,313.3,667.5z M318.3,667.5v-3h-1.1V663h1.1v-1.7h1.6v1.7h1.8v1.4H320v2.9
		c0,0.4,0.1,0.6,0.2,0.8c0.1,0.1,0.4,0.2,0.7,0.2h0.6v1.6h-0.7c-0.9,0-1.6-0.2-1.9-0.6C318.5,669,318.3,668.4,318.3,667.5z
		 M326.9,670v-0.7h0c0,0,0,0.1-0.1,0.1c0,0-0.1,0.1-0.2,0.2c-0.1,0.1-0.2,0.2-0.4,0.3c-0.1,0.1-0.3,0.1-0.5,0.2s-0.5,0.1-0.7,0.1
		c-0.8,0-1.5-0.2-1.9-0.6c-0.4-0.4-0.6-0.9-0.6-1.5c0-0.6,0.2-1.1,0.5-1.4c0.4-0.3,1-0.6,1.8-0.8c0.8-0.2,1.3-0.3,1.5-0.5
		c0.2-0.1,0.3-0.3,0.3-0.5c0-0.2-0.1-0.4-0.3-0.5c-0.2-0.1-0.5-0.2-0.9-0.2c-0.5,0-0.8,0.1-1,0.3c-0.2,0.2-0.4,0.5-0.5,0.8l-1.4-0.6
		c0.2-0.6,0.5-1.1,1-1.4c0.5-0.4,1.1-0.6,1.9-0.6c0.9,0,1.5,0.2,2.1,0.7c0.5,0.4,0.8,1.1,0.8,2.1v4.4H326.9z M325.1,667.1
		c-0.4,0.1-0.7,0.2-0.9,0.4c-0.1,0.1-0.2,0.3-0.2,0.5c0,0.5,0.3,0.7,1,0.7c0.5,0,0.9-0.1,1.2-0.3c0.3-0.2,0.4-0.4,0.4-0.7v-1.2h0
		c0,0.1-0.1,0.1-0.1,0.2c0,0-0.2,0.1-0.4,0.2C325.9,666.9,325.6,667,325.1,667.1z M334.2,667.2l1.6,0.4c-0.2,0.8-0.5,1.5-1,1.9
		c-0.5,0.4-1.2,0.7-2,0.7c-0.9,0-1.7-0.3-2.3-1c-0.6-0.6-0.9-1.6-0.9-2.7c0-1.1,0.3-2,0.9-2.7c0.6-0.7,1.4-1,2.3-1
		c0.8,0,1.4,0.2,2,0.7c0.5,0.5,0.9,1.1,1,1.8l-1.6,0.3c-0.2-0.9-0.6-1.3-1.3-1.3c-0.5,0-0.9,0.2-1.2,0.6c-0.3,0.4-0.4,0.9-0.4,1.6
		s0.1,1.2,0.4,1.6c0.3,0.4,0.7,0.5,1.2,0.5C333.6,668.7,334,668.2,334.2,667.2z M337.1,670v-9.6h1.7v5.5h0l2.5-2.9h2.1l-2.5,2.8
		l2.7,4.1h-1.9l-2.1-3.2h0l-0.9,1v2.2H337.1z M348.9,667.6l1.2,1.1c-0.7,1-1.7,1.6-2.9,1.6c-1,0-1.8-0.3-2.4-1
		c-0.6-0.7-0.9-1.6-0.9-2.7c0-1.1,0.3-2,0.9-2.7c0.6-0.7,1.4-1,2.3-1c0.9,0,1.7,0.3,2.3,1c0.6,0.7,0.9,1.6,0.9,2.7v0.5h-4.7
		c0,0.5,0.2,0.9,0.4,1.2c0.3,0.3,0.6,0.4,1.1,0.4c0.4,0,0.7-0.1,1-0.3C348.5,668.2,348.7,667.9,348.9,667.6z M345.7,665.7h3
		c0-0.4-0.2-0.8-0.5-1c-0.3-0.3-0.6-0.4-1.1-0.4c-0.4,0-0.8,0.1-1,0.4C345.9,665,345.7,665.3,345.7,665.7z M351.7,670v-7h1.6v0.7h0
		c0.1-0.3,0.3-0.5,0.6-0.6c0.3-0.2,0.5-0.2,0.9-0.2c0.2,0,0.4,0,0.6,0.1l-0.3,1.7c-0.2-0.1-0.4-0.1-0.5-0.1c-0.8,0-1.2,0.5-1.2,1.6
		v3.8H351.7z M356,667.7l1.5-0.4c0.1,1,0.6,1.5,1.6,1.5c0.4,0,0.8-0.1,1-0.2c0.3-0.1,0.4-0.3,0.4-0.6c0-0.2-0.1-0.3-0.3-0.4
		c-0.2-0.1-0.6-0.2-1.2-0.4c-0.2,0-0.3-0.1-0.4-0.1c-0.8-0.2-1.4-0.5-1.8-0.8c-0.4-0.3-0.6-0.7-0.6-1.2c0-0.6,0.2-1.1,0.7-1.5
		c0.5-0.4,1.1-0.6,1.9-0.6c1.6,0,2.5,0.7,2.9,2.1l-1.4,0.4c-0.1-0.3-0.3-0.6-0.5-0.8c-0.2-0.2-0.5-0.3-1-0.3c-0.3,0-0.6,0.1-0.8,0.2
		c-0.2,0.1-0.3,0.3-0.3,0.4c0,0.2,0.1,0.3,0.3,0.5c0.2,0.1,0.8,0.3,1.7,0.6c0.8,0.2,1.4,0.5,1.7,0.8c0.3,0.3,0.4,0.8,0.4,1.3
		c0,0.6-0.2,1.1-0.7,1.5c-0.5,0.4-1.2,0.7-2.1,0.7c-1,0-1.7-0.2-2.2-0.7C356.5,669,356.2,668.4,356,667.7z"/>
</g>
</svg>
