<?xml version="1.0" encoding="utf-8"?>
<!-- Generator: Adobe Illustrator 24.0.2, SVG Export Plug-In . SVG Version: 6.00 Build 0)  -->
<svg version="1.1" id="Layer_1" xmlns="http://www.w3.org/2000/svg" xmlns:xlink="http://www.w3.org/1999/xlink" x="0px" y="0px"
	 viewBox="0 0 708 708" style="enable-background:new 0 0 708 708;" xml:space="preserve">
<style type="text/css">
	.st0{fill:#101319;}
	.st1{opacity:0.95;fill:#15181E;}
	.st2{fill:#202B43;filter:url(#Adobe_OpacityMaskFilter);}
	.st3{mask:url(#mask0_1_);}
	.st4{fill:#22252B;stroke:#22252B;}
	.st5{fill:none;stroke:#22252B;}
	.st6{fill:#22252B;}
	.st7{fill:#7986A3;}
	.st8{fill:#24E8CC;}
	.st9{fill:#F44348;}
	
		.st10{opacity:0.5;fill:#4D5F83;fill-opacity:0.15;stroke:#4D5F83;stroke-width:1.6433;stroke-miterlimit:16;enable-background:new    ;}
	.st11{opacity:0.15;}
	.st12{fill:#C4C4C4;filter:url(#Adobe_OpacityMaskFilter_1_);}
	.st13{mask:url(#mask1_2_);}
	.st14{fill:#4D5F83;}
	.st15{fill:#E5EBEF;}
	.st16{fill:#C4C4C4;filter:url(#Adobe_OpacityMaskFilter_2_);}
	.st17{mask:url(#mask2_2_);}
</style>
<rect x="202" y="206" class="st0" width="30" height="38"/>
<path class="st1" d="M641,310.7V191.8h-79.1v-8.5h5.5v-67.4l-14.5,5l-14-2l-36.5-15l-6.5-8.5l-13,5l-6.5,6.5h-8.5l-6.5-6.5h-26V79
	l11.5-11.5V33h-86.6v29l13,17v21.5h-19.5l-4.5,11v9.5l-16.5,6v4l-18.5,9.5v15.9h-36l-11,8h-7l-12-8h-36.5l-6.5-5.5l-8.5,5.5l-21-29
	l-15.5,9v23H97.5L83,179.8v49h6l25.5,20v24.5L89,290.7H66v146.9h58.1v-5h41.5v15.5h23.5v-10.5h52v15h24v58h47.5v53h93.1v4.5h-90.6
	v24.5h70.6v82.4h70.1v-82.4h28.5V568h-42v-4.5H621v-97.9h20V317.2h-40v-6.5H641z M465,184.6h73.5v5.5H470v41h-5V184.6z M533,407.9
	v35h-49v-35H533z M296,211.1h23.5L296,230.4V211.1z M309.5,290v14.4h-75V290H309.5z M157,206.9h117.5v36.1H171V258h-14V206.9z
	 M383,484.9h-46.5v-67H315v-34H166.5v-51h97v19.9H334v58h20v23h29V484.9z M494.5,467.9h-33.2v-71h-61.8v-15.5H385V333h78.5v-67.9h46
	v36.5h17V333h-63v65.9v65.9h31V467.9z M588,467.9h-57v-3h57V467.9z"/>
<defs>
	<filter id="Adobe_OpacityMaskFilter" filterUnits="userSpaceOnUse" x="92" y="100.9" width="547.5" height="462.5">
		<feColorMatrix  type="matrix" values="1 0 0 0 0  0 1 0 0 0  0 0 1 0 0  0 0 0 1 0"/>
	</filter>
</defs>
<mask maskUnits="userSpaceOnUse" x="92" y="100.9" width="547.5" height="462.5" id="mask0_1_">
	<path class="st2" d="M641,310.7V191.8h-79.1v-8.5h5.5v-67.4l-14.5,5l-14-2l-36.5-15l-6.5-8.5l-13,5l-6.5,6.5h-8.5l-6.5-6.5h-26V79
		l11.5-11.5V33h-86.6v29l13,17v21.5h-19.5l-4.5,11v9.5l-16.5,6v4l-18.5,9.5v15.9h-36l-11,8h-7l-12-8h-36.5l-6.5-5.5l-8.5,5.5l-21-29
		l-15.5,9v23H97.5L83,179.8v49h6l25.5,20v24.5L89,290.7H66v146.9h58.1v-5h41.5v15.5h23.5v-10.5h52v15h24v58h47.5v53h93.1v4.5h-90.6
		v24.5h70.6v82.4h70.1v-82.4h28.5V568h-42v-4.5H621v-97.9h20V317.2h-40v-6.5H641z M465,184.6h73.5v5.5H470v41h-5V184.6z M533,407.9
		v35h-49v-35H533z M296,211.1h23.5L296,230.4V211.1z M309.5,290v14.4h-75V290H309.5z M157,206.9h117.5v36.1H171V258h-14V206.9z
		 M383,484.9h-46.5v-67H315v-34H166.5v-51h97v19.9H334v58h20v23h29V484.9z M494.5,467.9h-33.2v-71h-61.8v-15.5H385V333h78.5v-67.9
		h46v36.5h17V333h-63v65.9v65.9h31V467.9z M588,467.9h-57v-3h57V467.9z"/>
</mask>
<g class="st3">
	
		<rect x="106.1" y="349.2" transform="matrix(0.7398 -0.6729 0.6729 0.7398 -220.7381 175.1925)" class="st4" width="20" height="47.6"/>
	<rect x="532.5" y="355.4" class="st4" width="58" height="17"/>
	<rect x="166.5" y="321.4" class="st4" width="10" height="10"/>
	<rect x="233.5" y="278.4" class="st4" width="10" height="10"/>
	<rect x="300.5" y="261.4" class="st4" width="10" height="10"/>
	<rect x="465.5" y="335.4" class="st4" width="10" height="18"/>
	<rect x="476.5" y="335.4" class="st4" width="10" height="11"/>
	<rect x="501.5" y="335.4" class="st4" width="10" height="11"/>
	<rect x="532.5" y="219.4" class="st4" width="58" height="20"/>
	<rect x="621.5" y="250.4" class="st4" width="17" height="9"/>
	<rect x="413.5" y="244.4" class="st4" width="17" height="49"/>
	<rect x="500.5" y="236.4" class="st4" width="10" height="27"/>
	<rect x="383.5" y="216.4" class="st4" width="17" height="27"/>
	<rect x="225.5" y="385.4" class="st4" width="10" height="8"/>
	<rect x="199.5" y="419.4" class="st4" width="10" height="8"/>
	<rect x="358.5" y="540.4" class="st4" width="47" height="22"/>
	<rect x="442.5" y="540.4" class="st4" width="47" height="22"/>
	<rect x="372.5" y="233.4" class="st4" width="50" height="10"/>
	<path class="st5" d="M639.5,259.9h-39v23.5H535v-23.5"/>
	<path class="st6" d="M400,484.5h-17V434h17V484.5z"/>
	<path class="st6" d="M443,448.9V397h18v51.9H443z"/>
	<path class="st5" d="M334,394.4h19.5v-136H372v-48.5h-76v-13.5 M335,352.9v-94.5h-15 M308,258.4H191v26h11.5v20h-58v-20h33v-26h-20
		V253 M313.5,493.9v-52h-26 M274.5,441.9H266v10.5 M266,469.9h8.5v40 M406,563.4v-66.5 M442,563.4v-66.5 M600,317.9v17.5h22v56.5
		 M639.5,391.9H588v15h-54.5 M533.5,443.9H548 M603.5,443.9H548 M548,443.9v-18.5h91.5 M383,484.5h17V434h-17V484.5z M443,397v51.9
		h18V397H443z"/>
	<path class="st6" d="M265,418.9v-17h-99.5v17H265z"/>
	<path class="st5" d="M470.5,202.4h169 M566,163.9h-81.5 M374,100.9v41 M434.5,100.9v41 M314.5,157.4v19.5h6.5 M347.5,193.9h-33v-6
		 M295.5,187.9v-14 M295.5,157.4v4.2 M295.5,165.9v-4.2 M295.5,161.7H275v44.2h21 M196,157.4v26h42v-26 M114.5,160.4v13.5
		 M159.5,160.4v18.5 M265,384.9v17 M265,418.9h49 M265,418.9v-17 M265,418.9h-99.5v-17H265"/>
</g>
<path class="st5" d="M564.5,302H527v6.5h28.5v5h9V302z"/>
<path class="st5" d="M564.5,332.5H527V326h28.5v-5h9V332.5z"/>
<path class="st5" d="M564.5,308.5v16"/>
<rect x="202.5" y="230.5" class="st5" width="29" height="12"/>
<rect x="202.5" y="219.5" class="st5" width="29" height="11"/>
<rect x="202.5" y="207.5" class="st5" width="29" height="12"/>
<path class="st5" d="M202.5,242.5l29-12"/>
<path class="st5" d="M202.5,231l29-12"/>
<path class="st5" d="M202.5,220l29-12"/>
<path class="st5" d="M202.5,230.5l29,12"/>
<path class="st5" d="M202.5,219l29,12"/>
<path class="st5" d="M202.5,208l29,12"/>
<g>
	<path class="st7" d="M496.3,520.1l-0.4-1.1h-2.6l-0.4,1.1h-1.3l2.5-6.9h1.1l2.5,6.9H496.3z M494.5,515.2l-0.9,2.7h1.9L494.5,515.2
		L494.5,515.2z M498.4,518.3V516h-0.8v-1.1h0.8v-1.3h1.2v1.3h1.3v1.1h-1.3v2.2c0,0.3,0,0.5,0.1,0.6c0.1,0.1,0.3,0.2,0.6,0.2h0.4v1.2
		h-0.5c-0.7,0-1.2-0.1-1.5-0.4C498.6,519.4,498.4,518.9,498.4,518.3z M502.2,518.3V516h-0.8v-1.1h0.8v-1.3h1.2v1.3h1.3v1.1h-1.3v2.2
		c0,0.3,0,0.5,0.1,0.6c0.1,0.1,0.3,0.2,0.6,0.2h0.4v1.2H504c-0.7,0-1.2-0.1-1.4-0.4C502.3,519.4,502.2,518.9,502.2,518.3z
		 M508.6,520.1v-0.5h0c0,0,0,0,0,0.1c0,0-0.1,0.1-0.1,0.1s-0.2,0.1-0.3,0.2c-0.1,0.1-0.2,0.1-0.4,0.2c-0.2,0-0.4,0.1-0.6,0.1
		c-0.6,0-1.1-0.1-1.4-0.4c-0.3-0.3-0.5-0.7-0.5-1.1c0-0.5,0.1-0.8,0.4-1c0.3-0.2,0.7-0.4,1.4-0.6c0.6-0.1,1-0.3,1.1-0.3
		c0.2-0.1,0.2-0.2,0.2-0.4s-0.1-0.3-0.2-0.4c-0.1-0.1-0.4-0.2-0.7-0.2c-0.3,0-0.6,0.1-0.7,0.2c-0.2,0.2-0.3,0.4-0.4,0.6l-1.1-0.4
		c0.1-0.4,0.4-0.8,0.7-1.1c0.4-0.3,0.8-0.4,1.4-0.4c0.6,0,1.2,0.2,1.6,0.5c0.4,0.3,0.6,0.9,0.6,1.6v3.3H508.6z M507.3,518
		c-0.3,0.1-0.5,0.2-0.7,0.3c-0.1,0.1-0.1,0.2-0.1,0.4c0,0.4,0.3,0.5,0.8,0.5c0.4,0,0.7-0.1,0.9-0.2c0.2-0.2,0.3-0.3,0.3-0.6v-0.9h0
		c0,0.1-0.1,0.1-0.1,0.1c0,0-0.1,0.1-0.3,0.1C507.9,517.9,507.6,517.9,507.3,518z M514.1,518l1.2,0.3c-0.1,0.6-0.4,1.1-0.8,1.4
		c-0.4,0.3-0.9,0.5-1.5,0.5c-0.7,0-1.3-0.2-1.8-0.7c-0.5-0.5-0.7-1.2-0.7-2c0-0.9,0.2-1.5,0.7-2c0.5-0.5,1.1-0.7,1.7-0.7
		c0.6,0,1.1,0.2,1.5,0.5c0.4,0.3,0.6,0.8,0.7,1.4l-1.2,0.2c-0.1-0.6-0.5-1-1-1c-0.4,0-0.7,0.1-0.9,0.4c-0.2,0.3-0.3,0.7-0.3,1.2
		s0.1,0.9,0.3,1.2c0.2,0.3,0.5,0.4,0.9,0.4C513.6,519.1,514,518.8,514.1,518z M516.3,520.1v-7.2h1.3v4.1h0l1.9-2.2h1.6l-1.9,2.1
		l2.1,3.1h-1.4l-1.6-2.4h0l-0.7,0.7v1.6H516.3z M525.1,518.3l0.9,0.8c-0.5,0.8-1.3,1.2-2.2,1.2c-0.7,0-1.3-0.2-1.8-0.7
		c-0.5-0.5-0.7-1.2-0.7-2c0-0.8,0.2-1.5,0.7-2c0.5-0.5,1-0.8,1.7-0.8c0.7,0,1.3,0.3,1.7,0.8c0.5,0.5,0.7,1.2,0.7,2v0.4h-3.5
		c0,0.4,0.1,0.7,0.3,0.9c0.2,0.2,0.5,0.3,0.8,0.3c0.3,0,0.5-0.1,0.7-0.2C524.8,518.8,525,518.6,525.1,518.3z M522.7,517h2.3
		c0-0.3-0.1-0.6-0.3-0.8c-0.2-0.2-0.5-0.3-0.8-0.3c-0.3,0-0.6,0.1-0.8,0.3C522.8,516.4,522.7,516.7,522.7,517z M527.3,520.1v-5.2
		h1.2v0.6h0c0.1-0.2,0.2-0.4,0.4-0.5c0.2-0.1,0.4-0.2,0.6-0.2c0.2,0,0.3,0,0.5,0.1l-0.2,1.2c-0.1-0.1-0.3-0.1-0.4-0.1
		c-0.6,0-0.9,0.4-0.9,1.2v2.9H527.3z M530.5,518.4l1.2-0.3c0.1,0.7,0.5,1.1,1.2,1.1c0.3,0,0.6,0,0.7-0.1c0.2-0.1,0.3-0.2,0.3-0.4
		c0-0.2-0.1-0.3-0.2-0.3c-0.1-0.1-0.4-0.2-0.9-0.3c-0.1,0-0.2-0.1-0.3-0.1c-0.6-0.2-1-0.4-1.3-0.6c-0.3-0.2-0.4-0.5-0.4-0.9
		c0-0.4,0.2-0.8,0.5-1.1c0.4-0.3,0.8-0.5,1.4-0.5c1.2,0,1.9,0.5,2.2,1.5l-1.1,0.3c-0.1-0.2-0.2-0.4-0.4-0.6
		c-0.2-0.1-0.4-0.2-0.7-0.2c-0.2,0-0.5,0-0.6,0.1c-0.1,0.1-0.2,0.2-0.2,0.3c0,0.1,0.1,0.3,0.3,0.3c0.2,0.1,0.6,0.2,1.3,0.4
		c0.6,0.2,1,0.4,1.2,0.6c0.2,0.2,0.3,0.6,0.3,1c0,0.4-0.2,0.8-0.6,1.1c-0.4,0.3-0.9,0.5-1.6,0.5c-0.7,0-1.3-0.2-1.7-0.5
		C530.8,519.4,530.6,518.9,530.5,518.4z M538.1,517.8l1.4-0.3c0.1,0.5,0.2,0.9,0.4,1.2c0.2,0.2,0.5,0.4,1,0.4c0.4,0,0.7-0.1,0.9-0.2
		c0.2-0.1,0.3-0.3,0.3-0.6c0-0.3-0.1-0.5-0.3-0.6c-0.2-0.2-0.7-0.3-1.5-0.6c-0.7-0.2-1.2-0.5-1.5-0.8c-0.3-0.3-0.4-0.7-0.4-1.2
		c0-0.5,0.2-1,0.6-1.4c0.4-0.4,1-0.6,1.7-0.6c0.7,0,1.2,0.2,1.7,0.5c0.5,0.3,0.8,0.8,0.9,1.4l-1.3,0.3c-0.2-0.7-0.6-1-1.3-1
		c-0.3,0-0.6,0.1-0.8,0.2c-0.2,0.1-0.2,0.3-0.2,0.5c0,0.2,0.1,0.4,0.3,0.5c0.2,0.1,0.7,0.3,1.5,0.6c0.8,0.3,1.3,0.5,1.6,0.9
		c0.3,0.3,0.4,0.7,0.4,1.2c0,0.6-0.2,1.1-0.7,1.5c-0.5,0.4-1.1,0.6-1.8,0.6c-0.8,0-1.4-0.2-1.9-0.6
		C538.5,519.3,538.2,518.7,538.1,517.8z M544.3,520.1v-5.2h1.3v5.2H544.3z M544.3,514.2v-1.2h1.3v1.2H544.3z M550.2,518v-1
		c0-0.3-0.1-0.6-0.3-0.8c-0.2-0.2-0.5-0.3-0.8-0.3c-0.4,0-0.7,0.1-0.9,0.4c-0.2,0.3-0.3,0.7-0.3,1.2c0,0.5,0.1,0.9,0.3,1.2
		c0.2,0.3,0.5,0.4,0.9,0.4c0.3,0,0.6-0.1,0.8-0.3C550.1,518.6,550.2,518.3,550.2,518z M550.3,520.1v-0.5h0c0,0-0.1,0.1-0.1,0.2
		c-0.1,0.1-0.2,0.2-0.5,0.3c-0.2,0.1-0.5,0.2-0.8,0.2c-0.7,0-1.2-0.2-1.7-0.7c-0.4-0.5-0.6-1.2-0.6-2c0-0.8,0.2-1.5,0.7-2
		c0.4-0.5,1-0.8,1.6-0.8c0.3,0,0.5,0.1,0.7,0.2c0.2,0.1,0.4,0.2,0.5,0.3l0.1,0.2h0v-2.5h1.3v7.2H550.3z M556.3,518.3l0.9,0.8
		c-0.5,0.8-1.3,1.2-2.2,1.2c-0.7,0-1.3-0.2-1.8-0.7c-0.5-0.5-0.7-1.2-0.7-2c0-0.8,0.2-1.5,0.7-2c0.5-0.5,1-0.8,1.7-0.8
		c0.7,0,1.3,0.3,1.7,0.8c0.5,0.5,0.7,1.2,0.7,2v0.4h-3.5c0,0.4,0.1,0.7,0.3,0.9c0.2,0.2,0.5,0.3,0.8,0.3c0.3,0,0.5-0.1,0.7-0.2
		C555.9,518.8,556.1,518.6,556.3,518.3z M553.8,517h2.3c0-0.3-0.1-0.6-0.3-0.8c-0.2-0.2-0.5-0.3-0.8-0.3c-0.3,0-0.6,0.1-0.8,0.3
		C554,516.4,553.9,516.7,553.8,517z M560.5,517.8l1.4-0.3c0.1,0.5,0.2,0.9,0.4,1.2c0.2,0.2,0.5,0.4,1,0.4c0.4,0,0.7-0.1,0.9-0.2
		c0.2-0.1,0.3-0.3,0.3-0.6c0-0.3-0.1-0.5-0.3-0.6c-0.2-0.2-0.7-0.3-1.5-0.6c-0.7-0.2-1.2-0.5-1.5-0.8c-0.3-0.3-0.4-0.7-0.4-1.2
		c0-0.5,0.2-1,0.6-1.4c0.4-0.4,1-0.6,1.7-0.6c0.7,0,1.2,0.2,1.7,0.5c0.5,0.3,0.8,0.8,0.9,1.4l-1.3,0.3c-0.2-0.7-0.6-1-1.3-1
		c-0.3,0-0.6,0.1-0.8,0.2c-0.2,0.1-0.2,0.3-0.2,0.5c0,0.2,0.1,0.4,0.3,0.5c0.2,0.1,0.7,0.3,1.5,0.6c0.8,0.3,1.3,0.5,1.6,0.9
		c0.3,0.3,0.4,0.7,0.4,1.2c0,0.6-0.2,1.1-0.7,1.5s-1.1,0.6-1.8,0.6c-0.8,0-1.4-0.2-1.9-0.6C560.9,519.3,560.6,518.7,560.5,517.8z
		 M568,517v1.1c0,0.3,0.1,0.6,0.3,0.8c0.2,0.2,0.5,0.3,0.8,0.3c0.4,0,0.7-0.1,0.9-0.4c0.2-0.3,0.4-0.7,0.4-1.2
		c0-0.5-0.1-0.9-0.4-1.2c-0.2-0.3-0.5-0.4-0.9-0.4c-0.3,0-0.6,0.1-0.8,0.3C568.1,516.4,568,516.7,568,517z M566.7,522.4v-7.4h1.2
		v0.5h0c0,0,0,0,0-0.1c0,0,0.1-0.1,0.1-0.2c0.1-0.1,0.2-0.1,0.3-0.2c0.1-0.1,0.2-0.1,0.4-0.2c0.2,0,0.4-0.1,0.5-0.1
		c0.6,0,1.2,0.2,1.6,0.8c0.5,0.5,0.7,1.2,0.7,2c0,0.9-0.2,1.5-0.7,2c-0.4,0.5-1,0.7-1.6,0.7c-0.2,0-0.4,0-0.5-0.1
		c-0.2,0-0.3-0.1-0.4-0.2c-0.1-0.1-0.2-0.1-0.3-0.2c-0.1-0.1-0.1-0.1-0.2-0.2l0-0.1h0v2.7H566.7z M575.7,520.1v-0.5h0c0,0,0,0,0,0.1
		c0,0-0.1,0.1-0.1,0.1s-0.2,0.1-0.3,0.2c-0.1,0.1-0.2,0.1-0.4,0.2c-0.2,0-0.4,0.1-0.6,0.1c-0.6,0-1.1-0.1-1.4-0.4
		c-0.3-0.3-0.5-0.7-0.5-1.1c0-0.5,0.1-0.8,0.4-1c0.3-0.2,0.7-0.4,1.4-0.6c0.6-0.1,1-0.3,1.1-0.3c0.2-0.1,0.2-0.2,0.2-0.4
		s-0.1-0.3-0.2-0.4c-0.1-0.1-0.4-0.2-0.7-0.2c-0.3,0-0.6,0.1-0.7,0.2c-0.2,0.2-0.3,0.4-0.4,0.6l-1.1-0.4c0.1-0.4,0.4-0.8,0.7-1.1
		c0.4-0.3,0.8-0.4,1.4-0.4c0.6,0,1.2,0.2,1.6,0.5c0.4,0.3,0.6,0.9,0.6,1.6v3.3H575.7z M574.4,518c-0.3,0.1-0.5,0.2-0.7,0.3
		c-0.1,0.1-0.1,0.2-0.1,0.4c0,0.4,0.3,0.5,0.8,0.5c0.4,0,0.7-0.1,0.9-0.2c0.2-0.2,0.3-0.3,0.3-0.6v-0.9h0c0,0.1-0.1,0.1-0.1,0.1
		c0,0-0.1,0.1-0.3,0.1C575,517.9,574.8,517.9,574.4,518z M578.8,520.1l-1.2-5.2h1.3l0.7,3.5h0l1.2-3.5h1.2l1.1,3.5h0l0.8-3.5h1.2
		l-1.3,5.2h-1.3l-1.2-3.8h0l-1.3,3.8H578.8z M586.1,520.1v-5.2h1.2v0.5h0c0.1-0.2,0.3-0.3,0.6-0.5c0.2-0.1,0.5-0.2,0.8-0.2
		c0.6,0,1,0.2,1.4,0.5c0.3,0.3,0.5,0.8,0.5,1.4v3.4h-1.3V517c0-0.4-0.1-0.6-0.2-0.8c-0.1-0.2-0.4-0.3-0.7-0.3
		c-0.3,0-0.6,0.1-0.7,0.3c-0.2,0.2-0.3,0.4-0.3,0.7v3.2H586.1z"/>
	<path class="st7" d="M362.8,425.1v-6.9h1.4l2,4.5h0l2-4.5h1.4v6.9h-1.3v-4.2h0l-2,4.2H366l-2-4.2h0v4.2H362.8z M371,425.1v-5.2h1.3
		v5.2H371z M371,419.2v-1.2h1.3v1.2H371z M376.9,423v-1c0-0.3-0.1-0.6-0.3-0.8c-0.2-0.2-0.5-0.3-0.8-0.3c-0.4,0-0.7,0.1-0.9,0.4
		c-0.2,0.3-0.3,0.7-0.3,1.2c0,0.5,0.1,0.9,0.3,1.2c0.2,0.3,0.5,0.4,0.9,0.4c0.3,0,0.6-0.1,0.8-0.3
		C376.8,423.6,376.9,423.3,376.9,423z M377,425.1v-0.5h0c0,0-0.1,0.1-0.1,0.2c-0.1,0.1-0.2,0.2-0.5,0.3c-0.2,0.1-0.5,0.2-0.8,0.2
		c-0.7,0-1.2-0.2-1.7-0.7c-0.4-0.5-0.6-1.2-0.6-2c0-0.8,0.2-1.5,0.7-2c0.4-0.5,1-0.8,1.6-0.8c0.3,0,0.5,0.1,0.7,0.2
		c0.2,0.1,0.4,0.2,0.5,0.3l0.1,0.2h0v-2.5h1.3v7.2H377z M382.1,425.1v-6.9h2.9c0.6,0,1.1,0.2,1.5,0.5c0.4,0.4,0.6,0.8,0.6,1.3
		c0,0.6-0.2,1-0.7,1.3v0c0.3,0.1,0.5,0.3,0.7,0.6c0.2,0.3,0.3,0.6,0.3,1c0,0.7-0.2,1.2-0.6,1.6c-0.4,0.4-1.1,0.6-2,0.6H382.1z
		 M383.5,423.9h1.6c0.6,0,0.9-0.3,0.9-0.9c0-0.3-0.1-0.5-0.3-0.7c-0.2-0.2-0.4-0.2-0.7-0.2h-1.6V423.9z M383.5,421h1.4
		c0.3,0,0.5-0.1,0.6-0.2c0.2-0.1,0.2-0.3,0.2-0.6c0-0.3-0.1-0.5-0.2-0.6c-0.2-0.1-0.4-0.2-0.6-0.2h-1.4V421z M388.4,425.1v-7.2h1.3
		v7.2H388.4z M391.1,423.3v-3.4h1.3v3.2c0,0.3,0.1,0.6,0.2,0.7s0.3,0.2,0.6,0.2c0.3,0,0.6-0.1,0.7-0.2c0.2-0.2,0.3-0.4,0.3-0.8v-3.1
		h1.3v5.2h-1.2v-0.5h0c-0.3,0.4-0.8,0.7-1.4,0.7c-0.6,0-1.1-0.2-1.4-0.5C391.3,424.4,391.1,423.9,391.1,423.3z M400.3,423.3l0.9,0.8
		c-0.5,0.8-1.3,1.2-2.2,1.2c-0.7,0-1.3-0.2-1.8-0.7c-0.5-0.5-0.7-1.2-0.7-2s0.2-1.5,0.7-2c0.5-0.5,1-0.8,1.7-0.8
		c0.7,0,1.3,0.3,1.7,0.8c0.5,0.5,0.7,1.2,0.7,2v0.4h-3.5c0,0.4,0.1,0.7,0.3,0.9c0.2,0.2,0.5,0.3,0.8,0.3c0.3,0,0.5-0.1,0.7-0.2
		C399.9,423.8,400.1,423.6,400.3,423.3z M397.8,422h2.3c0-0.3-0.1-0.6-0.3-0.8c-0.2-0.2-0.5-0.3-0.8-0.3c-0.3,0-0.6,0.1-0.8,0.3
		C398,421.4,397.9,421.7,397.8,422z"/>
	<path class="st7" d="M271.1,463.1v-6.9h2.9c0.6,0,1.1,0.2,1.5,0.5c0.4,0.4,0.6,0.8,0.6,1.3c0,0.6-0.2,1-0.7,1.3v0
		c0.3,0.1,0.5,0.3,0.7,0.6c0.2,0.3,0.3,0.6,0.3,1c0,0.7-0.2,1.2-0.6,1.6c-0.4,0.4-1.1,0.6-2,0.6H271.1z M272.4,461.9h1.6
		c0.6,0,0.9-0.3,0.9-0.9c0-0.3-0.1-0.5-0.3-0.7c-0.2-0.2-0.4-0.2-0.7-0.2h-1.6V461.9z M272.4,459h1.4c0.3,0,0.5-0.1,0.6-0.2
		c0.2-0.1,0.2-0.3,0.2-0.6c0-0.3-0.1-0.5-0.2-0.6c-0.2-0.1-0.4-0.2-0.6-0.2h-1.4V459z M282.6,463.3c-0.9,0-1.6-0.3-2.2-0.9
		c-0.6-0.6-0.8-1.5-0.8-2.8c0-1.1,0.3-1.9,0.9-2.6c0.6-0.6,1.3-0.9,2.1-0.9c0.7,0,1.3,0.2,1.8,0.6c0.5,0.4,0.8,1,0.9,1.7l-1.3,0.2
		c-0.2-0.9-0.6-1.3-1.3-1.3c-0.5,0-0.8,0.2-1.2,0.6c-0.3,0.4-0.5,1-0.5,1.7c0,0.8,0.2,1.5,0.5,1.9c0.3,0.4,0.7,0.6,1.2,0.6
		c0.4,0,0.8-0.1,1-0.4c0.2-0.2,0.4-0.6,0.4-1h-1.3v-1.1h2.6v0.9c0,0.9-0.2,1.6-0.7,2.1C284,463,283.4,463.3,282.6,463.3z
		 M289.3,463.1v-0.5h0c0,0,0,0,0,0.1c0,0-0.1,0.1-0.1,0.1s-0.2,0.1-0.3,0.2c-0.1,0.1-0.2,0.1-0.4,0.2c-0.2,0-0.4,0.1-0.6,0.1
		c-0.6,0-1.1-0.1-1.4-0.4c-0.3-0.3-0.5-0.7-0.5-1.1c0-0.5,0.1-0.8,0.4-1c0.3-0.2,0.7-0.4,1.4-0.6c0.6-0.1,1-0.3,1.1-0.3
		c0.2-0.1,0.2-0.2,0.2-0.4s-0.1-0.3-0.2-0.4c-0.1-0.1-0.4-0.2-0.7-0.2c-0.3,0-0.6,0.1-0.7,0.2c-0.2,0.2-0.3,0.4-0.4,0.6l-1.1-0.4
		c0.1-0.4,0.4-0.8,0.7-1.1c0.4-0.3,0.8-0.4,1.4-0.4c0.6,0,1.2,0.2,1.6,0.5c0.4,0.3,0.6,0.9,0.6,1.6v3.3H289.3z M288,461
		c-0.3,0.1-0.5,0.2-0.7,0.3c-0.1,0.1-0.1,0.2-0.1,0.4c0,0.4,0.3,0.5,0.8,0.5c0.4,0,0.7-0.1,0.9-0.2c0.2-0.2,0.3-0.3,0.3-0.6v-0.9h0
		c0,0.1-0.1,0.1-0.1,0.1c0,0-0.1,0.1-0.3,0.1C288.6,460.9,288.3,460.9,288,461z M291.6,463.1v-5.2h1.2v0.6h0
		c0.1-0.2,0.2-0.4,0.4-0.5c0.2-0.1,0.4-0.2,0.6-0.2c0.2,0,0.3,0,0.5,0.1l-0.2,1.2c-0.1-0.1-0.3-0.1-0.4-0.1c-0.6,0-0.9,0.4-0.9,1.2
		v2.9H291.6z M298.2,463.1v-0.5h0c0,0,0,0,0,0.1c0,0-0.1,0.1-0.1,0.1c-0.1,0.1-0.2,0.1-0.3,0.2c-0.1,0.1-0.2,0.1-0.4,0.2
		c-0.2,0-0.4,0.1-0.6,0.1c-0.6,0-1.1-0.1-1.4-0.4c-0.3-0.3-0.5-0.7-0.5-1.1c0-0.5,0.1-0.8,0.4-1c0.3-0.2,0.7-0.4,1.4-0.6
		c0.6-0.1,1-0.3,1.1-0.3c0.2-0.1,0.2-0.2,0.2-0.4s-0.1-0.3-0.2-0.4c-0.1-0.1-0.4-0.2-0.7-0.2c-0.3,0-0.6,0.1-0.7,0.2
		c-0.2,0.2-0.3,0.4-0.4,0.6l-1.1-0.4c0.1-0.4,0.4-0.8,0.7-1.1c0.4-0.3,0.8-0.4,1.4-0.4c0.6,0,1.2,0.2,1.6,0.5
		c0.4,0.3,0.6,0.9,0.6,1.6v3.3H298.2z M297,461c-0.3,0.1-0.5,0.2-0.7,0.3c-0.1,0.1-0.1,0.2-0.1,0.4c0,0.4,0.3,0.5,0.8,0.5
		c0.4,0,0.7-0.1,0.9-0.2c0.2-0.2,0.3-0.3,0.3-0.6v-0.9h0c0,0.1-0.1,0.1-0.1,0.1c0,0-0.1,0.1-0.3,0.1
		C297.5,460.9,297.3,460.9,297,461z M303.9,461.1V460c0-0.3-0.1-0.5-0.3-0.8c-0.2-0.2-0.5-0.3-0.8-0.3c-0.4,0-0.7,0.1-0.9,0.4
		s-0.4,0.7-0.4,1.2c0,0.5,0.1,0.9,0.4,1.2c0.2,0.3,0.6,0.4,0.9,0.4c0.3,0,0.6-0.1,0.8-0.3C303.8,461.6,303.9,461.4,303.9,461.1z
		 M300.6,464.2l1-0.7c0.2,0.3,0.3,0.5,0.5,0.6c0.2,0.1,0.4,0.2,0.7,0.2c0.3,0,0.6-0.1,0.8-0.3c0.2-0.2,0.3-0.4,0.3-0.8v-0.7h0
		c-0.1,0.2-0.3,0.3-0.5,0.5c-0.2,0.1-0.5,0.2-0.8,0.2c-0.7,0-1.2-0.2-1.7-0.7c-0.5-0.5-0.7-1.2-0.7-2c0-0.8,0.2-1.5,0.7-2
		c0.5-0.5,1-0.8,1.6-0.8c0.6,0,1.1,0.2,1.4,0.7h0v-0.5h1.2v5.2c0,0.8-0.2,1.3-0.7,1.8c-0.4,0.4-1,0.6-1.7,0.6c-0.5,0-1-0.1-1.4-0.4
		C301.1,464.9,300.8,464.6,300.6,464.2z M309.9,461.3l0.9,0.8c-0.5,0.8-1.3,1.2-2.2,1.2c-0.7,0-1.3-0.2-1.8-0.7
		c-0.5-0.5-0.7-1.2-0.7-2s0.2-1.5,0.7-2c0.5-0.5,1-0.8,1.7-0.8c0.7,0,1.3,0.3,1.7,0.8c0.5,0.5,0.7,1.2,0.7,2v0.4h-3.5
		c0,0.4,0.1,0.7,0.3,0.9c0.2,0.2,0.5,0.3,0.8,0.3c0.3,0,0.5-0.1,0.7-0.2C309.6,461.8,309.8,461.6,309.9,461.3z M307.5,460h2.3
		c0-0.3-0.1-0.6-0.3-0.8c-0.2-0.2-0.5-0.3-0.8-0.3c-0.3,0-0.6,0.1-0.8,0.3C307.6,459.4,307.5,459.7,307.5,460z"/>
	<path class="st7" d="M227.8,413.1v-6.9h2.9c0.6,0,1.1,0.2,1.5,0.5c0.4,0.4,0.6,0.8,0.6,1.3c0,0.6-0.2,1-0.7,1.3v0
		c0.3,0.1,0.5,0.3,0.7,0.6c0.2,0.3,0.3,0.6,0.3,1c0,0.7-0.2,1.2-0.6,1.6c-0.4,0.4-1.1,0.6-2,0.6H227.8z M229.1,411.9h1.6
		c0.6,0,0.9-0.3,0.9-0.9c0-0.3-0.1-0.5-0.3-0.7c-0.2-0.2-0.4-0.2-0.7-0.2h-1.6V411.9z M229.1,409h1.4c0.3,0,0.5-0.1,0.6-0.2
		c0.2-0.1,0.2-0.3,0.2-0.6c0-0.3-0.1-0.5-0.2-0.6c-0.2-0.1-0.4-0.2-0.6-0.2h-1.4V409z M239.2,413.3c-0.9,0-1.6-0.3-2.2-0.9
		c-0.6-0.6-0.8-1.5-0.8-2.8c0-1.1,0.3-1.9,0.9-2.6c0.6-0.6,1.3-0.9,2.1-0.9c0.7,0,1.3,0.2,1.8,0.6c0.5,0.4,0.8,1,0.9,1.7l-1.3,0.2
		c-0.2-0.9-0.6-1.3-1.3-1.3c-0.5,0-0.8,0.2-1.2,0.6c-0.3,0.4-0.5,1-0.5,1.7c0,0.8,0.2,1.5,0.5,1.9c0.3,0.4,0.7,0.6,1.2,0.6
		c0.4,0,0.8-0.1,1-0.4c0.2-0.2,0.4-0.6,0.4-1h-1.3v-1.1h2.6v0.9c0,0.9-0.2,1.6-0.7,2.1C240.6,413,240,413.3,239.2,413.3z M243,413.1
		v-5.2h1.2v0.6h0c0.1-0.2,0.2-0.4,0.4-0.5c0.2-0.1,0.4-0.2,0.6-0.2c0.2,0,0.3,0,0.5,0.1l-0.2,1.2c-0.1-0.1-0.3-0.1-0.4-0.1
		c-0.6,0-0.9,0.4-0.9,1.2v2.9H243z M250,411.3l0.9,0.8c-0.5,0.8-1.3,1.2-2.2,1.2c-0.7,0-1.3-0.2-1.8-0.7c-0.5-0.5-0.7-1.2-0.7-2
		s0.2-1.5,0.7-2c0.5-0.5,1-0.8,1.7-0.8c0.7,0,1.3,0.3,1.7,0.8c0.5,0.5,0.7,1.2,0.7,2v0.4h-3.5c0,0.4,0.1,0.7,0.3,0.9
		c0.2,0.2,0.5,0.3,0.8,0.3c0.3,0,0.5-0.1,0.7-0.2C249.6,411.8,249.8,411.6,250,411.3z M247.5,410h2.3c0-0.3-0.1-0.6-0.3-0.8
		c-0.2-0.2-0.5-0.3-0.8-0.3c-0.3,0-0.6,0.1-0.8,0.3C247.7,409.4,247.6,409.7,247.5,410z M255.5,411.3l0.9,0.8
		c-0.5,0.8-1.3,1.2-2.2,1.2c-0.7,0-1.3-0.2-1.8-0.7c-0.5-0.5-0.7-1.2-0.7-2s0.2-1.5,0.7-2c0.5-0.5,1-0.8,1.7-0.8
		c0.7,0,1.3,0.3,1.7,0.8c0.5,0.5,0.7,1.2,0.7,2v0.4H253c0,0.4,0.1,0.7,0.3,0.9c0.2,0.2,0.5,0.3,0.8,0.3c0.3,0,0.5-0.1,0.7-0.2
		C255.1,411.8,255.3,411.6,255.5,411.3z M253,410h2.3c0-0.3-0.1-0.6-0.3-0.8c-0.2-0.2-0.5-0.3-0.8-0.3c-0.3,0-0.6,0.1-0.8,0.3
		C253.2,409.4,253.1,409.7,253,410z M257.6,413.1v-5.2h1.2v0.5h0c0.1-0.2,0.3-0.3,0.6-0.5c0.2-0.1,0.5-0.2,0.8-0.2
		c0.6,0,1,0.2,1.4,0.5c0.3,0.3,0.5,0.8,0.5,1.4v3.4h-1.3V410c0-0.4-0.1-0.6-0.2-0.8c-0.1-0.2-0.4-0.3-0.7-0.3
		c-0.3,0-0.6,0.1-0.7,0.3c-0.2,0.2-0.3,0.4-0.3,0.7v3.2H257.6z"/>
	<path class="st7" d="M270.7,323.1v-6.9h2.9c0.6,0,1.1,0.2,1.5,0.5c0.4,0.4,0.6,0.8,0.6,1.3c0,0.6-0.2,1-0.7,1.3v0
		c0.3,0.1,0.5,0.3,0.7,0.6c0.2,0.3,0.3,0.6,0.3,1c0,0.7-0.2,1.2-0.6,1.6c-0.4,0.4-1.1,0.6-2,0.6H270.7z M272,321.9h1.6
		c0.6,0,0.9-0.3,0.9-0.9c0-0.3-0.1-0.5-0.3-0.7c-0.2-0.2-0.4-0.2-0.7-0.2H272V321.9z M272,319h1.4c0.3,0,0.5-0.1,0.6-0.2
		c0.2-0.1,0.2-0.3,0.2-0.6c0-0.3-0.1-0.5-0.2-0.6c-0.2-0.1-0.4-0.2-0.6-0.2H272V319z M281,321.5c0.3,0.4,0.7,0.6,1.2,0.6
		c0.5,0,0.9-0.2,1.2-0.6c0.3-0.4,0.5-1,0.5-1.9c0-0.7-0.2-1.3-0.5-1.7c-0.3-0.4-0.7-0.6-1.1-0.6c-0.5,0-0.8,0.2-1.2,0.6
		c-0.3,0.4-0.5,1-0.5,1.7C280.5,320.5,280.7,321.1,281,321.5z M283.3,323.1c-0.3,0.1-0.7,0.2-1.1,0.2c-0.4,0-0.8-0.1-1.1-0.2
		c-0.3-0.1-0.7-0.3-1-0.6c-0.3-0.3-0.5-0.7-0.7-1.1c-0.2-0.5-0.2-1-0.2-1.7c0-0.6,0.1-1.1,0.2-1.5c0.2-0.5,0.4-0.8,0.7-1.1
		c0.3-0.3,0.6-0.5,1-0.7c0.4-0.2,0.7-0.2,1.1-0.2s0.8,0.1,1.1,0.2c0.4,0.1,0.7,0.4,1,0.7c0.3,0.3,0.5,0.7,0.7,1.1
		c0.2,0.5,0.3,1,0.3,1.5c0,0.6-0.1,1.2-0.3,1.7c-0.2,0.5-0.4,0.9-0.7,1.1C283.9,322.7,283.6,323,283.3,323.1z M286.2,323.1v-5.2h1.2
		v0.6h0c0.1-0.2,0.2-0.4,0.4-0.5c0.2-0.1,0.4-0.2,0.6-0.2c0.2,0,0.3,0,0.5,0.1l-0.2,1.2c-0.1-0.1-0.3-0.1-0.4-0.1
		c-0.6,0-0.9,0.4-0.9,1.2v2.9H286.2z M292.8,323.1v-0.5h0c0,0,0,0,0,0.1c0,0-0.1,0.1-0.1,0.1c-0.1,0.1-0.2,0.1-0.3,0.2
		c-0.1,0.1-0.2,0.1-0.4,0.2c-0.2,0-0.4,0.1-0.6,0.1c-0.6,0-1.1-0.1-1.4-0.4c-0.3-0.3-0.5-0.7-0.5-1.1c0-0.5,0.1-0.8,0.4-1
		c0.3-0.2,0.7-0.4,1.4-0.6c0.6-0.1,1-0.3,1.1-0.3c0.2-0.1,0.2-0.2,0.2-0.4s-0.1-0.3-0.2-0.4c-0.1-0.1-0.4-0.2-0.7-0.2
		c-0.3,0-0.6,0.1-0.7,0.2c-0.2,0.2-0.3,0.4-0.4,0.6l-1.1-0.4c0.1-0.4,0.4-0.8,0.7-1.1c0.4-0.3,0.8-0.4,1.4-0.4
		c0.6,0,1.2,0.2,1.6,0.5c0.4,0.3,0.6,0.9,0.6,1.6v3.3H292.8z M291.6,321c-0.3,0.1-0.5,0.2-0.6,0.3c-0.1,0.1-0.1,0.2-0.1,0.4
		c0,0.4,0.3,0.5,0.8,0.5c0.4,0,0.7-0.1,0.9-0.2c0.2-0.2,0.3-0.3,0.3-0.6v-0.9h0c0,0.1-0.1,0.1-0.1,0.1c0,0-0.1,0.1-0.3,0.1
		C292.1,320.9,291.9,320.9,291.6,321z M295.2,323.1v-5.2h1.2v0.5h0c0.1-0.2,0.3-0.3,0.6-0.5c0.2-0.1,0.5-0.2,0.8-0.2
		c0.6,0,1,0.2,1.4,0.5c0.3,0.3,0.5,0.8,0.5,1.4v3.4h-1.3V320c0-0.4-0.1-0.6-0.2-0.8c-0.1-0.2-0.4-0.3-0.7-0.3
		c-0.3,0-0.6,0.1-0.7,0.3c-0.2,0.2-0.3,0.4-0.3,0.7v3.2H295.2z M304.4,321.1V320c0-0.3-0.1-0.5-0.3-0.8c-0.2-0.2-0.5-0.3-0.8-0.3
		c-0.4,0-0.7,0.1-0.9,0.4s-0.4,0.7-0.4,1.2c0,0.5,0.1,0.9,0.4,1.2c0.2,0.3,0.6,0.4,0.9,0.4c0.3,0,0.6-0.1,0.8-0.3
		C304.3,321.6,304.4,321.4,304.4,321.1z M301,324.2l1-0.7c0.2,0.3,0.3,0.5,0.5,0.6c0.2,0.1,0.4,0.2,0.7,0.2c0.3,0,0.6-0.1,0.8-0.3
		c0.2-0.2,0.3-0.4,0.3-0.8v-0.7h0c-0.1,0.2-0.3,0.3-0.5,0.5c-0.2,0.1-0.5,0.2-0.8,0.2c-0.7,0-1.2-0.2-1.7-0.7
		c-0.5-0.5-0.7-1.2-0.7-2c0-0.8,0.2-1.5,0.7-2c0.5-0.5,1-0.8,1.6-0.8c0.6,0,1.1,0.2,1.4,0.7h0v-0.5h1.2v5.2c0,0.8-0.2,1.3-0.7,1.8
		c-0.4,0.4-1,0.6-1.7,0.6c-0.5,0-1-0.1-1.4-0.4C301.5,324.9,301.2,324.6,301,324.2z M310.4,321.3l0.9,0.8c-0.5,0.8-1.3,1.2-2.2,1.2
		c-0.7,0-1.3-0.2-1.8-0.7c-0.5-0.5-0.7-1.2-0.7-2s0.2-1.5,0.7-2c0.5-0.5,1-0.8,1.7-0.8c0.7,0,1.3,0.3,1.7,0.8c0.5,0.5,0.7,1.2,0.7,2
		v0.4h-3.5c0,0.4,0.1,0.7,0.3,0.9c0.2,0.2,0.5,0.3,0.8,0.3c0.3,0,0.5-0.1,0.7-0.2C310,321.8,310.2,321.6,310.4,321.3z M307.9,320
		h2.3c0-0.3-0.1-0.6-0.3-0.8c-0.2-0.2-0.5-0.3-0.8-0.3c-0.3,0-0.6,0.1-0.8,0.3C308.1,319.4,308,319.7,307.9,320z"/>
	<path class="st7" d="M340.1,365.1v-6.9h2.9c0.6,0,1.1,0.2,1.5,0.5c0.4,0.4,0.6,0.8,0.6,1.3c0,0.6-0.2,1-0.7,1.3v0
		c0.3,0.1,0.5,0.3,0.7,0.6c0.2,0.3,0.3,0.6,0.3,1c0,0.7-0.2,1.2-0.6,1.6c-0.4,0.4-1.1,0.6-2,0.6H340.1z M341.4,363.9h1.6
		c0.6,0,0.9-0.3,0.9-0.9c0-0.3-0.1-0.5-0.3-0.7c-0.2-0.2-0.4-0.2-0.7-0.2h-1.6V363.9z M341.4,361h1.4c0.3,0,0.5-0.1,0.6-0.2
		c0.2-0.1,0.2-0.3,0.2-0.6c0-0.3-0.1-0.5-0.2-0.6c-0.2-0.1-0.4-0.2-0.6-0.2h-1.4V361z M350.3,365.1v-5.7h-2v-1.2h5.4v1.2h-2v5.7
		H350.3z M353.9,363.3v-3.4h1.3v3.2c0,0.3,0.1,0.6,0.2,0.7s0.3,0.2,0.6,0.2c0.3,0,0.6-0.1,0.7-0.2c0.2-0.2,0.3-0.4,0.3-0.8v-3.1h1.3
		v5.2h-1.2v-0.5h0c-0.3,0.4-0.8,0.7-1.4,0.7c-0.6,0-1.1-0.2-1.4-0.5C354,364.4,353.9,363.9,353.9,363.3z M360.9,362.1v1
		c0,0.3,0.1,0.6,0.3,0.8c0.2,0.2,0.5,0.3,0.8,0.3c0.4,0,0.7-0.1,0.9-0.4c0.2-0.3,0.3-0.7,0.3-1.2c0-0.5-0.1-0.9-0.3-1.2
		c-0.2-0.3-0.5-0.4-0.9-0.4c-0.3,0-0.6,0.1-0.8,0.3C361,361.5,360.9,361.7,360.9,362.1z M359.7,365.1v-7.2h1.3v2.5h0c0,0,0,0,0-0.1
		c0,0,0.1-0.1,0.1-0.2c0.1-0.1,0.2-0.1,0.3-0.2c0.1-0.1,0.2-0.1,0.4-0.2c0.2,0,0.3-0.1,0.5-0.1c0.6,0,1.2,0.3,1.6,0.8
		c0.4,0.5,0.6,1.2,0.6,2c0,0.8-0.2,1.5-0.6,2c-0.4,0.5-1,0.7-1.6,0.7c-0.3,0-0.5-0.1-0.8-0.2c-0.2-0.1-0.4-0.2-0.5-0.3l-0.1-0.2h0
		v0.5H359.7z M369,363.3l0.9,0.8c-0.5,0.8-1.3,1.2-2.2,1.2c-0.7,0-1.3-0.2-1.8-0.7c-0.5-0.5-0.7-1.2-0.7-2s0.2-1.5,0.7-2
		c0.5-0.5,1-0.8,1.7-0.8c0.7,0,1.3,0.3,1.7,0.8c0.5,0.5,0.7,1.2,0.7,2v0.4h-3.5c0,0.4,0.1,0.7,0.3,0.9c0.2,0.2,0.5,0.3,0.8,0.3
		c0.3,0,0.5-0.1,0.7-0.2C368.6,363.8,368.8,363.6,369,363.3z M366.5,362h2.3c0-0.3-0.1-0.6-0.3-0.8c-0.2-0.2-0.5-0.3-0.8-0.3
		c-0.3,0-0.6,0.1-0.8,0.3C366.7,361.4,366.5,361.7,366.5,362z"/>
	<path class="st7" d="M409.9,324.1v-6.9h1.4l2,4.5h0l2-4.5h1.4v6.9h-1.3v-4.2h0l-2,4.2h-0.2l-2-4.2h0v4.2H409.9z M418.1,324.1v-5.2
		h1.3v5.2H418.1z M418.1,318.2v-1.2h1.3v1.2H418.1z M424,322v-1c0-0.3-0.1-0.6-0.3-0.8c-0.2-0.2-0.5-0.3-0.8-0.3
		c-0.4,0-0.7,0.1-0.9,0.4c-0.2,0.3-0.3,0.7-0.3,1.2c0,0.5,0.1,0.9,0.3,1.2c0.2,0.3,0.5,0.4,0.9,0.4c0.3,0,0.6-0.1,0.8-0.3
		C423.9,322.6,424,322.3,424,322z M424.1,324.1v-0.5h0c0,0-0.1,0.1-0.1,0.2c-0.1,0.1-0.2,0.2-0.5,0.3c-0.2,0.1-0.5,0.2-0.8,0.2
		c-0.7,0-1.2-0.2-1.7-0.7c-0.4-0.5-0.6-1.2-0.6-2c0-0.8,0.2-1.5,0.7-2c0.4-0.5,1-0.8,1.6-0.8c0.3,0,0.5,0.1,0.7,0.2
		c0.2,0.1,0.4,0.2,0.5,0.3l0.1,0.2h0v-2.5h1.3v7.2H424.1z M429.3,324.1v-6.9h2.8c0.7,0,1.3,0.2,1.7,0.6c0.4,0.4,0.7,0.9,0.7,1.6
		c0,0.7-0.2,1.2-0.6,1.6c-0.4,0.4-1,0.6-1.7,0.6h-1.5v2.5H429.3z M430.6,320.4h1.5c0.3,0,0.5-0.1,0.7-0.3c0.2-0.2,0.3-0.4,0.3-0.7
		c0-0.3-0.1-0.6-0.3-0.7c-0.2-0.2-0.4-0.2-0.7-0.2h-1.5V320.4z M438.2,324.1v-0.5h0c0,0,0,0,0,0.1c0,0-0.1,0.1-0.1,0.1
		c-0.1,0.1-0.2,0.1-0.3,0.2c-0.1,0.1-0.2,0.1-0.4,0.2c-0.2,0-0.4,0.1-0.6,0.1c-0.6,0-1.1-0.1-1.4-0.4c-0.3-0.3-0.5-0.7-0.5-1.1
		c0-0.5,0.1-0.8,0.4-1c0.3-0.2,0.7-0.4,1.4-0.6c0.6-0.1,1-0.3,1.1-0.3c0.2-0.1,0.2-0.2,0.2-0.4s-0.1-0.3-0.2-0.4
		c-0.1-0.1-0.4-0.2-0.7-0.2c-0.3,0-0.6,0.1-0.7,0.2c-0.2,0.2-0.3,0.4-0.4,0.6l-1.1-0.4c0.1-0.4,0.4-0.8,0.7-1.1
		c0.4-0.3,0.8-0.4,1.4-0.4c0.6,0,1.2,0.2,1.6,0.5c0.4,0.3,0.6,0.9,0.6,1.6v3.3H438.2z M436.9,322c-0.3,0.1-0.5,0.2-0.7,0.3
		c-0.1,0.1-0.1,0.2-0.1,0.4c0,0.4,0.3,0.5,0.8,0.5c0.4,0,0.7-0.1,0.9-0.2c0.2-0.2,0.3-0.3,0.3-0.6v-0.9h0c0,0.1-0.1,0.1-0.1,0.1
		c0,0-0.1,0.1-0.3,0.1C437.4,321.9,437.2,321.9,436.9,322z M440.5,324.1v-7.2h1.3v7.2H440.5z M443.2,324.1v-7.2h1.3v7.2H443.2z
		 M449.3,322.3l0.9,0.8c-0.5,0.8-1.3,1.2-2.2,1.2c-0.7,0-1.3-0.2-1.8-0.7c-0.5-0.5-0.7-1.2-0.7-2s0.2-1.5,0.7-2
		c0.5-0.5,1-0.8,1.7-0.8c0.7,0,1.3,0.3,1.7,0.8c0.5,0.5,0.7,1.2,0.7,2v0.4h-3.5c0,0.4,0.1,0.7,0.3,0.9c0.2,0.2,0.5,0.3,0.8,0.3
		c0.3,0,0.5-0.1,0.7-0.2C449,322.8,449.2,322.6,449.3,322.3z M446.9,321h2.3c0-0.3-0.1-0.6-0.3-0.8c-0.2-0.2-0.5-0.3-0.8-0.3
		c-0.3,0-0.6,0.1-0.8,0.3C447,320.4,446.9,320.7,446.9,321z M451.7,322.3V320h-0.8v-1.1h0.8v-1.3h1.2v1.3h1.3v1.1H453v2.2
		c0,0.3,0,0.5,0.1,0.6c0.1,0.1,0.3,0.2,0.6,0.2h0.4v1.2h-0.5c-0.7,0-1.2-0.1-1.5-0.4C451.8,323.4,451.7,322.9,451.7,322.3z"/>
	<path class="st7" d="M362.7,279.1v-6.9h1.4l2,4.5h0l2-4.5h1.4v6.9h-1.3v-4.2h0l-2,4.2H366l-2-4.2h0v4.2H362.7z M370.9,279.1v-5.2
		h1.3v5.2H370.9z M370.9,273.2v-1.2h1.3v1.2H370.9z M376.9,277v-1c0-0.3-0.1-0.6-0.3-0.8c-0.2-0.2-0.5-0.3-0.8-0.3
		c-0.4,0-0.7,0.1-0.9,0.4c-0.2,0.3-0.3,0.7-0.3,1.2c0,0.5,0.1,0.9,0.3,1.2c0.2,0.3,0.5,0.4,0.9,0.4c0.3,0,0.6-0.1,0.8-0.3
		C376.7,277.6,376.9,277.3,376.9,277z M376.9,279.1v-0.5h0c0,0-0.1,0.1-0.1,0.2c-0.1,0.1-0.2,0.2-0.5,0.3c-0.2,0.1-0.5,0.2-0.8,0.2
		c-0.7,0-1.2-0.2-1.7-0.7c-0.4-0.5-0.6-1.2-0.6-2c0-0.8,0.2-1.5,0.7-2c0.4-0.5,1-0.8,1.6-0.8c0.3,0,0.5,0.1,0.7,0.2
		c0.2,0.1,0.4,0.2,0.5,0.3l0.1,0.2h0v-2.5h1.3v7.2H376.9z M382.1,279.1v-6.9h2.9c0.6,0,1.1,0.2,1.5,0.5c0.4,0.4,0.6,0.8,0.6,1.3
		c0,0.6-0.2,1-0.7,1.3v0c0.3,0.1,0.5,0.3,0.7,0.6c0.2,0.3,0.3,0.6,0.3,1c0,0.7-0.2,1.2-0.6,1.6c-0.4,0.4-1.1,0.6-2,0.6H382.1z
		 M383.4,277.9h1.6c0.6,0,0.9-0.3,0.9-0.9c0-0.3-0.1-0.5-0.3-0.7c-0.2-0.2-0.4-0.2-0.7-0.2h-1.6V277.9z M383.4,275h1.4
		c0.3,0,0.5-0.1,0.6-0.2c0.2-0.1,0.2-0.3,0.2-0.6c0-0.3-0.1-0.5-0.2-0.6c-0.2-0.1-0.4-0.2-0.6-0.2h-1.4V275z M389.6,277.7
		c0.2,0.3,0.5,0.4,0.9,0.4c0.4,0,0.7-0.1,0.9-0.4c0.2-0.3,0.3-0.7,0.3-1.2s-0.1-0.9-0.3-1.2c-0.2-0.3-0.5-0.4-0.9-0.4
		c-0.4,0-0.7,0.1-0.9,0.4c-0.2,0.3-0.3,0.7-0.3,1.2C389.3,277.1,389.4,277.5,389.6,277.7z M392.2,278.6c-0.5,0.5-1,0.7-1.8,0.7
		c-0.7,0-1.3-0.2-1.8-0.7c-0.5-0.5-0.7-1.2-0.7-2c0-0.9,0.2-1.5,0.7-2s1.1-0.7,1.7-0.7c0.7,0,1.3,0.2,1.7,0.7s0.7,1.2,0.7,2
		C392.9,277.4,392.7,278.1,392.2,278.6z M394,279.1v-5.2h1.3v5.2H394z M394,273.2v-1.2h1.3v1.2H394z M396.6,279.1v-7.2h1.3v7.2
		H396.6z M402.7,277.3l0.9,0.8c-0.5,0.8-1.3,1.2-2.2,1.2c-0.7,0-1.3-0.2-1.8-0.7c-0.5-0.5-0.7-1.2-0.7-2s0.2-1.5,0.7-2
		c0.5-0.5,1-0.8,1.7-0.8c0.7,0,1.3,0.3,1.7,0.8c0.5,0.5,0.7,1.2,0.7,2v0.4h-3.5c0,0.4,0.1,0.7,0.3,0.9c0.2,0.2,0.5,0.3,0.8,0.3
		c0.3,0,0.5-0.1,0.7-0.2C402.4,277.8,402.6,277.6,402.7,277.3z M400.3,276h2.3c0-0.3-0.1-0.6-0.3-0.8c-0.2-0.2-0.5-0.3-0.8-0.3
		c-0.3,0-0.6,0.1-0.8,0.3C400.4,275.4,400.3,275.7,400.3,276z M404.8,279.1v-5.2h1.2v0.6h0c0.1-0.2,0.2-0.4,0.4-0.5
		c0.2-0.1,0.4-0.2,0.6-0.2c0.2,0,0.3,0,0.5,0.1l-0.2,1.2c-0.1-0.1-0.3-0.1-0.4-0.1c-0.6,0-0.9,0.4-0.9,1.2v2.9H404.8z"/>
	<path class="st7" d="M321.7,232.1v-6.9h2.9c0.6,0,1.1,0.2,1.5,0.5c0.4,0.4,0.6,0.8,0.6,1.3c0,0.6-0.2,1-0.8,1.3v0
		c0.3,0.1,0.5,0.3,0.7,0.6c0.2,0.3,0.3,0.6,0.3,1c0,0.7-0.2,1.2-0.6,1.6c-0.4,0.4-1.1,0.6-2,0.6H321.7z M323,230.9h1.6
		c0.6,0,0.9-0.3,0.9-0.9c0-0.3-0.1-0.5-0.3-0.7c-0.2-0.2-0.4-0.2-0.7-0.2H323V230.9z M323,228h1.4c0.3,0,0.5-0.1,0.6-0.2
		c0.2-0.1,0.2-0.3,0.2-0.6c0-0.3-0.1-0.5-0.2-0.6c-0.2-0.1-0.4-0.2-0.6-0.2H323V228z M330.5,232.1v-6.9h1.3v2.9h0l2.4-2.9h1.5
		l-2.6,3l2.8,3.9h-1.6l-2.1-2.8h0l-0.5,0.7v2.2H330.5z M336.6,232.1v-5.2h1.3v5.2H336.6z M336.6,226.2v-1.2h1.3v1.2H336.6z
		 M339.5,230.3V228h-0.8v-1.1h0.8v-1.3h1.2v1.3h1.3v1.1h-1.3v2.2c0,0.3,0,0.5,0.1,0.6c0.1,0.1,0.3,0.2,0.6,0.2h0.4v1.2h-0.5
		c-0.7,0-1.2-0.1-1.4-0.4C339.7,231.4,339.5,230.9,339.5,230.3z M346.2,230l1.2,0.3c-0.1,0.6-0.4,1.1-0.8,1.4
		c-0.4,0.3-0.9,0.5-1.5,0.5c-0.7,0-1.3-0.2-1.8-0.7c-0.5-0.5-0.7-1.2-0.7-2c0-0.9,0.2-1.5,0.7-2c0.5-0.5,1.1-0.7,1.7-0.7
		c0.6,0,1.1,0.2,1.5,0.5c0.4,0.3,0.6,0.8,0.7,1.4l-1.2,0.2c-0.1-0.6-0.5-1-1-1c-0.4,0-0.7,0.1-0.9,0.4c-0.2,0.3-0.3,0.7-0.3,1.2
		s0.1,0.9,0.3,1.2c0.2,0.3,0.5,0.4,0.9,0.4C345.8,231.1,346.1,230.8,346.2,230z M348.4,232.1v-7.2h1.3v2.5h0
		c0.1-0.2,0.3-0.3,0.5-0.5c0.2-0.1,0.5-0.2,0.7-0.2c0.6,0,1,0.2,1.3,0.5c0.3,0.3,0.5,0.8,0.5,1.4v3.5h-1.3V229
		c0-0.3-0.1-0.5-0.2-0.7c-0.2-0.2-0.4-0.3-0.7-0.3c-0.3,0-0.5,0.1-0.7,0.3c-0.2,0.2-0.2,0.4-0.2,0.7v3.3H348.4z M357.5,230.3
		l0.9,0.8c-0.5,0.8-1.3,1.2-2.2,1.2c-0.7,0-1.3-0.2-1.8-0.7c-0.5-0.5-0.7-1.2-0.7-2c0-0.8,0.2-1.5,0.7-2c0.5-0.5,1-0.8,1.7-0.8
		c0.7,0,1.3,0.3,1.7,0.8c0.5,0.5,0.7,1.2,0.7,2v0.4h-3.5c0,0.4,0.1,0.7,0.3,0.9c0.2,0.2,0.5,0.3,0.8,0.3c0.3,0,0.5-0.1,0.7-0.2
		C357.2,230.8,357.4,230.6,357.5,230.3z M355.1,229h2.3c0-0.3-0.1-0.6-0.3-0.8c-0.2-0.2-0.5-0.3-0.8-0.3c-0.3,0-0.6,0.1-0.8,0.3
		C355.2,228.4,355.1,228.7,355.1,229z M359.6,232.1v-5.2h1.2v0.5h0c0.1-0.2,0.3-0.3,0.6-0.5s0.5-0.2,0.8-0.2c0.6,0,1,0.2,1.4,0.5
		c0.3,0.3,0.5,0.8,0.5,1.4v3.4h-1.3V229c0-0.4-0.1-0.6-0.2-0.8c-0.1-0.2-0.4-0.3-0.7-0.3c-0.3,0-0.6,0.1-0.7,0.3
		c-0.2,0.2-0.3,0.4-0.3,0.7v3.2H359.6z"/>
	<path class="st7" d="M212.5,254.1v-6.9h2.9c0.6,0,1.1,0.2,1.5,0.5c0.4,0.4,0.6,0.8,0.6,1.3c0,0.6-0.2,1-0.7,1.3v0
		c0.3,0.1,0.5,0.3,0.7,0.6c0.2,0.3,0.3,0.6,0.3,1c0,0.7-0.2,1.2-0.6,1.6c-0.4,0.4-1.1,0.6-2,0.6H212.5z M213.8,252.9h1.6
		c0.6,0,0.9-0.3,0.9-0.9c0-0.3-0.1-0.5-0.3-0.7c-0.2-0.2-0.4-0.2-0.7-0.2h-1.6V252.9z M213.8,250h1.4c0.3,0,0.5-0.1,0.6-0.2
		c0.2-0.1,0.2-0.3,0.2-0.6c0-0.3-0.1-0.5-0.2-0.6c-0.2-0.1-0.4-0.2-0.6-0.2h-1.4V250z M221.4,254.1v-6.9h1.3v2.8h2.4v-2.8h1.3v6.9
		h-1.3v-3h-2.4v3H221.4z M230.9,254.1v-0.5h0c0,0,0,0,0,0.1c0,0-0.1,0.1-0.1,0.1c-0.1,0.1-0.2,0.1-0.3,0.2c-0.1,0.1-0.2,0.1-0.4,0.2
		c-0.2,0-0.4,0.1-0.6,0.1c-0.6,0-1.1-0.1-1.4-0.4c-0.3-0.3-0.5-0.7-0.5-1.1c0-0.5,0.1-0.8,0.4-1c0.3-0.2,0.7-0.4,1.4-0.6
		c0.6-0.1,1-0.3,1.1-0.3c0.2-0.1,0.2-0.2,0.2-0.4s-0.1-0.3-0.2-0.4c-0.1-0.1-0.4-0.2-0.7-0.2c-0.3,0-0.6,0.1-0.8,0.2
		c-0.2,0.2-0.3,0.4-0.4,0.6l-1.1-0.4c0.1-0.4,0.4-0.8,0.7-1.1c0.4-0.3,0.8-0.4,1.4-0.4c0.6,0,1.2,0.2,1.6,0.5
		c0.4,0.3,0.6,0.9,0.6,1.6v3.3H230.9z M229.6,252c-0.3,0.1-0.5,0.2-0.6,0.3c-0.1,0.1-0.1,0.2-0.1,0.4c0,0.4,0.3,0.5,0.8,0.5
		c0.4,0,0.7-0.1,0.9-0.2c0.2-0.2,0.3-0.3,0.3-0.6v-0.9h0c0,0.1-0.1,0.1-0.1,0.1c0,0-0.1,0.1-0.3,0.1
		C230.1,251.9,229.9,251.9,229.6,252z M233.2,254.1v-7.2h1.3v7.2H233.2z M235.9,254.1v-7.2h1.3v7.2H235.9z"/>
	<path class="st7" d="M95.7,201.1v-6.9h2.9c0.6,0,1.1,0.2,1.5,0.5c0.4,0.4,0.6,0.8,0.6,1.3c0,0.6-0.2,1-0.7,1.3v0
		c0.3,0.1,0.5,0.3,0.7,0.6c0.2,0.3,0.3,0.6,0.3,1c0,0.7-0.2,1.2-0.6,1.6c-0.4,0.4-1.1,0.6-2,0.6H95.7z M97,199.9h1.6
		c0.6,0,0.9-0.3,0.9-0.9c0-0.3-0.1-0.5-0.3-0.7c-0.2-0.2-0.4-0.2-0.7-0.2H97V199.9z M97,197h1.4c0.3,0,0.5-0.1,0.6-0.2
		c0.2-0.1,0.2-0.3,0.2-0.6c0-0.3-0.1-0.5-0.2-0.6c-0.2-0.1-0.4-0.2-0.6-0.2H97V197z M104.1,198.8l1.4-0.3c0.1,0.5,0.2,0.9,0.4,1.2
		c0.2,0.2,0.5,0.4,1,0.4c0.4,0,0.7-0.1,0.9-0.2c0.2-0.1,0.3-0.3,0.3-0.6c0-0.3-0.1-0.5-0.3-0.6c-0.2-0.2-0.7-0.3-1.5-0.6
		c-0.7-0.2-1.2-0.5-1.5-0.8c-0.3-0.3-0.4-0.7-0.4-1.2c0-0.5,0.2-1,0.6-1.4c0.4-0.4,1-0.6,1.7-0.6c0.7,0,1.2,0.2,1.7,0.5
		c0.5,0.3,0.8,0.8,0.9,1.4l-1.3,0.3c-0.2-0.7-0.6-1-1.3-1c-0.3,0-0.6,0.1-0.8,0.2c-0.2,0.1-0.2,0.3-0.2,0.5c0,0.2,0.1,0.4,0.3,0.5
		c0.2,0.1,0.7,0.3,1.5,0.6c0.8,0.3,1.3,0.5,1.6,0.9c0.3,0.3,0.4,0.7,0.4,1.2c0,0.6-0.2,1.1-0.7,1.5c-0.5,0.4-1.1,0.6-1.8,0.6
		c-0.8,0-1.4-0.2-1.9-0.6C104.5,200.3,104.2,199.7,104.1,198.8z M110.4,201.1v-5.2h1.2v0.5h0c0.1-0.2,0.3-0.3,0.6-0.5
		s0.5-0.2,0.8-0.2c0.6,0,1,0.2,1.4,0.5c0.3,0.3,0.5,0.8,0.5,1.4v3.4h-1.3V198c0-0.4-0.1-0.6-0.2-0.8c-0.1-0.2-0.4-0.3-0.7-0.3
		c-0.3,0-0.6,0.1-0.7,0.3c-0.2,0.2-0.3,0.4-0.3,0.7v3.2H110.4z M117.4,199.7c0.2,0.3,0.5,0.4,0.9,0.4c0.4,0,0.7-0.1,0.9-0.4
		c0.2-0.3,0.3-0.7,0.3-1.2s-0.1-0.9-0.3-1.2c-0.2-0.3-0.5-0.4-0.9-0.4c-0.4,0-0.7,0.1-0.9,0.4c-0.2,0.3-0.3,0.7-0.3,1.2
		C117.1,199.1,117.2,199.5,117.4,199.7z M120,200.6c-0.5,0.5-1,0.7-1.8,0.7s-1.3-0.2-1.8-0.7c-0.5-0.5-0.7-1.2-0.7-2
		c0-0.9,0.2-1.5,0.7-2c0.5-0.5,1.1-0.7,1.7-0.7s1.3,0.2,1.7,0.7c0.5,0.5,0.7,1.2,0.7,2C120.7,199.4,120.5,200.1,120,200.6z
		 M122.5,201.1l-1.2-5.2h1.3l0.7,3.5h0l1.2-3.5h1.2l1.1,3.5h0l0.8-3.5h1.2l-1.3,5.2h-1.3l-1.2-3.8h0l-1.3,3.8H122.5z M129.8,201.1
		v-5.2h1.2v0.5h0c0.1-0.2,0.3-0.3,0.5-0.5c0.2-0.1,0.5-0.2,0.7-0.2c0.3,0,0.5,0.1,0.8,0.2c0.2,0.1,0.4,0.3,0.6,0.5h0
		c0.1-0.2,0.3-0.4,0.6-0.5c0.2-0.1,0.5-0.2,0.8-0.2c0.6,0,1.1,0.2,1.5,0.5c0.4,0.3,0.6,0.8,0.6,1.3v3.6h-1.2v-3.3
		c0-0.3-0.1-0.5-0.2-0.6c-0.1-0.2-0.4-0.2-0.7-0.2c-0.3,0-0.5,0.1-0.7,0.2c-0.2,0.2-0.2,0.3-0.2,0.6v3.4h-1.2v-3.3
		c0-0.2-0.1-0.5-0.2-0.6c-0.2-0.2-0.4-0.3-0.7-0.3c-0.3,0-0.5,0.1-0.7,0.2s-0.2,0.3-0.2,0.6v3.4H129.8z M141.3,201.1v-0.5h0
		c0,0,0,0,0,0.1c0,0-0.1,0.1-0.1,0.1c-0.1,0.1-0.2,0.1-0.3,0.2c-0.1,0.1-0.2,0.1-0.4,0.2c-0.2,0-0.4,0.1-0.6,0.1
		c-0.6,0-1.1-0.1-1.4-0.4c-0.3-0.3-0.5-0.7-0.5-1.1c0-0.5,0.1-0.8,0.4-1c0.3-0.2,0.7-0.4,1.4-0.6c0.6-0.1,1-0.3,1.1-0.3
		c0.2-0.1,0.2-0.2,0.2-0.4s-0.1-0.3-0.2-0.4c-0.1-0.1-0.4-0.2-0.7-0.2c-0.3,0-0.6,0.1-0.7,0.2c-0.2,0.2-0.3,0.4-0.4,0.6l-1.1-0.4
		c0.1-0.4,0.4-0.8,0.7-1.1c0.4-0.3,0.8-0.4,1.4-0.4c0.6,0,1.2,0.2,1.6,0.5c0.4,0.3,0.6,0.9,0.6,1.6v3.3H141.3z M140,199
		c-0.3,0.1-0.5,0.2-0.6,0.3c-0.1,0.1-0.1,0.2-0.1,0.4c0,0.4,0.3,0.5,0.8,0.5c0.4,0,0.7-0.1,0.9-0.2c0.2-0.2,0.3-0.3,0.3-0.6v-0.9h0
		c0,0.1-0.1,0.1-0.1,0.1c0,0-0.1,0.1-0.3,0.1C140.5,198.9,140.3,198.9,140,199z M143.6,201.1v-5.2h1.2v0.5h0
		c0.1-0.2,0.3-0.3,0.6-0.5c0.2-0.1,0.5-0.2,0.8-0.2c0.6,0,1,0.2,1.4,0.5c0.3,0.3,0.5,0.8,0.5,1.4v3.4h-1.3V198
		c0-0.4-0.1-0.6-0.2-0.8c-0.1-0.2-0.4-0.3-0.7-0.3c-0.3,0-0.6,0.1-0.7,0.3c-0.2,0.2-0.3,0.4-0.3,0.7v3.2H143.6z"/>
	<path class="st7" d="M203.8,174.1v-6.9h2.9c0.6,0,1.1,0.2,1.5,0.5c0.4,0.4,0.6,0.8,0.6,1.3c0,0.6-0.2,1-0.8,1.3v0
		c0.3,0.1,0.5,0.3,0.7,0.6c0.2,0.3,0.3,0.6,0.3,1c0,0.7-0.2,1.2-0.6,1.6c-0.4,0.4-1.1,0.6-2,0.6H203.8z M205.2,172.9h1.6
		c0.6,0,0.9-0.3,0.9-0.9c0-0.3-0.1-0.5-0.3-0.7c-0.2-0.2-0.4-0.2-0.7-0.2h-1.6V172.9z M205.2,170h1.4c0.3,0,0.5-0.1,0.6-0.2
		c0.2-0.1,0.2-0.3,0.2-0.6c0-0.3-0.1-0.5-0.2-0.6c-0.2-0.1-0.4-0.2-0.6-0.2h-1.4V170z M212.7,174.1v-6.9h2.9c0.6,0,1.1,0.2,1.5,0.5
		c0.4,0.4,0.6,0.8,0.6,1.3c0,0.6-0.2,1-0.8,1.3v0c0.3,0.1,0.5,0.3,0.7,0.6c0.2,0.3,0.3,0.6,0.3,1c0,0.7-0.2,1.2-0.6,1.6
		c-0.4,0.4-1.1,0.6-2,0.6H212.7z M214,172.9h1.6c0.6,0,0.9-0.3,0.9-0.9c0-0.3-0.1-0.5-0.3-0.7c-0.2-0.2-0.4-0.2-0.7-0.2H214V172.9z
		 M214,170h1.4c0.3,0,0.5-0.1,0.6-0.2c0.2-0.1,0.2-0.3,0.2-0.6c0-0.3-0.1-0.5-0.2-0.6c-0.2-0.1-0.4-0.2-0.6-0.2H214V170z M222,174.1
		v-0.5h0c0,0,0,0-0.1,0.1c0,0-0.1,0.1-0.1,0.1c-0.1,0.1-0.2,0.1-0.3,0.2c-0.1,0.1-0.2,0.1-0.4,0.2c-0.2,0-0.4,0.1-0.6,0.1
		c-0.6,0-1.1-0.1-1.4-0.4c-0.3-0.3-0.5-0.7-0.5-1.1c0-0.5,0.1-0.8,0.4-1c0.3-0.2,0.7-0.4,1.4-0.6c0.6-0.1,1-0.3,1.1-0.3
		c0.2-0.1,0.2-0.2,0.2-0.4s-0.1-0.3-0.2-0.4c-0.1-0.1-0.4-0.2-0.7-0.2c-0.3,0-0.6,0.1-0.7,0.2c-0.2,0.2-0.3,0.4-0.4,0.6l-1.1-0.4
		c0.1-0.4,0.4-0.8,0.7-1.1c0.4-0.3,0.8-0.4,1.4-0.4c0.6,0,1.2,0.2,1.6,0.5c0.4,0.3,0.6,0.9,0.6,1.6v3.3H222z M220.7,172
		c-0.3,0.1-0.5,0.2-0.7,0.3c-0.1,0.1-0.1,0.2-0.1,0.4c0,0.4,0.3,0.5,0.8,0.5c0.4,0,0.7-0.1,0.9-0.2c0.2-0.2,0.3-0.3,0.3-0.6v-0.9h0
		c0,0.1-0.1,0.1-0.1,0.1c0,0-0.1,0.1-0.3,0.1C221.2,171.9,221,171.9,220.7,172z M227.5,172l1.2,0.3c-0.1,0.6-0.4,1.1-0.8,1.4
		c-0.4,0.3-0.9,0.5-1.5,0.5c-0.7,0-1.3-0.2-1.8-0.7c-0.5-0.5-0.7-1.2-0.7-2c0-0.9,0.2-1.5,0.7-2c0.5-0.5,1.1-0.7,1.7-0.7
		c0.6,0,1.1,0.2,1.5,0.5c0.4,0.3,0.6,0.8,0.7,1.4l-1.2,0.2c-0.1-0.6-0.5-1-1-1c-0.4,0-0.6,0.1-0.9,0.4c-0.2,0.3-0.3,0.7-0.3,1.2
		s0.1,0.9,0.3,1.2c0.2,0.3,0.5,0.4,0.9,0.4C227,173.1,227.4,172.8,227.5,172z M229.7,174.1v-7.2h1.3v4.1h0l1.9-2.2h1.6l-1.9,2.1
		l2.1,3.1h-1.4l-1.6-2.4h0l-0.7,0.7v1.6H229.7z"/>
	<path class="st7" d="M302.1,185.1v-6.9h2.9c0.6,0,1.1,0.2,1.5,0.5c0.4,0.4,0.6,0.8,0.6,1.3c0,0.6-0.2,1-0.7,1.3v0
		c0.3,0.1,0.5,0.3,0.7,0.6c0.2,0.3,0.3,0.6,0.3,1c0,0.7-0.2,1.2-0.6,1.6c-0.4,0.4-1.1,0.6-2,0.6H302.1z M303.5,183.9h1.6
		c0.6,0,0.9-0.3,0.9-0.9c0-0.3-0.1-0.5-0.3-0.7c-0.2-0.2-0.4-0.2-0.7-0.2h-1.6V183.9z M303.5,181h1.4c0.3,0,0.5-0.1,0.6-0.2
		c0.2-0.1,0.2-0.3,0.2-0.6c0-0.3-0.1-0.5-0.2-0.6c-0.2-0.1-0.4-0.2-0.6-0.2h-1.4V181z M311,185.1v-6.9h1.3v2.8h2.4v-2.8h1.3v6.9
		h-1.3v-3h-2.4v3H311z M317.4,183.3v-3.4h1.3v3.2c0,0.3,0.1,0.6,0.2,0.7c0.1,0.1,0.3,0.2,0.6,0.2c0.3,0,0.6-0.1,0.7-0.2
		c0.2-0.2,0.3-0.4,0.3-0.8v-3.1h1.3v5.2h-1.2v-0.5h0c-0.3,0.4-0.8,0.7-1.4,0.7c-0.6,0-1.1-0.2-1.4-0.5
		C317.6,184.4,317.4,183.9,317.4,183.3z M323.5,183.3V181h-0.8v-1.1h0.8v-1.3h1.2v1.3h1.3v1.1h-1.3v2.2c0,0.3,0,0.5,0.1,0.6
		s0.3,0.2,0.6,0.2h0.4v1.2h-0.5c-0.7,0-1.2-0.1-1.4-0.4C323.6,184.4,323.5,183.9,323.5,183.3z"/>
	<path class="st7" d="M527.7,178.1l-0.4-1.1h-2.6l-0.4,1.1H523l2.5-6.9h1.1l2.5,6.9H527.7z M526,173.2l-0.9,2.7h1.9L526,173.2
		L526,173.2z M532.4,178.1v-6.9h2.8c0.7,0,1.3,0.2,1.7,0.6c0.4,0.4,0.7,0.9,0.7,1.6c0,0.5-0.1,0.9-0.4,1.3c-0.3,0.3-0.6,0.6-1.1,0.7
		l1.5,2.7h-1.4l-1.4-2.6h-1v2.6H532.4z M533.7,174.4h1.4c0.8,0,1.1-0.3,1.1-1c0-0.7-0.4-1-1.1-1h-1.4V174.4z M541.5,178.1v-0.5h0
		c0,0,0,0,0,0.1c0,0-0.1,0.1-0.1,0.1c-0.1,0.1-0.2,0.1-0.3,0.2c-0.1,0.1-0.2,0.1-0.4,0.2c-0.2,0-0.4,0.1-0.6,0.1
		c-0.6,0-1.1-0.1-1.4-0.4c-0.3-0.3-0.5-0.7-0.5-1.1c0-0.5,0.1-0.8,0.4-1c0.3-0.2,0.7-0.4,1.4-0.6c0.6-0.1,1-0.3,1.1-0.3
		c0.2-0.1,0.2-0.2,0.2-0.4s-0.1-0.3-0.2-0.4c-0.1-0.1-0.4-0.2-0.7-0.2c-0.3,0-0.6,0.1-0.7,0.2c-0.2,0.2-0.3,0.4-0.4,0.6l-1.1-0.4
		c0.1-0.4,0.4-0.8,0.7-1.1c0.4-0.3,0.8-0.4,1.4-0.4c0.6,0,1.2,0.2,1.6,0.5c0.4,0.3,0.6,0.9,0.6,1.6v3.3H541.5z M540.2,176
		c-0.3,0.1-0.5,0.2-0.7,0.3c-0.1,0.1-0.1,0.2-0.1,0.4c0,0.4,0.3,0.5,0.8,0.5c0.4,0,0.7-0.1,0.9-0.2c0.2-0.2,0.3-0.3,0.3-0.6v-0.9h0
		c0,0.1-0.1,0.1-0.1,0.1c0,0-0.1,0.1-0.3,0.1C540.8,175.9,540.6,175.9,540.2,176z M544.2,178.1V174h-0.8v-1.1h0.8v-0.7
		c0-0.4,0.1-0.8,0.3-0.9c0.2-0.2,0.6-0.3,1-0.3h1v1.1h-0.8c-0.2,0-0.3,0-0.3,0.1c-0.1,0.1-0.1,0.2-0.1,0.3v0.4h1.3v1.1h-1.3v4.1
		H544.2z M547.7,176.3V174h-0.8v-1.1h0.8v-1.3h1.2v1.3h1.3v1.1h-1.3v2.2c0,0.3,0,0.5,0.1,0.6s0.3,0.2,0.6,0.2h0.4v1.2h-0.5
		c-0.7,0-1.2-0.1-1.5-0.4C547.8,177.4,547.7,176.9,547.7,176.3z M554.6,176.3l0.9,0.8c-0.5,0.8-1.3,1.2-2.2,1.2
		c-0.7,0-1.3-0.2-1.8-0.7c-0.5-0.5-0.7-1.2-0.7-2c0-0.8,0.2-1.5,0.7-2c0.5-0.5,1-0.8,1.7-0.8c0.7,0,1.3,0.3,1.7,0.8
		c0.5,0.5,0.7,1.2,0.7,2v0.4h-3.5c0,0.4,0.1,0.7,0.3,0.9c0.2,0.2,0.5,0.3,0.8,0.3c0.3,0,0.5-0.1,0.7-0.2
		C554.3,176.8,554.5,176.6,554.6,176.3z M552.2,175h2.3c0-0.3-0.1-0.6-0.3-0.8c-0.2-0.2-0.5-0.3-0.8-0.3c-0.3,0-0.6,0.1-0.8,0.3
		C552.3,174.4,552.2,174.7,552.2,175z M556.7,178.1v-5.2h1.2v0.6h0c0.1-0.2,0.2-0.4,0.4-0.5c0.2-0.1,0.4-0.2,0.6-0.2
		c0.2,0,0.3,0,0.5,0.1l-0.2,1.2c-0.1-0.1-0.3-0.1-0.4-0.1c-0.6,0-0.9,0.4-0.9,1.2v2.9H556.7z M560,176.4l1.2-0.3
		c0.1,0.7,0.5,1.1,1.2,1.1c0.3,0,0.6,0,0.7-0.1c0.2-0.1,0.3-0.2,0.3-0.4c0-0.2-0.1-0.3-0.2-0.3c-0.1-0.1-0.4-0.2-0.9-0.3
		c-0.1,0-0.2-0.1-0.3-0.1c-0.6-0.2-1-0.4-1.3-0.6c-0.3-0.2-0.4-0.5-0.4-0.9c0-0.4,0.2-0.8,0.5-1.1c0.4-0.3,0.8-0.5,1.4-0.5
		c1.2,0,1.9,0.5,2.2,1.5l-1.1,0.3c-0.1-0.2-0.2-0.4-0.4-0.6c-0.2-0.1-0.4-0.2-0.7-0.2c-0.2,0-0.5,0.1-0.6,0.1
		c-0.1,0.1-0.2,0.2-0.2,0.3c0,0.1,0.1,0.3,0.3,0.3c0.2,0.1,0.6,0.2,1.3,0.4c0.6,0.2,1,0.4,1.2,0.6c0.2,0.2,0.3,0.6,0.3,1
		c0,0.4-0.2,0.8-0.6,1.1c-0.4,0.3-0.9,0.5-1.6,0.5c-0.7,0-1.3-0.2-1.7-0.5C560.3,177.4,560,176.9,560,176.4z"/>
	<path class="st7" d="M470.5,255.1l-0.4-1.1h-2.6l-0.4,1.1h-1.3l2.5-6.9h1.1l2.5,6.9H470.5z M468.7,250.2l-0.9,2.7h1.9L468.7,250.2
		L468.7,250.2z M474.7,252.8l1.4-0.3c0.1,0.5,0.2,0.9,0.4,1.2c0.2,0.2,0.5,0.4,1,0.4c0.4,0,0.7-0.1,0.9-0.2c0.2-0.1,0.3-0.3,0.3-0.6
		c0-0.3-0.1-0.5-0.3-0.6c-0.2-0.2-0.7-0.3-1.5-0.6c-0.7-0.2-1.2-0.5-1.5-0.8c-0.3-0.3-0.4-0.7-0.4-1.2c0-0.5,0.2-1,0.6-1.4
		c0.4-0.4,1-0.6,1.7-0.6c0.6,0,1.2,0.2,1.7,0.5c0.5,0.3,0.8,0.8,0.9,1.4l-1.3,0.3c-0.2-0.7-0.6-1-1.3-1c-0.3,0-0.6,0.1-0.8,0.2
		c-0.2,0.1-0.2,0.3-0.2,0.5c0,0.2,0.1,0.4,0.3,0.5c0.2,0.1,0.7,0.3,1.5,0.6c0.8,0.3,1.3,0.5,1.6,0.9c0.3,0.3,0.4,0.7,0.4,1.2
		c0,0.6-0.2,1.1-0.7,1.5c-0.5,0.4-1.1,0.6-1.8,0.6c-0.8,0-1.4-0.2-1.9-0.6C475.1,254.3,474.8,253.7,474.7,252.8z M484.1,253l1.2,0.3
		c-0.1,0.6-0.4,1.1-0.8,1.4c-0.4,0.3-0.9,0.5-1.5,0.5c-0.7,0-1.3-0.2-1.8-0.7c-0.5-0.5-0.7-1.2-0.7-2c0-0.9,0.2-1.5,0.7-2
		c0.5-0.5,1.1-0.7,1.7-0.7c0.6,0,1.1,0.2,1.5,0.5c0.4,0.3,0.6,0.8,0.7,1.4l-1.2,0.2c-0.1-0.6-0.5-1-1-1c-0.4,0-0.7,0.1-0.9,0.4
		c-0.2,0.3-0.3,0.7-0.3,1.2s0.1,0.9,0.3,1.2c0.2,0.3,0.5,0.4,0.9,0.4C483.6,254.1,484,253.8,484.1,253z M486.3,255.1v-5.2h1.2v0.6h0
		c0.1-0.2,0.2-0.4,0.4-0.5c0.2-0.1,0.4-0.2,0.6-0.2c0.2,0,0.3,0,0.5,0.1l-0.2,1.2c-0.1-0.1-0.3-0.1-0.4-0.1c-0.6,0-0.9,0.4-0.9,1.2
		v2.9H486.3z M493.3,253.3l0.9,0.8c-0.5,0.8-1.3,1.2-2.2,1.2c-0.7,0-1.3-0.2-1.8-0.7c-0.5-0.5-0.7-1.2-0.7-2c0-0.8,0.2-1.5,0.7-2
		c0.5-0.5,1-0.8,1.7-0.8c0.7,0,1.3,0.3,1.7,0.8c0.5,0.5,0.7,1.2,0.7,2v0.4h-3.5c0,0.4,0.1,0.7,0.3,0.9c0.2,0.2,0.5,0.3,0.8,0.3
		c0.3,0,0.5-0.1,0.7-0.2C492.9,253.8,493.1,253.6,493.3,253.3z M490.8,252h2.3c0-0.3-0.1-0.6-0.3-0.8c-0.2-0.2-0.5-0.3-0.8-0.3
		c-0.3,0-0.6,0.1-0.8,0.3C491,251.4,490.9,251.7,490.8,252z M498.8,253.3l0.9,0.8c-0.5,0.8-1.3,1.2-2.2,1.2c-0.7,0-1.3-0.2-1.8-0.7
		c-0.5-0.5-0.7-1.2-0.7-2c0-0.8,0.2-1.5,0.7-2c0.5-0.5,1-0.8,1.7-0.8c0.7,0,1.3,0.3,1.7,0.8c0.5,0.5,0.7,1.2,0.7,2v0.4h-3.5
		c0,0.4,0.1,0.7,0.3,0.9c0.2,0.2,0.5,0.3,0.8,0.3c0.3,0,0.5-0.1,0.7-0.2C498.4,253.8,498.6,253.6,498.8,253.3z M496.3,252h2.3
		c0-0.3-0.1-0.6-0.3-0.8c-0.2-0.2-0.5-0.3-0.8-0.3c-0.3,0-0.6,0.1-0.8,0.3C496.5,251.4,496.4,251.7,496.3,252z M500.9,255.1v-5.2
		h1.2v0.5h0c0.1-0.2,0.3-0.3,0.6-0.5s0.5-0.2,0.8-0.2c0.6,0,1,0.2,1.4,0.5c0.3,0.3,0.5,0.8,0.5,1.4v3.4h-1.3V252
		c0-0.4-0.1-0.6-0.2-0.8c-0.1-0.2-0.4-0.3-0.7-0.3c-0.3,0-0.6,0.1-0.7,0.3c-0.2,0.2-0.3,0.4-0.3,0.7v3.2H500.9z"/>
	<path class="st7" d="M535.7,319.1l-0.4-1.1h-2.6l-0.4,1.1h-1.3l2.5-6.9h1.1l2.5,6.9H535.7z M533.9,314.2l-0.9,2.7h1.9L533.9,314.2
		L533.9,314.2z M540.3,319.1v-6.9h2.8c0.7,0,1.3,0.2,1.7,0.6c0.4,0.4,0.7,0.9,0.7,1.6c0,0.7-0.2,1.2-0.6,1.6c-0.4,0.4-1,0.6-1.7,0.6
		h-1.5v2.5H540.3z M541.7,315.4h1.4c0.3,0,0.5-0.1,0.7-0.3c0.2-0.2,0.3-0.4,0.3-0.7c0-0.3-0.1-0.6-0.3-0.7c-0.2-0.2-0.4-0.2-0.7-0.2
		h-1.4V315.4z M546.2,319.1v-5.2h1.3v5.2H546.2z M546.2,313.2v-1.2h1.3v1.2H546.2z M550.2,316v1.1c0,0.3,0.1,0.6,0.3,0.8
		c0.2,0.2,0.5,0.3,0.8,0.3c0.4,0,0.7-0.1,0.9-0.4c0.2-0.3,0.4-0.7,0.4-1.2c0-0.5-0.1-0.9-0.4-1.2c-0.2-0.3-0.5-0.4-0.9-0.4
		c-0.3,0-0.6,0.1-0.8,0.3C550.3,315.4,550.2,315.7,550.2,316z M548.9,321.4v-7.4h1.2v0.5h0c0,0,0,0,0-0.1c0,0,0.1-0.1,0.1-0.2
		c0.1-0.1,0.2-0.1,0.3-0.2c0.1-0.1,0.2-0.1,0.4-0.2c0.2,0,0.4-0.1,0.5-0.1c0.6,0,1.2,0.2,1.6,0.8c0.5,0.5,0.7,1.2,0.7,2
		c0,0.9-0.2,1.5-0.7,2c-0.4,0.5-1,0.7-1.6,0.7c-0.2,0-0.4,0-0.5-0.1c-0.2,0-0.3-0.1-0.4-0.2c-0.1-0.1-0.2-0.1-0.3-0.2
		c-0.1-0.1-0.1-0.1-0.2-0.2l0-0.1h0v2.7H548.9z M558.3,317.3l0.9,0.8c-0.5,0.8-1.3,1.2-2.2,1.2c-0.7,0-1.3-0.2-1.8-0.7
		c-0.5-0.5-0.7-1.2-0.7-2s0.2-1.5,0.7-2c0.5-0.5,1-0.8,1.7-0.8c0.7,0,1.3,0.3,1.7,0.8c0.5,0.5,0.7,1.2,0.7,2v0.4h-3.5
		c0,0.4,0.1,0.7,0.3,0.9c0.2,0.2,0.5,0.3,0.8,0.3c0.3,0,0.5-0.1,0.7-0.2C557.9,317.8,558.1,317.6,558.3,317.3z M555.9,316h2.3
		c0-0.3-0.1-0.6-0.3-0.8c-0.2-0.2-0.5-0.3-0.8-0.3c-0.3,0-0.6,0.1-0.8,0.3C556,315.4,555.9,315.7,555.9,316z M560,317.4l1.2-0.3
		c0.1,0.7,0.5,1.1,1.2,1.1c0.3,0,0.6,0,0.7-0.1c0.2-0.1,0.3-0.2,0.3-0.4c0-0.2-0.1-0.3-0.2-0.3c-0.1-0.1-0.4-0.2-0.9-0.3
		c-0.1,0-0.2-0.1-0.3-0.1c-0.6-0.2-1-0.4-1.3-0.6c-0.3-0.2-0.4-0.5-0.4-0.9c0-0.4,0.2-0.8,0.5-1.1c0.4-0.3,0.8-0.5,1.4-0.5
		c1.2,0,1.9,0.5,2.2,1.5l-1.1,0.3c-0.1-0.2-0.2-0.4-0.4-0.6c-0.2-0.1-0.4-0.2-0.7-0.2c-0.2,0-0.5,0-0.6,0.1
		c-0.1,0.1-0.2,0.2-0.2,0.3c0,0.1,0.1,0.3,0.3,0.3c0.2,0.1,0.6,0.2,1.3,0.4c0.6,0.2,1,0.4,1.2,0.6c0.2,0.2,0.3,0.6,0.3,1
		c0,0.4-0.2,0.8-0.6,1.1c-0.4,0.3-0.9,0.5-1.6,0.5c-0.7,0-1.3-0.2-1.7-0.5C560.3,318.4,560.1,317.9,560,317.4z"/>
	<path class="st7" d="M539.7,367.1l-0.4-1.1h-2.6l-0.4,1.1h-1.3l2.5-6.9h1.1l2.5,6.9H539.7z M538,362.2l-0.9,2.7h1.9L538,362.2
		L538,362.2z M544.4,367.1v-6.9h1.3l2.5,4.5h0v-4.5h1.3v6.9h-1.3l-2.6-4.5h0v4.5H544.4z M554.5,365.3l0.9,0.8
		c-0.5,0.8-1.3,1.2-2.2,1.2c-0.7,0-1.3-0.2-1.8-0.7c-0.5-0.5-0.7-1.2-0.7-2s0.2-1.5,0.7-2c0.5-0.5,1-0.8,1.7-0.8
		c0.7,0,1.3,0.3,1.7,0.8c0.5,0.5,0.7,1.2,0.7,2v0.4H552c0,0.4,0.1,0.7,0.3,0.9c0.2,0.2,0.5,0.3,0.8,0.3c0.3,0,0.5-0.1,0.7-0.2
		C554.1,365.8,554.3,365.6,554.5,365.3z M552,364h2.3c0-0.3-0.1-0.6-0.3-0.8c-0.2-0.2-0.5-0.3-0.8-0.3c-0.3,0-0.6,0.1-0.8,0.3
		C552.2,363.4,552,363.7,552,364z M556.2,365.4l1.2-0.3c0.1,0.7,0.5,1.1,1.2,1.1c0.3,0,0.6,0,0.8-0.1c0.2-0.1,0.3-0.2,0.3-0.4
		c0-0.2-0.1-0.3-0.2-0.3c-0.1-0.1-0.4-0.2-0.9-0.3c-0.1,0-0.2-0.1-0.3-0.1c-0.6-0.2-1-0.4-1.3-0.6c-0.3-0.2-0.4-0.5-0.4-0.9
		c0-0.4,0.2-0.8,0.5-1.1c0.4-0.3,0.8-0.5,1.4-0.5c1.2,0,1.9,0.5,2.2,1.5l-1.1,0.3c-0.1-0.2-0.2-0.4-0.4-0.6
		c-0.2-0.1-0.4-0.2-0.7-0.2c-0.2,0-0.5,0-0.6,0.1c-0.1,0.1-0.2,0.2-0.2,0.3c0,0.1,0.1,0.3,0.3,0.3c0.2,0.1,0.6,0.2,1.3,0.4
		c0.6,0.2,1,0.4,1.2,0.6c0.2,0.2,0.3,0.6,0.3,1c0,0.4-0.2,0.8-0.6,1.1c-0.4,0.3-0.9,0.5-1.6,0.5c-0.7,0-1.3-0.2-1.7-0.5
		C556.5,366.4,556.2,365.9,556.2,365.4z M561.9,365.3V363h-0.8v-1.1h0.8v-1.3h1.2v1.3h1.3v1.1h-1.3v2.2c0,0.3,0,0.5,0.1,0.6
		c0.1,0.1,0.3,0.2,0.6,0.2h0.4v1.2h-0.5c-0.7,0-1.2-0.1-1.4-0.4C562.1,366.4,561.9,365.9,561.9,365.3z"/>
	<path class="st7" d="M586.1,438.1l-0.4-1.1H583l-0.4,1.1h-1.3l2.5-6.9h1.1l2.5,6.9H586.1z M584.4,433.2l-0.9,2.7h1.9L584.4,433.2
		L584.4,433.2z M590.7,438.1v-6.9h2.9c0.6,0,1.1,0.2,1.5,0.5c0.4,0.4,0.6,0.8,0.6,1.3c0,0.6-0.2,1-0.7,1.3v0
		c0.3,0.1,0.5,0.3,0.7,0.6c0.2,0.3,0.3,0.6,0.3,1c0,0.7-0.2,1.2-0.6,1.6c-0.4,0.4-1.1,0.6-2,0.6H590.7z M592.1,436.9h1.6
		c0.6,0,0.9-0.3,0.9-0.9c0-0.3-0.1-0.5-0.3-0.7c-0.2-0.2-0.4-0.2-0.7-0.2h-1.6V436.9z M592.1,434h1.4c0.3,0,0.5-0.1,0.6-0.2
		c0.2-0.1,0.2-0.3,0.2-0.6c0-0.3-0.1-0.5-0.2-0.6c-0.2-0.1-0.4-0.2-0.6-0.2h-1.4V434z M600.4,436.3l0.9,0.8
		c-0.5,0.8-1.3,1.2-2.2,1.2c-0.7,0-1.3-0.2-1.8-0.7c-0.5-0.5-0.7-1.2-0.7-2s0.2-1.5,0.7-2c0.5-0.5,1-0.8,1.7-0.8
		c0.7,0,1.3,0.3,1.7,0.8c0.5,0.5,0.7,1.2,0.7,2v0.4H598c0,0.4,0.1,0.7,0.3,0.9c0.2,0.2,0.5,0.3,0.8,0.3c0.3,0,0.5-0.1,0.7-0.2
		C600.1,436.8,600.3,436.6,600.4,436.3z M598,435h2.3c0-0.3-0.1-0.6-0.3-0.8c-0.2-0.2-0.5-0.3-0.8-0.3c-0.3,0-0.6,0.1-0.8,0.3
		C598.1,434.4,598,434.7,598,435z M602.6,438.1v-7.2h1.3v7.2H602.6z M605.5,436.3V434h-0.8v-1.1h0.8v-1.3h1.2v1.3h1.3v1.1h-1.3v2.2
		c0,0.3,0,0.5,0.1,0.6s0.3,0.2,0.6,0.2h0.4v1.2h-0.5c-0.7,0-1.2-0.1-1.4-0.4C605.7,437.4,605.5,436.9,605.5,436.3z"/>
	<path class="st7" d="M385.1,142.9h0.9c0.2,0,0.4,0,0.6-0.1c0.2-0.1,0.3-0.2,0.5-0.3c0.2-0.2,0.3-0.4,0.4-0.7
		c0.1-0.3,0.1-0.7,0.1-1.2c0-0.8-0.1-1.3-0.4-1.7c-0.3-0.4-0.7-0.5-1.1-0.5h-1V142.9z M383.7,144.1v-6.9h2.3c0.4,0,0.8,0.1,1.1,0.2
		c0.3,0.1,0.7,0.3,0.9,0.6c0.3,0.3,0.5,0.6,0.7,1.1c0.2,0.4,0.3,1,0.3,1.5c0,0.6-0.1,1.2-0.3,1.6c-0.2,0.5-0.4,0.8-0.7,1.1
		c-0.3,0.2-0.6,0.4-1,0.6c-0.3,0.1-0.7,0.2-1.1,0.2H383.7z M393.5,142.3l0.9,0.8c-0.5,0.8-1.3,1.2-2.2,1.2c-0.7,0-1.3-0.2-1.8-0.7
		c-0.5-0.5-0.7-1.2-0.7-2c0-0.8,0.2-1.5,0.7-2c0.5-0.5,1-0.8,1.7-0.8c0.7,0,1.3,0.3,1.7,0.8c0.5,0.5,0.7,1.2,0.7,2v0.4H391
		c0,0.4,0.1,0.7,0.3,0.9c0.2,0.2,0.5,0.3,0.8,0.3c0.3,0,0.5-0.1,0.7-0.2C393.1,142.8,393.3,142.6,393.5,142.3z M391,141h2.3
		c0-0.3-0.1-0.6-0.3-0.8c-0.2-0.2-0.5-0.3-0.8-0.3c-0.3,0-0.6,0.1-0.8,0.3C391.2,140.4,391,140.7,391,141z M395.8,144.1V140H395
		v-1.1h0.8v-0.7c0-0.4,0.1-0.8,0.3-0.9c0.2-0.2,0.6-0.3,1-0.3h1v1.1h-0.8c-0.2,0-0.3,0-0.3,0.1c-0.1,0.1-0.1,0.2-0.1,0.3v0.4h1.3
		v1.1h-1.3v4.1H395.8z M402.5,142.3l0.9,0.8c-0.5,0.8-1.3,1.2-2.2,1.2c-0.7,0-1.3-0.2-1.8-0.7c-0.5-0.5-0.7-1.2-0.7-2
		c0-0.8,0.2-1.5,0.7-2c0.5-0.5,1-0.8,1.7-0.8c0.7,0,1.3,0.3,1.7,0.8c0.5,0.5,0.7,1.2,0.7,2v0.4H400c0,0.4,0.1,0.7,0.3,0.9
		c0.2,0.2,0.5,0.3,0.8,0.3c0.3,0,0.5-0.1,0.7-0.2C402.1,142.8,402.3,142.6,402.5,142.3z M400,141h2.3c0-0.3-0.1-0.6-0.3-0.8
		c-0.2-0.2-0.5-0.3-0.8-0.3c-0.3,0-0.6,0.1-0.8,0.3C400.2,140.4,400.1,140.7,400,141z M404.6,144.1v-5.2h1.2v0.5h0
		c0.1-0.2,0.3-0.3,0.6-0.5s0.5-0.2,0.8-0.2c0.6,0,1,0.2,1.4,0.5c0.3,0.3,0.5,0.8,0.5,1.4v3.4h-1.3V141c0-0.4-0.1-0.6-0.2-0.8
		c-0.1-0.2-0.4-0.3-0.7-0.3c-0.3,0-0.6,0.1-0.7,0.3c-0.2,0.2-0.3,0.4-0.3,0.7v3.2H404.6z M413.6,142v-1c0-0.3-0.1-0.6-0.3-0.8
		c-0.2-0.2-0.5-0.3-0.8-0.3c-0.4,0-0.7,0.1-0.9,0.4c-0.2,0.3-0.3,0.7-0.3,1.2c0,0.5,0.1,0.9,0.3,1.2c0.2,0.3,0.5,0.4,0.9,0.4
		c0.3,0,0.6-0.1,0.8-0.3C413.5,142.6,413.6,142.3,413.6,142z M413.7,144.1v-0.5h0c0,0-0.1,0.1-0.1,0.2c-0.1,0.1-0.2,0.2-0.5,0.3
		c-0.2,0.1-0.5,0.2-0.8,0.2c-0.7,0-1.2-0.2-1.7-0.7c-0.4-0.5-0.6-1.2-0.6-2c0-0.8,0.2-1.5,0.7-2c0.4-0.5,1-0.8,1.6-0.8
		c0.3,0,0.5,0.1,0.7,0.2c0.2,0.1,0.4,0.2,0.5,0.3l0.1,0.2h0v-2.5h1.3v7.2H413.7z M419.7,142.3l0.9,0.8c-0.5,0.8-1.3,1.2-2.2,1.2
		c-0.7,0-1.3-0.2-1.8-0.7c-0.5-0.5-0.7-1.2-0.7-2c0-0.8,0.2-1.5,0.7-2c0.5-0.5,1-0.8,1.7-0.8c0.7,0,1.3,0.3,1.7,0.8
		c0.5,0.5,0.7,1.2,0.7,2v0.4h-3.5c0,0.4,0.1,0.7,0.3,0.9c0.2,0.2,0.5,0.3,0.8,0.3c0.3,0,0.5-0.1,0.7-0.2
		C419.3,142.8,419.5,142.6,419.7,142.3z M417.3,141h2.3c0-0.3-0.1-0.6-0.3-0.8c-0.2-0.2-0.5-0.3-0.8-0.3c-0.3,0-0.6,0.1-0.8,0.3
		C417.4,140.4,417.3,140.7,417.3,141z M421.8,144.1v-5.2h1.2v0.6h0c0.1-0.2,0.2-0.4,0.4-0.5c0.2-0.1,0.4-0.2,0.6-0.2
		c0.2,0,0.3,0,0.5,0.1l-0.2,1.2c-0.1-0.1-0.3-0.1-0.4-0.1c-0.6,0-0.9,0.4-0.9,1.2v2.9H421.8z M377.4,156.8l1.4-0.3
		c0.1,0.5,0.2,0.9,0.4,1.2c0.2,0.2,0.5,0.4,1,0.4c0.4,0,0.7-0.1,0.9-0.2c0.2-0.1,0.3-0.3,0.3-0.6c0-0.3-0.1-0.5-0.3-0.6
		c-0.2-0.2-0.7-0.3-1.5-0.6c-0.7-0.2-1.2-0.5-1.5-0.8c-0.3-0.3-0.4-0.7-0.4-1.2c0-0.5,0.2-1,0.6-1.4c0.4-0.4,1-0.6,1.7-0.6
		c0.7,0,1.2,0.2,1.7,0.5c0.5,0.3,0.8,0.8,0.9,1.4l-1.3,0.3c-0.2-0.7-0.6-1-1.3-1c-0.3,0-0.6,0.1-0.8,0.2c-0.2,0.1-0.2,0.3-0.2,0.5
		c0,0.2,0.1,0.4,0.3,0.5c0.2,0.1,0.7,0.3,1.5,0.6c0.8,0.3,1.3,0.5,1.6,0.9c0.3,0.3,0.4,0.7,0.4,1.2c0,0.6-0.2,1.1-0.7,1.5
		s-1.1,0.6-1.8,0.6c-0.8,0-1.4-0.2-1.9-0.6C377.8,158.3,377.5,157.7,377.4,156.8z M383.7,159.1v-5.2h1.3v5.2H383.7z M383.7,153.2
		v-1.2h1.3v1.2H383.7z M389.6,157v-1c0-0.3-0.1-0.6-0.3-0.8c-0.2-0.2-0.5-0.3-0.8-0.3c-0.4,0-0.7,0.1-0.9,0.4
		c-0.2,0.3-0.3,0.7-0.3,1.2c0,0.5,0.1,0.9,0.3,1.2c0.2,0.3,0.5,0.4,0.9,0.4c0.3,0,0.6-0.1,0.8-0.3
		C389.5,157.6,389.6,157.3,389.6,157z M389.7,159.1v-0.5h0c0,0-0.1,0.1-0.1,0.2c-0.1,0.1-0.2,0.2-0.5,0.3c-0.2,0.1-0.5,0.2-0.8,0.2
		c-0.7,0-1.2-0.2-1.7-0.7c-0.4-0.5-0.6-1.2-0.6-2c0-0.8,0.2-1.5,0.7-2c0.4-0.5,1-0.8,1.6-0.8c0.3,0,0.5,0.1,0.7,0.2
		c0.2,0.1,0.4,0.2,0.5,0.3l0.1,0.2h0v-2.5h1.3v7.2H389.7z M395.6,157.3l0.9,0.8c-0.5,0.8-1.3,1.2-2.2,1.2c-0.7,0-1.3-0.2-1.8-0.7
		c-0.5-0.5-0.7-1.2-0.7-2c0-0.8,0.2-1.5,0.7-2c0.5-0.5,1-0.8,1.7-0.8s1.3,0.3,1.7,0.8c0.5,0.5,0.7,1.2,0.7,2v0.4h-3.5
		c0,0.4,0.1,0.7,0.3,0.9c0.2,0.2,0.5,0.3,0.8,0.3c0.3,0,0.5-0.1,0.7-0.2C395.3,157.8,395.5,157.6,395.6,157.3z M393.2,156h2.3
		c0-0.3-0.1-0.6-0.3-0.8c-0.2-0.2-0.5-0.3-0.8-0.3c-0.3,0-0.6,0.1-0.8,0.3C393.3,155.4,393.2,155.7,393.2,156z M399.9,156.8l1.4-0.3
		c0.1,0.5,0.2,0.9,0.4,1.2c0.2,0.2,0.5,0.4,1,0.4c0.4,0,0.7-0.1,0.9-0.2c0.2-0.1,0.3-0.3,0.3-0.6c0-0.3-0.1-0.5-0.3-0.6
		c-0.2-0.2-0.7-0.3-1.5-0.6c-0.7-0.2-1.2-0.5-1.5-0.8c-0.3-0.3-0.4-0.7-0.4-1.2c0-0.5,0.2-1,0.6-1.4c0.4-0.4,1-0.6,1.7-0.6
		c0.7,0,1.2,0.2,1.7,0.5c0.5,0.3,0.8,0.8,0.9,1.4l-1.3,0.3c-0.2-0.7-0.6-1-1.3-1c-0.3,0-0.6,0.1-0.8,0.2c-0.2,0.1-0.2,0.3-0.2,0.5
		c0,0.2,0.1,0.4,0.3,0.5c0.2,0.1,0.7,0.3,1.5,0.6c0.8,0.3,1.3,0.5,1.6,0.9c0.3,0.3,0.4,0.7,0.4,1.2c0,0.6-0.2,1.1-0.7,1.5
		c-0.5,0.4-1.1,0.6-1.8,0.6c-0.8,0-1.4-0.2-1.9-0.6C400.3,158.3,400,157.7,399.9,156.8z M407.4,156v1.1c0,0.3,0.1,0.6,0.3,0.8
		c0.2,0.2,0.5,0.3,0.8,0.3c0.4,0,0.7-0.1,0.9-0.4c0.2-0.3,0.4-0.7,0.4-1.2c0-0.5-0.1-0.9-0.4-1.2c-0.2-0.3-0.5-0.4-0.9-0.4
		c-0.3,0-0.6,0.1-0.8,0.3C407.5,155.4,407.4,155.7,407.4,156z M406.1,161.4v-7.4h1.2v0.5h0c0,0,0,0,0-0.1c0,0,0.1-0.1,0.1-0.2
		c0.1-0.1,0.2-0.1,0.3-0.2c0.1-0.1,0.2-0.1,0.4-0.2c0.2,0,0.4-0.1,0.5-0.1c0.6,0,1.2,0.2,1.6,0.8c0.5,0.5,0.7,1.2,0.7,2
		c0,0.9-0.2,1.5-0.7,2c-0.4,0.5-1,0.7-1.6,0.7c-0.2,0-0.4,0-0.5-0.1c-0.2,0-0.3-0.1-0.4-0.2c-0.1-0.1-0.2-0.1-0.3-0.2
		c-0.1-0.1-0.1-0.1-0.2-0.2l0-0.1h0v2.7H406.1z M415.1,159.1v-0.5h0c0,0,0,0,0,0.1c0,0-0.1,0.1-0.1,0.1s-0.2,0.1-0.3,0.2
		c-0.1,0.1-0.2,0.1-0.4,0.2c-0.2,0-0.4,0.1-0.6,0.1c-0.6,0-1.1-0.1-1.4-0.4c-0.3-0.3-0.5-0.7-0.5-1.1c0-0.5,0.1-0.8,0.4-1
		c0.3-0.2,0.7-0.4,1.4-0.6c0.6-0.1,1-0.3,1.1-0.3c0.2-0.1,0.2-0.2,0.2-0.4s-0.1-0.3-0.2-0.4c-0.1-0.1-0.4-0.2-0.7-0.2
		c-0.3,0-0.6,0.1-0.7,0.2c-0.2,0.2-0.3,0.4-0.4,0.6l-1.1-0.4c0.1-0.4,0.4-0.8,0.7-1.1c0.4-0.3,0.8-0.4,1.4-0.4
		c0.6,0,1.2,0.2,1.6,0.5c0.4,0.3,0.6,0.9,0.6,1.6v3.3H415.1z M413.8,157c-0.3,0.1-0.5,0.2-0.7,0.3c-0.1,0.1-0.1,0.2-0.1,0.4
		c0,0.4,0.3,0.5,0.8,0.5c0.4,0,0.7-0.1,0.9-0.2c0.2-0.2,0.3-0.3,0.3-0.6v-0.9h0c0,0.1-0.1,0.1-0.1,0.1c0,0-0.1,0.1-0.3,0.1
		C414.4,156.9,414.1,156.9,413.8,157z M418.2,159.1l-1.2-5.2h1.3l0.7,3.5h0l1.2-3.5h1.2l1.1,3.5h0l0.8-3.5h1.2l-1.3,5.2H422
		l-1.2-3.8h0l-1.3,3.8H418.2z M425.4,159.1v-5.2h1.2v0.5h0c0.1-0.2,0.3-0.3,0.6-0.5c0.2-0.1,0.5-0.2,0.8-0.2c0.6,0,1,0.2,1.4,0.5
		c0.3,0.3,0.5,0.8,0.5,1.4v3.4h-1.3V156c0-0.4-0.1-0.6-0.2-0.8c-0.1-0.2-0.4-0.3-0.7-0.3c-0.3,0-0.6,0.1-0.7,0.3
		c-0.2,0.2-0.3,0.4-0.3,0.7v3.2H425.4z"/>
	<path class="st7" d="M81.4,405.1v-6.9h2.9c0.6,0,1.1,0.2,1.5,0.5c0.4,0.4,0.6,0.8,0.6,1.3c0,0.6-0.2,1-0.7,1.3v0
		c0.3,0.1,0.5,0.3,0.7,0.6c0.2,0.3,0.3,0.6,0.3,1c0,0.7-0.2,1.2-0.6,1.6c-0.4,0.4-1.1,0.6-2,0.6H81.4z M82.7,403.9h1.6
		c0.6,0,0.9-0.3,0.9-0.9c0-0.3-0.1-0.5-0.3-0.7c-0.2-0.2-0.4-0.2-0.7-0.2h-1.6V403.9z M82.7,401h1.4c0.3,0,0.5-0.1,0.6-0.2
		c0.2-0.1,0.2-0.3,0.2-0.6c0-0.3-0.1-0.5-0.2-0.6c-0.2-0.1-0.4-0.2-0.6-0.2h-1.4V401z M91.7,405.1v-2.9l-2.3-4h1.4l1.5,2.8h0
		l1.5-2.8h1.4l-2.3,4v2.9H91.7z M98.6,403.3l0.9,0.8c-0.5,0.8-1.3,1.2-2.2,1.2c-0.7,0-1.3-0.2-1.8-0.7c-0.5-0.5-0.7-1.2-0.7-2
		s0.2-1.5,0.7-2c0.5-0.5,1-0.8,1.7-0.8s1.3,0.3,1.7,0.8c0.5,0.5,0.7,1.2,0.7,2v0.4h-3.5c0,0.4,0.1,0.7,0.3,0.9
		c0.2,0.2,0.5,0.3,0.8,0.3c0.3,0,0.5-0.1,0.7-0.2C98.3,403.8,98.4,403.6,98.6,403.3z M96.2,402h2.3c0-0.3-0.1-0.6-0.3-0.8
		c-0.2-0.2-0.5-0.3-0.8-0.3c-0.3,0-0.6,0.1-0.8,0.3C96.3,401.4,96.2,401.7,96.2,402z M100.7,405.1v-7.2h1.3v7.2H100.7z M103.4,405.1
		v-7.2h1.3v7.2H103.4z M107.4,403.7c0.2,0.3,0.5,0.4,0.9,0.4c0.4,0,0.7-0.1,0.9-0.4c0.2-0.3,0.3-0.7,0.3-1.2s-0.1-0.9-0.3-1.2
		c-0.2-0.3-0.5-0.4-0.9-0.4c-0.4,0-0.7,0.1-0.9,0.4c-0.2,0.3-0.3,0.7-0.3,1.2C107.1,403.1,107.2,403.5,107.4,403.7z M110,404.6
		c-0.5,0.5-1,0.7-1.8,0.7s-1.3-0.2-1.8-0.7c-0.5-0.5-0.7-1.2-0.7-2c0-0.9,0.2-1.5,0.7-2s1.1-0.7,1.7-0.7c0.7,0,1.3,0.2,1.7,0.7
		c0.5,0.5,0.7,1.2,0.7,2C110.7,403.4,110.5,404.1,110,404.6z M112.5,405.1l-1.2-5.2h1.3l0.7,3.5h0l1.2-3.5h1.2l1.1,3.5h0l0.8-3.5
		h1.2l-1.3,5.2h-1.3l-1.2-3.8h0l-1.3,3.8H112.5z"/>
	<path class="st8" d="M399.3,635.1l-0.5-1.5h-3.5l-0.5,1.5H393l3.3-9.1h1.5l3.3,9.1H399.3z M397,628.6l-1.2,3.5h2.5L397,628.6
		L397,628.6z M402.2,632.7v-3h-1.1v-1.4h1.1v-1.7h1.6v1.7h1.7v1.4h-1.7v2.8c0,0.4,0.1,0.6,0.2,0.8c0.1,0.1,0.4,0.2,0.7,0.2h0.6v1.6
		h-0.7c-0.9,0-1.6-0.2-1.9-0.6C402.3,634.2,402.2,633.5,402.2,632.7z M407.1,632.7v-3H406v-1.4h1.1v-1.7h1.6v1.7h1.7v1.4h-1.7v2.8
		c0,0.4,0.1,0.6,0.2,0.8c0.1,0.1,0.4,0.2,0.7,0.2h0.6v1.6h-0.7c-0.9,0-1.6-0.2-1.9-0.6C407.2,634.2,407.1,633.5,407.1,632.7z
		 M415.5,635.1v-0.7h0c0,0,0,0.1-0.1,0.1c0,0-0.1,0.1-0.2,0.2c-0.1,0.1-0.2,0.2-0.4,0.3s-0.3,0.1-0.5,0.2c-0.2,0.1-0.5,0.1-0.7,0.1
		c-0.8,0-1.5-0.2-1.9-0.6c-0.4-0.4-0.6-0.9-0.6-1.5c0-0.6,0.2-1.1,0.5-1.4c0.4-0.3,1-0.6,1.8-0.8c0.8-0.2,1.3-0.3,1.5-0.5
		c0.2-0.1,0.3-0.3,0.3-0.5s-0.1-0.4-0.3-0.5c-0.2-0.1-0.5-0.2-0.9-0.2c-0.5,0-0.8,0.1-1,0.3c-0.2,0.2-0.4,0.5-0.5,0.8l-1.4-0.6
		c0.2-0.6,0.5-1.1,1-1.4c0.5-0.4,1.1-0.6,1.9-0.6c0.8,0,1.5,0.2,2.1,0.7c0.5,0.4,0.8,1.1,0.8,2.1v4.4H415.5z M413.8,632.3
		c-0.4,0.1-0.7,0.2-0.9,0.4c-0.1,0.1-0.2,0.3-0.2,0.5c0,0.5,0.3,0.7,1,0.7c0.5,0,0.9-0.1,1.1-0.3c0.3-0.2,0.4-0.4,0.4-0.7v-1.2h0
		c0,0.1-0.1,0.1-0.1,0.2c0,0-0.2,0.1-0.4,0.2C414.6,632.1,414.2,632.2,413.8,632.3z M422.8,632.4l1.6,0.4c-0.2,0.8-0.5,1.5-1,1.9
		c-0.5,0.4-1.2,0.7-2,0.7c-0.9,0-1.7-0.3-2.3-1c-0.6-0.6-0.9-1.5-0.9-2.7c0-1.1,0.3-2,0.9-2.7c0.6-0.7,1.4-1,2.3-1
		c0.8,0,1.4,0.2,1.9,0.7c0.5,0.5,0.8,1.1,1,1.8l-1.6,0.3c-0.2-0.8-0.6-1.3-1.3-1.3c-0.5,0-0.9,0.2-1.1,0.5c-0.3,0.4-0.4,0.9-0.4,1.6
		s0.1,1.2,0.4,1.6c0.3,0.4,0.7,0.5,1.1,0.5C422.2,633.8,422.6,633.3,422.8,632.4z M425.7,635.1v-9.5h1.7v5.4h0l2.5-2.8h2.1l-2.5,2.8
		l2.7,4.1h-1.9l-2.1-3.1h0l-0.9,1v2.2H425.7z M437.4,632.8l1.2,1c-0.7,1-1.7,1.5-2.8,1.5c-1,0-1.7-0.3-2.4-1
		c-0.6-0.7-0.9-1.6-0.9-2.7s0.3-2,0.9-2.6c0.6-0.7,1.4-1,2.3-1c0.9,0,1.7,0.3,2.3,1c0.6,0.7,0.9,1.5,0.9,2.6v0.5h-4.6
		c0,0.5,0.2,0.9,0.4,1.2c0.3,0.3,0.6,0.4,1.1,0.4c0.4,0,0.7-0.1,1-0.3C436.9,633.4,437.1,633.1,437.4,632.8z M434.2,630.9h3
		c0-0.4-0.2-0.8-0.5-1c-0.3-0.3-0.6-0.4-1.1-0.4c-0.4,0-0.8,0.1-1,0.4C434.3,630.2,434.2,630.5,434.2,630.9z M440.1,635.1v-6.9h1.6
		v0.7h0c0.1-0.3,0.3-0.5,0.6-0.6c0.3-0.2,0.5-0.2,0.8-0.2c0.2,0,0.4,0,0.6,0.1l-0.3,1.6c-0.2-0.1-0.4-0.1-0.5-0.1
		c-0.8,0-1.2,0.5-1.2,1.6v3.8H440.1z M444.4,632.9l1.5-0.4c0.1,1,0.6,1.4,1.5,1.4c0.4,0,0.7-0.1,1-0.2c0.3-0.1,0.4-0.3,0.4-0.6
		c0-0.2-0.1-0.3-0.3-0.4c-0.2-0.1-0.6-0.2-1.2-0.4c-0.2,0-0.3-0.1-0.4-0.1c-0.8-0.2-1.4-0.5-1.8-0.8c-0.4-0.3-0.6-0.7-0.6-1.2
		c0-0.6,0.2-1.1,0.7-1.5c0.5-0.4,1.1-0.6,1.9-0.6c1.5,0,2.5,0.7,2.9,2l-1.4,0.4c-0.1-0.3-0.3-0.6-0.5-0.8c-0.2-0.2-0.5-0.3-1-0.3
		c-0.3,0-0.6,0.1-0.8,0.2c-0.2,0.1-0.3,0.3-0.3,0.4c0,0.2,0.1,0.3,0.3,0.5c0.2,0.1,0.8,0.3,1.7,0.5c0.8,0.2,1.4,0.5,1.6,0.8
		c0.3,0.3,0.4,0.8,0.4,1.3c0,0.6-0.2,1.1-0.7,1.5c-0.5,0.4-1.2,0.7-2.1,0.7c-1,0-1.7-0.2-2.2-0.7
		C444.8,634.1,444.5,633.6,444.4,632.9z"/>
	<path class="st9" d="M376.7,57.5h1.2c0.3,0,0.6,0,0.8-0.1c0.2-0.1,0.5-0.2,0.7-0.4c0.2-0.2,0.4-0.5,0.5-0.9
		c0.1-0.4,0.2-0.9,0.2-1.5c0-1-0.2-1.8-0.6-2.2c-0.4-0.5-0.9-0.7-1.5-0.7h-1.3V57.5z M375,59.1V50h3c0.5,0,1,0.1,1.5,0.3
		c0.5,0.2,0.9,0.5,1.2,0.8c0.4,0.4,0.7,0.8,0.9,1.4c0.2,0.6,0.3,1.3,0.3,2c0,0.8-0.1,1.6-0.3,2.2c-0.2,0.6-0.5,1.1-0.9,1.4
		c-0.4,0.3-0.8,0.6-1.3,0.7c-0.5,0.2-0.9,0.2-1.5,0.2H375z M387.8,56.8l1.2,1c-0.7,1-1.7,1.5-2.8,1.5c-1,0-1.7-0.3-2.4-1
		c-0.6-0.7-0.9-1.6-0.9-2.7s0.3-2,0.9-2.6c0.6-0.7,1.4-1,2.3-1c0.9,0,1.7,0.3,2.3,1c0.6,0.7,0.9,1.5,0.9,2.6v0.5h-4.6
		c0,0.5,0.2,0.9,0.4,1.2c0.3,0.3,0.6,0.4,1.1,0.4c0.4,0,0.7-0.1,1-0.3C387.3,57.4,387.6,57.1,387.8,56.8z M384.6,54.9h3
		c0-0.4-0.2-0.8-0.5-1c-0.3-0.3-0.6-0.4-1.1-0.4c-0.4,0-0.8,0.1-1,0.4C384.8,54.2,384.6,54.5,384.6,54.9z M390.9,59.1v-5.5h-1.1
		v-1.4h1.1v-1c0-0.6,0.2-1,0.5-1.2c0.3-0.3,0.8-0.4,1.4-0.4h1.4v1.5h-1c-0.2,0-0.4,0-0.4,0.1c-0.1,0.1-0.1,0.2-0.1,0.4v0.6h1.7v1.4
		h-1.7v5.5H390.9z M399.7,56.8l1.2,1c-0.7,1-1.7,1.5-2.8,1.5c-1,0-1.7-0.3-2.4-1c-0.6-0.7-0.9-1.6-0.9-2.7s0.3-2,0.9-2.6
		c0.6-0.7,1.4-1,2.3-1c0.9,0,1.7,0.3,2.3,1c0.6,0.7,0.9,1.5,0.9,2.6v0.5h-4.6c0,0.5,0.2,0.9,0.4,1.2c0.3,0.3,0.6,0.4,1.1,0.4
		c0.4,0,0.7-0.1,1-0.3C399.2,57.4,399.5,57.1,399.7,56.8z M396.5,54.9h3c0-0.4-0.2-0.8-0.5-1c-0.3-0.3-0.6-0.4-1.1-0.4
		c-0.4,0-0.8,0.1-1,0.4C396.7,54.2,396.5,54.5,396.5,54.9z M402.5,59.1v-6.9h1.6v0.7h0c0.2-0.2,0.5-0.4,0.8-0.6
		c0.3-0.2,0.7-0.2,1-0.2c0.8,0,1.4,0.2,1.8,0.7c0.4,0.5,0.6,1.1,0.6,1.9v4.5h-1.7v-4.1c0-0.5-0.1-0.8-0.3-1.1
		c-0.2-0.2-0.5-0.4-0.9-0.4c-0.4,0-0.7,0.1-1,0.4c-0.2,0.2-0.4,0.6-0.4,0.9v4.2H402.5z M414.4,56.3v-1.3c0-0.4-0.1-0.8-0.4-1.1
		c-0.3-0.3-0.6-0.4-1.1-0.4c-0.5,0-0.9,0.2-1.2,0.5c-0.3,0.4-0.4,0.9-0.4,1.6c0,0.7,0.1,1.2,0.4,1.6c0.3,0.4,0.7,0.5,1.2,0.5
		c0.5,0,0.8-0.1,1.1-0.4C414.3,57.1,414.4,56.7,414.4,56.3z M414.5,59.1v-0.7h0c0,0.1-0.1,0.1-0.2,0.2c-0.1,0.1-0.3,0.2-0.6,0.4
		c-0.3,0.2-0.7,0.2-1,0.2c-0.9,0-1.6-0.3-2.2-1c-0.5-0.7-0.8-1.5-0.8-2.7c0-1.1,0.3-2,0.9-2.7c0.6-0.7,1.3-1,2.1-1
		c0.4,0,0.7,0.1,1,0.2c0.3,0.1,0.5,0.3,0.6,0.4l0.2,0.2h0v-3.3h1.7v9.5H414.5z M422.4,56.8l1.2,1c-0.7,1-1.7,1.5-2.8,1.5
		c-1,0-1.7-0.3-2.4-1c-0.6-0.7-0.9-1.6-0.9-2.7s0.3-2,0.9-2.6c0.6-0.7,1.4-1,2.3-1c0.9,0,1.7,0.3,2.3,1c0.6,0.7,0.9,1.5,0.9,2.6v0.5
		h-4.6c0,0.5,0.2,0.9,0.4,1.2c0.3,0.3,0.6,0.4,1.1,0.4c0.4,0,0.7-0.1,1-0.3C421.9,57.4,422.2,57.1,422.4,56.8z M419.2,54.9h3
		c0-0.4-0.2-0.8-0.5-1c-0.3-0.3-0.6-0.4-1.1-0.4c-0.4,0-0.8,0.1-1,0.4C419.4,54.2,419.2,54.5,419.2,54.9z M425.2,59.1v-6.9h1.6V53h0
		c0.1-0.3,0.3-0.5,0.6-0.6c0.3-0.2,0.5-0.2,0.8-0.2c0.2,0,0.4,0,0.6,0.1l-0.3,1.6c-0.2-0.1-0.4-0.1-0.5-0.1c-0.8,0-1.2,0.5-1.2,1.6
		v3.8H425.2z M429.4,56.9l1.5-0.4c0.1,1,0.6,1.4,1.5,1.4c0.4,0,0.7-0.1,1-0.2c0.3-0.1,0.4-0.3,0.4-0.6c0-0.2-0.1-0.3-0.3-0.4
		c-0.2-0.1-0.6-0.2-1.2-0.4c-0.2,0-0.3-0.1-0.4-0.1c-0.8-0.2-1.4-0.5-1.8-0.8c-0.4-0.3-0.6-0.7-0.6-1.2c0-0.6,0.2-1.1,0.7-1.5
		c0.5-0.4,1.1-0.6,1.9-0.6c1.5,0,2.5,0.7,2.9,2l-1.4,0.4c-0.1-0.3-0.3-0.6-0.5-0.8c-0.2-0.2-0.5-0.3-1-0.3c-0.3,0-0.6,0.1-0.8,0.2
		c-0.2,0.1-0.3,0.3-0.3,0.4c0,0.2,0.1,0.3,0.3,0.5c0.2,0.1,0.8,0.3,1.7,0.5c0.8,0.2,1.4,0.5,1.6,0.8c0.3,0.3,0.4,0.8,0.4,1.3
		c0,0.6-0.2,1.1-0.7,1.5c-0.5,0.4-1.2,0.7-2.1,0.7c-1,0-1.7-0.2-2.2-0.7C429.8,58.1,429.5,57.6,429.4,56.9z"/>
	<path class="st10" d="M516.9,193.1h119.8c2.3,0,4.1,1.8,4.1,4.1V255c0,2.3-1.8,4.1-4.1,4.1H516.9c-2.3,0-4.1-1.8-4.1-4.1v-57.8
		C512.8,195,514.7,193.1,516.9,193.1z"/>
	<g class="st11">
		<defs>
			<filter id="Adobe_OpacityMaskFilter_1_" filterUnits="userSpaceOnUse" x="470.7" y="115.7" width="235" height="234.8">
				<feColorMatrix  type="matrix" values="1 0 0 0 0  0 1 0 0 0  0 0 1 0 0  0 0 0 1 0"/>
			</filter>
		</defs>
		<mask maskUnits="userSpaceOnUse" x="470.7" y="115.7" width="235" height="234.8" id="mask1_2_">
			<path class="st12" d="M516.9,193.1h119.8c2.3,0,4.1,1.8,4.1,4.1V255c0,2.3-1.8,4.1-4.1,4.1H516.9c-2.3,0-4.1-1.8-4.1-4.1v-57.8
				C512.8,195,514.7,193.1,516.9,193.1z"/>
		</mask>
		<g class="st13">
			
				<rect x="445.5" y="179.3" transform="matrix(0.7074 -0.7068 0.7068 0.7074 28.8689 431.9387)" class="st14" width="181.3" height="3.7"/>
			
				<rect x="450.7" y="184.5" transform="matrix(0.7074 -0.7068 0.7068 0.7074 26.7151 437.1422)" class="st14" width="181.3" height="3.7"/>
			
				<rect x="455.9" y="189.7" transform="matrix(0.7074 -0.7068 0.7068 0.7074 24.56 442.3464)" class="st14" width="181.3" height="3.7"/>
			
				<rect x="461.1" y="194.9" transform="matrix(0.7074 -0.7068 0.7068 0.7074 22.4063 447.5501)" class="st14" width="181.3" height="3.7"/>
			
				<rect x="466.3" y="200.1" transform="matrix(0.7074 -0.7068 0.7068 0.7074 20.2516 452.7534)" class="st14" width="181.3" height="3.7"/>
			
				<rect x="471.5" y="205.3" transform="matrix(0.7074 -0.7068 0.7068 0.7074 18.0977 457.9564)" class="st14" width="181.3" height="3.7"/>
			
				<rect x="476.7" y="210.5" transform="matrix(0.7074 -0.7068 0.7068 0.7074 15.9435 463.1611)" class="st14" width="181.3" height="3.7"/>
			
				<rect x="481.9" y="215.7" transform="matrix(0.7074 -0.7068 0.7068 0.7074 13.7896 468.3641)" class="st14" width="181.3" height="3.7"/>
			
				<rect x="487.1" y="220.9" transform="matrix(0.7074 -0.7068 0.7068 0.7074 11.6359 473.5678)" class="st14" width="181.3" height="3.7"/>
			
				<rect x="492.3" y="226.1" transform="matrix(0.7074 -0.7068 0.7068 0.7074 9.4812 478.7711)" class="st14" width="181.3" height="3.7"/>
			
				<rect x="497.5" y="231.3" transform="matrix(0.7074 -0.7068 0.7068 0.7074 7.3268 483.9751)" class="st14" width="181.3" height="3.7"/>
			
				<rect x="502.8" y="236.5" transform="matrix(0.7074 -0.7068 0.7068 0.7074 5.1731 489.1787)" class="st14" width="181.3" height="3.7"/>
			
				<rect x="508" y="241.7" transform="matrix(0.7074 -0.7068 0.7068 0.7074 3.0184 494.382)" class="st14" width="181.3" height="3.7"/>
			
				<rect x="513.2" y="246.9" transform="matrix(0.7074 -0.7068 0.7068 0.7074 0.864 499.5861)" class="st14" width="181.3" height="3.7"/>
			
				<rect x="518.4" y="252.1" transform="matrix(0.7074 -0.7068 0.7068 0.7074 -1.2907 504.7893)" class="st14" width="181.3" height="3.7"/>
			
				<rect x="523.6" y="257.3" transform="matrix(0.7074 -0.7068 0.7068 0.7074 -3.4451 509.9933)" class="st14" width="181.3" height="3.7"/>
			
				<rect x="528.8" y="262.5" transform="matrix(0.7074 -0.7068 0.7068 0.7074 -5.5988 515.197)" class="st14" width="181.3" height="3.7"/>
			
				<rect x="534" y="267.7" transform="matrix(0.7074 -0.7068 0.7068 0.7074 -7.7525 520.4008)" class="st14" width="181.3" height="3.7"/>
			
				<rect x="539.2" y="272.9" transform="matrix(0.7074 -0.7068 0.7068 0.7074 -9.9072 525.604)" class="st14" width="181.3" height="3.7"/>
			
				<rect x="544.4" y="278.1" transform="matrix(0.7074 -0.7068 0.7068 0.7074 -12.0615 530.808)" class="st14" width="181.3" height="3.7"/>
			
				<rect x="549.6" y="283.3" transform="matrix(0.7074 -0.7068 0.7068 0.7074 -14.2152 536.0117)" class="st14" width="181.3" height="3.7"/>
		</g>
	</g>
	<path class="st15" d="M580.1,232.1l-0.7-1.9h-4.4l-0.7,1.9h-2.2l4.2-11.5h1.9l4.1,11.5H580.1z M577.3,223.9l-1.6,4.5h3.1
		L577.3,223.9L577.3,223.9z"/>
	<path class="st10" d="M146.9,259.1h55.8c2.3,0,4.1,1.8,4.1,4.1V327c0,2.3-1.8,4.1-4.1,4.1h-55.8c-2.3,0-4.1-1.8-4.1-4.1v-63.8
		C142.8,261,144.7,259.1,146.9,259.1z"/>
	<g class="st11">
		<defs>
			<filter id="Adobe_OpacityMaskFilter_2_" filterUnits="userSpaceOnUse" x="67.7" y="187.7" width="235" height="234.8">
				<feColorMatrix  type="matrix" values="1 0 0 0 0  0 1 0 0 0  0 0 1 0 0  0 0 0 1 0"/>
			</filter>
		</defs>
		<mask maskUnits="userSpaceOnUse" x="67.7" y="187.7" width="235" height="234.8" id="mask2_2_">
			<path class="st16" d="M146.9,259.1h55.8c2.3,0,4.1,1.8,4.1,4.1V327c0,2.3-1.8,4.1-4.1,4.1h-55.8c-2.3,0-4.1-1.8-4.1-4.1v-63.8
				C142.8,261,144.7,259.1,146.9,259.1z"/>
		</mask>
		<g class="st17">
			
				<rect x="42.5" y="251.3" transform="matrix(0.7074 -0.7068 0.7068 0.7074 -139.9492 168.1534)" class="st14" width="181.3" height="3.7"/>
			
				<rect x="47.7" y="256.5" transform="matrix(0.7074 -0.7068 0.7068 0.7074 -142.1032 173.3566)" class="st14" width="181.3" height="3.7"/>
			
				<rect x="52.9" y="261.7" transform="matrix(0.7074 -0.7068 0.7068 0.7074 -144.2583 178.5609)" class="st14" width="181.3" height="3.7"/>
			
				<rect x="58.1" y="266.9" transform="matrix(0.7074 -0.7068 0.7068 0.7074 -146.412 183.7646)" class="st14" width="181.3" height="3.7"/>
			
				<rect x="63.3" y="272.1" transform="matrix(0.7074 -0.7068 0.7068 0.7074 -148.5667 188.9679)" class="st14" width="181.3" height="3.7"/>
			
				<rect x="68.5" y="277.3" transform="matrix(0.7074 -0.7068 0.7068 0.7074 -150.7206 194.1709)" class="st14" width="181.3" height="3.7"/>
			
				<rect x="73.7" y="282.5" transform="matrix(0.7074 -0.7068 0.7068 0.7074 -152.8747 199.3756)" class="st14" width="181.3" height="3.7"/>
			
				<rect x="78.9" y="287.7" transform="matrix(0.7074 -0.7068 0.7068 0.7074 -155.0287 204.5786)" class="st14" width="181.3" height="3.7"/>
			
				<rect x="84.1" y="292.9" transform="matrix(0.7074 -0.7068 0.7068 0.7074 -157.1824 209.7823)" class="st14" width="181.3" height="3.7"/>
			
				<rect x="89.3" y="298.1" transform="matrix(0.7074 -0.7068 0.7068 0.7074 -159.3371 214.9856)" class="st14" width="181.3" height="3.7"/>
			
				<rect x="94.5" y="303.3" transform="matrix(0.7074 -0.7068 0.7068 0.7074 -161.4915 220.1895)" class="st14" width="181.3" height="3.7"/>
			
				<rect x="99.8" y="308.5" transform="matrix(0.7074 -0.7068 0.7068 0.7074 -163.6452 225.3932)" class="st14" width="181.3" height="3.7"/>
			
				<rect x="105" y="313.7" transform="matrix(0.7074 -0.7068 0.7068 0.7074 -165.7999 230.5965)" class="st14" width="181.3" height="3.7"/>
			
				<rect x="110.2" y="318.9" transform="matrix(0.7074 -0.7068 0.7068 0.7074 -167.9542 235.8002)" class="st14" width="181.3" height="3.7"/>
			
				<rect x="115.4" y="324.1" transform="matrix(0.7074 -0.7068 0.7068 0.7074 -170.1089 241.0035)" class="st14" width="181.3" height="3.7"/>
			
				<rect x="120.6" y="329.3" transform="matrix(0.7074 -0.7068 0.7068 0.7074 -172.2634 246.2078)" class="st14" width="181.3" height="3.7"/>
			
				<rect x="125.8" y="334.5" transform="matrix(0.7074 -0.7068 0.7068 0.7074 -174.417 251.4115)" class="st14" width="181.3" height="3.7"/>
			
				<rect x="131" y="339.7" transform="matrix(0.7074 -0.7068 0.7068 0.7074 -176.5707 256.6152)" class="st14" width="181.3" height="3.7"/>
			
				<rect x="136.2" y="344.9" transform="matrix(0.7074 -0.7068 0.7068 0.7074 -178.7254 261.8185)" class="st14" width="181.3" height="3.7"/>
			
				<rect x="141.4" y="350.1" transform="matrix(0.7074 -0.7068 0.7068 0.7074 -180.8798 267.0225)" class="st14" width="181.3" height="3.7"/>
			
				<rect x="146.6" y="355.3" transform="matrix(0.7074 -0.7068 0.7068 0.7074 -183.0335 272.2262)" class="st14" width="181.3" height="3.7"/>
		</g>
	</g>
	<path class="st15" d="M171.3,300.1v-11.5h4.9c1,0,1.8,0.3,2.4,0.9c0.6,0.6,0.9,1.3,0.9,2.2c0,1-0.4,1.7-1.2,2.2v0
		c0.5,0.2,0.9,0.5,1.2,1c0.3,0.4,0.5,1,0.5,1.6c0,1.1-0.3,2-1,2.6c-0.7,0.6-1.8,1-3.3,1H171.3z M173.5,298.1h2.7
		c1.1,0,1.6-0.5,1.6-1.5c0-0.5-0.1-0.8-0.4-1.1c-0.3-0.3-0.7-0.4-1.1-0.4h-2.7V298.1z M173.5,293.3h2.4c0.4,0,0.8-0.1,1.1-0.3
		c0.3-0.2,0.4-0.5,0.4-1c0-0.4-0.1-0.8-0.4-1c-0.3-0.2-0.6-0.3-1.1-0.3h-2.4V293.3z"/>
</g>
</svg>
