<?xml version="1.0" encoding="utf-8"?>
<!-- Generator: Adobe Illustrator 24.0.2, SVG Export Plug-In . SVG Version: 6.00 Build 0)  -->
<svg version="1.1" id="Layer_1" xmlns="http://www.w3.org/2000/svg" xmlns:xlink="http://www.w3.org/1999/xlink" x="0px" y="0px"
	 viewBox="0 0 708 708" style="enable-background:new 0 0 708 708;" xml:space="preserve">
<style type="text/css">
	.st0{fill:#15181E;}
	.st1{fill-rule:evenodd;clip-rule:evenodd;fill:#15181E;}
	.st2{fill:#22252B;}
	.st3{fill:#101319;}
	.st4{fill-rule:evenodd;clip-rule:evenodd;fill:#101319;}
	.st5{clip-path:url(#SVGID_2_);}
	.st6{fill:#24E8CC;}
	.st7{fill:#7986A3;}
	.st8{fill:#F44348;}
	
		.st9{opacity:0.5;fill:#4D5F83;fill-opacity:0.15;stroke:#4D5F83;stroke-width:1.6433;stroke-miterlimit:16;enable-background:new    ;}
	.st10{opacity:0.15;}
	.st11{fill:#C4C4C4;filter:url(#Adobe_OpacityMaskFilter);}
	.st12{mask:url(#mask0_2_);}
	.st13{fill:#4D5F83;}
	.st14{fill:#C4C4C4;filter:url(#Adobe_OpacityMaskFilter_1_);}
	.st15{mask:url(#mask1_2_);}
	.st16{fill:#E5EBEF;}
</style>
<rect x="510" y="346" class="st0" width="30" height="24"/>
<path class="st0" d="M311,29h58v122l-18,18v39h-40v-57V29z"/>
<rect x="184" y="169" class="st0" width="127" height="29"/>
<rect x="266" y="198" class="st0" width="21" height="52"/>
<rect x="225" y="235" class="st0" width="41" height="15"/>
<rect x="260" y="311" class="st0" width="40" height="48"/>
<rect x="300" y="335" class="st0" width="6" height="24"/>
<rect x="248" y="335" class="st0" width="12" height="24"/>
<path class="st0" d="M204,270h44v89l-22,26h-22V270z"/>
<rect x="225" y="250" class="st0" width="23" height="20"/>
<rect x="201" y="270" class="st0" width="3" height="40"/>
<path class="st1" d="M9,160h45v43h122v67h25v66h-46v-15H9V160z M124,253H66v28h58V253z"/>
<rect x="115" y="131" class="st0" width="46" height="35"/>
<rect x="123" y="166" class="st0" width="20" height="37"/>
<rect x="161" y="131" class="st0" width="23" height="23"/>
<rect x="184" y="131" class="st0" width="31" height="38"/>
<rect x="528" y="87" class="st0" width="88" height="41"/>
<rect x="522" y="87" class="st0" width="6" height="25"/>
<rect x="476" y="87" class="st0" width="46" height="64"/>
<rect x="426" y="151" class="st0" width="18" height="13"/>
<rect x="369" y="127" class="st0" width="107" height="24"/>
<rect x="517" y="206" class="st0" width="3" height="18"/>
<rect x="610" y="384" class="st0" width="28" height="35"/>
<rect x="605" y="327" class="st0" width="33" height="57"/>
<path class="st0" d="M540,326h47v25h18v33h-7l-24,24h-34V326z"/>
<path class="st0" d="M446,276h57v22l-9,17v31h16v48h-46l-18-18V276z"/>
<rect x="477" y="273" class="st0" width="14" height="3"/>
<rect x="427" y="253" class="st0" width="64" height="20"/>
<path class="st0" d="M426,164h91v73h-26v16h-39v-41h-26V164z"/>
<path class="st1" d="M540,198h-20v26l9,19v54h34v29h24v-52h52l34,32h26v-23h-3v-88h3v-25h-43v-25H540V198z M640,163h-50v40h50V163z"
	/>
<rect x="566" y="128" class="st0" width="19" height="6"/>
<rect x="561" y="134" class="st0" width="28" height="11"/>
<rect x="33" y="321" class="st0" width="33" height="45"/>
<rect x="306" y="370" class="st0" width="55" height="26"/>
<rect x="306" y="317" class="st0" width="58" height="53"/>
<rect x="341" y="314" class="st0" width="15" height="3"/>
<rect x="324" y="273" class="st0" width="64" height="41"/>
<rect x="388" y="295" class="st0" width="12" height="19"/>
<rect x="400" y="253" class="st0" width="27" height="61"/>
<rect x="126" y="419" class="st0" width="23" height="13"/>
<rect x="33" y="366" class="st0" width="120" height="53"/>
<rect x="33" y="419" class="st0" width="52" height="24"/>
<rect x="178" y="492" class="st0" width="12" height="21"/>
<rect x="190" y="434" class="st0" width="35" height="79"/>
<rect x="225" y="454" class="st0" width="22" height="24"/>
<rect x="247" y="430" class="st0" width="40" height="73"/>
<rect x="287" y="454" class="st0" width="5" height="24"/>
<rect x="595" y="436" class="st0" width="3" height="14"/>
<rect x="549" y="431" class="st0" width="46" height="24"/>
<rect x="549" y="455" class="st0" width="23" height="10"/>
<rect x="423" y="465" class="st0" width="149" height="24"/>
<rect x="423" y="408" class="st0" width="18" height="57"/>
<rect x="361" y="431" class="st0" width="62" height="23"/>
<rect x="291" y="396" class="st0" width="70" height="100"/>
<rect x="499" y="500" class="st0" width="140" height="37"/>
<path class="st0" d="M639,459h-41v7h-11v34h52V459z"/>
<rect x="598" y="419" class="st0" width="75" height="40"/>
<rect x="271" y="565" class="st0" width="13" height="25"/>
<path class="st0" d="M284,565h91v113h-30v-1h-19v-2h-29v-1h-16v-74h3V565z"/>
<rect x="360" y="545" class="st0" width="15" height="20"/>
<rect x="220" y="565" class="st0" width="51" height="31"/>
<path class="st0" d="M108,531h107v29l5,5v31h-51v-19h-61V531z"/>
<rect x="108" y="431" class="st0" width="70" height="100"/>
<rect x="375" y="562" class="st0" width="69" height="31"/>
<rect x="444" y="500" class="st0" width="55" height="93"/>
<rect x="458" y="500" class="st2" width="24" height="13"/>
<rect x="627" y="459" class="st2" width="12" height="20"/>
<rect x="633" y="490" class="st2" width="6" height="28"/>
<rect x="627" y="529" class="st2" width="12" height="8"/>
<rect x="654" y="227" class="st2" width="12" height="24"/>
<rect x="628" y="203" class="st2" width="12" height="12"/>
<rect x="540" y="239" class="st2" width="12" height="12"/>
<rect x="539" y="198" class="st3" width="1" height="99"/>
<rect x="452" y="212" class="st2" width="12" height="12"/>
<rect x="452" y="224" class="st2" width="11" height="6"/>
<rect x="446" y="308" class="st2" width="7" height="6"/>
<rect x="446" y="314" class="st2" width="15" height="12"/>
<rect x="427" y="253" class="st3" width="1" height="21"/>
<rect x="419" y="295" class="st2" width="8" height="6"/>
<rect x="418" y="301" class="st2" width="9" height="13"/>
<rect x="399" y="295" class="st3" width="1" height="19"/>
<rect x="339" y="420" class="st2" width="22" height="11"/>
<rect x="349" y="370" class="st2" width="12" height="11"/>
<path class="st2" d="M302,484h-9v2h-1v8h1v2h9v-2h1v-8h-1V484z"/>
<path class="st2" d="M308,489h-4v1h-1v5h1v1h4v-1h1v-5h-1V489z"/>
<rect x="274" y="430" class="st2" width="13" height="13"/>
<rect x="190" y="434" class="st2" width="6" height="58"/>
<rect x="108" y="431" class="st2" width="19" height="42"/>
<rect x="127" y="465" class="st2" width="5" height="8"/>
<rect x="33" y="431" class="st2" width="12" height="12"/>
<rect x="45" y="440" class="st2" width="16" height="3"/>
<rect x="33" y="427" class="st2" width="4" height="4"/>
<rect x="108" y="366" class="st2" width="13" height="13"/>
<rect x="33" y="353" class="st2" width="13" height="13"/>
<path class="st2" d="M126,366h-4v1h-1v5h1v1h4v-1h1v-5h-1V366z"/>
<rect x="9" y="309" class="st2" width="24" height="12"/>
<rect x="9" y="297" class="st2" width="12" height="24"/>
<rect x="9" y="232" class="st2" width="31" height="13"/>
<rect x="43" y="160" class="st2" width="12" height="12"/>
<rect x="48" y="172" class="st2" width="7" height="6"/>
<rect x="91" y="241" class="st2" width="11" height="12"/>
<rect x="113" y="281" class="st2" width="11" height="12"/>
<rect x="155" y="228" class="st2" width="11" height="10"/>
<rect x="184" y="186" class="st2" width="12" height="11"/>
<rect x="237" y="301" class="st2" width="11" height="13"/>
<rect x="572" y="431" class="st3" width="1" height="23"/>
<path class="st4" d="M166,203h1v88h10v-9h1h23h1v1v27h-1v-27h-23v8v1h-1h-1v29h-1h-21v-1h21v-28h-8h-1V203z"/>
<path class="st3" d="M560,326h-1v17h-19v1h20V326z"/>
<rect x="493" y="371" class="st3" width="17" height="1"/>
<path class="st2" d="M108,565h22v1h5v1h6v1h6v1h6v-3h16v3v8h-61V565z"/>
<g>
	<defs>
		<rect id="SVGID_1_" x="-0.2" y="0.1" width="708" height="708"/>
	</defs>
	<clipPath id="SVGID_2_">
		<use xlink:href="#SVGID_1_"  style="overflow:visible;"/>
	</clipPath>
	<g class="st5">
		<path class="st6" d="M308.2,632.1l-0.5-1.5h-3.5l-0.5,1.5H302l3.3-9.1h1.5l3.3,9.1H308.2z M306,625.6l-1.2,3.5h2.5L306,625.6
			L306,625.6z M311.1,629.7v-3H310v-1.4h1.1v-1.7h1.6v1.7h1.7v1.4h-1.7v2.8c0,0.4,0.1,0.6,0.2,0.8c0.1,0.1,0.4,0.2,0.7,0.2h0.6v1.6
			h-0.7c-0.9,0-1.6-0.2-1.9-0.6C311.3,631.1,311.1,630.5,311.1,629.7z M316,629.7v-3h-1.1v-1.4h1.1v-1.7h1.6v1.7h1.7v1.4h-1.7v2.8
			c0,0.4,0.1,0.6,0.2,0.8c0.1,0.1,0.4,0.2,0.7,0.2h0.6v1.6h-0.7c-0.9,0-1.6-0.2-1.9-0.6C316.2,631.1,316,630.5,316,629.7z
			 M324.5,632.1v-0.7h0c0,0,0,0.1-0.1,0.1c0,0-0.1,0.1-0.2,0.2c-0.1,0.1-0.2,0.2-0.4,0.3s-0.3,0.1-0.5,0.2c-0.2,0.1-0.5,0.1-0.7,0.1
			c-0.8,0-1.5-0.2-1.9-0.6c-0.4-0.4-0.6-0.9-0.6-1.5c0-0.6,0.2-1.1,0.5-1.4c0.4-0.3,1-0.6,1.8-0.8c0.8-0.2,1.3-0.3,1.5-0.5
			c0.2-0.1,0.3-0.3,0.3-0.5s-0.1-0.4-0.3-0.5c-0.2-0.1-0.5-0.2-0.9-0.2c-0.5,0-0.8,0.1-1,0.3c-0.2,0.2-0.4,0.5-0.5,0.8l-1.4-0.6
			c0.2-0.6,0.5-1.1,1-1.4c0.5-0.4,1.1-0.6,1.9-0.6c0.8,0,1.5,0.2,2.1,0.7c0.5,0.4,0.8,1.1,0.8,2.1v4.4H324.5z M322.8,629.3
			c-0.4,0.1-0.7,0.2-0.9,0.4c-0.1,0.1-0.2,0.3-0.2,0.5c0,0.5,0.3,0.7,1,0.7c0.5,0,0.9-0.1,1.1-0.3c0.3-0.2,0.4-0.4,0.4-0.7v-1.2h0
			c0,0.1-0.1,0.1-0.1,0.2c0,0-0.2,0.1-0.4,0.2C323.5,629.1,323.2,629.2,322.8,629.3z M331.7,629.3l1.6,0.4c-0.2,0.8-0.5,1.5-1,1.9
			c-0.5,0.4-1.2,0.7-2,0.7c-0.9,0-1.7-0.3-2.3-1c-0.6-0.6-0.9-1.5-0.9-2.7c0-1.1,0.3-2,0.9-2.7c0.6-0.7,1.4-1,2.3-1
			c0.8,0,1.4,0.2,1.9,0.7c0.5,0.5,0.8,1.1,1,1.8l-1.6,0.3c-0.2-0.8-0.6-1.3-1.3-1.3c-0.5,0-0.9,0.2-1.1,0.5
			c-0.3,0.4-0.4,0.9-0.4,1.6s0.1,1.2,0.4,1.6c0.3,0.4,0.7,0.5,1.1,0.5C331.1,630.8,331.6,630.3,331.7,629.3z M334.6,632.1v-9.5h1.7
			v5.4h0l2.5-2.8h2.1l-2.5,2.8l2.7,4.1h-1.9l-2.1-3.1h0l-0.9,1v2.2H334.6z M346.3,629.7l1.2,1c-0.7,1-1.7,1.5-2.8,1.5
			c-1,0-1.7-0.3-2.4-1c-0.6-0.7-0.9-1.6-0.9-2.7s0.3-2,0.9-2.6c0.6-0.7,1.4-1,2.3-1c0.9,0,1.7,0.3,2.3,1c0.6,0.7,0.9,1.5,0.9,2.6
			v0.5h-4.6c0,0.5,0.2,0.9,0.4,1.2c0.3,0.3,0.6,0.4,1.1,0.4c0.4,0,0.7-0.1,1-0.3C345.8,630.3,346.1,630.1,346.3,629.7z M343.1,627.9
			h3c0-0.4-0.2-0.8-0.5-1c-0.3-0.3-0.6-0.4-1.1-0.4c-0.4,0-0.8,0.1-1,0.4C343.3,627.2,343.1,627.5,343.1,627.9z M349.1,632.1v-6.9
			h1.6v0.7h0c0.1-0.3,0.3-0.5,0.6-0.6c0.3-0.2,0.5-0.2,0.8-0.2c0.2,0,0.4,0,0.6,0.1l-0.3,1.6c-0.2-0.1-0.4-0.1-0.5-0.1
			c-0.8,0-1.2,0.5-1.2,1.6v3.8H349.1z M353.3,629.8l1.5-0.4c0.1,1,0.6,1.4,1.5,1.4c0.4,0,0.7-0.1,1-0.2c0.3-0.1,0.4-0.3,0.4-0.6
			c0-0.2-0.1-0.3-0.3-0.4c-0.2-0.1-0.6-0.2-1.2-0.4c-0.2,0-0.3-0.1-0.4-0.1c-0.8-0.2-1.4-0.5-1.8-0.8c-0.4-0.3-0.6-0.7-0.6-1.2
			c0-0.6,0.2-1.1,0.7-1.5c0.5-0.4,1.1-0.6,1.9-0.6c1.5,0,2.5,0.7,2.9,2l-1.4,0.4c-0.1-0.3-0.3-0.6-0.5-0.8c-0.2-0.2-0.5-0.3-1-0.3
			c-0.3,0-0.6,0.1-0.8,0.2c-0.2,0.1-0.3,0.3-0.3,0.4c0,0.2,0.1,0.3,0.3,0.5c0.2,0.1,0.8,0.3,1.7,0.5c0.8,0.2,1.4,0.5,1.6,0.8
			c0.3,0.3,0.4,0.8,0.4,1.3c0,0.6-0.2,1.1-0.7,1.5c-0.5,0.4-1.2,0.7-2.1,0.7c-1,0-1.7-0.2-2.2-0.7
			C353.7,631.1,353.4,630.5,353.3,629.8z"/>
		<path class="st7" d="M124.3,523.1v-6.9h2.9c0.6,0,1.1,0.2,1.5,0.5c0.4,0.4,0.6,0.8,0.6,1.3c0,0.6-0.2,1-0.8,1.3v0
			c0.3,0.1,0.5,0.3,0.7,0.6c0.2,0.3,0.3,0.6,0.3,1c0,0.7-0.2,1.2-0.6,1.6c-0.4,0.4-1.1,0.6-2,0.6H124.3z M125.6,521.9h1.6
			c0.6,0,0.9-0.3,0.9-0.9c0-0.3-0.1-0.5-0.3-0.7c-0.2-0.2-0.4-0.2-0.7-0.2h-1.6V521.9z M125.6,519h1.4c0.3,0,0.5-0.1,0.6-0.2
			c0.2-0.1,0.2-0.3,0.2-0.6c0-0.3-0.1-0.5-0.2-0.6c-0.2-0.1-0.4-0.2-0.6-0.2h-1.4V519z M133.1,523.1v-6.9h1.3v5.7h2.8v1.2H133.1z
			 M139.4,521.7c0.2,0.3,0.5,0.4,0.9,0.4s0.7-0.1,0.9-0.4c0.2-0.3,0.3-0.7,0.3-1.2s-0.1-0.9-0.3-1.2c-0.2-0.3-0.5-0.4-0.9-0.4
			c-0.4,0-0.7,0.1-0.9,0.4c-0.2,0.3-0.3,0.7-0.3,1.2C139.1,521,139.2,521.4,139.4,521.7z M142,522.5c-0.5,0.5-1,0.7-1.8,0.7
			s-1.3-0.2-1.8-0.7c-0.5-0.5-0.7-1.2-0.7-2c0-0.9,0.2-1.5,0.7-2c0.5-0.5,1.1-0.7,1.7-0.7c0.7,0,1.3,0.2,1.7,0.7
			c0.5,0.5,0.7,1.2,0.7,2C142.7,521.4,142.5,522.1,142,522.5z M145,520v1c0,0.3,0.1,0.6,0.3,0.8c0.2,0.2,0.5,0.3,0.8,0.3
			c0.4,0,0.7-0.1,0.9-0.4c0.2-0.3,0.3-0.7,0.3-1.2c0-0.5-0.1-0.9-0.3-1.2c-0.2-0.3-0.5-0.4-0.9-0.4c-0.3,0-0.6,0.1-0.8,0.3
			C145.1,519.4,145,519.7,145,520z M143.7,523.1v-7.2h1.3v2.5h0c0,0,0,0,0-0.1c0,0,0.1-0.1,0.1-0.2c0.1-0.1,0.2-0.1,0.3-0.2
			c0.1-0.1,0.2-0.1,0.4-0.2c0.2,0,0.3-0.1,0.5-0.1c0.6,0,1.2,0.3,1.6,0.8c0.4,0.5,0.6,1.2,0.6,2c0,0.8-0.2,1.5-0.6,2
			c-0.4,0.5-1,0.7-1.6,0.7c-0.3,0-0.5-0.1-0.8-0.2c-0.2-0.1-0.4-0.2-0.5-0.3l-0.1-0.2h0v0.5H143.7z M150.9,520v1
			c0,0.3,0.1,0.6,0.3,0.8c0.2,0.2,0.5,0.3,0.8,0.3c0.4,0,0.7-0.1,0.9-0.4c0.2-0.3,0.3-0.7,0.3-1.2c0-0.5-0.1-0.9-0.3-1.2
			c-0.2-0.3-0.5-0.4-0.9-0.4c-0.3,0-0.6,0.1-0.8,0.3C151,519.4,150.9,519.7,150.9,520z M149.6,523.1v-7.2h1.3v2.5h0c0,0,0,0,0.1-0.1
			c0,0,0.1-0.1,0.1-0.2c0.1-0.1,0.2-0.1,0.3-0.2c0.1-0.1,0.2-0.1,0.4-0.2c0.2,0,0.3-0.1,0.5-0.1c0.6,0,1.2,0.3,1.6,0.8
			c0.4,0.5,0.6,1.2,0.6,2c0,0.8-0.2,1.5-0.6,2c-0.4,0.5-1,0.7-1.6,0.7c-0.3,0-0.5-0.1-0.8-0.2c-0.2-0.1-0.4-0.2-0.5-0.3l-0.1-0.2h0
			v0.5H149.6z M155.8,525.3l1-2.5l-2.1-5h1.3l1.4,3.5h0l1.4-3.5h1.3l-3,7.4H155.8z"/>
		<path class="st7" d="M202.5,468.1v-6.9h2.9c0.6,0,1.1,0.2,1.5,0.5c0.4,0.4,0.6,0.8,0.6,1.3c0,0.6-0.2,1-0.7,1.3v0
			c0.3,0.1,0.5,0.3,0.7,0.6c0.2,0.3,0.3,0.6,0.3,1c0,0.7-0.2,1.2-0.6,1.6c-0.4,0.4-1.1,0.6-2,0.6H202.5z M203.8,466.9h1.6
			c0.6,0,0.9-0.3,0.9-0.9c0-0.3-0.1-0.5-0.3-0.7c-0.2-0.2-0.4-0.2-0.7-0.2h-1.6V466.9z M203.8,464h1.4c0.3,0,0.5-0.1,0.6-0.2
			c0.2-0.1,0.2-0.3,0.2-0.6c0-0.3-0.1-0.5-0.2-0.6c-0.2-0.1-0.4-0.2-0.6-0.2h-1.4V464z M211.4,468.1v-6.9h1.3v5.7h2.8v1.2H211.4z
			 M216.4,468.1v-5.2h1.3v5.2H216.4z M216.4,462.1v-1.2h1.3v1.2H216.4z M219,468.1v-5.2h1.2v0.5h0c0.1-0.2,0.3-0.3,0.6-0.5
			c0.2-0.1,0.5-0.2,0.8-0.2c0.6,0,1,0.2,1.4,0.5c0.3,0.3,0.5,0.8,0.5,1.4v3.4h-1.3V465c0-0.4-0.1-0.6-0.2-0.8
			c-0.1-0.2-0.4-0.3-0.7-0.3c-0.3,0-0.6,0.1-0.7,0.3c-0.2,0.2-0.3,0.4-0.3,0.7v3.2H219z M224.9,468.1v-7.2h1.3v4.1h0l1.9-2.2h1.6
			l-1.9,2.1l2.1,3.1h-1.4l-1.6-2.4h0l-0.7,0.7v1.6H224.9z"/>
		<path class="st7" d="M303.1,468.1v-6.9h2.9c0.6,0,1.1,0.2,1.5,0.5c0.4,0.4,0.6,0.8,0.6,1.3c0,0.6-0.2,1-0.7,1.3v0
			c0.3,0.1,0.5,0.3,0.7,0.6c0.2,0.3,0.3,0.6,0.3,1c0,0.7-0.2,1.2-0.6,1.6c-0.4,0.4-1.1,0.6-2,0.6H303.1z M304.4,466.9h1.6
			c0.6,0,0.9-0.3,0.9-0.9c0-0.3-0.1-0.5-0.3-0.7c-0.2-0.2-0.4-0.2-0.7-0.2h-1.6V466.9z M304.4,464h1.4c0.3,0,0.5-0.1,0.6-0.2
			c0.2-0.1,0.2-0.3,0.2-0.6c0-0.3-0.1-0.5-0.2-0.6c-0.2-0.1-0.4-0.2-0.6-0.2h-1.4V464z M310.6,466.7c0.2,0.3,0.5,0.4,0.9,0.4
			s0.7-0.1,0.9-0.4c0.2-0.3,0.3-0.7,0.3-1.2s-0.1-0.9-0.3-1.2c-0.2-0.3-0.5-0.4-0.9-0.4c-0.4,0-0.7,0.1-0.9,0.4
			c-0.2,0.3-0.3,0.7-0.3,1.2C310.3,466,310.4,466.4,310.6,466.7z M313.2,467.5c-0.5,0.5-1,0.7-1.8,0.7s-1.3-0.2-1.8-0.7
			c-0.5-0.5-0.7-1.2-0.7-2c0-0.9,0.2-1.5,0.7-2c0.5-0.5,1.1-0.7,1.7-0.7c0.7,0,1.3,0.2,1.7,0.7c0.5,0.5,0.7,1.2,0.7,2
			C313.9,466.4,313.7,467.1,313.2,467.5z M315.2,466.3V464h-0.8v-1.1h0.8v-1.3h1.2v1.3h1.3v1.1h-1.3v2.2c0,0.3,0,0.5,0.1,0.6
			s0.3,0.2,0.6,0.2h0.4v1.2h-0.5c-0.7,0-1.2-0.1-1.5-0.4C315.4,467.4,315.2,466.9,315.2,466.3z M318.9,466.3V464h-0.8v-1.1h0.8v-1.3
			h1.2v1.3h1.3v1.1h-1.3v2.2c0,0.3,0,0.5,0.1,0.6c0.1,0.1,0.3,0.2,0.6,0.2h0.4v1.2h-0.5c-0.7,0-1.2-0.1-1.4-0.4
			C319.1,467.4,318.9,466.9,318.9,466.3z M323.7,466.7c0.2,0.3,0.5,0.4,0.9,0.4c0.4,0,0.7-0.1,0.9-0.4c0.2-0.3,0.3-0.7,0.3-1.2
			s-0.1-0.9-0.3-1.2c-0.2-0.3-0.5-0.4-0.9-0.4c-0.4,0-0.7,0.1-0.9,0.4c-0.2,0.3-0.3,0.7-0.3,1.2C323.4,466,323.5,466.4,323.7,466.7z
			 M326.3,467.5c-0.5,0.5-1,0.7-1.8,0.7c-0.7,0-1.3-0.2-1.8-0.7c-0.5-0.5-0.7-1.2-0.7-2c0-0.9,0.2-1.5,0.7-2
			c0.5-0.5,1.1-0.7,1.7-0.7c0.7,0,1.3,0.2,1.7,0.7c0.5,0.5,0.7,1.2,0.7,2C327,466.4,326.8,467.1,326.3,467.5z M328.1,468.1v-5.2h1.2
			v0.5h0c0.1-0.2,0.3-0.3,0.5-0.5c0.2-0.1,0.5-0.2,0.7-0.2c0.3,0,0.5,0.1,0.8,0.2c0.2,0.1,0.4,0.3,0.6,0.5h0
			c0.1-0.2,0.3-0.4,0.6-0.5c0.2-0.1,0.5-0.2,0.8-0.2c0.6,0,1.1,0.2,1.5,0.5c0.4,0.3,0.6,0.8,0.6,1.3v3.6h-1.2v-3.3
			c0-0.3-0.1-0.5-0.2-0.6c-0.1-0.2-0.4-0.2-0.7-0.2c-0.3,0-0.5,0.1-0.7,0.2c-0.2,0.2-0.2,0.3-0.2,0.6v3.4h-1.2v-3.3
			c0-0.2-0.1-0.5-0.2-0.6c-0.2-0.2-0.4-0.3-0.7-0.3c-0.3,0-0.5,0.1-0.7,0.2c-0.2,0.2-0.2,0.3-0.2,0.6v3.4H328.1z M339.2,468.1v-6.9
			h1.4l2,4.5h0l2-4.5h1.4v6.9h-1.3v-4.2h0l-2,4.2h-0.2l-2-4.2h0v4.2H339.2z M347.4,468.1v-5.2h1.3v5.2H347.4z M347.4,462.1v-1.2h1.3
			v1.2H347.4z M353.3,466v-1c0-0.3-0.1-0.6-0.3-0.8c-0.2-0.2-0.5-0.3-0.8-0.3c-0.4,0-0.7,0.1-0.9,0.4c-0.2,0.3-0.3,0.7-0.3,1.2
			c0,0.5,0.1,0.9,0.3,1.2c0.2,0.3,0.5,0.4,0.9,0.4c0.3,0,0.6-0.1,0.8-0.3C353.2,466.6,353.3,466.3,353.3,466z M353.4,468.1v-0.5h0
			c0,0-0.1,0.1-0.1,0.2c-0.1,0.1-0.2,0.2-0.5,0.3c-0.2,0.1-0.5,0.2-0.8,0.2c-0.7,0-1.2-0.2-1.7-0.7c-0.4-0.5-0.6-1.2-0.6-2
			c0-0.8,0.2-1.5,0.7-2c0.4-0.5,1-0.8,1.6-0.8c0.3,0,0.5,0.1,0.7,0.2c0.2,0.1,0.4,0.2,0.5,0.3l0.1,0.2h0v-2.5h1.3v7.2H353.4z"/>
		<path class="st7" d="M483,480.1l-0.4-1.1H480l-0.4,1.1h-1.3l2.5-6.9h1.1l2.5,6.9H483z M481.3,475.2l-0.9,2.7h1.9L481.3,475.2
			L481.3,475.2z M487.3,477.8l1.4-0.3c0.1,0.5,0.2,0.9,0.4,1.2c0.2,0.2,0.5,0.4,1,0.4c0.4,0,0.7-0.1,0.9-0.2
			c0.2-0.1,0.3-0.3,0.3-0.6c0-0.3-0.1-0.5-0.3-0.6c-0.2-0.2-0.7-0.3-1.5-0.6c-0.7-0.2-1.2-0.5-1.5-0.8c-0.3-0.3-0.4-0.7-0.4-1.2
			c0-0.5,0.2-1,0.6-1.4c0.4-0.4,1-0.6,1.7-0.6c0.7,0,1.2,0.2,1.7,0.5c0.5,0.3,0.8,0.8,0.9,1.4l-1.3,0.3c-0.2-0.7-0.6-1-1.3-1
			c-0.3,0-0.6,0.1-0.8,0.2c-0.2,0.1-0.2,0.3-0.2,0.5c0,0.2,0.1,0.4,0.3,0.5c0.2,0.1,0.7,0.3,1.5,0.6c0.8,0.3,1.3,0.5,1.6,0.9
			c0.3,0.3,0.4,0.7,0.4,1.2c0,0.6-0.2,1.1-0.7,1.5s-1.1,0.6-1.8,0.6c-0.8,0-1.4-0.2-1.9-0.6C487.6,479.2,487.4,478.6,487.3,477.8z
			 M496.9,478.3l0.9,0.8c-0.5,0.8-1.3,1.2-2.2,1.2c-0.7,0-1.3-0.2-1.8-0.7c-0.5-0.5-0.7-1.2-0.7-2s0.2-1.5,0.7-2
			c0.5-0.5,1-0.8,1.7-0.8s1.3,0.3,1.7,0.8c0.5,0.5,0.7,1.2,0.7,2v0.4h-3.5c0,0.4,0.1,0.7,0.3,0.9c0.2,0.2,0.5,0.3,0.8,0.3
			c0.3,0,0.5-0.1,0.7-0.2C496.5,478.8,496.7,478.6,496.9,478.3z M494.5,476.9h2.3c0-0.3-0.1-0.6-0.3-0.8c-0.2-0.2-0.5-0.3-0.8-0.3
			c-0.3,0-0.6,0.1-0.8,0.3C494.6,476.4,494.5,476.6,494.5,476.9z M499.8,480.1l-1.2-5.2h1.3l0.7,3.5h0l1.2-3.5h1.2l1.1,3.5h0
			l0.8-3.5h1.2l-1.3,5.2h-1.3l-1.2-3.8h0l-1.3,3.8H499.8z M510.3,478.3l0.9,0.8c-0.5,0.8-1.3,1.2-2.2,1.2c-0.7,0-1.3-0.2-1.8-0.7
			c-0.5-0.5-0.7-1.2-0.7-2s0.2-1.5,0.7-2c0.5-0.5,1-0.8,1.7-0.8c0.7,0,1.3,0.3,1.7,0.8c0.5,0.5,0.7,1.2,0.7,2v0.4h-3.5
			c0,0.4,0.1,0.7,0.3,0.9c0.2,0.2,0.5,0.3,0.8,0.3c0.3,0,0.5-0.1,0.7-0.2C509.9,478.8,510.1,478.6,510.3,478.3z M507.9,476.9h2.3
			c0-0.3-0.1-0.6-0.3-0.8c-0.2-0.2-0.5-0.3-0.8-0.3c-0.3,0-0.6,0.1-0.8,0.3C508,476.4,507.9,476.6,507.9,476.9z M512.4,480.1v-5.2
			h1.2v0.6h0c0.1-0.2,0.2-0.4,0.4-0.5c0.2-0.1,0.4-0.2,0.6-0.2c0.2,0,0.3,0,0.5,0.1l-0.2,1.2c-0.1-0.1-0.3-0.1-0.4-0.1
			c-0.6,0-0.9,0.4-0.9,1.2v2.9H512.4z"/>
		<path class="st7" d="M602.4,489.1L602,488h-2.6l-0.4,1.1h-1.3l2.5-6.9h1.1l2.5,6.9H602.4z M600.7,484.2l-0.9,2.7h1.9L600.7,484.2
			L600.7,484.2z M607,489.1v-6.9h1.3v5.7h2.9v1.2H607z M613.3,487.7c0.2,0.3,0.5,0.4,0.9,0.4c0.4,0,0.7-0.1,0.9-0.4
			c0.2-0.3,0.3-0.7,0.3-1.2s-0.1-0.9-0.3-1.2c-0.2-0.3-0.5-0.4-0.9-0.4c-0.4,0-0.7,0.1-0.9,0.4c-0.2,0.3-0.3,0.7-0.3,1.2
			C613,487,613.1,487.4,613.3,487.7z M615.9,488.5c-0.5,0.5-1,0.7-1.8,0.7c-0.7,0-1.3-0.2-1.8-0.7c-0.5-0.5-0.7-1.2-0.7-2
			c0-0.9,0.2-1.5,0.7-2c0.5-0.5,1.1-0.7,1.7-0.7c0.7,0,1.3,0.2,1.7,0.7s0.7,1.2,0.7,2C616.6,487.4,616.4,488.1,615.9,488.5z
			 M618.9,486v1c0,0.3,0.1,0.6,0.3,0.8c0.2,0.2,0.5,0.3,0.8,0.3c0.4,0,0.7-0.1,0.9-0.4c0.2-0.3,0.3-0.7,0.3-1.2
			c0-0.5-0.1-0.9-0.3-1.2c-0.2-0.3-0.5-0.4-0.9-0.4c-0.3,0-0.6,0.1-0.8,0.3C619,485.4,618.9,485.7,618.9,486z M617.6,489.1v-7.2h1.3
			v2.5h0c0,0,0,0,0-0.1c0,0,0.1-0.1,0.1-0.2c0.1-0.1,0.2-0.1,0.3-0.2c0.1-0.1,0.2-0.1,0.4-0.2c0.2,0,0.3-0.1,0.5-0.1
			c0.6,0,1.2,0.3,1.6,0.8c0.4,0.5,0.6,1.2,0.6,2c0,0.8-0.2,1.5-0.6,2c-0.4,0.5-1,0.7-1.6,0.7c-0.3,0-0.5-0.1-0.8-0.2
			c-0.2-0.1-0.4-0.2-0.5-0.3l-0.1-0.2h0v0.5H617.6z M624.8,486v1c0,0.3,0.1,0.6,0.3,0.8c0.2,0.2,0.5,0.3,0.8,0.3
			c0.4,0,0.7-0.1,0.9-0.4c0.2-0.3,0.3-0.7,0.3-1.2c0-0.5-0.1-0.9-0.3-1.2c-0.2-0.3-0.5-0.4-0.9-0.4c-0.3,0-0.6,0.1-0.8,0.3
			C624.9,485.4,624.8,485.7,624.8,486z M623.5,489.1v-7.2h1.3v2.5h0c0,0,0,0,0-0.1c0,0,0.1-0.1,0.1-0.2c0.1-0.1,0.2-0.1,0.3-0.2
			c0.1-0.1,0.2-0.1,0.4-0.2c0.2,0,0.3-0.1,0.5-0.1c0.6,0,1.2,0.3,1.6,0.8c0.4,0.5,0.6,1.2,0.6,2c0,0.8-0.2,1.5-0.6,2
			c-0.4,0.5-1,0.7-1.6,0.7c-0.3,0-0.5-0.1-0.8-0.2c-0.2-0.1-0.4-0.2-0.5-0.3l-0.1-0.2h0v0.5H623.5z M629.7,491.3l1-2.5l-2.1-5h1.3
			l1.4,3.5h0l1.3-3.5h1.3l-3,7.4H629.7z"/>
		<path class="st7" d="M553.2,366.1l-0.4-1.1h-2.6l-0.4,1.1h-1.3l2.5-6.9h1.1l2.5,6.9H553.2z M551.4,361.2l-0.9,2.7h1.9L551.4,361.2
			L551.4,361.2z M557.8,366.1v-6.9h1.4l2,4.5h0l2-4.5h1.4v6.9h-1.3v-4.2h0l-2,4.2h-0.2l-2-4.2h0v4.2H557.8z M569.1,366.1v-0.5h0
			c0,0,0,0,0,0.1c0,0-0.1,0.1-0.1,0.1s-0.2,0.1-0.3,0.2c-0.1,0.1-0.2,0.1-0.4,0.2c-0.2,0-0.4,0.1-0.6,0.1c-0.6,0-1.1-0.1-1.4-0.4
			c-0.3-0.3-0.5-0.7-0.5-1.1c0-0.5,0.1-0.8,0.4-1c0.3-0.2,0.7-0.4,1.4-0.6c0.6-0.1,1-0.3,1.1-0.3c0.2-0.1,0.2-0.2,0.2-0.4
			s-0.1-0.3-0.2-0.4c-0.1-0.1-0.4-0.2-0.7-0.2c-0.3,0-0.6,0.1-0.7,0.2c-0.2,0.2-0.3,0.4-0.4,0.6l-1.1-0.4c0.1-0.4,0.4-0.8,0.7-1.1
			c0.4-0.3,0.8-0.4,1.4-0.4c0.6,0,1.2,0.2,1.6,0.5c0.4,0.3,0.6,0.9,0.6,1.6v3.3H569.1z M567.8,364c-0.3,0.1-0.5,0.2-0.7,0.3
			c-0.1,0.1-0.1,0.2-0.1,0.4c0,0.4,0.3,0.5,0.8,0.5c0.4,0,0.7-0.1,0.9-0.2c0.2-0.2,0.3-0.3,0.3-0.6v-0.9h0c0,0.1-0.1,0.1-0.1,0.1
			c0,0-0.1,0.1-0.3,0.1C568.3,363.8,568.1,363.9,567.8,364z M571.4,366.1v-5.2h1.3v5.2H571.4z M571.4,360.1v-1.2h1.3v1.2H571.4z
			 M574.1,366.1v-5.2h1.2v0.5h0c0.1-0.2,0.3-0.3,0.6-0.5s0.5-0.2,0.8-0.2c0.6,0,1,0.2,1.4,0.5c0.3,0.3,0.5,0.8,0.5,1.4v3.4h-1.3V363
			c0-0.4-0.1-0.6-0.2-0.8c-0.1-0.2-0.4-0.3-0.7-0.3c-0.3,0-0.6,0.1-0.7,0.3c-0.2,0.2-0.3,0.4-0.3,0.7v3.2H574.1z"/>
		<path class="st7" d="M466.2,363.1l-0.4-1.1h-2.6l-0.4,1.1h-1.3l2.5-6.9h1.1l2.5,6.9H466.2z M464.4,358.2l-0.9,2.7h1.9L464.4,358.2
			L464.4,358.2z M470.8,363.1v-6.9h2.8c0.7,0,1.3,0.2,1.7,0.6c0.4,0.4,0.7,0.9,0.7,1.6c0,0.5-0.1,0.9-0.4,1.3
			c-0.3,0.3-0.6,0.6-1.1,0.7l1.5,2.7h-1.4l-1.4-2.6h-1v2.6H470.8z M472.2,359.4h1.4c0.8,0,1.1-0.3,1.1-1c0-0.7-0.4-1-1.1-1h-1.4
			V359.4z M480,363.1v-0.5h0c0,0,0,0,0,0.1c0,0-0.1,0.1-0.1,0.1c-0.1,0.1-0.2,0.1-0.3,0.2c-0.1,0.1-0.2,0.1-0.4,0.2
			c-0.2,0-0.4,0.1-0.6,0.1c-0.6,0-1.1-0.1-1.4-0.4c-0.3-0.3-0.5-0.7-0.5-1.1c0-0.5,0.1-0.8,0.4-1c0.3-0.2,0.7-0.4,1.4-0.6
			c0.6-0.1,1-0.3,1.1-0.3c0.2-0.1,0.2-0.2,0.2-0.4s-0.1-0.3-0.2-0.4c-0.1-0.1-0.4-0.2-0.7-0.2c-0.3,0-0.6,0.1-0.7,0.2
			c-0.2,0.2-0.3,0.4-0.4,0.6l-1.1-0.4c0.1-0.4,0.4-0.8,0.7-1.1c0.4-0.3,0.8-0.4,1.4-0.4c0.6,0,1.2,0.2,1.6,0.5
			c0.4,0.3,0.6,0.9,0.6,1.6v3.3H480z M478.7,361c-0.3,0.1-0.5,0.2-0.7,0.3c-0.1,0.1-0.1,0.2-0.1,0.4c0,0.4,0.3,0.5,0.8,0.5
			c0.4,0,0.7-0.1,0.9-0.2c0.2-0.2,0.3-0.3,0.3-0.6v-0.9h0c0,0.1-0.1,0.1-0.1,0.1c0,0-0.1,0.1-0.3,0.1
			C479.2,360.8,479,360.9,478.7,361z M482.3,363.1v-5.2h1.2v0.5h0c0.1-0.2,0.3-0.3,0.5-0.5c0.2-0.1,0.5-0.2,0.8-0.2
			c0.3,0,0.5,0.1,0.8,0.2c0.2,0.1,0.4,0.3,0.6,0.5h0c0.1-0.2,0.3-0.4,0.6-0.5c0.2-0.1,0.5-0.2,0.8-0.2c0.6,0,1.1,0.2,1.5,0.5
			c0.4,0.3,0.6,0.8,0.6,1.3v3.6h-1.2v-3.3c0-0.3-0.1-0.5-0.2-0.6c-0.1-0.2-0.4-0.2-0.7-0.2c-0.3,0-0.5,0.1-0.7,0.2
			c-0.2,0.2-0.2,0.3-0.2,0.6v3.4h-1.2v-3.3c0-0.2-0.1-0.5-0.2-0.6c-0.2-0.2-0.4-0.3-0.7-0.3c-0.3,0-0.5,0.1-0.7,0.2
			s-0.2,0.3-0.2,0.6v3.4H482.3z M492.2,360v1.1c0,0.3,0.1,0.6,0.3,0.8c0.2,0.2,0.5,0.3,0.8,0.3c0.4,0,0.7-0.1,0.9-0.4
			c0.2-0.3,0.4-0.7,0.4-1.2c0-0.5-0.1-0.9-0.4-1.2c-0.2-0.3-0.5-0.4-0.9-0.4c-0.3,0-0.6,0.1-0.8,0.3
			C492.3,359.4,492.2,359.7,492.2,360z M490.9,365.3v-7.4h1.2v0.5h0c0,0,0,0,0-0.1c0,0,0.1-0.1,0.1-0.2c0.1-0.1,0.2-0.1,0.3-0.2
			c0.1-0.1,0.2-0.1,0.4-0.2c0.2,0,0.4-0.1,0.5-0.1c0.6,0,1.2,0.2,1.6,0.8c0.5,0.5,0.7,1.2,0.7,2c0,0.9-0.2,1.5-0.7,2
			c-0.4,0.5-1,0.7-1.6,0.7c-0.2,0-0.4,0-0.5-0.1c-0.2,0-0.3-0.1-0.4-0.2c-0.1-0.1-0.2-0.1-0.3-0.2c-0.1-0.1-0.1-0.1-0.2-0.2l0-0.1h0
			v2.7H490.9z"/>
		<path class="st7" d="M517.7,271.1l-0.4-1.1h-2.6l-0.4,1.1h-1.3l2.5-6.9h1.1l2.5,6.9H517.7z M515.9,266.2l-0.9,2.7h1.9L515.9,266.2
			L515.9,266.2z M522.3,271.1v-6.9h2.8c0.7,0,1.3,0.2,1.7,0.6c0.4,0.4,0.7,0.9,0.7,1.6c0,0.5-0.1,0.9-0.4,1.3
			c-0.3,0.3-0.6,0.6-1.1,0.7l1.5,2.7h-1.4l-1.4-2.6h-1v2.6H522.3z M523.7,267.4h1.4c0.8,0,1.1-0.3,1.1-1c0-0.7-0.4-1-1.1-1h-1.4
			V267.4z M531.5,271.1v-0.5h0c0,0,0,0,0,0.1c0,0-0.1,0.1-0.1,0.1s-0.2,0.1-0.3,0.2c-0.1,0.1-0.2,0.1-0.4,0.2
			c-0.2,0-0.4,0.1-0.6,0.1c-0.6,0-1.1-0.1-1.4-0.4c-0.3-0.3-0.5-0.7-0.5-1.1c0-0.5,0.1-0.8,0.4-1c0.3-0.2,0.7-0.4,1.4-0.6
			c0.6-0.1,1-0.3,1.1-0.3c0.2-0.1,0.2-0.2,0.2-0.4s-0.1-0.3-0.2-0.4c-0.1-0.1-0.4-0.2-0.7-0.2c-0.3,0-0.6,0.1-0.7,0.2
			c-0.2,0.2-0.3,0.4-0.4,0.6l-1.1-0.4c0.1-0.4,0.4-0.8,0.7-1.1c0.4-0.3,0.8-0.4,1.4-0.4c0.6,0,1.2,0.2,1.6,0.5
			c0.4,0.3,0.6,0.9,0.6,1.6v3.3H531.5z M530.2,269c-0.3,0.1-0.5,0.2-0.7,0.3c-0.1,0.1-0.1,0.2-0.1,0.4c0,0.4,0.3,0.5,0.8,0.5
			c0.4,0,0.7-0.1,0.9-0.2c0.2-0.2,0.3-0.3,0.3-0.6v-0.9h0c0,0.1-0.1,0.1-0.1,0.1c0,0-0.1,0.1-0.3,0.1
			C530.7,268.8,530.5,268.9,530.2,269z M534.1,271.1V267h-0.8v-1.1h0.8v-0.7c0-0.4,0.1-0.8,0.3-0.9c0.2-0.2,0.6-0.3,1-0.3h1v1.1
			h-0.8c-0.2,0-0.3,0-0.3,0.1c-0.1,0.1-0.1,0.2-0.1,0.3v0.4h1.3v1.1h-1.3v4.1H534.1z M537.6,269.3V267h-0.8v-1.1h0.8v-1.3h1.2v1.3
			h1.3v1.1h-1.3v2.2c0,0.3,0,0.5,0.1,0.6c0.1,0.1,0.3,0.2,0.6,0.2h0.4v1.2h-0.5c-0.7,0-1.2-0.1-1.4-0.4
			C537.8,270.4,537.6,269.9,537.6,269.3z M544.6,269.3l0.9,0.8c-0.5,0.8-1.3,1.2-2.2,1.2c-0.7,0-1.3-0.2-1.8-0.7
			c-0.5-0.5-0.7-1.2-0.7-2s0.2-1.5,0.7-2c0.5-0.5,1-0.8,1.7-0.8c0.7,0,1.3,0.3,1.7,0.8c0.5,0.5,0.7,1.2,0.7,2v0.4h-3.5
			c0,0.4,0.1,0.7,0.3,0.9c0.2,0.2,0.5,0.3,0.8,0.3c0.3,0,0.5-0.1,0.7-0.2C544.2,269.8,544.4,269.6,544.6,269.3z M542.1,267.9h2.3
			c0-0.3-0.1-0.6-0.3-0.8c-0.2-0.2-0.5-0.3-0.8-0.3c-0.3,0-0.6,0.1-0.8,0.3C542.3,267.4,542.2,267.6,542.1,267.9z M546.7,271.1v-5.2
			h1.2v0.6h0c0.1-0.2,0.2-0.4,0.4-0.5c0.2-0.1,0.4-0.2,0.6-0.2c0.2,0,0.3,0,0.5,0.1l-0.2,1.2c-0.1-0.1-0.3-0.1-0.4-0.1
			c-0.6,0-0.9,0.4-0.9,1.2v2.9H546.7z M549.9,269.4l1.2-0.3c0.1,0.7,0.5,1.1,1.2,1.1c0.3,0,0.6,0,0.7-0.1c0.2-0.1,0.3-0.2,0.3-0.4
			c0-0.2-0.1-0.3-0.2-0.3c-0.1-0.1-0.4-0.2-0.9-0.3c-0.1,0-0.2-0.1-0.3-0.1c-0.6-0.2-1-0.4-1.3-0.6c-0.3-0.2-0.4-0.5-0.4-0.9
			c0-0.4,0.2-0.8,0.5-1.1c0.4-0.3,0.8-0.5,1.4-0.5c1.2,0,1.9,0.5,2.2,1.5l-1.1,0.3c-0.1-0.2-0.2-0.4-0.4-0.6
			c-0.2-0.1-0.4-0.2-0.7-0.2c-0.2,0-0.4,0-0.6,0.1c-0.1,0.1-0.2,0.2-0.2,0.3c0,0.1,0.1,0.3,0.3,0.3c0.2,0.1,0.6,0.2,1.3,0.4
			c0.6,0.2,1,0.4,1.2,0.6c0.2,0.2,0.3,0.6,0.3,1c0,0.4-0.2,0.8-0.6,1.1c-0.4,0.3-0.9,0.5-1.6,0.5c-0.7,0-1.3-0.2-1.7-0.5
			C550.2,270.4,550,269.9,549.9,269.4z"/>
		<path class="st7" d="M457.4,193.1L457,192h-2.6l-0.4,1.1h-1.3l2.5-6.9h1.1l2.5,6.9H457.4z M455.7,188.2l-0.9,2.7h1.9L455.7,188.2
			L455.7,188.2z M462,193.1v-6.9h1.3v2.8h2.4v-2.8h1.3v6.9h-1.3v-3h-2.4v3H462z M471.9,191.3l0.9,0.8c-0.5,0.8-1.3,1.2-2.2,1.2
			c-0.7,0-1.3-0.2-1.8-0.7c-0.5-0.5-0.7-1.2-0.7-2s0.2-1.5,0.7-2c0.5-0.5,1-0.8,1.7-0.8s1.3,0.3,1.7,0.8c0.5,0.5,0.7,1.2,0.7,2v0.4
			h-3.5c0,0.4,0.1,0.7,0.3,0.9c0.2,0.2,0.5,0.3,0.8,0.3c0.3,0,0.5-0.1,0.7-0.2C471.6,191.8,471.8,191.6,471.9,191.3z M469.5,189.9
			h2.3c0-0.3-0.1-0.6-0.3-0.8c-0.2-0.2-0.5-0.3-0.8-0.3c-0.3,0-0.6,0.1-0.8,0.3C469.6,189.4,469.5,189.6,469.5,189.9z M477,193.1
			v-0.5h0c0,0,0,0,0,0.1c0,0-0.1,0.1-0.1,0.1c-0.1,0.1-0.2,0.1-0.3,0.2c-0.1,0.1-0.2,0.1-0.4,0.2c-0.2,0-0.4,0.1-0.6,0.1
			c-0.6,0-1.1-0.1-1.4-0.4c-0.3-0.3-0.5-0.7-0.5-1.1c0-0.5,0.1-0.8,0.4-1c0.3-0.2,0.7-0.4,1.4-0.6c0.6-0.1,1-0.3,1.1-0.3
			c0.2-0.1,0.2-0.2,0.2-0.4c0-0.2-0.1-0.3-0.2-0.4c-0.1-0.1-0.4-0.2-0.7-0.2c-0.3,0-0.6,0.1-0.7,0.2c-0.2,0.2-0.3,0.4-0.4,0.6
			l-1.1-0.4c0.1-0.4,0.4-0.8,0.7-1.1c0.4-0.3,0.8-0.4,1.4-0.4c0.6,0,1.2,0.2,1.6,0.5c0.4,0.3,0.6,0.9,0.6,1.6v3.3H477z M475.7,191
			c-0.3,0.1-0.5,0.2-0.6,0.3c-0.1,0.1-0.1,0.2-0.1,0.4c0,0.4,0.3,0.5,0.8,0.5c0.4,0,0.7-0.1,0.9-0.2c0.2-0.2,0.3-0.3,0.3-0.6v-0.9h0
			c0,0.1-0.1,0.1-0.1,0.1c0,0-0.1,0.1-0.3,0.1C476.3,190.8,476.1,190.9,475.7,191z M480.6,193.1l-2.1-5.2h1.3l1.3,3.4h0l1.3-3.4h1.3
			l-2.1,5.2H480.6z M487.7,191.3l0.9,0.8c-0.5,0.8-1.3,1.2-2.2,1.2c-0.7,0-1.3-0.2-1.8-0.7c-0.5-0.5-0.7-1.2-0.7-2s0.2-1.5,0.7-2
			c0.5-0.5,1-0.8,1.7-0.8c0.7,0,1.3,0.3,1.7,0.8c0.5,0.5,0.7,1.2,0.7,2v0.4h-3.5c0,0.4,0.1,0.7,0.3,0.9c0.2,0.2,0.5,0.3,0.8,0.3
			c0.3,0,0.5-0.1,0.7-0.2C487.4,191.8,487.6,191.6,487.7,191.3z M485.3,189.9h2.3c0-0.3-0.1-0.6-0.3-0.8c-0.2-0.2-0.5-0.3-0.8-0.3
			c-0.3,0-0.6,0.1-0.8,0.3C485.4,189.4,485.3,189.6,485.3,189.9z M489.9,193.1v-5.2h1.2v0.5h0c0.1-0.2,0.3-0.3,0.6-0.5
			s0.5-0.2,0.8-0.2c0.6,0,1,0.2,1.4,0.5c0.3,0.3,0.5,0.8,0.5,1.4v3.4h-1.3V190c0-0.4-0.1-0.6-0.2-0.8c-0.1-0.2-0.4-0.3-0.7-0.3
			c-0.3,0-0.6,0.1-0.7,0.3c-0.2,0.2-0.3,0.4-0.3,0.7v3.2H489.9z"/>
		<path class="st7" d="M606.6,157.1v-6.9h4.4v1.2h-3v1.5h2.8v1.2h-2.8v1.7h3v1.2H606.6z M612.2,157.1v-7.2h1.3v7.2H612.2z
			 M616.2,154v1c0,0.3,0.1,0.6,0.3,0.8c0.2,0.2,0.5,0.3,0.8,0.3c0.4,0,0.7-0.1,0.9-0.4c0.2-0.3,0.3-0.7,0.3-1.2
			c0-0.5-0.1-0.9-0.3-1.2c-0.2-0.3-0.5-0.4-0.9-0.4c-0.3,0-0.6,0.1-0.8,0.3C616.3,153.4,616.2,153.7,616.2,154z M614.9,157.1v-7.2
			h1.3v2.5h0c0,0,0,0,0-0.1c0,0,0.1-0.1,0.1-0.2c0.1-0.1,0.2-0.1,0.3-0.2c0.1-0.1,0.2-0.1,0.4-0.2c0.2,0,0.3-0.1,0.5-0.1
			c0.6,0,1.2,0.3,1.6,0.8c0.4,0.5,0.6,1.2,0.6,2c0,0.8-0.2,1.5-0.6,2c-0.4,0.5-1,0.7-1.6,0.7c-0.3,0-0.5-0.1-0.8-0.2
			c-0.2-0.1-0.4-0.2-0.5-0.3l-0.1-0.2h0v0.5H614.9z M622.1,155.7c0.2,0.3,0.5,0.4,0.9,0.4c0.4,0,0.7-0.1,0.9-0.4
			c0.2-0.3,0.3-0.7,0.3-1.2s-0.1-0.9-0.3-1.2c-0.2-0.3-0.5-0.4-0.9-0.4c-0.4,0-0.7,0.1-0.9,0.4c-0.2,0.3-0.3,0.7-0.3,1.2
			S621.9,155.4,622.1,155.7z M624.7,156.5c-0.5,0.5-1,0.7-1.8,0.7c-0.7,0-1.3-0.2-1.8-0.7c-0.5-0.5-0.7-1.2-0.7-2
			c0-0.9,0.2-1.5,0.7-2c0.5-0.5,1.1-0.7,1.7-0.7c0.7,0,1.3,0.2,1.7,0.7c0.5,0.5,0.7,1.2,0.7,2C625.4,155.4,625.2,156.1,624.7,156.5z
			 M627.2,157.1l-1.2-5.2h1.3l0.7,3.5h0l1.2-3.5h1.2l1.1,3.5h0l0.8-3.5h1.2l-1.3,5.2h-1.3l-1.2-3.8h0l-1.3,3.8H627.2z"/>
		<path class="st7" d="M555.7,108.8l1.4-0.3c0.1,0.5,0.2,0.9,0.4,1.2c0.2,0.2,0.5,0.4,1,0.4c0.4,0,0.7-0.1,0.9-0.2
			c0.2-0.1,0.3-0.3,0.3-0.6c0-0.3-0.1-0.5-0.3-0.6c-0.2-0.2-0.7-0.3-1.5-0.6c-0.7-0.2-1.2-0.5-1.5-0.8c-0.3-0.3-0.4-0.7-0.4-1.2
			c0-0.5,0.2-1,0.6-1.4c0.4-0.4,1-0.6,1.7-0.6c0.7,0,1.2,0.2,1.7,0.5c0.5,0.3,0.8,0.8,0.9,1.4l-1.3,0.3c-0.2-0.7-0.6-1-1.3-1
			c-0.3,0-0.6,0.1-0.8,0.2c-0.2,0.1-0.2,0.3-0.2,0.5c0,0.2,0.1,0.4,0.3,0.5c0.2,0.1,0.7,0.3,1.5,0.6c0.8,0.3,1.3,0.5,1.6,0.9
			c0.3,0.3,0.4,0.7,0.4,1.2c0,0.6-0.2,1.1-0.7,1.5c-0.5,0.4-1.1,0.6-1.8,0.6c-0.8,0-1.4-0.2-1.9-0.6
			C556.1,110.2,555.8,109.6,555.7,108.8z M565.1,109l1.2,0.3c-0.1,0.6-0.4,1.1-0.8,1.4c-0.4,0.3-0.9,0.5-1.5,0.5
			c-0.7,0-1.3-0.2-1.8-0.7c-0.5-0.5-0.7-1.2-0.7-2c0-0.9,0.2-1.5,0.7-2c0.5-0.5,1.1-0.7,1.7-0.7c0.6,0,1.1,0.2,1.5,0.5
			c0.4,0.3,0.6,0.8,0.7,1.4l-1.2,0.2c-0.1-0.6-0.5-1-1-1c-0.4,0-0.7,0.1-0.9,0.4c-0.2,0.3-0.3,0.7-0.3,1.2s0.1,0.9,0.3,1.2
			c0.2,0.3,0.5,0.4,0.9,0.4C564.7,110.1,565,109.7,565.1,109z M567.3,111.1v-5.2h1.2v0.6h0c0.1-0.2,0.2-0.4,0.4-0.5
			c0.2-0.1,0.4-0.2,0.6-0.2c0.2,0,0.3,0,0.5,0.1l-0.2,1.2c-0.1-0.1-0.3-0.1-0.4-0.1c-0.6,0-0.9,0.4-0.9,1.2v2.9H567.3z M574.3,109.3
			l0.9,0.8c-0.5,0.8-1.3,1.2-2.2,1.2c-0.7,0-1.3-0.2-1.8-0.7c-0.5-0.5-0.7-1.2-0.7-2s0.2-1.5,0.7-2c0.5-0.5,1-0.8,1.7-0.8
			s1.3,0.3,1.7,0.8c0.5,0.5,0.7,1.2,0.7,2v0.4h-3.5c0,0.4,0.1,0.7,0.3,0.9c0.2,0.2,0.5,0.3,0.8,0.3c0.3,0,0.5-0.1,0.7-0.2
			C574,109.8,574.2,109.6,574.3,109.3z M571.9,107.9h2.3c0-0.3-0.1-0.6-0.3-0.8c-0.2-0.2-0.5-0.3-0.8-0.3c-0.3,0-0.6,0.1-0.8,0.3
			C572,107.4,571.9,107.6,571.9,107.9z M579.8,109.3l0.9,0.8c-0.5,0.8-1.3,1.2-2.2,1.2c-0.7,0-1.3-0.2-1.8-0.7
			c-0.5-0.5-0.7-1.2-0.7-2s0.2-1.5,0.7-2c0.5-0.5,1-0.8,1.7-0.8s1.3,0.3,1.7,0.8c0.5,0.5,0.7,1.2,0.7,2v0.4h-3.5
			c0,0.4,0.1,0.7,0.3,0.9c0.2,0.2,0.5,0.3,0.8,0.3c0.3,0,0.5-0.1,0.7-0.2C579.5,109.8,579.7,109.6,579.8,109.3z M577.4,107.9h2.3
			c0-0.3-0.1-0.6-0.3-0.8c-0.2-0.2-0.5-0.3-0.8-0.3c-0.3,0-0.6,0.1-0.8,0.3C577.5,107.4,577.4,107.6,577.4,107.9z M581.9,111.1v-5.2
			h1.2v0.5h0c0.1-0.2,0.3-0.3,0.6-0.5s0.5-0.2,0.8-0.2c0.6,0,1,0.2,1.4,0.5c0.3,0.3,0.5,0.8,0.5,1.4v3.4h-1.3V108
			c0-0.4-0.1-0.6-0.2-0.8c-0.1-0.2-0.4-0.3-0.7-0.3c-0.3,0-0.6,0.1-0.7,0.3c-0.2,0.2-0.3,0.4-0.3,0.7v3.2H581.9z M587.4,109.4
			l1.2-0.3c0.1,0.7,0.5,1.1,1.2,1.1c0.3,0,0.6,0,0.7-0.1c0.2-0.1,0.3-0.2,0.3-0.4c0-0.2-0.1-0.3-0.2-0.3c-0.1-0.1-0.4-0.2-0.9-0.3
			c-0.1,0-0.2-0.1-0.3-0.1c-0.6-0.2-1-0.4-1.3-0.6c-0.3-0.2-0.4-0.5-0.4-0.9c0-0.4,0.2-0.8,0.5-1.1c0.4-0.3,0.8-0.5,1.4-0.5
			c1.2,0,1.9,0.5,2.2,1.5l-1.1,0.3c-0.1-0.2-0.2-0.4-0.4-0.6c-0.2-0.1-0.4-0.2-0.7-0.2c-0.2,0-0.4,0.1-0.6,0.1
			c-0.1,0.1-0.2,0.2-0.2,0.3c0,0.1,0.1,0.3,0.3,0.3c0.2,0.1,0.6,0.2,1.3,0.4c0.6,0.2,1,0.4,1.2,0.6c0.2,0.2,0.3,0.6,0.3,1
			c0,0.4-0.2,0.8-0.6,1.1c-0.4,0.3-0.9,0.5-1.6,0.5c-0.7,0-1.3-0.2-1.7-0.5C587.7,110.4,587.4,109.9,587.4,109.4z"/>
		<path class="st7" d="M372.4,307.1v-6.9h1.4l2,4.5h0l2-4.5h1.4v6.9h-1.3v-4.2h0l-2,4.2h-0.2l-2-4.2h0v4.2H372.4z M380.7,307.1v-5.2
			h1.3v5.2H380.7z M380.7,301.1v-1.2h1.3v1.2H380.7z M386.6,305v-1c0-0.3-0.1-0.6-0.3-0.8c-0.2-0.2-0.5-0.3-0.8-0.3
			c-0.4,0-0.7,0.1-0.9,0.4c-0.2,0.3-0.3,0.7-0.3,1.2c0,0.5,0.1,0.9,0.3,1.2c0.2,0.3,0.5,0.4,0.9,0.4c0.3,0,0.6-0.1,0.8-0.3
			C386.5,305.6,386.6,305.3,386.6,305z M386.6,307.1v-0.5h0c0,0-0.1,0.1-0.1,0.2c-0.1,0.1-0.2,0.2-0.5,0.3c-0.2,0.1-0.5,0.2-0.8,0.2
			c-0.7,0-1.2-0.2-1.7-0.7c-0.4-0.5-0.6-1.2-0.6-2c0-0.8,0.2-1.5,0.7-2c0.4-0.5,1-0.8,1.6-0.8c0.3,0,0.5,0.1,0.7,0.2
			c0.2,0.1,0.4,0.2,0.5,0.3l0.1,0.2h0v-2.5h1.3v7.2H386.6z M393.5,307.1l-2.5-6.9h1.4l1.7,4.9h0l1.7-4.9h1.4l-2.5,6.9H393.5z
			 M400.9,305.3l0.9,0.8c-0.5,0.8-1.3,1.2-2.2,1.2c-0.7,0-1.3-0.2-1.8-0.7c-0.5-0.5-0.7-1.2-0.7-2s0.2-1.5,0.7-2
			c0.5-0.5,1-0.8,1.7-0.8c0.7,0,1.3,0.3,1.7,0.8c0.5,0.5,0.7,1.2,0.7,2v0.4h-3.5c0,0.4,0.1,0.7,0.3,0.9c0.2,0.2,0.5,0.3,0.8,0.3
			c0.3,0,0.5-0.1,0.7-0.2C400.5,305.8,400.7,305.6,400.9,305.3z M398.5,303.9h2.3c0-0.3-0.1-0.6-0.3-0.8c-0.2-0.2-0.5-0.3-0.8-0.3
			c-0.3,0-0.6,0.1-0.8,0.3C398.6,303.4,398.5,303.6,398.5,303.9z M403,307.1v-5.2h1.2v0.5h0c0.1-0.2,0.3-0.3,0.6-0.5
			s0.5-0.2,0.8-0.2c0.6,0,1,0.2,1.4,0.5c0.3,0.3,0.5,0.8,0.5,1.4v3.4h-1.3V304c0-0.4-0.1-0.6-0.2-0.8c-0.1-0.2-0.4-0.3-0.7-0.3
			c-0.3,0-0.6,0.1-0.7,0.3c-0.2,0.2-0.3,0.4-0.3,0.7v3.2H403z M409.1,305.3V303h-0.8v-1.1h0.8v-1.3h1.2v1.3h1.3v1.1h-1.3v2.2
			c0,0.3,0,0.5,0.1,0.6c0.1,0.1,0.3,0.2,0.6,0.2h0.4v1.2h-0.5c-0.7,0-1.2-0.1-1.4-0.4C409.2,306.4,409.1,305.9,409.1,305.3z"/>
		<path class="st7" d="M319,350.1v-5.7h-2v-1.2h5.4v1.2h-2v5.7H319z M323.6,348.7c0.2,0.3,0.5,0.4,0.9,0.4c0.4,0,0.7-0.1,0.9-0.4
			c0.2-0.3,0.3-0.7,0.3-1.2s-0.1-0.9-0.3-1.2c-0.2-0.3-0.5-0.4-0.9-0.4c-0.4,0-0.7,0.1-0.9,0.4c-0.2,0.3-0.3,0.7-0.3,1.2
			C323.3,348,323.4,348.4,323.6,348.7z M326.2,349.5c-0.5,0.5-1,0.7-1.8,0.7c-0.7,0-1.3-0.2-1.8-0.7c-0.5-0.5-0.7-1.2-0.7-2
			c0-0.9,0.2-1.5,0.7-2c0.5-0.5,1.1-0.7,1.7-0.7c0.7,0,1.3,0.2,1.7,0.7c0.5,0.5,0.7,1.2,0.7,2C326.9,348.4,326.7,349.1,326.2,349.5z
			 M329.2,347v1.1c0,0.3,0.1,0.6,0.3,0.8c0.2,0.2,0.5,0.3,0.8,0.3c0.4,0,0.7-0.1,0.9-0.4c0.2-0.3,0.4-0.7,0.4-1.2
			c0-0.5-0.1-0.9-0.4-1.2c-0.2-0.3-0.5-0.4-0.9-0.4c-0.3,0-0.6,0.1-0.8,0.3C329.3,346.4,329.2,346.7,329.2,347z M328,352.3v-7.4h1.2
			v0.5h0c0,0,0,0,0-0.1c0,0,0.1-0.1,0.1-0.2c0.1-0.1,0.2-0.1,0.3-0.2c0.1-0.1,0.2-0.1,0.4-0.2c0.2,0,0.4-0.1,0.5-0.1
			c0.6,0,1.2,0.2,1.6,0.8c0.5,0.5,0.7,1.2,0.7,2c0,0.9-0.2,1.5-0.7,2c-0.4,0.5-1,0.7-1.6,0.7c-0.2,0-0.4,0-0.5-0.1
			c-0.2,0-0.3-0.1-0.4-0.2c-0.1-0.1-0.2-0.1-0.3-0.2c-0.1-0.1-0.1-0.1-0.2-0.2l0-0.1h0v2.7H328z M336.5,350.1v-6.9h1.4l2,4.5h0
			l2-4.5h1.4v6.9H342v-4.2h0l-2,4.2h-0.2l-2-4.2h0v4.2H336.5z M344.8,350.1v-5.2h1.3v5.2H344.8z M344.8,344.1v-1.2h1.3v1.2H344.8z
			 M350.7,348v-1c0-0.3-0.1-0.6-0.3-0.8c-0.2-0.2-0.5-0.3-0.8-0.3c-0.4,0-0.7,0.1-0.9,0.4c-0.2,0.3-0.3,0.7-0.3,1.2
			c0,0.5,0.1,0.9,0.3,1.2c0.2,0.3,0.5,0.4,0.9,0.4c0.3,0,0.6-0.1,0.8-0.3C350.6,348.6,350.7,348.3,350.7,348z M350.8,350.1v-0.5h0
			c0,0-0.1,0.1-0.1,0.2c-0.1,0.1-0.2,0.2-0.5,0.3c-0.2,0.1-0.5,0.2-0.8,0.2c-0.7,0-1.2-0.2-1.7-0.7c-0.4-0.5-0.6-1.2-0.6-2
			c0-0.8,0.2-1.5,0.7-2c0.4-0.5,1-0.8,1.6-0.8c0.3,0,0.5,0.1,0.7,0.2c0.2,0.1,0.4,0.2,0.5,0.3l0.1,0.2h0v-2.5h1.3v7.2H350.8z"/>
		<path class="st7" d="M261.4,350.1v-6.9h1.4l2,4.5h0l2-4.5h1.4v6.9h-1.3v-4.2h0l-2,4.2h-0.2l-2-4.2h0v4.2H261.4z M269.6,350.1v-5.2
			h1.3v5.2H269.6z M269.6,344.1v-1.2h1.3v1.2H269.6z M275.5,348v-1c0-0.3-0.1-0.6-0.3-0.8c-0.2-0.2-0.5-0.3-0.8-0.3
			c-0.4,0-0.7,0.1-0.9,0.4c-0.2,0.3-0.3,0.7-0.3,1.2c0,0.5,0.1,0.9,0.3,1.2c0.2,0.3,0.5,0.4,0.9,0.4c0.3,0,0.6-0.1,0.8-0.3
			C275.4,348.6,275.5,348.3,275.5,348z M275.6,350.1v-0.5h0c0,0-0.1,0.1-0.1,0.2c-0.1,0.1-0.2,0.2-0.5,0.3c-0.2,0.1-0.5,0.2-0.8,0.2
			c-0.7,0-1.2-0.2-1.7-0.7c-0.4-0.5-0.6-1.2-0.6-2c0-0.8,0.2-1.5,0.7-2c0.4-0.5,1-0.8,1.6-0.8c0.3,0,0.5,0.1,0.7,0.2
			c0.2,0.1,0.4,0.2,0.5,0.3l0.1,0.2h0v-2.5h1.3v7.2H275.6z M280.7,350.1v-6.9h1.4l2,4.5h0l2-4.5h1.4v6.9h-1.3v-4.2h0l-2,4.2H284
			l-2-4.2h0v4.2H280.7z M292,350.1v-0.5h0c0,0,0,0,0,0.1c0,0-0.1,0.1-0.1,0.1c-0.1,0.1-0.2,0.1-0.3,0.2c-0.1,0.1-0.2,0.1-0.4,0.2
			c-0.2,0-0.4,0.1-0.6,0.1c-0.6,0-1.1-0.1-1.4-0.4c-0.3-0.3-0.5-0.7-0.5-1.1c0-0.5,0.1-0.8,0.4-1c0.3-0.2,0.7-0.4,1.4-0.6
			c0.6-0.1,1-0.3,1.1-0.3c0.2-0.1,0.2-0.2,0.2-0.4s-0.1-0.3-0.2-0.4c-0.1-0.1-0.4-0.2-0.7-0.2c-0.3,0-0.6,0.1-0.7,0.2
			c-0.2,0.2-0.3,0.4-0.4,0.6l-1.1-0.4c0.1-0.4,0.4-0.8,0.7-1.1c0.4-0.3,0.8-0.4,1.4-0.4c0.6,0,1.2,0.2,1.6,0.5
			c0.4,0.3,0.6,0.9,0.6,1.6v3.3H292z M290.7,348c-0.3,0.1-0.5,0.2-0.6,0.3c-0.1,0.1-0.1,0.2-0.1,0.4c0,0.4,0.3,0.5,0.8,0.5
			c0.4,0,0.7-0.1,0.9-0.2c0.2-0.2,0.3-0.3,0.3-0.6v-0.9h0c0,0.1-0.1,0.1-0.1,0.1c0,0-0.1,0.1-0.3,0.1
			C291.2,347.8,291,347.9,290.7,348z M294.3,350.1v-5.2h1.3v5.2H294.3z M294.3,344.1v-1.2h1.3v1.2H294.3z M297,350.1v-7.2h1.3v7.2
			H297z"/>
		<path class="st7" d="M204.3,296.1v-6.9h2.9c0.6,0,1.1,0.2,1.5,0.5c0.4,0.4,0.6,0.8,0.6,1.3c0,0.6-0.2,1-0.7,1.3v0
			c0.3,0.1,0.5,0.3,0.7,0.6c0.2,0.3,0.3,0.6,0.3,1c0,0.7-0.2,1.2-0.6,1.6c-0.4,0.4-1.1,0.6-2,0.6H204.3z M205.6,294.9h1.6
			c0.6,0,0.9-0.3,0.9-0.9c0-0.3-0.1-0.5-0.3-0.7c-0.2-0.2-0.4-0.2-0.7-0.2h-1.6V294.9z M205.6,292h1.4c0.3,0,0.5-0.1,0.6-0.2
			c0.2-0.1,0.2-0.3,0.2-0.6c0-0.3-0.1-0.5-0.2-0.6c-0.2-0.1-0.4-0.2-0.6-0.2h-1.4V292z M213.1,296.1v-6.9h1.3v2.8h2.4v-2.8h1.3v6.9
			h-1.3v-3h-2.4v3H213.1z M223,294.3l0.9,0.8c-0.5,0.8-1.3,1.2-2.2,1.2c-0.7,0-1.3-0.2-1.8-0.7c-0.5-0.5-0.7-1.2-0.7-2
			s0.2-1.5,0.7-2c0.5-0.5,1-0.8,1.7-0.8c0.7,0,1.3,0.3,1.7,0.8c0.5,0.5,0.7,1.2,0.7,2v0.4h-3.5c0,0.4,0.1,0.7,0.3,0.9
			c0.2,0.2,0.5,0.3,0.8,0.3c0.3,0,0.5-0.1,0.7-0.2C222.7,294.8,222.9,294.6,223,294.3z M220.6,292.9h2.3c0-0.3-0.1-0.6-0.3-0.8
			c-0.2-0.2-0.5-0.3-0.8-0.3c-0.3,0-0.6,0.1-0.8,0.3C220.7,292.4,220.6,292.6,220.6,292.9z M228.1,296.1v-0.5h0c0,0,0,0-0.1,0.1
			c0,0-0.1,0.1-0.1,0.1c-0.1,0.1-0.2,0.1-0.3,0.2c-0.1,0.1-0.2,0.1-0.4,0.2c-0.2,0-0.4,0.1-0.6,0.1c-0.6,0-1.1-0.1-1.4-0.4
			c-0.3-0.3-0.5-0.7-0.5-1.1c0-0.5,0.1-0.8,0.4-1c0.3-0.2,0.7-0.4,1.4-0.6c0.6-0.1,1-0.3,1.1-0.3c0.2-0.1,0.2-0.2,0.2-0.4
			s-0.1-0.3-0.2-0.4c-0.1-0.1-0.4-0.2-0.7-0.2c-0.3,0-0.6,0.1-0.8,0.2c-0.2,0.2-0.3,0.4-0.4,0.6l-1.1-0.4c0.1-0.4,0.4-0.8,0.7-1.1
			c0.4-0.3,0.8-0.4,1.4-0.4c0.6,0,1.2,0.2,1.6,0.5c0.4,0.3,0.6,0.9,0.6,1.6v3.3H228.1z M226.8,294c-0.3,0.1-0.5,0.2-0.7,0.3
			c-0.1,0.1-0.1,0.2-0.1,0.4c0,0.4,0.3,0.5,0.8,0.5c0.4,0,0.7-0.1,0.9-0.2c0.2-0.2,0.3-0.3,0.3-0.6v-0.9h0c0,0.1-0.1,0.1-0.1,0.1
			c0,0-0.1,0.1-0.3,0.1C227.4,293.8,227.1,293.9,226.8,294z M231.7,296.1l-2.1-5.2h1.3l1.3,3.4h0l1.3-3.4h1.3l-2.1,5.2H231.7z
			 M238.8,294.3l0.9,0.8c-0.5,0.8-1.3,1.2-2.2,1.2c-0.7,0-1.3-0.2-1.8-0.7c-0.5-0.5-0.7-1.2-0.7-2s0.2-1.5,0.7-2
			c0.5-0.5,1-0.8,1.7-0.8c0.7,0,1.3,0.3,1.7,0.8c0.5,0.5,0.7,1.2,0.7,2v0.4h-3.5c0,0.4,0.1,0.7,0.3,0.9c0.2,0.2,0.5,0.3,0.8,0.3
			c0.3,0,0.5-0.1,0.7-0.2C238.5,294.8,238.7,294.6,238.8,294.3z M236.4,292.9h2.3c0-0.3-0.1-0.6-0.3-0.8c-0.2-0.2-0.5-0.3-0.8-0.3
			c-0.3,0-0.6,0.1-0.8,0.3C236.5,292.4,236.4,292.6,236.4,292.9z M240.9,296.1v-5.2h1.2v0.5h0c0.1-0.2,0.3-0.3,0.6-0.5
			c0.2-0.1,0.5-0.2,0.8-0.2c0.6,0,1,0.2,1.4,0.5c0.3,0.3,0.5,0.8,0.5,1.4v3.4h-1.3V293c0-0.4-0.1-0.6-0.2-0.8
			c-0.1-0.2-0.4-0.3-0.7-0.3c-0.3,0-0.6,0.1-0.7,0.3c-0.2,0.2-0.3,0.4-0.3,0.7v3.2H240.9z"/>
		<path class="st7" d="M259,224.1v-6.9h2.9c0.6,0,1.1,0.2,1.5,0.5c0.4,0.4,0.6,0.8,0.6,1.3c0,0.6-0.2,1-0.7,1.3v0
			c0.3,0.1,0.5,0.3,0.7,0.6c0.2,0.3,0.3,0.6,0.3,1c0,0.7-0.2,1.2-0.6,1.6c-0.4,0.4-1.1,0.6-2,0.6H259z M260.3,222.9h1.6
			c0.6,0,0.9-0.3,0.9-0.9c0-0.3-0.1-0.5-0.3-0.7c-0.2-0.2-0.4-0.2-0.7-0.2h-1.6V222.9z M260.3,220h1.4c0.3,0,0.5-0.1,0.6-0.2
			c0.2-0.1,0.2-0.3,0.2-0.6c0-0.3-0.1-0.5-0.2-0.6c-0.2-0.1-0.4-0.2-0.6-0.2h-1.4V220z M267.4,221.8l1.4-0.3
			c0.1,0.5,0.2,0.9,0.4,1.2c0.2,0.2,0.5,0.4,1,0.4c0.4,0,0.7-0.1,0.9-0.2c0.2-0.1,0.3-0.3,0.3-0.6c0-0.3-0.1-0.5-0.3-0.6
			c-0.2-0.2-0.7-0.3-1.5-0.6c-0.7-0.2-1.2-0.5-1.5-0.8c-0.3-0.3-0.4-0.7-0.4-1.2c0-0.5,0.2-1,0.6-1.4c0.4-0.4,1-0.6,1.7-0.6
			c0.7,0,1.2,0.2,1.7,0.5c0.5,0.3,0.8,0.8,0.9,1.4l-1.3,0.3c-0.2-0.7-0.6-1-1.3-1c-0.3,0-0.6,0.1-0.8,0.2c-0.2,0.1-0.2,0.3-0.2,0.5
			c0,0.2,0.1,0.4,0.3,0.5c0.2,0.1,0.7,0.3,1.5,0.6c0.8,0.3,1.3,0.5,1.6,0.9c0.3,0.3,0.4,0.7,0.4,1.2c0,0.6-0.2,1.1-0.7,1.5
			c-0.5,0.4-1.1,0.6-1.8,0.6c-0.8,0-1.4-0.2-1.9-0.6C267.8,223.2,267.5,222.6,267.4,221.8z M273.9,222.3V220h-0.8v-1.1h0.8v-1.3h1.2
			v1.3h1.3v1.1h-1.3v2.2c0,0.3,0,0.5,0.1,0.6s0.3,0.2,0.6,0.2h0.4v1.2h-0.5c-0.7,0-1.2-0.1-1.4-0.4
			C274,223.4,273.9,222.9,273.9,222.3z M280.3,224.1v-0.5h0c0,0,0,0,0,0.1c0,0-0.1,0.1-0.1,0.1c-0.1,0.1-0.2,0.1-0.3,0.2
			c-0.1,0.1-0.2,0.1-0.4,0.2c-0.2,0-0.4,0.1-0.6,0.1c-0.6,0-1.1-0.1-1.4-0.4c-0.3-0.3-0.5-0.7-0.5-1.1c0-0.5,0.1-0.8,0.4-1
			c0.3-0.2,0.7-0.4,1.4-0.6c0.6-0.1,1-0.3,1.1-0.3c0.2-0.1,0.2-0.2,0.2-0.4c0-0.2-0.1-0.3-0.2-0.4c-0.1-0.1-0.4-0.2-0.7-0.2
			c-0.3,0-0.6,0.1-0.7,0.2c-0.2,0.2-0.3,0.4-0.4,0.6l-1.1-0.4c0.1-0.4,0.4-0.8,0.7-1.1c0.4-0.3,0.8-0.4,1.4-0.4
			c0.6,0,1.2,0.2,1.6,0.5c0.4,0.3,0.6,0.9,0.6,1.6v3.3H280.3z M279,222c-0.3,0.1-0.5,0.2-0.7,0.3c-0.1,0.1-0.1,0.2-0.1,0.4
			c0,0.4,0.3,0.5,0.8,0.5c0.4,0,0.7-0.1,0.9-0.2c0.2-0.2,0.3-0.3,0.3-0.6v-0.9h0c0,0.1-0.1,0.1-0.1,0.1c0,0-0.1,0.1-0.3,0.1
			C279.6,221.8,279.4,221.9,279,222z M282.7,224.1v-5.2h1.3v5.2H282.7z M282.7,218.1v-1.2h1.3v1.2H282.7z M285.3,224.1v-5.2h1.2v0.6
			h0c0.1-0.2,0.2-0.4,0.4-0.5c0.2-0.1,0.4-0.2,0.6-0.2c0.2,0,0.3,0,0.5,0.1l-0.2,1.2c-0.1-0.1-0.3-0.1-0.4-0.1
			c-0.6,0-0.9,0.4-0.9,1.2v2.9H285.3z M288.6,222.4l1.2-0.3c0.1,0.7,0.5,1.1,1.2,1.1c0.3,0,0.6,0,0.7-0.1c0.2-0.1,0.3-0.2,0.3-0.4
			c0-0.2-0.1-0.3-0.2-0.3c-0.1-0.1-0.4-0.2-0.9-0.3c-0.1,0-0.2-0.1-0.3-0.1c-0.6-0.2-1-0.4-1.3-0.6c-0.3-0.2-0.4-0.5-0.4-0.9
			c0-0.4,0.2-0.8,0.5-1.1c0.4-0.3,0.8-0.5,1.4-0.5c1.2,0,1.9,0.5,2.2,1.5l-1.1,0.3c-0.1-0.2-0.2-0.4-0.4-0.6
			c-0.2-0.1-0.4-0.2-0.7-0.2c-0.2,0-0.4,0-0.6,0.1c-0.1,0.1-0.2,0.2-0.2,0.3c0,0.1,0.1,0.3,0.3,0.3c0.2,0.1,0.6,0.2,1.3,0.4
			c0.6,0.2,1,0.4,1.2,0.6c0.2,0.2,0.3,0.6,0.3,1c0,0.4-0.2,0.8-0.6,1.1c-0.4,0.3-0.9,0.5-1.6,0.5c-0.7,0-1.3-0.2-1.7-0.5
			C288.9,223.4,288.7,222.9,288.6,222.4z"/>
		<path class="st7" d="M120,151.1v-6.9h2.9c0.6,0,1.1,0.2,1.5,0.5c0.4,0.4,0.6,0.8,0.6,1.3c0,0.6-0.2,1-0.7,1.3v0
			c0.3,0.1,0.5,0.3,0.7,0.6c0.2,0.3,0.3,0.6,0.3,1c0,0.7-0.2,1.2-0.6,1.6c-0.4,0.4-1.1,0.6-2,0.6H120z M121.3,149.9h1.6
			c0.6,0,0.9-0.3,0.9-0.9c0-0.3-0.1-0.5-0.3-0.7c-0.2-0.2-0.4-0.2-0.7-0.2h-1.6V149.9z M121.3,147h1.4c0.3,0,0.5-0.1,0.6-0.2
			c0.2-0.1,0.2-0.3,0.2-0.6c0-0.3-0.1-0.5-0.2-0.6c-0.2-0.1-0.4-0.2-0.6-0.2h-1.4V147z M132.8,151.1l-0.4-1.1h-2.6l-0.4,1.1h-1.3
			l2.5-6.9h1.1l2.5,6.9H132.8z M131.1,146.2l-0.9,2.7h1.9L131.1,146.2L131.1,146.2z M134.9,151.1v-7.2h1.3v7.2H134.9z M137.6,151.1
			v-7.2h1.3v7.2H137.6z M143.8,149.3l0.9,0.8c-0.5,0.8-1.3,1.2-2.2,1.2c-0.7,0-1.3-0.2-1.8-0.7c-0.5-0.5-0.7-1.2-0.7-2
			s0.2-1.5,0.7-2c0.5-0.5,1-0.8,1.7-0.8c0.7,0,1.3,0.3,1.7,0.8c0.5,0.5,0.7,1.2,0.7,2v0.4h-3.5c0,0.4,0.1,0.7,0.3,0.9
			c0.2,0.2,0.5,0.3,0.8,0.3c0.3,0,0.5-0.1,0.7-0.2C143.4,149.8,143.6,149.6,143.8,149.3z M141.3,147.9h2.3c0-0.3-0.1-0.6-0.3-0.8
			c-0.2-0.2-0.5-0.3-0.8-0.3c-0.3,0-0.6,0.1-0.8,0.3C141.5,147.4,141.3,147.6,141.3,147.9z M146.1,153.3l1-2.5l-2.1-5h1.3l1.4,3.5h0
			l1.4-3.5h1.3l-3,7.4H146.1z"/>
		<path class="st7" d="M17.8,187.1v-6.9h2.9c0.6,0,1.1,0.2,1.5,0.5c0.4,0.4,0.6,0.8,0.6,1.3c0,0.6-0.2,1-0.7,1.3v0
			c0.3,0.1,0.5,0.3,0.7,0.6c0.2,0.3,0.3,0.6,0.3,1c0,0.7-0.2,1.2-0.6,1.6c-0.4,0.4-1.1,0.6-2,0.6H17.8z M19.1,185.9h1.6
			c0.6,0,0.9-0.3,0.9-0.9c0-0.3-0.1-0.5-0.3-0.7c-0.2-0.2-0.4-0.2-0.7-0.2h-1.6V185.9z M19.1,183h1.4c0.3,0,0.5-0.1,0.6-0.2
			c0.2-0.1,0.2-0.3,0.2-0.6c0-0.3-0.1-0.5-0.2-0.6c-0.2-0.1-0.4-0.2-0.6-0.2h-1.4V183z M27,187.1v-0.5h0c0,0,0,0,0,0.1
			c0,0-0.1,0.1-0.1,0.1c-0.1,0.1-0.2,0.1-0.3,0.2s-0.2,0.1-0.4,0.2c-0.2,0-0.4,0.1-0.6,0.1c-0.6,0-1.1-0.1-1.4-0.4
			c-0.3-0.3-0.5-0.7-0.5-1.1c0-0.5,0.1-0.8,0.4-1c0.3-0.2,0.7-0.4,1.4-0.6c0.6-0.1,1-0.3,1.1-0.3c0.2-0.1,0.2-0.2,0.2-0.4
			c0-0.2-0.1-0.3-0.2-0.4c-0.1-0.1-0.4-0.2-0.7-0.2c-0.3,0-0.6,0.1-0.7,0.2c-0.2,0.2-0.3,0.4-0.4,0.6l-1.1-0.4
			c0.1-0.4,0.4-0.8,0.7-1.1c0.4-0.3,0.8-0.4,1.4-0.4c0.6,0,1.2,0.2,1.6,0.5c0.4,0.3,0.6,0.9,0.6,1.6v3.3H27z M25.8,185
			c-0.3,0.1-0.5,0.2-0.7,0.3c-0.1,0.1-0.1,0.2-0.1,0.4c0,0.4,0.3,0.5,0.8,0.5c0.4,0,0.7-0.1,0.9-0.2c0.2-0.2,0.3-0.3,0.3-0.6v-0.9h0
			c0,0.1-0.1,0.1-0.1,0.1c0,0-0.1,0.1-0.3,0.1C26.3,184.8,26.1,184.9,25.8,185z M32.5,185l1.2,0.3c-0.1,0.6-0.4,1.1-0.8,1.4
			c-0.4,0.3-0.9,0.5-1.5,0.5c-0.7,0-1.3-0.2-1.8-0.7c-0.5-0.5-0.7-1.2-0.7-2c0-0.9,0.2-1.5,0.7-2c0.5-0.5,1.1-0.7,1.7-0.7
			c0.6,0,1.1,0.2,1.5,0.5c0.4,0.3,0.6,0.8,0.7,1.4l-1.2,0.2c-0.1-0.6-0.5-1-1-1c-0.4,0-0.7,0.1-0.9,0.4c-0.2,0.3-0.3,0.7-0.3,1.2
			s0.1,0.9,0.3,1.2c0.2,0.3,0.5,0.4,0.9,0.4C32.1,186.1,32.4,185.7,32.5,185z M34.7,187.1v-7.2H36v4.1h0l1.9-2.2h1.6l-1.9,2.1
			l2.1,3.1h-1.4l-1.6-2.4h0l-0.7,0.7v1.6H34.7z M43,187.1v-6.9h2.9c0.6,0,1.1,0.2,1.5,0.5c0.4,0.4,0.6,0.8,0.6,1.3
			c0,0.6-0.2,1-0.7,1.3v0c0.3,0.1,0.5,0.3,0.7,0.6c0.2,0.3,0.3,0.6,0.3,1c0,0.7-0.2,1.2-0.6,1.6c-0.4,0.4-1.1,0.6-2,0.6H43z
			 M44.3,185.9h1.6c0.6,0,0.9-0.3,0.9-0.9c0-0.3-0.1-0.5-0.3-0.7c-0.2-0.2-0.4-0.2-0.7-0.2h-1.6V185.9z M44.3,183h1.4
			c0.3,0,0.5-0.1,0.6-0.2c0.2-0.1,0.2-0.3,0.2-0.6c0-0.3-0.1-0.5-0.2-0.6c-0.2-0.1-0.4-0.2-0.6-0.2h-1.4V183z"/>
		<path class="st7" d="M152.6,252.1v-6.9h2.9c0.6,0,1.1,0.2,1.5,0.5c0.4,0.4,0.6,0.8,0.6,1.3c0,0.6-0.2,1-0.7,1.3v0
			c0.3,0.1,0.5,0.3,0.7,0.6c0.2,0.3,0.3,0.6,0.3,1c0,0.7-0.2,1.2-0.6,1.6c-0.4,0.4-1.1,0.6-2,0.6H152.6z M153.9,250.9h1.6
			c0.6,0,0.9-0.3,0.9-0.9c0-0.3-0.1-0.5-0.3-0.7c-0.2-0.2-0.4-0.2-0.7-0.2h-1.6V250.9z M153.9,248h1.4c0.3,0,0.5-0.1,0.6-0.2
			c0.2-0.1,0.2-0.3,0.2-0.6c0-0.3-0.1-0.5-0.2-0.6c-0.2-0.1-0.4-0.2-0.6-0.2h-1.4V248z M161.4,252.1v-6.9h2.8c0.7,0,1.3,0.2,1.7,0.6
			c0.4,0.4,0.7,0.9,0.7,1.6c0,0.5-0.1,0.9-0.4,1.3c-0.3,0.3-0.6,0.6-1.1,0.7l1.5,2.7h-1.4l-1.4-2.6h-1v2.6H161.4z M162.8,248.4h1.4
			c0.8,0,1.1-0.3,1.1-1c0-0.7-0.4-1-1.1-1h-1.4V248.4z M170.6,252.1v-0.5h0c0,0,0,0,0,0.1c0,0-0.1,0.1-0.1,0.1
			c-0.1,0.1-0.2,0.1-0.3,0.2c-0.1,0.1-0.2,0.1-0.4,0.2c-0.2,0-0.4,0.1-0.6,0.1c-0.6,0-1.1-0.1-1.4-0.4c-0.3-0.3-0.5-0.7-0.5-1.1
			c0-0.5,0.1-0.8,0.4-1c0.3-0.2,0.7-0.4,1.4-0.6c0.6-0.1,1-0.3,1.1-0.3c0.2-0.1,0.2-0.2,0.2-0.4c0-0.2-0.1-0.3-0.2-0.4
			c-0.1-0.1-0.4-0.2-0.7-0.2c-0.3,0-0.6,0.1-0.8,0.2c-0.2,0.2-0.3,0.4-0.4,0.6l-1.1-0.4c0.1-0.4,0.4-0.8,0.7-1.1
			c0.4-0.3,0.8-0.4,1.4-0.4c0.6,0,1.2,0.2,1.6,0.5c0.4,0.3,0.6,0.9,0.6,1.6v3.3H170.6z M169.3,250c-0.3,0.1-0.5,0.2-0.7,0.3
			c-0.1,0.1-0.1,0.2-0.1,0.4c0,0.4,0.3,0.5,0.8,0.5c0.4,0,0.7-0.1,0.9-0.2c0.2-0.2,0.3-0.3,0.3-0.6v-0.9h0c0,0.1-0.1,0.1-0.1,0.1
			c0,0-0.1,0.1-0.3,0.1C169.8,249.8,169.6,249.9,169.3,250z M173.2,252.1V248h-0.8v-1.1h0.8v-0.7c0-0.4,0.1-0.8,0.3-0.9
			c0.2-0.2,0.6-0.3,1-0.3h1v1.1h-0.8c-0.2,0-0.3,0-0.3,0.1c-0.1,0.1-0.1,0.2-0.1,0.3v0.4h1.3v1.1h-1.3v4.1H173.2z M176.7,250.3V248
			h-0.8v-1.1h0.8v-1.3h1.2v1.3h1.3v1.1H178v2.2c0,0.3,0,0.5,0.1,0.6c0.1,0.1,0.3,0.2,0.6,0.2h0.4v1.2h-0.5c-0.7,0-1.2-0.1-1.4-0.4
			C176.9,251.4,176.7,250.9,176.7,250.3z M183.7,250.3l0.9,0.8c-0.5,0.8-1.3,1.2-2.2,1.2c-0.7,0-1.3-0.2-1.8-0.7
			c-0.5-0.5-0.7-1.2-0.7-2s0.2-1.5,0.7-2c0.5-0.5,1-0.8,1.7-0.8c0.7,0,1.3,0.3,1.7,0.8c0.5,0.5,0.7,1.2,0.7,2v0.4h-3.5
			c0,0.4,0.1,0.7,0.3,0.9c0.2,0.2,0.5,0.3,0.8,0.3c0.3,0,0.5-0.1,0.7-0.2C183.3,250.8,183.5,250.6,183.7,250.3z M181.2,248.9h2.3
			c0-0.3-0.1-0.6-0.3-0.8c-0.2-0.2-0.5-0.3-0.8-0.3c-0.3,0-0.6,0.1-0.8,0.3C181.4,248.4,181.3,248.6,181.2,248.9z M185.8,252.1v-5.2
			h1.2v0.6h0c0.1-0.2,0.2-0.4,0.4-0.5c0.2-0.1,0.4-0.2,0.6-0.2c0.2,0,0.3,0,0.5,0.1l-0.2,1.2c-0.1-0.1-0.3-0.1-0.4-0.1
			c-0.6,0-0.9,0.4-0.9,1.2v2.9H185.8z M189,250.4l1.2-0.3c0.1,0.7,0.5,1.1,1.2,1.1c0.3,0,0.6,0,0.8-0.1c0.2-0.1,0.3-0.2,0.3-0.4
			c0-0.2-0.1-0.3-0.2-0.3c-0.1-0.1-0.4-0.2-0.9-0.3c-0.1,0-0.2-0.1-0.3-0.1c-0.6-0.2-1-0.4-1.3-0.6c-0.3-0.2-0.4-0.5-0.4-0.9
			c0-0.4,0.2-0.8,0.5-1.1c0.4-0.3,0.8-0.5,1.4-0.5c1.2,0,1.9,0.5,2.2,1.5l-1.1,0.3c-0.1-0.2-0.2-0.4-0.4-0.6
			c-0.2-0.1-0.4-0.2-0.7-0.2c-0.2,0-0.5,0-0.6,0.1c-0.1,0.1-0.2,0.2-0.2,0.3c0,0.1,0.1,0.3,0.3,0.3c0.2,0.1,0.6,0.2,1.3,0.4
			c0.6,0.2,1,0.4,1.2,0.6c0.2,0.2,0.3,0.6,0.3,1c0,0.4-0.2,0.8-0.6,1.1c-0.4,0.3-0.9,0.5-1.6,0.5c-0.7,0-1.3-0.2-1.7-0.5
			C189.3,251.4,189.1,250.9,189,250.4z"/>
		<path class="st7" d="M61.1,401.1v-6.9H64c0.6,0,1.1,0.2,1.5,0.5c0.4,0.4,0.6,0.8,0.6,1.3c0,0.6-0.2,1-0.7,1.3v0
			c0.3,0.1,0.5,0.3,0.7,0.6c0.2,0.3,0.3,0.6,0.3,1c0,0.7-0.2,1.2-0.6,1.6c-0.4,0.4-1.1,0.6-2,0.6H61.1z M62.4,399.9H64
			c0.6,0,0.9-0.3,0.9-0.9c0-0.3-0.1-0.5-0.3-0.7c-0.2-0.2-0.4-0.2-0.7-0.2h-1.6V399.9z M62.4,397h1.4c0.3,0,0.5-0.1,0.6-0.2
			c0.2-0.1,0.2-0.3,0.2-0.6c0-0.3-0.1-0.5-0.2-0.6c-0.2-0.1-0.4-0.2-0.6-0.2h-1.4V397z M69.9,401.1v-6.9h1.4l2,4.5h0l2-4.5h1.4v6.9
			h-1.3v-4.2h0l-2,4.2h-0.2l-2-4.2h0v4.2H69.9z M81.2,401.1v-0.5h0c0,0,0,0,0,0.1c0,0-0.1,0.1-0.1,0.1c-0.1,0.1-0.2,0.1-0.3,0.2
			c-0.1,0.1-0.2,0.1-0.4,0.2c-0.2,0-0.4,0.1-0.6,0.1c-0.6,0-1.1-0.1-1.4-0.4c-0.3-0.3-0.5-0.7-0.5-1.1c0-0.5,0.1-0.8,0.4-1
			c0.3-0.2,0.7-0.4,1.4-0.6c0.6-0.1,1-0.3,1.1-0.3c0.2-0.1,0.2-0.2,0.2-0.4s-0.1-0.3-0.2-0.4c-0.1-0.1-0.4-0.2-0.7-0.2
			c-0.3,0-0.6,0.1-0.7,0.2c-0.2,0.2-0.3,0.4-0.4,0.6l-1.1-0.4c0.1-0.4,0.4-0.8,0.7-1.1c0.4-0.3,0.8-0.4,1.4-0.4
			c0.6,0,1.2,0.2,1.6,0.5s0.6,0.9,0.6,1.6v3.3H81.2z M79.9,399c-0.3,0.1-0.5,0.2-0.7,0.3c-0.1,0.1-0.1,0.2-0.1,0.4
			c0,0.4,0.3,0.5,0.8,0.5c0.4,0,0.7-0.1,0.9-0.2c0.2-0.2,0.3-0.3,0.3-0.6v-0.9h0c0,0.1-0.1,0.1-0.1,0.1c0,0-0.1,0.1-0.3,0.1
			C80.4,398.8,80.2,398.9,79.9,399z M83.5,401.1v-5.2h1.3v5.2H83.5z M83.5,395.1v-1.2h1.3v1.2H83.5z M86.2,401.1v-5.2h1.2v0.5h0
			c0.1-0.2,0.3-0.3,0.6-0.5s0.5-0.2,0.8-0.2c0.6,0,1,0.2,1.4,0.5c0.3,0.3,0.5,0.8,0.5,1.4v3.4h-1.3V398c0-0.4-0.1-0.6-0.2-0.8
			c-0.1-0.2-0.4-0.3-0.7-0.3c-0.3,0-0.6,0.1-0.7,0.3c-0.2,0.2-0.3,0.4-0.3,0.7v3.2H86.2z"/>
		<path class="st8" d="M311.7,84.5h1.2c0.3,0,0.6,0,0.8-0.1c0.2-0.1,0.5-0.2,0.7-0.4c0.2-0.2,0.4-0.5,0.5-0.9
			c0.1-0.4,0.2-0.9,0.2-1.5c0-1-0.2-1.8-0.6-2.2c-0.4-0.5-0.9-0.7-1.5-0.7h-1.3V84.5z M309.9,86.1V77h3c0.5,0,1,0.1,1.5,0.3
			c0.5,0.2,0.9,0.5,1.2,0.8c0.4,0.4,0.7,0.8,0.9,1.4c0.2,0.6,0.3,1.3,0.3,2c0,0.8-0.1,1.6-0.3,2.2c-0.2,0.6-0.5,1.1-0.9,1.4
			c-0.4,0.3-0.8,0.6-1.3,0.7c-0.5,0.2-0.9,0.2-1.5,0.2H309.9z M322.7,83.7l1.2,1c-0.7,1-1.7,1.5-2.8,1.5c-1,0-1.7-0.3-2.4-1
			c-0.6-0.7-0.9-1.6-0.9-2.7s0.3-2,0.9-2.6c0.6-0.7,1.4-1,2.3-1c0.9,0,1.7,0.3,2.3,1c0.6,0.7,0.9,1.5,0.9,2.6v0.5h-4.6
			c0,0.5,0.2,0.9,0.4,1.2c0.3,0.3,0.6,0.4,1.1,0.4c0.4,0,0.7-0.1,1-0.3C322.3,84.3,322.5,84.1,322.7,83.7z M319.5,81.9h3
			c0-0.4-0.2-0.8-0.5-1c-0.3-0.3-0.6-0.4-1.1-0.4c-0.4,0-0.8,0.1-1,0.4C319.7,81.2,319.6,81.5,319.5,81.9z M325.9,86.1v-5.5h-1.1
			v-1.4h1.1v-1c0-0.6,0.2-1,0.5-1.2c0.3-0.3,0.8-0.4,1.4-0.4h1.4v1.5h-1c-0.2,0-0.4,0-0.4,0.1c-0.1,0.1-0.1,0.2-0.1,0.4v0.6h1.7v1.4
			h-1.7v5.5H325.9z M334.6,83.7l1.2,1c-0.7,1-1.7,1.5-2.8,1.5c-1,0-1.7-0.3-2.4-1c-0.6-0.7-0.9-1.6-0.9-2.7s0.3-2,0.9-2.6
			c0.6-0.7,1.4-1,2.3-1c0.9,0,1.7,0.3,2.3,1c0.6,0.7,0.9,1.5,0.9,2.6v0.5h-4.6c0,0.5,0.2,0.9,0.4,1.2c0.3,0.3,0.6,0.4,1.1,0.4
			c0.4,0,0.7-0.1,1-0.3C334.2,84.3,334.4,84.1,334.6,83.7z M331.4,81.9h3c0-0.4-0.2-0.8-0.5-1c-0.3-0.3-0.6-0.4-1.1-0.4
			c-0.4,0-0.8,0.1-1,0.4C331.6,81.2,331.5,81.5,331.4,81.9z M337.4,86.1v-6.9h1.6v0.7h0c0.2-0.2,0.5-0.4,0.8-0.6
			c0.3-0.2,0.7-0.2,1-0.2c0.8,0,1.4,0.2,1.8,0.7c0.4,0.5,0.6,1.1,0.6,1.9v4.5h-1.7V82c0-0.5-0.1-0.8-0.3-1.1
			c-0.2-0.2-0.5-0.4-0.9-0.4c-0.4,0-0.7,0.1-1,0.4c-0.2,0.2-0.4,0.6-0.4,0.9v4.2H337.4z M349.4,83.3V82c0-0.4-0.1-0.8-0.4-1.1
			c-0.3-0.3-0.6-0.4-1.1-0.4c-0.5,0-0.9,0.2-1.2,0.5c-0.3,0.4-0.4,0.9-0.4,1.6c0,0.7,0.1,1.2,0.4,1.6c0.3,0.4,0.7,0.5,1.2,0.5
			c0.5,0,0.8-0.1,1.1-0.4C349.2,84.1,349.4,83.7,349.4,83.3z M349.5,86.1v-0.7h0c0,0.1-0.1,0.1-0.2,0.2c-0.1,0.1-0.3,0.2-0.6,0.4
			c-0.3,0.2-0.7,0.2-1,0.2c-0.9,0-1.6-0.3-2.2-1c-0.5-0.7-0.8-1.5-0.8-2.7c0-1.1,0.3-2,0.9-2.7c0.6-0.7,1.3-1,2.1-1
			c0.4,0,0.7,0.1,1,0.2c0.3,0.1,0.5,0.3,0.6,0.4l0.2,0.2h0v-3.3h1.7v9.5H349.5z M357.3,83.7l1.2,1c-0.7,1-1.7,1.5-2.8,1.5
			c-1,0-1.7-0.3-2.4-1c-0.6-0.7-0.9-1.6-0.9-2.7s0.3-2,0.9-2.6c0.6-0.7,1.4-1,2.3-1c0.9,0,1.7,0.3,2.3,1c0.6,0.7,0.9,1.5,0.9,2.6
			v0.5h-4.6c0,0.5,0.2,0.9,0.4,1.2c0.3,0.3,0.6,0.4,1.1,0.4c0.4,0,0.7-0.1,1-0.3C356.9,84.3,357.1,84.1,357.3,83.7z M354.1,81.9h3
			c0-0.4-0.2-0.8-0.5-1c-0.3-0.3-0.6-0.4-1.1-0.4c-0.4,0-0.8,0.1-1,0.4C354.3,81.2,354.2,81.5,354.1,81.9z M360.1,86.1v-6.9h1.6V80
			h0c0.1-0.3,0.3-0.5,0.6-0.6c0.3-0.2,0.5-0.2,0.8-0.2c0.2,0,0.4,0,0.6,0.1l-0.3,1.6c-0.2-0.1-0.4-0.1-0.5-0.1
			c-0.8,0-1.2,0.5-1.2,1.6v3.8H360.1z M364.4,83.8l1.5-0.4c0.1,1,0.6,1.4,1.5,1.4c0.4,0,0.7-0.1,1-0.2c0.3-0.1,0.4-0.3,0.4-0.6
			c0-0.2-0.1-0.3-0.3-0.4c-0.2-0.1-0.6-0.2-1.2-0.4c-0.2,0-0.3-0.1-0.4-0.1c-0.8-0.2-1.4-0.5-1.8-0.8c-0.4-0.3-0.6-0.7-0.6-1.2
			c0-0.6,0.2-1.1,0.7-1.5c0.5-0.4,1.1-0.6,1.9-0.6c1.5,0,2.5,0.7,2.9,2l-1.4,0.4c-0.1-0.3-0.3-0.6-0.5-0.8c-0.2-0.2-0.5-0.3-1-0.3
			c-0.3,0-0.6,0.1-0.8,0.2c-0.2,0.1-0.3,0.3-0.3,0.4c0,0.2,0.1,0.3,0.3,0.5c0.2,0.1,0.8,0.3,1.7,0.5c0.8,0.2,1.4,0.5,1.6,0.8
			c0.3,0.3,0.4,0.8,0.4,1.3c0,0.6-0.2,1.1-0.7,1.5c-0.5,0.4-1.2,0.7-2.1,0.7c-1,0-1.7-0.2-2.2-0.7C364.8,85.1,364.5,84.5,364.4,83.8
			z"/>
		<path class="st9" d="M611.8,208.2c0-2.3,1.8-4.1,4.1-4.1h20.8c2.3,0,4.1-1.8,4.1-4.1v-24.8c0-2.3,1.8-4.1,4.1-4.1h48.8
			c2.3,0,4.1,1.8,4.1,4.1v17.4c0,0.8-0.7,1.5-1.5,1.5c-0.8,0-1.5,0.7-1.5,1.5v87c0,0.8,0.7,1.5,1.5,1.5c0.8,0,1.5,0.7,1.5,1.5V301
			c0,2.3-1.8,4.1-4.1,4.1h-19.3c-1,0-2.1-0.4-2.8-1.1L640,274.2c-0.8-0.7-1.8-1.1-2.8-1.1h-21.3c-2.3,0-4.1-1.8-4.1-4.1V208.2z"/>
		<g class="st10">
			<defs>
				<filter id="Adobe_OpacityMaskFilter" filterUnits="userSpaceOnUse" x="541.9" y="122.7" width="235" height="234.8">
					<feColorMatrix  type="matrix" values="1 0 0 0 0  0 1 0 0 0  0 0 1 0 0  0 0 0 1 0"/>
				</filter>
			</defs>
			<mask maskUnits="userSpaceOnUse" x="541.9" y="122.7" width="235" height="234.8" id="mask0_2_">
				<path class="st11" d="M611.8,208.2c0-2.3,1.8-4.1,4.1-4.1h20.8c2.3,0,4.1-1.8,4.1-4.1v-24.8c0-2.3,1.8-4.1,4.1-4.1h48.8
					c2.3,0,4.1,1.8,4.1,4.1v17.4c0,0.8-0.7,1.5-1.5,1.5c-0.8,0-1.5,0.7-1.5,1.5v87c0,0.8,0.7,1.5,1.5,1.5c0.8,0,1.5,0.7,1.5,1.5V301
					c0,2.3-1.8,4.1-4.1,4.1h-19.3c-1,0-2.1-0.4-2.8-1.1L640,274.2c-0.8-0.7-1.8-1.1-2.8-1.1h-21.3c-2.3,0-4.1-1.8-4.1-4.1V208.2z"/>
			</mask>
			<g class="st12">
				
					<rect x="620.9" y="290.3" transform="matrix(0.7074 -0.7068 0.7068 0.7074 1.6866 588.4079)" class="st13" width="181.3" height="3.7"/>
				
					<rect x="615.7" y="285.1" transform="matrix(0.7074 -0.7068 0.7068 0.7074 3.8407 583.2053)" class="st13" width="181.3" height="3.7"/>
				
					<rect x="610.4" y="279.9" transform="matrix(0.7074 -0.7068 0.7068 0.7074 5.9951 578.0013)" class="st13" width="181.3" height="3.7"/>
				
					<rect x="605.2" y="274.7" transform="matrix(0.7074 -0.7068 0.7068 0.7074 8.1488 572.7976)" class="st13" width="181.3" height="3.7"/>
				
					<rect x="600" y="269.5" transform="matrix(0.7074 -0.7068 0.7068 0.7074 10.3035 567.5944)" class="st13" width="181.3" height="3.7"/>
				
					<rect x="594.8" y="264.3" transform="matrix(0.7074 -0.7068 0.7068 0.7074 12.4579 562.3904)" class="st13" width="181.3" height="3.7"/>
				
					<rect x="589.6" y="259.1" transform="matrix(0.7074 -0.7068 0.7068 0.7074 14.6116 557.1866)" class="st13" width="181.3" height="3.7"/>
				
					<rect x="584.4" y="253.9" transform="matrix(0.7074 -0.7068 0.7068 0.7074 16.7663 551.9834)" class="st13" width="181.3" height="3.7"/>
				
					<rect x="579.2" y="248.7" transform="matrix(0.7074 -0.7068 0.7068 0.7074 18.92 546.7797)" class="st13" width="181.3" height="3.7"/>
				
					<rect x="574" y="243.5" transform="matrix(0.7074 -0.7068 0.7068 0.7074 21.0744 541.5757)" class="st13" width="181.3" height="3.7"/>
				
					<rect x="568.8" y="238.3" transform="matrix(0.7074 -0.7068 0.7068 0.7074 23.229 536.3724)" class="st13" width="181.3" height="3.7"/>
				
					<rect x="563.6" y="233.1" transform="matrix(0.7074 -0.7068 0.7068 0.7074 25.3827 531.1688)" class="st13" width="181.3" height="3.7"/>
				
					<rect x="558.4" y="227.9" transform="matrix(0.7074 -0.7068 0.7068 0.7074 27.5371 525.9647)" class="st13" width="181.3" height="3.7"/>
				
					<rect x="553.2" y="222.7" transform="matrix(0.7074 -0.7068 0.7068 0.7074 29.6916 520.761)" class="st13" width="181.3" height="3.7"/>
				
					<rect x="548" y="217.5" transform="matrix(0.7074 -0.7068 0.7068 0.7074 31.846 515.5571)" class="st13" width="181.3" height="3.7"/>
				
					<rect x="542.7" y="212.3" transform="matrix(0.7074 -0.7068 0.7068 0.7074 33.9999 510.3537)" class="st13" width="181.3" height="3.7"/>
				
					<rect x="537.5" y="207.1" transform="matrix(0.7074 -0.7068 0.7068 0.7074 36.1546 505.1505)" class="st13" width="181.3" height="3.7"/>
				
					<rect x="532.3" y="201.9" transform="matrix(0.7074 -0.7068 0.7068 0.7074 38.3083 499.9467)" class="st13" width="181.3" height="3.7"/>
				
					<rect x="527.1" y="196.7" transform="matrix(0.7074 -0.7068 0.7068 0.7074 40.463 494.7435)" class="st13" width="181.3" height="3.7"/>
				
					<rect x="521.9" y="191.5" transform="matrix(0.7074 -0.7068 0.7068 0.7074 42.6174 489.5395)" class="st13" width="181.3" height="3.7"/>
				
					<rect x="516.7" y="186.3" transform="matrix(0.7074 -0.7068 0.7068 0.7074 44.7707 484.3351)" class="st13" width="181.3" height="3.7"/>
			</g>
		</g>
		<path class="st9" d="M83.9,204.1h77.8c2.3,0,4.1,1.8,4.1,4.1V248c0,2.3-1.8,4.1-4.1,4.1H83.9c-2.3,0-4.1-1.8-4.1-4.1v-39.8
			C79.8,206,81.6,204.1,83.9,204.1z"/>
		<g class="st10">
			<defs>
				<filter id="Adobe_OpacityMaskFilter_1_" filterUnits="userSpaceOnUse" x="7.9" y="130.9" width="235" height="234.8">
					<feColorMatrix  type="matrix" values="1 0 0 0 0  0 1 0 0 0  0 0 1 0 0  0 0 0 1 0"/>
				</filter>
			</defs>
			<mask maskUnits="userSpaceOnUse" x="7.9" y="130.9" width="235" height="234.8" id="mask1_2_">
				<path class="st14" d="M83.9,204.1h77.8c2.3,0,4.1,1.8,4.1,4.1V248c0,2.3-1.8,4.1-4.1,4.1H83.9c-2.3,0-4.1-1.8-4.1-4.1v-39.8
					C79.8,206,81.6,204.1,83.9,204.1z"/>
			</mask>
			<g class="st15">
				
					<rect x="86.8" y="298.5" transform="matrix(0.7074 -0.7068 0.7068 0.7074 -160.3419 213.3295)" class="st13" width="181.3" height="3.7"/>
				
					<rect x="81.6" y="293.3" transform="matrix(0.7074 -0.7068 0.7068 0.7074 -158.1872 208.1262)" class="st13" width="181.3" height="3.7"/>
				
					<rect x="76.4" y="288.1" transform="matrix(0.7074 -0.7068 0.7068 0.7074 -156.0328 202.9222)" class="st13" width="181.3" height="3.7"/>
				
					<rect x="71.2" y="282.9" transform="matrix(0.7074 -0.7068 0.7068 0.7074 -153.879 197.7188)" class="st13" width="181.3" height="3.7"/>
				
					<rect x="66" y="277.7" transform="matrix(0.7074 -0.7068 0.7068 0.7074 -151.7245 192.5151)" class="st13" width="181.3" height="3.7"/>
				
					<rect x="60.8" y="272.5" transform="matrix(0.7074 -0.7068 0.7068 0.7074 -149.5699 187.3116)" class="st13" width="181.3" height="3.7"/>
				
					<rect x="55.6" y="267.3" transform="matrix(0.7074 -0.7068 0.7068 0.7074 -147.4163 182.1078)" class="st13" width="181.3" height="3.7"/>
				
					<rect x="50.4" y="262.1" transform="matrix(0.7074 -0.7068 0.7068 0.7074 -145.2616 176.9044)" class="st13" width="181.3" height="3.7"/>
				
					<rect x="45.2" y="256.9" transform="matrix(0.7074 -0.7068 0.7068 0.7074 -143.1079 171.7009)" class="st13" width="181.3" height="3.7"/>
				
					<rect x="40" y="251.6" transform="matrix(0.7074 -0.7068 0.7068 0.7074 -140.9534 166.4971)" class="st13" width="181.3" height="3.7"/>
				
					<rect x="34.8" y="246.4" transform="matrix(0.7074 -0.7068 0.7068 0.7074 -138.7989 161.2933)" class="st13" width="181.3" height="3.7"/>
				
					<rect x="29.6" y="241.2" transform="matrix(0.7074 -0.7068 0.7068 0.7074 -136.6451 156.0898)" class="st13" width="181.3" height="3.7"/>
				
					<rect x="24.3" y="236" transform="matrix(0.7074 -0.7068 0.7068 0.7074 -134.4907 150.8859)" class="st13" width="181.3" height="3.7"/>
				
					<rect x="19.1" y="230.8" transform="matrix(0.7074 -0.7068 0.7068 0.7074 -132.3362 145.6822)" class="st13" width="181.3" height="3.7"/>
				
					<rect x="13.9" y="225.6" transform="matrix(0.7074 -0.7068 0.7068 0.7074 -130.1816 140.4787)" class="st13" width="181.3" height="3.7"/>
				
					<rect x="8.7" y="220.4" transform="matrix(0.7074 -0.7068 0.7068 0.7074 -128.028 135.2749)" class="st13" width="181.3" height="3.7"/>
				
					<rect x="3.5" y="215.2" transform="matrix(0.7074 -0.7068 0.7068 0.7074 -125.8733 130.0715)" class="st13" width="181.3" height="3.7"/>
				
					<rect x="-1.7" y="210" transform="matrix(0.7074 -0.7068 0.7068 0.7074 -123.7197 124.8676)" class="st13" width="181.3" height="3.7"/>
				
					<rect x="-6.9" y="204.8" transform="matrix(0.7074 -0.7068 0.7068 0.7074 -121.5649 119.6646)" class="st13" width="181.3" height="3.7"/>
				
					<rect x="-12.1" y="199.6" transform="matrix(0.7074 -0.7068 0.7068 0.7074 -119.4105 114.4606)" class="st13" width="181.3" height="3.7"/>
				
					<rect x="-17.3" y="194.4" transform="matrix(0.7074 -0.7068 0.7068 0.7074 -117.257 109.2566)" class="st13" width="181.3" height="3.7"/>
			</g>
		</g>
		<path class="st16" d="M121.3,233.1v-11.5h4.9c1,0,1.8,0.3,2.4,0.9c0.6,0.6,0.9,1.3,0.9,2.2c0,1-0.4,1.7-1.2,2.2v0
			c0.5,0.2,0.9,0.5,1.2,1c0.3,0.4,0.5,1,0.5,1.6c0,1.1-0.3,2-1,2.6c-0.7,0.6-1.8,1-3.3,1H121.3z M123.5,231.1h2.7
			c1.1,0,1.6-0.5,1.6-1.5c0-0.5-0.1-0.8-0.4-1.1c-0.3-0.3-0.7-0.4-1.1-0.4h-2.7V231.1z M123.5,226.3h2.4c0.4,0,0.8-0.1,1.1-0.3
			c0.3-0.2,0.4-0.5,0.4-1c0-0.4-0.1-0.8-0.4-1c-0.3-0.2-0.6-0.3-1.1-0.3h-2.4V226.3z"/>
		<path class="st16" d="M660.1,243.1l-0.7-1.9H655l-0.7,1.9h-2.2l4.2-11.5h1.9l4.1,11.5H660.1z M657.2,234.9l-1.6,4.5h3.1
			L657.2,234.9L657.2,234.9z"/>
	</g>
</g>
</svg>
